<?xml version="1.0" standalone="no"?>
<!DOCTYPE svg PUBLIC "-//W3C//DTD SVG 1.1//EN" "http://www.w3.org/Graphics/SVG/1.1/DTD/svg11.dtd" >
<svg xmlns="http://www.w3.org/2000/svg" xmlns:xlink="http://www.w3.org/1999/xlink" version="1.1">
<metadata></metadata>
<defs>
<font id="concourse_c2bold" horiz-adv-x="790" >
<font-face units-per-em="1000" ascent="742" descent="-258" />
<missing-glyph horiz-adv-x="280" />
<glyph unicode="fi" horiz-adv-x="800" d="M433 505v-112h-223v-94h188v-108h-188v-191h-130v505h353zM710 505v-505h-130v505h130z" />
<glyph unicode="fl" horiz-adv-x="950" d="M433 505v-112h-223v-94h188v-108h-188v-191h-130v505h353zM700 505v-393h197v-112h-327v505h130z" />
<glyph unicode="&#x3c;&#x2d;" horiz-adv-x="700" d="M69 272l237 264l91 -76l-128 -138h354v-117h-351l125 -135l-91 -77l-237 266v13z" />
<glyph unicode="&#x2d;&#x3e;" horiz-adv-x="700" d="M394 536l237 -264v-13l-237 -266l-91 77l125 135h-351v117h354l-128 138z" />
<glyph unicode="&#x28;&#x2193;&#x29;" horiz-adv-x="880" d="M447 -13l264 237l-76 91l-138 -127v353h-117v-352l-135 126l-77 -91l266 -237h13zM438 646c212 0 383 -171 383 -380c0 -212 -171 -384 -383 -384c-209 0 -380 172 -380 384c0 209 171 380 380 380z" />
<glyph unicode="&#x28;&#x3c;&#x2d;&#x29;" horiz-adv-x="880" d="M400 536l-237 -264v-13l237 -266l91 77l-126 135h352v117h-353l127 138zM822 263c0 -209 -171 -380 -380 -380c-212 0 -384 171 -384 380c0 212 172 383 384 383c209 0 380 -171 380 -383z" />
<glyph unicode="&#x28;&#x2191;&#x29;" horiz-adv-x="880" d="M711 304l-264 237h-13l-266 -237l77 -91l135 126v-352h117v353l138 -127zM438 -118c-209 0 -380 171 -380 380c0 212 171 384 380 384c212 0 383 -172 383 -384c0 -209 -171 -380 -383 -380z" />
<glyph unicode="&#x28;&#x2d;&#x3e;&#x29;" horiz-adv-x="880" d="M717 272l-237 264l-91 -76l127 -138h-353v-117h352l-126 -135l91 -77l237 266v13zM58 263c0 212 171 383 380 383c212 0 384 -171 384 -383c0 -209 -172 -380 -384 -380c-209 0 -380 171 -380 380z" />
<glyph unicode=" "  horiz-adv-x="280" />
<glyph unicode="&#x09;" horiz-adv-x="280" />
<glyph unicode="&#xa0;" horiz-adv-x="280" />
<glyph unicode="A" horiz-adv-x="730" d="M541 0l-52 133h-248l-52 -133h-145l279 680h80l283 -680h-145zM361 458l-77 -209h161l-77 209h-7z" />
<glyph unicode="B" horiz-adv-x="630" d="M429 359v-5c94 -15 140 -89 140 -158c0 -124 -95 -196 -257 -196h-206v680h202c160 0 226 -77 226 -175c0 -51 -24 -128 -105 -146zM330 292h-89v-172h92c55 0 96 32 96 89c0 60 -50 83 -99 83zM394 483c0 53 -39 77 -83 77h-70v-157h72c46 0 81 29 81 80z" />
<glyph unicode="C" horiz-adv-x="720" d="M617 507h-6c-39 32 -109 61 -188 61c-125 0 -211 -84 -211 -240c0 -134 103 -216 214 -216c77 0 137 21 189 62h6l40 -111c-53 -46 -157 -78 -237 -78c-211 0 -353 153 -353 339c0 223 157 371 353 371c94 0 170 -29 228 -65z" />
<glyph unicode="D" horiz-adv-x="740" d="M241 124h71c123 0 217 84 217 212c0 155 -114 220 -208 220h-80v-432zM316 0h-210v680h204c208 0 359 -122 359 -346c0 -199 -158 -334 -353 -334z" />
<glyph unicode="E" horiz-adv-x="600" d="M508 680v-124h-267v-147h240v-124h-240v-161h278v-124h-413v680h402z" />
<glyph horiz-adv-x="640" d="M542 154h4l36 -111c-45 -38 -118 -58 -181 -58c-177 0 -330 128 -330 344c0 231 172 366 322 366c78 0 127 -13 188 -48l-41 -118h-4c-26 22 -80 40 -135 39c-72 -1 -156 -43 -182 -159h254v-124h-257c18 -116 104 -173 192 -173c56 0 95 16 134 42z" />
<glyph unicode="F" horiz-adv-x="570" d="M498 680v-124h-257v-147h230v-124h-230v-285h-135v680h392z" />
<glyph unicode="G" horiz-adv-x="770" d="M422 568c-107 0 -210 -70 -210 -240c0 -136 103 -216 213 -216c56 0 96 13 120 34v115h-153v124h287v-307c-66 -54 -148 -93 -259 -93c-202 0 -349 152 -349 339c0 232 163 371 353 371c95 0 171 -35 224 -66l-34 -123h-9c-42 35 -102 62 -183 62z" />
<glyph d="M689 543l-109 -71c-46 60 -97 96 -175 96c-86 0 -193 -71 -193 -235c0 -136 88 -221 200 -221c97 0 158 50 156 149h-174v124h318c19 -264 -101 -400 -305 -400c-157 0 -336 117 -336 344c0 215 158 366 342 366c104 0 203 -36 276 -152z" />
<glyph unicode="H" horiz-adv-x="770" d="M664 680v-680h-135v285h-288v-285h-135v680h135v-271h288v271h135z" />
<glyph unicode="I" horiz-adv-x="350" d="M243 680v-680h-135v680h135z" />
<glyph unicode="J" horiz-adv-x="500" d="M56 8l25 116c16 -12 44 -22 77 -22c46 0 101 34 101 106v472h135v-484c0 -164 -120 -216 -221 -216c-55 0 -91 10 -117 28z" />
<glyph unicode="K" horiz-adv-x="670" d="M245 279h-4v-279h-135v680h135v-264h4l209 264h166v-5l-263 -321l283 -350v-4h-175z" />
<glyph unicode="L" horiz-adv-x="560" d="M241 680v-556h264v-124h-399v680h135z" />
<glyph unicode="M" horiz-adv-x="940" d="M672 384h-5l-164 -386h-65l-165 386h-5l-51 -384h-142l114 687h89l191 -472h6l188 472h89l113 -687h-143z" />
<glyph horiz-adv-x="870" d="M630 413h-6l-186 -287h-6l-185 287h-6v-413h-135v680h105l222 -342h6l220 342h105v-680h-134v413z" />
<glyph horiz-adv-x="890" d="M650 364h-9l-189 -372h-14l-191 372h-6v-364h-135v680h108l231 -442h4l227 442h108v-680h-134v364z" />
<glyph unicode="N" horiz-adv-x="830" d="M193 680l391 -432h6v432h134v-680h-84l-394 437h-5v-437h-135v680h87z" />
<glyph unicode="O" horiz-adv-x="830" d="M759 335c0 -207 -155 -350 -343 -350c-185 0 -345 133 -345 350c0 215 168 360 345 360c182 0 343 -142 343 -360zM619 337c0 141 -89 231 -204 231c-112 0 -203 -90 -203 -231c0 -150 104 -225 204 -225c121 0 203 92 203 225z" />
<glyph unicode="P" horiz-adv-x="580" d="M534 464c0 -132 -98 -223 -236 -223h-57v-241h-135v680h183c151 0 245 -78 245 -216zM393 462c0 65 -45 98 -101 98h-51v-197h51c49 0 101 26 101 99z" />
<glyph unicode="Q" horiz-adv-x="830" d="M162 -14l47 87c-95 76 -138 171 -138 276c0 180 144 346 343 346c194 0 345 -151 345 -346c0 -182 -147 -329 -333 -335h-21l-2 -4c62 -32 116 -74 261 -74l-33 -121c-253 0 -290 154 -469 171zM619 351c0 108 -78 217 -205 217c-117 0 -202 -94 -202 -217 c0 -125 84 -215 203 -215c114 0 204 82 204 215z" />
<glyph horiz-adv-x="830" d="M759 335c0 -107 -41 -196 -107 -258l103 -117h-142l-50 57c-45 -20 -95 -32 -147 -32c-185 0 -345 133 -345 350c0 215 168 360 345 360c182 0 343 -142 343 -360zM619 337c0 141 -89 231 -204 231c-112 0 -203 -90 -203 -231c0 -150 104 -225 204 -225c20 0 39 2 57 7 l-128 148h142l78 -90c34 40 54 95 54 160z" />
<glyph horiz-adv-x="830" d="M759 335c0 -181 -119 -313 -274 -343v-148h-131v146c-158 26 -283 152 -283 345c0 215 168 360 345 360c182 0 343 -142 343 -360zM619 337c0 141 -89 231 -204 231c-112 0 -203 -90 -203 -231c0 -119 65 -190 142 -215v139h131v-138c82 28 134 108 134 214z" />
<glyph unicode="R" horiz-adv-x="650" d="M610 8v-8h-151l-197 261h-21v-261h-135v680h193c171 0 248 -103 248 -210c0 -96 -49 -163 -146 -191zM407 466c0 58 -41 94 -95 94h-71v-185h70c63 0 96 39 96 91z" />
<glyph horiz-adv-x="670" d="M408 347v-5c119 -60 179 -258 224 -331v-11h-141c-32 59 -124 296 -245 296h-5v-296h-135v680h195c148 0 221 -89 221 -188c0 -72 -46 -130 -114 -145zM382 482c0 53 -38 76 -75 76h-66v-152h66c37 0 75 24 75 76z" />
<glyph unicode="S" horiz-adv-x="590" d="M66 52l48 119c44 -34 103 -61 166 -61s93 37 93 69c0 48 -31 73 -124 125c-125 70 -169 118 -169 213c0 82 72 178 218 178c84 0 162 -37 204 -68l-38 -112c-51 32 -101 55 -159 55c-40 0 -84 -15 -84 -55s34 -64 140 -126c110 -65 156 -130 156 -208 c0 -141 -121 -196 -234 -196c-78 0 -175 30 -217 67z" />
<glyph unicode="T" horiz-adv-x="630" d="M576 556h-194v-556h-134v556h-194v124h522v-124z" />
<glyph unicode="U" horiz-adv-x="770" d="M664 680v-429c0 -138 -90 -266 -279 -266c-234 0 -279 145 -279 252v443h135v-417c0 -82 40 -150 144 -150c78 0 145 40 145 155v412h134z" />
<glyph unicode="V" horiz-adv-x="710" d="M202 680l151 -412h5l150 412h145l-263 -680h-70l-263 680h145z" />
<glyph unicode="W" horiz-adv-x="970" d="M486 387h-4l-111 -387h-93l-221 680h145l126 -419h4l109 419h86l110 -419h4l127 419h145l-222 -680h-93z" />
<glyph horiz-adv-x="970" d="M432 680l53 -154l53 154h131l-117 -275l55 -165h7l154 440h145l-253 -680h-85l-90 264l-90 -264h-85l-253 680h145l154 -440h7l55 165l-117 275h131z" />
<glyph unicode="X" horiz-adv-x="700" d="M493 0l-143 231l-143 -231h-150l215 345l-208 335h150l136 -220l136 220h150l-209 -335l216 -345h-150z" />
<glyph unicode="Y" horiz-adv-x="670" d="M192 680l142 -258h2l142 258h150l-225 -390v-290h-135v290l-226 390h150z" />
<glyph unicode="Z" horiz-adv-x="690" d="M401 550l-3 4h-299v126h530l3 -4l-338 -545l3 -5h317v-126h-543l-4 7z" />
<glyph unicode="a" horiz-adv-x="570" d="M409 0l-34 89h-181l-33 -89h-138l219 505h84l221 -505h-138zM281 329l-52 -145h111l-53 145h-6z" />
<glyph unicode="b" horiz-adv-x="520" d="M372 269v-4c61 -11 102 -63 102 -123c0 -87 -73 -142 -193 -142h-201v505h194c133 0 179 -67 179 -132c0 -46 -20 -83 -81 -104zM272 208h-65v-104h69c37 0 59 22 59 52c0 32 -26 52 -63 52zM319 351c0 30 -25 50 -53 50h-59v-100h55c34 0 57 22 57 50z" />
<glyph unicode="c" horiz-adv-x="570" d="M473 148h5l38 -97c-52 -40 -121 -61 -195 -61c-161 0 -266 117 -266 257c0 170 134 268 273 268c81 0 148 -29 188 -63l-39 -100h-4c-31 27 -83 50 -144 49c-71 -1 -140 -50 -140 -152c0 -92 61 -145 144 -145c56 0 96 14 140 44z" />
<glyph unicode="d" horiz-adv-x="580" d="M210 112h59c71 0 123 52 123 142c0 87 -68 139 -124 139h-58v-281zM260 0h-180v505h179c149 0 266 -101 266 -253c0 -161 -111 -252 -265 -252z" />
<glyph unicode="e" horiz-adv-x="520" d="M438 505v-112h-228v-84h198v-108h-198v-89h235v-112h-365v505h358z" />
<glyph horiz-adv-x="520" d="M445 133h5l36 -99c-46 -32 -103 -44 -165 -44c-155 0 -266 117 -266 257c0 167 134 268 268 268c67 0 125 -23 153 -43l-30 -103h-5c-29 19 -68 35 -115 34c-59 -1 -117 -32 -139 -97h211v-104h-212c20 -63 81 -100 147 -100c45 0 86 14 112 31z" />
<glyph unicode="f" horiz-adv-x="490" d="M433 505v-112h-223v-94h188v-108h-188v-191h-130v505h353z" />
<glyph unicode="g" horiz-adv-x="610" d="M486 346h-5c-39 31 -86 56 -155 55c-70 -1 -137 -47 -137 -152c0 -83 58 -145 139 -145c36 0 69 10 92 27v63h-111v102h221v-230c-46 -44 -126 -76 -204 -76c-148 0 -271 103 -271 257c0 170 134 268 273 268c83 0 157 -35 193 -63z" />
<glyph horiz-adv-x="610" d="M304 293h243c20 -183 -52 -303 -236 -303c-147 0 -256 114 -256 254c0 170 134 271 257 271c97 0 173 -37 218 -114l-99 -66c-27 41 -62 66 -116 66c-61 0 -126 -46 -126 -155c0 -89 58 -142 127 -142c71 0 111 30 110 87h-122v102z" />
<glyph unicode="h" horiz-adv-x="610" d="M530 505v-505h-130v198h-190v-198h-130v505h130v-195h190v195h130z" />
<glyph unicode="i" horiz-adv-x="310" d="M220 505v-505h-130v505h130z" />
<glyph unicode="j" horiz-adv-x="450" d="M62 133h3c17 -16 48 -29 83 -29c55 0 92 33 92 108v293h130v-319c0 -128 -89 -196 -212 -196c-49 0 -98 15 -128 36z" />
<glyph unicode="k" horiz-adv-x="560" d="M213 190h-3v-190h-130v505h130v-204h3l166 204h147v-5l-208 -246l225 -249v-5h-159z" />
<glyph unicode="l" horiz-adv-x="460" d="M210 505v-393h197v-112h-327v505h130z" />
<glyph unicode="m" horiz-adv-x="740" d="M511 252h-7l-114 -252h-40l-114 252h-7l-38 -252h-128l90 510h65l153 -307h5l146 307h65l90 -510h-128z" />
<glyph horiz-adv-x="700" d="M493 264h-6l-132 -177h-10l-132 177h-6v-264h-127v505h94l178 -249h2l175 249h91v-505h-127v264z" />
<glyph horiz-adv-x="720" d="M514 252h-4l-139 -254h-22l-140 254h-3v-252h-126v505h107l174 -309h2l170 309h107v-505h-126v252z" />
<glyph unicode="n" horiz-adv-x="650" d="M163 505l272 -286h5v286h130v-505h-83l-272 287h-5v-287h-130v505h83z" />
<glyph unicode="o" horiz-adv-x="650" d="M595 250c0 -142 -106 -260 -269 -260c-158 0 -271 114 -271 260c0 161 130 265 271 265c138 0 269 -101 269 -265zM462 252c0 89 -63 149 -137 149c-69 0 -136 -54 -136 -149c0 -77 47 -148 139 -148c74 0 134 55 134 148z" />
<glyph unicode="p" horiz-adv-x="510" d="M462 330c0 -68 -49 -157 -200 -157h-52v-173h-130v505h186c115 0 196 -66 196 -175zM323 333c0 36 -27 65 -71 65h-42v-125h45c40 0 68 21 68 60z" />
<glyph unicode="q" horiz-adv-x="650" d="M595 250c0 -127 -96 -243 -246 -254l-4 -6c44 -36 111 -50 183 -46l-32 -111c-184 0 -204 108 -393 146l40 77c-56 46 -88 115 -88 194c0 161 130 265 271 265c138 0 269 -101 269 -265zM462 252c0 89 -63 149 -137 149c-69 0 -136 -50 -136 -149c0 -77 47 -148 139 -148 c74 0 134 55 134 148z" />
<glyph horiz-adv-x="650" d="M595 250c0 -79 -33 -151 -90 -199l82 -101v-6h-118l-45 62c-30 -10 -63 -16 -98 -16c-158 0 -271 114 -271 260c0 161 130 265 271 265c138 0 269 -101 269 -265zM462 252c0 89 -63 149 -137 149c-69 0 -136 -54 -136 -149c0 -77 47 -148 139 -148c6 0 13 0 19 1l-81 100 v5h120l43 -60c20 25 33 59 33 102z" />
<glyph horiz-adv-x="650" d="M595 250c0 -125 -81 -230 -211 -254v-97h-109v95c-131 21 -220 126 -220 256c0 161 130 265 271 265c138 0 269 -101 269 -265zM384 212v-97c46 21 78 69 78 137c0 89 -63 149 -137 149c-69 0 -136 -54 -136 -149c0 -61 29 -118 86 -139v99h109z" />
<glyph unicode="r" horiz-adv-x="560" d="M361 208v-4l154 -199v-5h-154l-138 195h-13v-195h-130v505h201c112 0 191 -65 191 -165c0 -63 -40 -112 -111 -132zM333 340c0 37 -28 58 -66 58h-57v-115h60c36 0 63 20 63 57z" />
<glyph horiz-adv-x="540" d="M361 240v-6c67 -45 123 -165 154 -229v-5h-140c-16 47 -97 200 -152 200h-13v-200h-130v505h196c103 0 176 -58 176 -148c0 -62 -38 -102 -91 -117zM313 345c0 34 -22 53 -51 53h-52v-105h55c27 0 48 18 48 52z" />
<glyph unicode="s" horiz-adv-x="520" d="M58 48l36 105c44 -28 103 -53 161 -53c47 0 66 21 66 41c0 30 -33 42 -98 72c-102 48 -145 85 -145 157s61 145 186 145c70 0 132 -19 178 -48l-30 -104c-51 27 -100 42 -147 42c-38 0 -55 -16 -55 -35c0 -21 21 -33 99 -69c110 -51 147 -97 147 -166 c0 -95 -86 -145 -207 -145c-87 0 -161 30 -191 58z" />
<glyph unicode="t" horiz-adv-x="550" d="M492 393h-152v-393h-130v393h-152v112h434v-112z" />
<glyph unicode="u" horiz-adv-x="630" d="M550 505v-288c0 -117 -75 -227 -235 -227c-185 0 -235 111 -235 222v293h130v-276c0 -85 43 -119 105 -119c59 0 106 34 105 119v276h130z" />
<glyph unicode="v" horiz-adv-x="550" d="M169 505l105 -277h4l103 277h141l-215 -505h-64l-215 505h141z" />
<glyph unicode="w" d="M399 283h-4l-87 -283h-85l-190 505h141l92 -292h5l81 292h86l88 -292h5l85 292h141l-190 -505h-85z" />
<glyph horiz-adv-x="780" d="M356 505l34 -100l34 100h118l-84 -200l38 -87h5l105 287h141l-210 -505h-64l-83 214l-83 -214h-64l-210 505h141l107 -287h5l36 84l-84 203h118z" />
<glyph unicode="x" horiz-adv-x="550" d="M28 0l170 256l-164 249h151l91 -152l92 152h148l-164 -247l170 -258h-151l-97 160l-98 -160h-148z" />
<glyph unicode="y" horiz-adv-x="530" d="M161 505l104 -184h4l100 184h143l-182 -307v-198h-130v198l-182 307h143z" />
<glyph unicode="z" horiz-adv-x="560" d="M263 118l4 -4h233v-114h-438l-6 10l235 375l-4 6h-210v114h422l5 -5z" />
<glyph unicode="," horiz-adv-x="340" d="M54 -156v8l83 261h143v-7l-143 -262h-83z" />
<glyph unicode="." horiz-adv-x="360" d="M103 70c0 43 34 77 77 77s77 -34 77 -77s-34 -77 -77 -77s-77 34 -77 77z" />
<glyph unicode=";" horiz-adv-x="380" d="M57 -156v8l83 261h143v-7l-143 -262h-83zM122 355c0 43 34 77 77 77s77 -34 77 -77s-34 -77 -77 -77s-77 34 -77 77z" />
<glyph unicode=":" horiz-adv-x="360" d="M111 70c0 43 34 77 77 77s77 -34 77 -77s-34 -77 -77 -77s-77 34 -77 77zM111 355c0 43 34 77 77 77s77 -34 77 -77s-34 -77 -77 -77s-77 34 -77 77z" />
<glyph unicode="&#x2026;" horiz-adv-x="1000" d="M103 70c0 43 34 77 77 77s77 -34 77 -77s-34 -77 -77 -77s-77 34 -77 77zM423 70c0 43 34 77 77 77s77 -34 77 -77s-34 -77 -77 -77s-77 34 -77 77zM743 70c0 43 34 77 77 77s77 -34 77 -77s-34 -77 -77 -77s-77 34 -77 77z" />
<glyph unicode="!" horiz-adv-x="400" d="M274 680l-15 -235l-13 -230h-88l-13 229l-18 236h147zM123 70c0 43 34 77 77 77s77 -34 77 -77s-34 -77 -77 -77s-77 34 -77 77z" />
<glyph unicode="&#xa1;" horiz-adv-x="400" d="M126 -167l15 235l13 230h88l13 -229l18 -236h-147zM277 443c0 -43 -34 -77 -77 -77s-77 34 -77 77s34 77 77 77s77 -34 77 -77z" />
<glyph horiz-adv-x="400" d="M126 0l15 235l13 230h88l13 -229l18 -236h-147zM277 610c0 -43 -34 -77 -77 -77s-77 34 -77 77s34 77 77 77s77 -34 77 -77z" />
<glyph unicode="?" horiz-adv-x="540" d="M103 563h-9l9 109c22 9 69 23 128 23c146 0 229 -77 229 -185c0 -132 -123 -194 -222 -210v-89h-110v170c96 7 195 34 195 126c0 50 -40 81 -104 81c-41 0 -80 -9 -116 -25zM107 70c0 43 34 77 77 77s77 -34 77 -77s-34 -77 -77 -77s-77 34 -77 77z" />
<glyph unicode="&#xbf;" horiz-adv-x="540" d="M437 15h9l-9 -109c-22 -9 -69 -23 -128 -23c-146 0 -229 77 -229 185c0 132 123 194 222 210v89h110v-170c-96 -7 -195 -34 -195 -126c0 -50 40 -81 104 -81c41 0 80 9 116 25zM433 508c0 -43 -34 -77 -77 -77s-77 34 -77 77s34 77 77 77s77 -34 77 -77z" />
<glyph horiz-adv-x="540" d="M437 125h9l-9 -109c-22 -9 -69 -23 -128 -23c-146 0 -229 77 -229 185c0 132 123 194 222 210v89h110v-170c-96 -7 -195 -34 -195 -126c0 -50 40 -81 104 -81c41 0 80 9 116 25zM433 618c0 -43 -34 -77 -77 -77s-77 34 -77 77s34 77 77 77s77 -34 77 -77z" />
<glyph unicode="-" horiz-adv-x="430" d="M90 298h250v-117h-250v117z" />
<glyph unicode="&#x2013;" horiz-adv-x="570" d="M90 298h390v-117h-390v117z" />
<glyph unicode="&#x2014;" horiz-adv-x="1090" d="M137 288h816v-96h-816v96z" />
<glyph horiz-adv-x="430" d="M90 358h250v-117h-250v117z" />
<glyph horiz-adv-x="570" d="M90 358h390v-117h-390v117z" />
<glyph horiz-adv-x="1090" d="M137 348h816v-96h-816v96z" />
<glyph unicode="&#x2018;" horiz-adv-x="300" d="M255 680v-8l-63 -248h-138v7l118 249h83z" />
<glyph unicode="&#x2019;" horiz-adv-x="300" d="M45 424v8l63 248h138v-7l-118 -249h-83z" />
<glyph unicode="&#x201c;" horiz-adv-x="490" d="M255 680v-8l-63 -248h-138v7l118 249h83zM445 680v-8l-63 -248h-138v7l118 249h83z" />
<glyph unicode="&#x201d;" horiz-adv-x="490" d="M45 424v8l63 248h138v-7l-118 -249h-83zM235 424v8l63 248h138v-7l-118 -249h-83z" />
<glyph unicode="&#x201a;" horiz-adv-x="300" d="M45 -141v8l63 248h138v-7l-118 -249h-83z" />
<glyph unicode="&#x201e;" horiz-adv-x="490" d="M45 -141v8l63 248h138v-7l-118 -249h-83zM235 -141v8l63 248h138v-7l-118 -249h-83z" />
<glyph unicode="&#x2039;" horiz-adv-x="430" d="M84 233l203 226l58 -45l-127 -184l124 -184l-60 -50l-198 228v9z" />
<glyph unicode="&#x203a;" horiz-adv-x="430" d="M143 459l203 -226v-9l-198 -228l-60 50l124 184l-127 184z" />
<glyph unicode="&#xab;" horiz-adv-x="640" d="M84 233l203 226l58 -45l-127 -184l124 -184l-60 -50l-198 228v9zM294 233l203 226l58 -45l-127 -184l124 -184l-60 -50l-198 228v9z" />
<glyph unicode="&#xbb;" horiz-adv-x="640" d="M143 459l203 -226v-9l-198 -228l-60 50l124 184l-127 184zM353 459l203 -226v-9l-198 -228l-60 50l124 184l-127 184z" />
<glyph horiz-adv-x="430" d="M84 323l203 226l58 -45l-127 -184l124 -184l-60 -50l-198 228v9z" />
<glyph horiz-adv-x="430" d="M143 549l203 -226v-9l-198 -228l-60 50l124 184l-127 184z" />
<glyph horiz-adv-x="640" d="M84 323l203 226l58 -45l-127 -184l124 -184l-60 -50l-198 228v9zM294 323l203 226l58 -45l-127 -184l124 -184l-60 -50l-198 228v9z" />
<glyph horiz-adv-x="640" d="M143 549l203 -226v-9l-198 -228l-60 50l124 184l-127 184zM353 549l203 -226v-9l-198 -228l-60 50l124 184l-127 184z" />
<glyph unicode="(" horiz-adv-x="440" d="M390 -113l-61 -70c-149 105 -254 289 -254 464c0 216 123 382 254 460l61 -70c-108 -78 -180 -211 -180 -386c0 -170 70 -302 180 -398z" />
<glyph unicode=")" horiz-adv-x="440" d="M111 -183l-61 70c110 96 180 228 180 398c0 175 -72 308 -180 386l61 70c131 -78 254 -244 254 -460c0 -175 -105 -359 -254 -464z" />
<glyph unicode="[" horiz-adv-x="460" d="M389 622l-134 4l-6 -339l6 -353l140 4v-98l-270 -4l8 454l-8 434l264 -4v-98z" />
<glyph unicode="]" horiz-adv-x="460" d="M205 626l-134 -4v98l264 4l-8 -434l8 -454l-270 4v98l140 -4l6 353z" />
<glyph unicode="{" horiz-adv-x="460" d="M177 293v-10c65 -5 122 -45 122 -101c0 -51 -35 -112 -35 -179c0 -51 14 -83 131 -83v-80c-224 0 -258 50 -258 143c0 61 33 119 33 177c0 55 -45 84 -105 84v85c60 0 105 37 105 80c0 68 -31 116 -31 183c0 94 58 128 256 128v-80c-87 0 -131 -13 -131 -69 c0 -69 35 -128 35 -177c0 -52 -56 -89 -122 -101z" />
<glyph unicode="}" horiz-adv-x="460" d="M283 283v10c-66 12 -122 49 -122 101c0 49 35 108 35 177c0 56 -44 69 -131 69v80c198 0 256 -34 256 -128c0 -67 -31 -115 -31 -183c0 -43 45 -80 105 -80v-85c-60 0 -105 -29 -105 -84c0 -58 33 -116 33 -177c0 -93 -34 -143 -258 -143v80c117 0 131 32 131 83 c0 67 -35 128 -35 179c0 56 57 96 122 101z" />
<glyph unicode="'" horiz-adv-x="270" d="M97 406l-23 274h122l-24 -274h-75z" />
<glyph unicode="&#x22;" horiz-adv-x="420" d="M97 406l-23 274h122l-24 -274h-75zM247 406l-23 274h122l-24 -274h-75z" />
<glyph unicode="&#x2032;" horiz-adv-x="300" d="M49 427l71 265l115 -41l-116 -250z" />
<glyph unicode="&#x2033;" horiz-adv-x="490" d="M49 427l71 265l115 -41l-116 -250zM239 427l71 265l115 -41l-116 -250z" />
<glyph unicode="&#x26;" horiz-adv-x="740" d="M674 300l-61 -12c11 -25 18 -53 18 -87c0 -115 -100 -216 -279 -216c-173 0 -276 97 -276 209c0 111 60 170 123 205v7c-54 35 -73 77 -73 121c0 97 103 168 220 168c83 0 141 -21 187 -50l-51 -110h-6c-37 26 -83 39 -122 39c-54 0 -90 -23 -90 -67c0 -37 24 -66 80 -77 v-63c-76 -16 -130 -71 -130 -146c0 -73 59 -115 142 -115c92 0 157 47 157 112c0 16 -3 33 -11 48l-79 -15l-21 101l252 49z" />
<glyph horiz-adv-x="750" d="M505 528c0 -95 -59 -147 -123 -190l105 -113c18 39 29 84 30 132h118c0 -84 -24 -160 -65 -222l126 -135h-148l-52 54c-56 -44 -124 -69 -198 -69c-137 0 -213 74 -213 166c0 93 65 148 134 195c-49 56 -90 113 -90 168c0 108 78 181 195 181c111 0 181 -78 181 -167z M319 101c37 0 71 13 99 35l-133 139c-40 -29 -69 -61 -69 -108c0 -35 35 -66 103 -66zM256 514c0 -39 24 -69 57 -104c40 31 70 64 70 108c0 41 -29 69 -65 69c-40 0 -62 -35 -62 -73z" />
<glyph unicode="*" horiz-adv-x="620" d="M375 680l-42 -185l142 84l30 -113l-161 -16l137 -131l-81 -71l-91 162l-88 -168l-86 80l134 122l-154 17l31 108l138 -71l-31 182h122z" />
<glyph unicode="&#x2042;" horiz-adv-x="860" d="M483 702l-24 -145l108 56l24 -84l-124 -18l105 -92l-65 -56l-73 120l-73 -120l-64 60l98 88l-119 18l25 80l106 -49l-15 142h91zM285 339l-24 -145l108 56l24 -84l-124 -18l105 -92l-65 -56l-73 120l-73 -120l-64 60l98 88l-119 18l25 80l106 -49l-15 142h91zM675 339 l-24 -145l108 56l24 -84l-124 -18l105 -92l-65 -56l-73 120l-73 -120l-64 60l98 88l-119 18l25 80l106 -49l-15 142h91z" />
<glyph unicode="/" horiz-adv-x="550" d="M55 -160l340 860h100l-340 -860h-100z" />
<glyph unicode="\" horiz-adv-x="550" d="M155 700l340 -860h-100l-340 860h100z" />
<glyph unicode="@" horiz-adv-x="780" d="M557 53l38 -84c-46 -39 -117 -53 -163 -53c-180 0 -332 115 -332 374c0 225 144 410 352 410c132 0 227 -56 218 -184l-19 -277c-2 -33 10 -57 26 -72l-1 -10l-98 -29l-26 54h-7c-31 -27 -68 -41 -113 -41c-70 0 -131 50 -131 146c0 102 78 175 176 175c26 0 59 -3 82 -8 l5 54c7 71 -41 94 -114 94c-140 0 -245 -142 -245 -308c0 -194 102 -277 221 -277c61 0 98 15 126 36h5zM545 257l10 109c-19 3 -45 7 -66 7c-47 0 -84 -29 -84 -86c0 -40 28 -54 61 -54c24 0 55 10 79 24z" />
<glyph unicode="_" horiz-adv-x="530" d="M-25 -130h580v-90h-580v90z" />
<glyph unicode="&#xb6;" horiz-adv-x="730" d="M662 680v-82h-59v-755h-100v755h-55v-755h-100v400c-155 0 -251 83 -251 216c0 136 102 221 241 221h324zM348 330v268c-62 0 -106 -56 -106 -138c0 -77 38 -130 106 -130z" />
<glyph unicode="&#xa7;" horiz-adv-x="660" d="M554 241c0 -46 -22 -87 -61 -119c39 -35 56 -76 56 -117c0 -113 -92 -166 -222 -166c-97 0 -181 27 -216 53l24 112c51 -34 120 -62 203 -62c55 0 87 21 87 60c0 36 -44 66 -140 101c-107 41 -174 106 -174 198c0 44 23 92 65 129c-45 31 -65 64 -65 112 c0 76 67 153 213 153c78 0 149 -24 190 -47l-22 -107c-48 30 -113 52 -176 52c-57 0 -81 -18 -81 -44c0 -28 26 -50 123 -89c154 -59 196 -137 196 -219zM316 358l-52 23c-19 -20 -29 -47 -29 -73c0 -38 26 -76 144 -122l30 -12c13 18 18 40 18 62c0 50 -25 86 -111 122z " />
<glyph unicode="&#x2022;" horiz-adv-x="570" d="M149 264c0 75 61 136 136 136s136 -61 136 -136s-61 -136 -136 -136s-136 61 -136 136z" />
<glyph unicode="&#x2020;" horiz-adv-x="630" d="M370 680l-7 -195l174 11v-100l-176 10l-15 -440h-62l-15 440l-176 -10v100l173 -11l-7 195h111z" />
<glyph unicode="&#x2021;" horiz-adv-x="630" d="M370 680l-7 -195l174 11v-100l-177 10l-4 -137l161 11v-100l-164 11l-7 -225h-62l-8 224l-163 -10v100l160 -10l-4 136l-176 -10v100l173 -11l-7 195h111z" />
<glyph unicode="&#xb7;" horiz-adv-x="360" d="M103 277c0 43 34 77 77 77s77 -34 77 -77s-34 -77 -77 -77s-77 34 -77 77z" />
<glyph unicode="&#xae;" horiz-adv-x="650" d="M101 471c0 128 101 224 224 224c129 0 224 -97 224 -224c0 -128 -101 -224 -224 -224s-224 89 -224 224zM153 470c0 -104 72 -174 173 -174c93 0 171 70 171 174s-78 176 -172 176c-106 0 -172 -79 -172 -176zM412 531c0 -35 -21 -63 -61 -70l87 -103v-4h-54l-85 104h-8 v-104h-49v249h83c55 0 87 -26 87 -72zM363 531c0 20 -15 29 -35 29h-37v-59h40c19 0 32 9 32 30z" />
<glyph unicode="&#xa9;" horiz-adv-x="880" d="M128 323c0 171 141 312 313 312c180 0 311 -141 311 -312c0 -172 -126 -313 -311 -313c-172 0 -313 129 -313 313zM187 321c0 -149 109 -256 255 -256c144 0 251 107 251 256c0 155 -110 261 -252 261c-141 0 -254 -110 -254 -261zM569 469l-16 -61c-16 9 -55 33 -104 32 c-54 0 -107 -36 -107 -118c0 -64 44 -111 108 -111c44 0 78 16 108 35l18 -60c-29 -21 -78 -38 -127 -38c-105 0 -176 77 -176 172c0 115 82 183 177 183c51 0 97 -19 119 -34z" />
<glyph unicode="&#x2117;" horiz-adv-x="880" d="M128 323c0 171 141 312 313 312c180 0 311 -141 311 -312c0 -172 -126 -313 -311 -313c-172 0 -313 129 -313 313zM187 321c0 -149 109 -256 255 -256c144 0 251 107 251 256c0 155 -110 261 -252 261c-141 0 -254 -110 -254 -261zM580 392c0 -70 -50 -116 -120 -116h-45 v-123h-64v347h104c73 0 125 -40 125 -108zM513 391c0 34 -23 53 -57 53h-41v-111h41c28 0 57 17 57 58z" />
<glyph unicode="&#x2122;" horiz-adv-x="780" d="M353 627h-88v-207h-58v207h-88v53h234v-53zM572 550h-5l-57 -132h-15l-57 132h-4l-21 -130h-58l46 260h35l66 -153h4l65 153h34l46 -260h-59z" />
<glyph horiz-adv-x="380" d="M263 540l-15 -175l-13 -160h-88l-13 159l-18 176h147zM113 70c0 43 34 77 77 77s77 -34 77 -77s-34 -77 -77 -77s-77 34 -77 77z" />
<glyph horiz-adv-x="380" d="M117 0l15 175l13 160h88l13 -159l18 -176h-147zM267 470c0 -43 -34 -77 -77 -77s-77 34 -77 77s34 77 77 77s77 -34 77 -77z" />
<glyph horiz-adv-x="490" d="M103 423h-9l9 104c20 9 63 23 118 23c134 0 209 -63 209 -150c0 -96 -105 -136 -192 -150v-49h-110v125c84 9 170 23 170 71c0 32 -34 51 -89 51c-37 0 -74 -9 -106 -25zM107 70c0 43 34 77 77 77s77 -34 77 -77s-34 -77 -77 -77s-77 34 -77 77z" />
<glyph horiz-adv-x="490" d="M387 127h9l-9 -104c-20 -9 -63 -23 -118 -23c-134 0 -209 63 -209 150c0 96 105 136 192 150v49h110v-125c-84 -9 -170 -23 -170 -71c0 -32 34 -51 89 -51c37 0 74 9 106 25zM383 480c0 -43 -34 -77 -77 -77s-77 34 -77 77s34 77 77 77s77 -34 77 -77z" />
<glyph horiz-adv-x="310" d="M245 505v-8l-50 -238h-140v7l105 239h85z" />
<glyph horiz-adv-x="310" d="M65 259v8l50 238h140v-7l-105 -239h-85z" />
<glyph horiz-adv-x="500" d="M245 505v-8l-50 -238h-140v7l105 239h85zM435 505v-8l-50 -238h-140v7l105 239h85z" />
<glyph horiz-adv-x="500" d="M65 259v8l50 238h140v-7l-105 -239h-85zM255 259v8l50 238h140v-7l-105 -239h-85z" />
<glyph horiz-adv-x="310" d="M65 -176v8l50 238h140v-7l-105 -239h-85z" />
<glyph horiz-adv-x="500" d="M65 -176v8l50 238h140v-7l-105 -239h-85zM255 -176v8l50 238h140v-7l-105 -239h-85z" />
<glyph horiz-adv-x="400" d="M81 253l179 191l58 -45l-103 -149l102 -152l-60 -50l-176 196v9z" />
<glyph horiz-adv-x="400" d="M319 239l-179 -191l-58 45l103 149l-102 152l60 50l176 -196v-9z" />
<glyph horiz-adv-x="610" d="M81 253l179 191l58 -45l-103 -149l102 -152l-60 -50l-176 196v9zM291 253l179 191l58 -45l-103 -149l102 -152l-60 -50l-176 196v9z" />
<glyph horiz-adv-x="610" d="M319 239l-179 -191l-58 45l103 149l-102 152l60 50l176 -196v-9zM529 239l-179 -191l-58 45l103 149l-102 152l60 50l176 -196v-9z" />
<glyph unicode="0" horiz-adv-x="640" d="M575 347c0 -243 -109 -362 -253 -362c-145 0 -257 106 -257 362c0 241 115 348 257 348c147 0 253 -131 253 -348zM434 349c0 150 -52 219 -113 219c-65 0 -115 -73 -115 -219c0 -173 54 -237 114 -237c68 0 114 68 114 237z" />
<glyph unicode="1" horiz-adv-x="500" d="M349 0h-135v547l-125 -15l-11 126l261 30l10 -8v-680z" />
<glyph unicode="2" horiz-adv-x="590" d="M96 504l-16 126c37 26 107 65 218 65c140 0 225 -71 225 -193c0 -112 -95 -244 -263 -372l3 -8l260 14v-136h-477l-10 45c246 219 346 334 346 444c0 55 -43 79 -93 79c-70 0 -138 -25 -193 -64z" />
<glyph unicode="3" horiz-adv-x="570" d="M60 150h5c58 -26 117 -40 173 -40c76 0 130 33 130 92c0 50 -40 85 -112 82l-131 -6l8 130l119 -6c59 -3 104 29 104 87c0 54 -46 81 -104 81c-62 0 -120 -22 -151 -39h-6l9 133c31 13 90 31 174 31c125 0 219 -60 219 -179c0 -83 -47 -142 -108 -162v-8 c75 -22 120 -84 120 -156c0 -121 -99 -205 -253 -205c-85 0 -142 14 -192 37z" />
<glyph unicode="4" horiz-adv-x="600" d="M545 295v-116h-73v-179h-133v179h-276l-16 67l290 434h135v-387zM196 286l143 4v215h-5l-139 -215z" />
<glyph unicode="5" horiz-adv-x="590" d="M82 333l-6 3l42 344h387l-10 -131l-277 10l-14 -113c19 1 31 2 49 2c186 0 267 -100 267 -205c0 -164 -140 -258 -349 -258c-39 0 -75 3 -105 9l16 123c25 -6 71 -6 95 -6c148 0 202 60 202 123c0 67 -78 109 -203 109c-35 0 -60 -2 -94 -10z" />
<glyph unicode="6" horiz-adv-x="590" d="M213 393l6 -4c26 14 59 28 111 28c100 0 209 -66 209 -218c0 -141 -105 -214 -233 -214c-170 0 -250 130 -250 276c0 281 215 425 451 434l-14 -116c-152 -10 -256 -94 -280 -186zM398 192c0 82 -61 120 -116 120c-31 0 -55 -7 -81 -23c-4 -13 -4 -24 -4 -36 c0 -86 43 -151 115 -151c53 0 86 39 86 90z" />
<glyph unicode="7" horiz-adv-x="550" d="M522 680l8 -11c-148 -223 -228 -455 -231 -669h-164c31 210 110 408 214 549l-5 6l-285 -6l10 131h453z" />
<glyph unicode="8" horiz-adv-x="580" d="M55 165c0 86 70 157 124 181v4c-80 57 -104 111 -104 174c0 95 90 171 224 171c111 0 206 -63 206 -165c0 -80 -43 -132 -113 -170v-5c94 -62 133 -114 133 -185c0 -107 -95 -185 -237 -185c-140 0 -233 76 -233 180zM381 174c0 40 -38 86 -116 125 c-54 -26 -74 -76 -74 -122c0 -42 36 -83 96 -83c46 0 94 24 94 80zM219 512c0 -44 30 -68 90 -106c38 24 65 59 65 107c0 44 -36 73 -77 73c-52 0 -78 -35 -78 -74z" />
<glyph unicode="9" horiz-adv-x="590" d="M131 87v8c133 35 232 106 243 189l-7 6c-26 -17 -60 -27 -107 -27c-98 0 -215 70 -215 209c0 125 91 223 234 223c169 0 249 -130 249 -294c0 -224 -136 -355 -351 -421zM186 485c0 -82 56 -117 119 -117c28 0 54 11 78 30c4 19 4 28 4 45c0 60 -42 135 -113 135 c-51 0 -88 -36 -88 -93z" />
<glyph unicode="+" horiz-adv-x="530" d="M305 533v-192h192v-80h-192v-192h-80v192h-192v80h192v192h80z" />
<glyph unicode="&#x2212;" horiz-adv-x="530" d="M497 261h-464v80h464v-80z" />
<glyph unicode="&#xb1;" horiz-adv-x="530" d="M305 623v-192h182v-80h-182v-192h-80v192h-182v80h182v192h80zM487 28h-444v80h444v-80z" />
<glyph unicode="=" horiz-adv-x="530" d="M487 151h-444v80h444v-80zM487 363h-444v80h444v-80z" />
<glyph unicode="&#x2260;" horiz-adv-x="530" d="M487 151h-248l-63 -134l-65 36l46 98h-114v80h151l63 132h-214v80h251l62 130l65 -36l-45 -94h111v-80h-148l-63 -132h211v-80z" />
<glyph unicode="&#xd7;" horiz-adv-x="530" d="M49 136l159 160l-159 160l56 56l160 -159l160 159l56 -56l-159 -160l159 -160l-56 -56l-160 159l-160 -159z" />
<glyph unicode="&#xf7;" horiz-adv-x="530" d="M497 261h-464v80h464v-80zM202 465c0 35 28 63 63 63s63 -28 63 -63s-28 -63 -63 -63s-63 28 -63 63zM202 137c0 35 28 63 63 63s63 -28 63 -63s-28 -63 -63 -63s-63 28 -63 63z" />
<glyph unicode="&#x3c;" horiz-adv-x="530" d="M484 462l-318 -141l318 -141l-30 -80l-404 190v62l404 190z" />
<glyph unicode="&#x3e;" horiz-adv-x="530" d="M364 321l-318 141l30 80l404 -190v-62l-404 -190l-30 80z" />
<glyph unicode="&#x2264;" horiz-adv-x="530" d="M487 34h-444v74h444v-74zM484 522l-318 -141l318 -141l-30 -80l-404 190v62l404 190z" />
<glyph unicode="&#x2265;" horiz-adv-x="530" d="M487 34h-444v74h444v-74zM364 381l-318 141l30 80l404 -190v-62l-404 -190l-30 80z" />
<glyph unicode="$" horiz-adv-x="520" d="M257 -68l-61 6l9 94c-62 9 -125 31 -151 49l19 112c39 -22 87 -43 143 -51l17 170l-17 9c-73 37 -149 82 -149 184c0 85 66 159 202 160l8 84l61 -6l-9 -83c46 -7 86 -23 118 -40l-14 -111c-40 19 -75 33 -115 40l-15 -149l11 -5c120 -61 152 -125 152 -195 c0 -119 -101 -167 -200 -171zM352 195c0 34 -12 54 -61 84l-14 -140c53 4 75 31 75 56zM180 505c0 -29 13 -45 65 -74l13 124c-53 -1 -78 -21 -78 -50z" />
<glyph unicode="&#xa2;" horiz-adv-x="480" d="M274 -8l-61 5l11 104c-102 22 -168 105 -168 219c0 142 100 246 217 252l11 101l61 -5l-11 -101c35 -7 61 -22 90 -43l-35 -94c-20 17 -41 30 -65 37l-29 -269c40 3 72 21 97 41l25 -95c-31 -25 -81 -47 -132 -48zM176 322c0 -62 23 -98 59 -114l27 259 c-51 -15 -86 -69 -86 -145z" />
<glyph unicode="&#xa3;" horiz-adv-x="550" d="M495 133l6 -2l16 -106c-29 -24 -78 -35 -109 -35c-68 0 -94 42 -168 42c-50 0 -102 -23 -137 -42l-40 70c74 61 100 135 100 205c0 17 -2 35 -5 53h-75v65h60c-13 48 -28 95 -28 139c0 124 100 173 206 173c94 0 151 -39 164 -50l-26 -105c-24 20 -72 42 -125 42 c-45 0 -86 -23 -86 -76c0 -40 12 -82 25 -123h129v-65h-112c4 -17 6 -34 6 -50c0 -45 -22 -90 -87 -129l8 -10c11 8 31 18 53 18c65 0 77 -41 138 -41c30 0 55 6 87 27z" />
<glyph unicode="&#xa5;" horiz-adv-x="630" d="M154 287h94v3l-216 390h150l132 -258h2l132 258h150l-215 -390v-3h93v-65h-93v-39h93v-65h-93v-118h-135v118h-94v65h94v39h-94v65z" />
<glyph unicode="&#x20ac;" horiz-adv-x="660" d="M557 144l42 -113c-49 -30 -107 -46 -166 -46c-162 0 -278 114 -308 267h-55l15 65h33v12c0 9 0 18 1 27h-49l16 65h40c34 174 166 274 314 274c56 0 111 -15 154 -43l-37 -120c-33 21 -73 37 -119 36c-72 -1 -143 -46 -169 -147h258l-16 -65h-252v-23v-16h242l-15 -65 h-217c24 -85 84 -140 166 -140c48 0 86 11 122 32z" />
<glyph unicode="&#xa4;" horiz-adv-x="670" d="M114 272c0 47 15 91 40 127l-45 44c-24 24 30 76 51 55l46 -47c36 26 81 42 129 42s91 -14 126 -39l43 45c22 23 80 -39 59 -60l-45 -43c24 -35 38 -78 38 -124c0 -49 -16 -93 -42 -130l48 -46c23 -23 -29 -78 -51 -55l-50 50c-36 -26 -79 -40 -126 -40 c-46 0 -89 13 -124 36l-42 -44c-23 -25 -84 31 -59 55l44 43c-26 36 -40 80 -40 131zM184 271c0 -92 60 -161 152 -161c84 0 148 69 148 161c0 96 -64 162 -149 162c-96 0 -151 -71 -151 -162z" />
<glyph unicode="#" horiz-adv-x="560" d="M106 529l98 -18l50 215l72 -16l-49 -212l77 -13l56 232l72 -16l-56 -229l101 -17l-14 -78l-105 18l-33 -135l92 -16l-13 -78l-97 17l-59 -246l-72 16l58 242l-74 13l-60 -261l-72 16l59 258l-104 19l13 78l109 -19l31 135l-94 17zM259 421l-31 -135l75 -13l32 135z" />
<glyph unicode="%" horiz-adv-x="730" d="M87 24l262 333l232 332l56 -31l-249 -323l-245 -344zM660 146c0 -92 -63 -157 -141 -157c-80 0 -141 65 -141 157c0 94 59 163 138 163c88 0 144 -69 144 -163zM577 147c0 53 -22 89 -58 89c-34 0 -58 -38 -58 -89s24 -85 61 -85c30 0 55 32 55 85zM352 528 c0 -92 -63 -157 -141 -157c-80 0 -141 65 -141 157c0 94 59 163 138 163c88 0 144 -69 144 -163zM269 529c0 53 -22 89 -58 89c-34 0 -58 -38 -58 -89s24 -85 61 -85c30 0 55 32 55 85z" />
<glyph unicode="&#x2030;" horiz-adv-x="1040" d="M970 146c0 -92 -63 -157 -141 -157c-80 0 -141 65 -141 157c0 94 59 163 138 163c88 0 144 -69 144 -163zM887 147c0 53 -22 89 -58 89c-34 0 -58 -38 -58 -89s24 -85 61 -85c30 0 55 32 55 85zM87 24l262 333l232 332l56 -31l-249 -323l-245 -344zM660 146 c0 -92 -63 -157 -141 -157c-80 0 -141 65 -141 157c0 94 59 163 138 163c88 0 144 -69 144 -163zM577 147c0 53 -22 89 -58 89c-34 0 -58 -38 -58 -89s24 -85 61 -85c30 0 55 32 55 85zM352 528c0 -92 -63 -157 -141 -157c-80 0 -141 65 -141 157c0 94 59 163 138 163 c88 0 144 -69 144 -163zM269 529c0 53 -22 89 -58 89c-34 0 -58 -38 -58 -89s24 -85 61 -85c30 0 55 32 55 85z" />
<glyph unicode="&#xb0;" horiz-adv-x="420" d="M67 551c0 79 65 144 143 144c79 0 144 -65 144 -144c0 -78 -65 -143 -144 -143c-78 0 -143 65 -143 143zM135 551c0 -44 30 -82 74 -82c45 0 76 38 76 82c0 45 -31 84 -76 84c-44 0 -74 -39 -74 -84z" />
<glyph unicode="&#xaa;" horiz-adv-x="470" d="M338 308l-28 62h-152l-26 -62h-99l179 382h45l180 -382h-99zM231 538l-41 -95h88l-42 95h-5z" />
<glyph unicode="&#xba;" horiz-adv-x="500" d="M451 495c0 -100 -84 -191 -200 -191c-114 0 -202 83 -202 191c0 121 96 200 202 200c104 0 200 -77 200 -200zM355 496c0 66 -48 115 -105 115c-53 0 -105 -42 -105 -115c0 -53 37 -108 107 -108c63 0 103 55 103 108z" />
<glyph horiz-adv-x="600" d="M540 347c0 -253 -103 -362 -238 -362c-136 0 -242 97 -242 362c0 247 109 348 242 348c138 0 238 -111 238 -348zM399 349c0 163 -46 219 -98 219c-56 0 -100 -59 -100 -219c0 -189 48 -237 99 -237c59 0 99 54 99 237z" />
<glyph horiz-adv-x="600" d="M400 0h-135v547l-125 -15l-11 126l261 30l10 -8v-680z" />
<glyph horiz-adv-x="600" d="M97 504l-16 126c37 26 107 65 218 65c140 0 225 -71 225 -193c0 -112 -95 -244 -263 -372l3 -8l260 14v-136h-477l-10 45c246 219 346 334 346 444c0 55 -43 79 -93 79c-70 0 -138 -25 -193 -64z" />
<glyph horiz-adv-x="600" d="M71 150h5c58 -26 117 -40 173 -40c76 0 130 33 130 92c0 50 -40 85 -112 82l-131 -6l8 130l119 -6c59 -3 104 29 104 87c0 54 -46 81 -104 81c-62 0 -120 -22 -151 -39h-6l9 133c31 13 90 31 174 31c125 0 219 -60 219 -179c0 -83 -47 -142 -108 -162v-8 c75 -22 120 -84 120 -156c0 -121 -99 -205 -253 -205c-85 0 -142 14 -192 37z" />
<glyph horiz-adv-x="600" d="M542 295v-116h-73v-179h-133v179h-276l-16 67l290 434h135v-387zM193 286l143 4v215h-5l-139 -215z" />
<glyph horiz-adv-x="600" d="M89 333l-6 3l42 344h387l-10 -131l-277 10l-14 -113c19 1 31 2 49 2c186 0 267 -100 267 -205c0 -164 -140 -258 -349 -258c-39 0 -75 3 -105 9l16 123c25 -6 71 -6 95 -6c148 0 202 60 202 123c0 67 -78 109 -203 109c-35 0 -60 -2 -94 -10z" />
<glyph horiz-adv-x="600" d="M217 393l6 -4c26 14 59 28 111 28c100 0 209 -66 209 -218c0 -141 -105 -214 -233 -214c-170 0 -250 130 -250 276c0 281 215 425 451 434l-14 -116c-152 -10 -256 -94 -280 -186zM402 192c0 82 -61 120 -116 120c-31 0 -55 -7 -81 -23c-4 -13 -4 -24 -4 -36 c0 -86 43 -151 115 -151c53 0 86 39 86 90z" />
<glyph horiz-adv-x="600" d="M553 680l8 -11c-148 -223 -228 -455 -231 -669h-164c31 210 110 408 214 549l-5 6l-285 -6l10 131h453z" />
<glyph horiz-adv-x="600" d="M65 165c0 86 70 157 124 181v4c-80 57 -104 111 -104 174c0 95 90 171 224 171c111 0 206 -63 206 -165c0 -80 -43 -132 -113 -170v-5c94 -62 133 -114 133 -185c0 -107 -95 -185 -237 -185c-140 0 -233 76 -233 180zM391 174c0 40 -38 86 -116 125 c-54 -26 -74 -76 -74 -122c0 -42 36 -83 96 -83c46 0 94 24 94 80zM229 512c0 -44 30 -68 90 -106c38 24 65 59 65 107c0 44 -36 73 -77 73c-52 0 -78 -35 -78 -74z" />
<glyph horiz-adv-x="600" d="M139 87v8c133 35 232 106 243 189l-7 6c-26 -17 -60 -27 -107 -27c-98 0 -215 70 -215 209c0 125 91 223 234 223c169 0 249 -130 249 -294c0 -224 -136 -355 -351 -421zM194 485c0 -82 56 -117 119 -117c28 0 54 11 78 30c4 19 4 28 4 45c0 60 -42 135 -113 135 c-51 0 -88 -36 -88 -93z" />
<glyph horiz-adv-x="590" d="M530 256c0 -174 -102 -271 -231 -271c-136 0 -239 94 -239 267c0 169 114 268 238 268c131 0 232 -109 232 -264zM397 254c0 94 -43 148 -98 148c-59 0 -106 -55 -106 -148c0 -101 49 -151 106 -151c55 0 98 53 98 151z" />
<glyph horiz-adv-x="440" d="M312 0h-130v387l-115 -15l-6 114l234 26l17 -12v-500z" />
<glyph horiz-adv-x="530" d="M88 349l-21 111c24 14 94 60 198 60c107 0 195 -46 195 -158c0 -85 -69 -166 -192 -246l5 -7l197 9v-118h-422l-10 50c209 140 283 228 283 289c0 47 -33 67 -77 67c-69 0 -133 -43 -156 -57z" />
<glyph horiz-adv-x="490" d="M53 12l-3 117c54 -21 114 -34 173 -34c54 0 89 20 89 59c0 27 -25 52 -74 50l-125 -6l8 112l113 -6c47 -3 66 23 66 48c0 34 -30 56 -85 56c-45 0 -91 -10 -141 -28l9 114c32 11 93 26 160 26c120 0 186 -55 186 -139c0 -57 -36 -98 -93 -115v-5c67 -16 105 -73 105 -130 c0 -105 -96 -146 -217 -146c-68 0 -123 10 -171 27z" />
<glyph horiz-adv-x="540" d="M483 214v-99h-64v-115h-125v115h-230l-19 57l239 333h135v-293zM187 205l105 5v146h-8l-100 -145z" />
<glyph horiz-adv-x="510" d="M73 226l-4 3l33 276h333l-11 -115l-228 10l-9 -74c12 1 25 2 36 2c154 0 223 -76 223 -160c0 -130 -137 -183 -286 -183c-39 0 -75 2 -105 11l16 107c25 -6 64 -10 95 -10c102 0 149 33 149 73c0 46 -56 70 -151 70c-31 0 -69 -4 -91 -10z" />
<glyph horiz-adv-x="530" d="M194 303l4 -4c26 15 65 22 101 22c87 0 180 -51 180 -162c0 -95 -82 -174 -213 -174c-140 0 -212 97 -212 196c0 210 173 329 380 339l-10 -105c-130 -10 -193 -58 -230 -112zM347 152c0 47 -43 78 -90 78c-30 0 -52 -8 -71 -20c-18 -69 17 -123 85 -123 c44 0 76 24 76 65z" />
<glyph horiz-adv-x="480" d="M438 505l7 -11c-100 -150 -168 -324 -172 -494h-156c25 137 84 272 164 388l-2 5l-218 -10l9 122h368z" />
<glyph horiz-adv-x="520" d="M364 276v-4c78 -34 101 -85 101 -142c0 -86 -74 -145 -202 -145c-138 0 -208 65 -208 135c0 57 42 105 102 127v4c-75 45 -87 83 -87 128c0 74 75 141 195 141c110 0 185 -58 185 -130c0 -61 -38 -93 -86 -114zM244 209l-15 6c-32 -20 -47 -50 -47 -77 c0 -32 35 -57 80 -57c37 0 74 18 74 53c0 33 -41 54 -92 75zM204 375c0 -24 21 -45 87 -74c25 19 33 40 33 66c0 32 -23 55 -61 55c-42 0 -59 -24 -59 -47z" />
<glyph horiz-adv-x="530" d="M128 87l1 2c108 21 183 61 207 118l-5 3c-29 -19 -67 -23 -101 -23c-98 0 -178 57 -178 159c0 99 88 174 208 174c152 0 217 -102 217 -206c0 -203 -163 -298 -319 -329zM184 348c0 -49 41 -72 83 -72c35 0 61 8 78 22c16 58 -14 121 -83 121c-42 0 -78 -25 -78 -71z" />
<glyph horiz-adv-x="530" d="M305 463v-192h192v-80h-192v-192h-80v192h-192v80h192v192h80z" />
<glyph horiz-adv-x="530" d="M497 191h-464v80h464v-80z" />
<glyph horiz-adv-x="530" d="M49 66l159 160l-159 160l56 56l160 -159l160 159l56 -56l-159 -160l159 -160l-56 -56l-160 159l-160 -159z" />
<glyph horiz-adv-x="530" d="M497 191h-464v80h464v-80zM202 395c0 35 28 63 63 63s63 -28 63 -63s-28 -63 -63 -63s-63 28 -63 63zM202 67c0 35 28 63 63 63s63 -28 63 -63s-28 -63 -63 -63s-63 28 -63 63z" />
<glyph horiz-adv-x="530" d="M487 81h-444v80h444v-80zM487 293h-444v80h444v-80z" />
<glyph horiz-adv-x="530" d="M487 81h-248l-63 -134l-65 36l46 98h-114v80h151l63 132h-214v80h251l62 130l65 -36l-45 -94h111v-80h-148l-63 -132h211v-80z" />
<glyph horiz-adv-x="530" d="M484 392l-318 -141l318 -141l-30 -80l-404 190v62l404 190z" />
<glyph horiz-adv-x="530" d="M364 251l-318 141l30 80l404 -190v-62l-404 -190l-30 80z" />
<glyph horiz-adv-x="530" d="M487 -36h-444v74h444v-74zM484 452l-318 -141l318 -141l-30 -80l-404 190v62l404 190z" />
<glyph horiz-adv-x="530" d="M487 -36h-444v74h444v-74zM364 311l-318 141l30 80l404 -190v-62l-404 -190l-30 80z" />
<glyph horiz-adv-x="510" d="M257 -118l-61 6l10 100c-62 9 -119 31 -142 48l24 112c36 -22 80 -43 132 -51l12 119c-7 3 -14 6 -21 10c-67 32 -134 72 -134 159c0 65 61 135 177 135h6l10 98l61 -6l-10 -98c45 -9 81 -25 111 -44l-24 -106c-35 17 -67 31 -101 39l-10 -98c4 -2 8 -4 12 -5 c110 -46 137 -110 137 -170c0 -102 -97 -144 -179 -146zM332 130c0 22 -9 36 -47 58l-10 -94c40 2 57 17 57 36zM190 380c0 -20 11 -31 53 -51l8 81h-12c-25 0 -49 -10 -49 -30z" />
<glyph horiz-adv-x="490" d="M279 -88l-61 5l11 104c-102 22 -168 105 -168 219c0 142 100 246 217 252l11 101l61 -5l-11 -101c35 -7 61 -22 90 -43l-35 -94c-20 17 -41 30 -65 37l-29 -269c40 3 72 21 97 41l25 -95c-31 -25 -81 -47 -132 -48zM181 242c0 -62 23 -98 59 -114l27 259 c-51 -15 -86 -69 -86 -145z" />
<glyph horiz-adv-x="590" d="M516 482l-36 -110c-12 10 -53 31 -104 30s-98 -24 -120 -76h210l-15 -55h-207c-1 -7 -1 -13 -1 -20v-14h200l-15 -55h-171c21 -49 66 -79 121 -79c47 0 79 16 112 33l35 -110c-44 -27 -93 -41 -149 -41c-133 0 -231 83 -258 197h-47l15 55h24v12c0 7 0 15 1 22h-40l17 55 h31c33 123 142 194 259 194c61 0 113 -20 138 -38z" />
<glyph horiz-adv-x="510" d="M430 123l6 -2l16 -96c-27 -25 -70 -35 -99 -35c-52 0 -70 32 -128 32c-46 0 -94 -17 -127 -32l-35 65c58 48 80 108 80 160c0 4 -1 8 -1 13h-64v55h49c-10 29 -22 58 -22 84c0 103 91 148 186 148c79 0 126 -35 139 -45l-26 -90c-19 15 -57 32 -100 32 c-39 0 -76 -18 -76 -61c0 -21 8 -45 17 -68h112v-55h-97c1 -4 1 -7 1 -10c0 -37 -21 -78 -82 -109l8 -10c14 7 40 18 68 18c48 0 53 -21 98 -21c26 0 49 6 77 27z" />
<glyph horiz-adv-x="520" d="M124 200h71v3l-177 302h143l99 -179h4l95 179h143l-177 -302v-3h71v-55h-71v-34h71v-55h-71v-56h-130v56h-71v55h71v34h-71v55z" />
<glyph horiz-adv-x="490" d="M106 418l71 -13l38 162l63 -14l-37 -159l71 -12l44 178l63 -14l-44 -175l79 -14l-12 -68l-83 14l-27 -107l73 -13l-13 -68l-76 13l-46 -187l-63 14l45 184l-69 12l-47 -202l-63 14l47 199l-76 14l12 68l80 -14l25 108l-67 12zM225 327l-26 -108l70 -12l26 107z" />
<glyph horiz-adv-x="630" d="M93 -20l202 278l186 264l46 -30l-197 -261l-191 -282z" />
<glyph horiz-adv-x="720" d="M122 20l216 238l217 254l46 -30l-234 -253l-199 -240zM650 130c0 -83 -57 -142 -126 -142c-71 0 -126 59 -126 142c0 85 53 148 123 148c79 0 129 -63 129 -148zM577 131c0 47 -20 79 -53 79c-31 0 -53 -34 -53 -79s22 -75 56 -75c27 0 50 28 50 75zM322 370 c0 -83 -57 -142 -126 -142c-71 0 -126 59 -126 142c0 85 53 148 123 148c79 0 129 -63 129 -148zM249 371c0 47 -20 79 -53 79c-31 0 -53 -34 -53 -79s22 -75 56 -75c27 0 50 28 50 75z" />
<glyph horiz-adv-x="1000" d="M930 130c0 -83 -57 -142 -126 -142c-71 0 -126 59 -126 142c0 85 53 148 123 148c79 0 129 -63 129 -148zM857 131c0 47 -20 79 -53 79c-31 0 -53 -34 -53 -79s22 -75 56 -75c27 0 50 28 50 75zM122 20l216 238l217 254l46 -30l-234 -253l-199 -240zM650 130 c0 -83 -57 -142 -126 -142c-71 0 -126 59 -126 142c0 85 53 148 123 148c79 0 129 -63 129 -148zM577 131c0 47 -20 79 -53 79c-31 0 -53 -34 -53 -79s22 -75 56 -75c27 0 50 28 50 75zM322 370c0 -83 -57 -142 -126 -142c-71 0 -126 59 -126 142c0 85 53 148 123 148 c79 0 129 -63 129 -148zM249 371c0 47 -20 79 -53 79c-31 0 -53 -34 -53 -79s22 -75 56 -75c27 0 50 28 50 75z" />
<glyph horiz-adv-x="420" d="M298 180l-24 53h-128l-22 -53h-91l155 330h43l156 -330h-89zM206 374l-34 -77h73l-35 77h-4z" />
<glyph horiz-adv-x="450" d="M399 342c0 -86 -73 -165 -173 -165c-99 0 -175 72 -175 165c0 101 83 173 175 173c90 0 173 -71 173 -173zM308 343c0 53 -38 90 -83 90c-42 0 -84 -31 -84 -90c0 -46 32 -84 85 -84c51 0 82 37 82 84z" />
<glyph horiz-adv-x="420" d="M67 371c0 79 65 144 143 144c79 0 144 -65 144 -144c0 -78 -65 -143 -144 -143c-78 0 -143 65 -143 143zM135 371c0 -44 30 -82 74 -82c45 0 76 38 76 82c0 45 -31 84 -76 84c-44 0 -74 -39 -74 -84z" />
<glyph horiz-adv-x="340" d="M302 506c0 -139 -58 -199 -132 -199c-75 0 -132 51 -132 199c0 137 60 191 133 191c76 0 131 -63 131 -191zM213 507c0 83 -19 110 -42 110c-24 0 -45 -26 -45 -110c0 -94 21 -120 44 -120c28 0 43 29 43 120z" />
<glyph horiz-adv-x="340" d="M225 315h-85v295l-68 -8l-3 76l147 15l9 -7v-371z" />
<glyph horiz-adv-x="340" d="M61 586l-13 75c21 15 70 36 124 36c69 0 124 -29 124 -103c0 -59 -48 -133 -131 -201l3 -4l128 7v-81h-262l-4 38c128 112 178 164 178 221c0 29 -20 43 -50 43c-32 0 -72 -16 -97 -31z" />
<glyph horiz-adv-x="340" d="M48 410h2c32 -15 65 -23 96 -23c38 0 66 12 66 45c0 23 -19 40 -54 38l-75 -3l5 79l67 -3c28 -2 50 15 50 38c0 26 -23 36 -52 36c-34 0 -65 -13 -82 -22h-4l5 85c17 7 49 17 96 17c71 0 125 -33 125 -98c0 -44 -27 -73 -64 -86v-5c44 -15 71 -48 71 -88 c0 -89 -85 -113 -145 -113c-46 0 -78 7 -105 20z" />
<glyph horiz-adv-x="340" d="M309 485v-73h-40v-97h-86v97h-146l-9 39l150 238h91v-205zM119 480l64 2l2 112h-4l-65 -108z" />
<glyph horiz-adv-x="340" d="M53 491l-3 1l25 197h209l-5 -83l-147 5l-8 -56c9 1 21 2 33 2c96 0 139 -55 139 -113c0 -81 -77 -137 -192 -137c-23 0 -45 1 -62 5l8 78c15 -3 43 -3 58 -3c71 0 97 27 97 54c0 33 -39 53 -100 53c-19 0 -38 -2 -52 -3z" />
<glyph horiz-adv-x="340" d="M132 537l4 -3c13 6 26 14 54 14c53 0 119 -37 119 -121c0 -79 -64 -120 -133 -120c-96 0 -142 71 -142 152c0 154 117 236 253 238l-8 -71c-80 -6 -138 -46 -147 -89zM218 426c0 40 -26 57 -55 57c-14 0 -24 -4 -36 -11c-10 -46 3 -94 53 -94c19 0 38 13 38 48z" />
<glyph horiz-adv-x="340" d="M301 689l8 -11c-79 -123 -123 -243 -127 -363h-106c20 104 64 209 123 285l-3 7l-157 -3l6 85h256z" />
<glyph horiz-adv-x="340" d="M35 406c0 44 34 79 63 91v3c-39 27 -51 58 -51 88c0 64 51 109 128 109c64 0 118 -36 118 -96c0 -40 -21 -67 -57 -86v-1c53 -31 69 -62 69 -100c0 -62 -58 -107 -134 -107c-81 0 -136 42 -136 99zM212 415c0 18 -16 34 -58 54c-18 -8 -31 -30 -31 -50 c0 -21 16 -39 45 -39c24 0 44 10 44 35zM132 589c0 -23 18 -34 52 -50c15 11 24 28 24 50c0 23 -17 36 -36 36c-30 0 -40 -19 -40 -36z" />
<glyph horiz-adv-x="340" d="M89 368v5c70 16 118 46 125 93l-4 4c-16 -10 -34 -15 -63 -15c-52 0 -113 40 -113 120c0 69 51 122 131 122c96 0 144 -71 144 -161c0 -139 -75 -196 -195 -232zM125 578c0 -42 26 -57 55 -57c14 0 24 4 36 15c8 43 -2 90 -48 90c-24 0 -43 -18 -43 -48z" />
<glyph horiz-adv-x="340" d="M302 151c0 -139 -58 -199 -132 -199c-75 0 -132 51 -132 199c0 137 60 191 133 191c76 0 131 -63 131 -191zM213 152c0 83 -19 110 -42 110c-24 0 -45 -26 -45 -110c0 -94 21 -120 44 -120c28 0 43 29 43 120z" />
<glyph horiz-adv-x="340" d="M225 -40h-85v295l-68 -8l-3 76l147 15l9 -7v-371z" />
<glyph horiz-adv-x="340" d="M61 231l-13 75c21 15 70 36 124 36c69 0 124 -29 124 -103c0 -59 -48 -133 -131 -201l3 -4l128 7v-81h-262l-4 38c128 112 178 164 178 221c0 29 -20 43 -50 43c-32 0 -72 -16 -97 -31z" />
<glyph horiz-adv-x="340" d="M48 55h2c32 -15 65 -23 96 -23c38 0 66 12 66 45c0 23 -19 40 -54 38l-75 -3l5 79l67 -3c28 -2 50 15 50 38c0 26 -23 36 -52 36c-34 0 -65 -13 -82 -22h-4l5 85c17 7 49 17 96 17c71 0 125 -33 125 -98c0 -44 -27 -73 -64 -86v-5c44 -15 71 -48 71 -88 c0 -89 -85 -113 -145 -113c-46 0 -78 7 -105 20z" />
<glyph horiz-adv-x="340" d="M309 130v-73h-40v-97h-86v97h-146l-9 39l150 238h91v-205zM119 125l64 2l2 112h-4l-65 -108z" />
<glyph horiz-adv-x="340" d="M53 136l-3 1l25 197h209l-5 -83l-147 5l-8 -56c9 1 21 2 33 2c96 0 139 -55 139 -113c0 -81 -77 -137 -192 -137c-23 0 -45 1 -62 5l8 78c15 -3 43 -3 58 -3c71 0 97 27 97 54c0 33 -39 53 -100 53c-19 0 -38 -2 -52 -3z" />
<glyph horiz-adv-x="340" d="M132 182l4 -3c13 6 26 14 54 14c53 0 119 -37 119 -121c0 -79 -64 -120 -133 -120c-96 0 -142 71 -142 152c0 154 117 236 253 238l-8 -71c-80 -6 -138 -46 -147 -89zM218 71c0 40 -26 57 -55 57c-14 0 -24 -4 -36 -11c-10 -46 3 -94 53 -94c19 0 38 13 38 48z" />
<glyph horiz-adv-x="340" d="M301 334l8 -11c-79 -123 -123 -243 -127 -363h-106c20 104 64 209 123 285l-3 7l-157 -3l6 85h256z" />
<glyph horiz-adv-x="340" d="M35 51c0 44 34 79 63 91v3c-39 27 -51 58 -51 88c0 64 51 109 128 109c64 0 118 -36 118 -96c0 -40 -21 -67 -57 -86v-1c53 -31 69 -62 69 -100c0 -62 -58 -107 -134 -107c-81 0 -136 42 -136 99zM212 60c0 18 -16 34 -58 54c-18 -8 -31 -30 -31 -50c0 -21 16 -39 45 -39 c24 0 44 10 44 35zM132 234c0 -23 18 -34 52 -50c15 11 24 28 24 50c0 23 -17 36 -36 36c-30 0 -40 -19 -40 -36z" />
<glyph horiz-adv-x="340" d="M89 13v5c70 16 118 46 125 93l-4 4c-16 -10 -34 -15 -63 -15c-52 0 -113 40 -113 120c0 69 51 122 131 122c96 0 144 -71 144 -161c0 -139 -75 -196 -195 -232zM125 223c0 -42 26 -57 55 -57c14 0 24 4 36 15c8 43 -2 90 -48 90c-24 0 -43 -18 -43 -48z" />
<glyph unicode="&#x2044;" d="M135 -19l244 364l225 358l51 -31l-237 -349l-232 -375z" />
<glyph unicode="&#xbd;" d="M135 -19l244 364l225 358l51 -31l-237 -349l-232 -375zM255 315h-85v295l-68 -8l-3 76l147 15l9 -7v-371zM506 231l-13 75c21 15 70 36 124 36c69 0 124 -29 124 -103c0 -59 -48 -133 -131 -201l3 -4l128 7v-81h-262l-4 38c128 112 178 164 178 221c0 29 -20 43 -50 43 c-32 0 -72 -16 -97 -31z" />
<glyph unicode="&#x2153;" d="M135 -19l244 364l225 358l51 -31l-237 -349l-232 -375zM255 315h-85v295l-68 -8l-3 76l147 15l9 -7v-371zM493 55h2c32 -15 65 -23 96 -23c38 0 66 12 66 45c0 23 -19 40 -54 38l-75 -3l5 79l67 -3c28 -2 50 15 50 38c0 26 -23 36 -52 36c-34 0 -65 -13 -82 -22h-4l5 85 c17 7 49 17 96 17c71 0 125 -33 125 -98c0 -44 -27 -73 -64 -86v-5c44 -15 71 -48 71 -88c0 -89 -85 -113 -145 -113c-46 0 -78 7 -105 20z" />
<glyph unicode="&#xbc;" d="M135 -19l244 364l225 358l51 -31l-237 -349l-232 -375zM255 315h-85v295l-68 -8l-3 76l147 15l9 -7v-371zM729 130v-73h-40v-97h-86v97h-146l-9 39l150 238h91v-205zM539 125l64 2l2 112h-4l-65 -108z" />
<glyph d="M135 -19l244 364l225 358l51 -31l-237 -349l-232 -375zM255 315h-85v295l-68 -8l-3 76l147 15l9 -7v-371zM498 136l-3 1l25 197h209l-5 -83l-147 5l-8 -56c9 1 21 2 33 2c96 0 139 -55 139 -113c0 -81 -77 -137 -192 -137c-23 0 -45 1 -62 5l8 78c15 -3 43 -3 58 -3 c71 0 97 27 97 54c0 33 -39 53 -100 53c-19 0 -38 -2 -52 -3z" />
<glyph d="M135 -19l244 364l225 358l51 -31l-237 -349l-232 -375zM255 315h-85v295l-68 -8l-3 76l147 15l9 -7v-371zM549 182l4 -3c13 6 26 14 54 14c53 0 119 -37 119 -121c0 -79 -64 -120 -133 -120c-96 0 -142 71 -142 152c0 154 117 236 253 238l-8 -71 c-80 -6 -138 -46 -147 -89zM635 71c0 40 -26 57 -55 57c-14 0 -24 -4 -36 -11c-10 -46 3 -94 53 -94c19 0 38 13 38 48z" />
<glyph d="M135 -19l244 364l225 358l51 -31l-237 -349l-232 -375zM255 315h-85v295l-68 -8l-3 76l147 15l9 -7v-371zM746 334l8 -11c-79 -123 -123 -243 -127 -363h-106c20 104 64 209 123 285l-3 7l-157 -3l6 85h256z" />
<glyph unicode="&#x215b;" d="M135 -19l244 364l225 358l51 -31l-237 -349l-232 -375zM255 315h-85v295l-68 -8l-3 76l147 15l9 -7v-371zM480 51c0 44 34 79 63 91v3c-39 27 -51 58 -51 88c0 64 51 109 128 109c64 0 118 -36 118 -96c0 -40 -21 -67 -57 -86v-1c53 -31 69 -62 69 -100 c0 -62 -58 -107 -134 -107c-81 0 -136 42 -136 99zM657 60c0 18 -16 34 -58 54c-18 -8 -31 -30 -31 -50c0 -21 16 -39 45 -39c24 0 44 10 44 35zM577 234c0 -23 18 -34 52 -50c15 11 24 28 24 50c0 23 -17 36 -36 36c-30 0 -40 -19 -40 -36z" />
<glyph d="M135 -19l244 364l225 358l51 -31l-237 -349l-232 -375zM255 315h-85v295l-68 -8l-3 76l147 15l9 -7v-371zM534 13v5c70 16 118 46 125 93l-4 4c-16 -10 -34 -15 -63 -15c-52 0 -113 40 -113 120c0 69 51 122 131 122c96 0 144 -71 144 -161c0 -139 -75 -196 -195 -232z M570 223c0 -42 26 -57 55 -57c14 0 24 4 36 15c8 43 -2 90 -48 90c-24 0 -43 -18 -43 -48z" />
<glyph unicode="&#x2154;" d="M135 -19l244 364l225 358l51 -31l-237 -349l-232 -375zM91 586l-13 75c21 15 70 36 124 36c69 0 124 -29 124 -103c0 -59 -48 -133 -131 -201l3 -4l128 7v-81h-262l-4 38c128 112 178 164 178 221c0 29 -20 43 -50 43c-32 0 -72 -16 -97 -31zM493 55h2 c32 -15 65 -23 96 -23c38 0 66 12 66 45c0 23 -19 40 -54 38l-75 -3l5 79l67 -3c28 -2 50 15 50 38c0 26 -23 36 -52 36c-34 0 -65 -13 -82 -22h-4l5 85c17 7 49 17 96 17c71 0 125 -33 125 -98c0 -44 -27 -73 -64 -86v-5c44 -15 71 -48 71 -88c0 -89 -85 -113 -145 -113 c-46 0 -78 7 -105 20z" />
<glyph d="M135 -19l244 364l225 358l51 -31l-237 -349l-232 -375zM91 586l-13 75c21 15 70 36 124 36c69 0 124 -29 124 -103c0 -59 -48 -133 -131 -201l3 -4l128 7v-81h-262l-4 38c128 112 178 164 178 221c0 29 -20 43 -50 43c-32 0 -72 -16 -97 -31zM498 136l-3 1l25 197h209 l-5 -83l-147 5l-8 -56c9 1 21 2 33 2c96 0 139 -55 139 -113c0 -81 -77 -137 -192 -137c-23 0 -45 1 -62 5l8 78c15 -3 43 -3 58 -3c71 0 97 27 97 54c0 33 -39 53 -100 53c-19 0 -38 -2 -52 -3z" />
<glyph d="M135 -19l244 364l225 358l51 -31l-237 -349l-232 -375zM91 586l-13 75c21 15 70 36 124 36c69 0 124 -29 124 -103c0 -59 -48 -133 -131 -201l3 -4l128 7v-81h-262l-4 38c128 112 178 164 178 221c0 29 -20 43 -50 43c-32 0 -72 -16 -97 -31zM746 334l8 -11 c-79 -123 -123 -243 -127 -363h-106c20 104 64 209 123 285l-3 7l-157 -3l6 85h256z" />
<glyph d="M135 -19l244 364l225 358l51 -31l-237 -349l-232 -375zM91 586l-13 75c21 15 70 36 124 36c69 0 124 -29 124 -103c0 -59 -48 -133 -131 -201l3 -4l128 7v-81h-262l-4 38c128 112 178 164 178 221c0 29 -20 43 -50 43c-32 0 -72 -16 -97 -31zM534 13v5 c70 16 118 46 125 93l-4 4c-16 -10 -34 -15 -63 -15c-52 0 -113 40 -113 120c0 69 51 122 131 122c96 0 144 -71 144 -161c0 -139 -75 -196 -195 -232zM570 223c0 -42 26 -57 55 -57c14 0 24 4 36 15c8 43 -2 90 -48 90c-24 0 -43 -18 -43 -48z" />
<glyph unicode="&#xbe;" d="M135 -19l244 364l225 358l51 -31l-237 -349l-232 -375zM78 410h2c32 -15 65 -23 96 -23c38 0 66 12 66 45c0 23 -19 40 -54 38l-75 -3l5 79l67 -3c28 -2 50 15 50 38c0 26 -23 36 -52 36c-34 0 -65 -13 -82 -22h-4l5 85c17 7 49 17 96 17c71 0 125 -33 125 -98 c0 -44 -27 -73 -64 -86v-5c44 -15 71 -48 71 -88c0 -89 -85 -113 -145 -113c-46 0 -78 7 -105 20zM729 130v-73h-40v-97h-86v97h-146l-9 39l150 238h91v-205zM539 125l64 2l2 112h-4l-65 -108z" />
<glyph d="M135 -19l244 364l225 358l51 -31l-237 -349l-232 -375zM78 410h2c32 -15 65 -23 96 -23c38 0 66 12 66 45c0 23 -19 40 -54 38l-75 -3l5 79l67 -3c28 -2 50 15 50 38c0 26 -23 36 -52 36c-34 0 -65 -13 -82 -22h-4l5 85c17 7 49 17 96 17c71 0 125 -33 125 -98 c0 -44 -27 -73 -64 -86v-5c44 -15 71 -48 71 -88c0 -89 -85 -113 -145 -113c-46 0 -78 7 -105 20zM498 136l-3 1l25 197h209l-5 -83l-147 5l-8 -56c9 1 21 2 33 2c96 0 139 -55 139 -113c0 -81 -77 -137 -192 -137c-23 0 -45 1 -62 5l8 78c15 -3 43 -3 58 -3 c71 0 97 27 97 54c0 33 -39 53 -100 53c-19 0 -38 -2 -52 -3z" />
<glyph d="M135 -19l244 364l225 358l51 -31l-237 -349l-232 -375zM78 410h2c32 -15 65 -23 96 -23c38 0 66 12 66 45c0 23 -19 40 -54 38l-75 -3l5 79l67 -3c28 -2 50 15 50 38c0 26 -23 36 -52 36c-34 0 -65 -13 -82 -22h-4l5 85c17 7 49 17 96 17c71 0 125 -33 125 -98 c0 -44 -27 -73 -64 -86v-5c44 -15 71 -48 71 -88c0 -89 -85 -113 -145 -113c-46 0 -78 7 -105 20zM746 334l8 -11c-79 -123 -123 -243 -127 -363h-106c20 104 64 209 123 285l-3 7l-157 -3l6 85h256z" />
<glyph unicode="&#x215c;" d="M135 -19l244 364l225 358l51 -31l-237 -349l-232 -375zM78 410h2c32 -15 65 -23 96 -23c38 0 66 12 66 45c0 23 -19 40 -54 38l-75 -3l5 79l67 -3c28 -2 50 15 50 38c0 26 -23 36 -52 36c-34 0 -65 -13 -82 -22h-4l5 85c17 7 49 17 96 17c71 0 125 -33 125 -98 c0 -44 -27 -73 -64 -86v-5c44 -15 71 -48 71 -88c0 -89 -85 -113 -145 -113c-46 0 -78 7 -105 20zM480 51c0 44 34 79 63 91v3c-39 27 -51 58 -51 88c0 64 51 109 128 109c64 0 118 -36 118 -96c0 -40 -21 -67 -57 -86v-1c53 -31 69 -62 69 -100c0 -62 -58 -107 -134 -107 c-81 0 -136 42 -136 99zM657 60c0 18 -16 34 -58 54c-18 -8 -31 -30 -31 -50c0 -21 16 -39 45 -39c24 0 44 10 44 35zM577 234c0 -23 18 -34 52 -50c15 11 24 28 24 50c0 23 -17 36 -36 36c-30 0 -40 -19 -40 -36z" />
<glyph d="M135 -19l244 364l225 358l51 -31l-237 -349l-232 -375zM339 485v-73h-40v-97h-86v97h-146l-9 39l150 238h91v-205zM149 480l64 2l2 112h-4l-65 -108zM498 136l-3 1l25 197h209l-5 -83l-147 5l-8 -56c9 1 21 2 33 2c96 0 139 -55 139 -113c0 -81 -77 -137 -192 -137 c-23 0 -45 1 -62 5l8 78c15 -3 43 -3 58 -3c71 0 97 27 97 54c0 33 -39 53 -100 53c-19 0 -38 -2 -52 -3z" />
<glyph d="M135 -19l244 364l225 358l51 -31l-237 -349l-232 -375zM339 485v-73h-40v-97h-86v97h-146l-9 39l150 238h91v-205zM149 480l64 2l2 112h-4l-65 -108zM746 334l8 -11c-79 -123 -123 -243 -127 -363h-106c20 104 64 209 123 285l-3 7l-157 -3l6 85h256z" />
<glyph d="M135 -19l244 364l225 358l51 -31l-237 -349l-232 -375zM339 485v-73h-40v-97h-86v97h-146l-9 39l150 238h91v-205zM149 480l64 2l2 112h-4l-65 -108zM534 13v5c70 16 118 46 125 93l-4 4c-16 -10 -34 -15 -63 -15c-52 0 -113 40 -113 120c0 69 51 122 131 122 c96 0 144 -71 144 -161c0 -139 -75 -196 -195 -232zM570 223c0 -42 26 -57 55 -57c14 0 24 4 36 15c8 43 -2 90 -48 90c-24 0 -43 -18 -43 -48z" />
<glyph d="M135 -19l244 364l225 358l51 -31l-237 -349l-232 -375zM83 491l-3 1l25 197h209l-5 -83l-147 5l-8 -56c9 1 21 2 33 2c96 0 139 -55 139 -113c0 -81 -77 -137 -192 -137c-23 0 -45 1 -62 5l8 78c15 -3 43 -3 58 -3c71 0 97 27 97 54c0 33 -39 53 -100 53 c-19 0 -38 -2 -52 -3zM549 182l4 -3c13 6 26 14 54 14c53 0 119 -37 119 -121c0 -79 -64 -120 -133 -120c-96 0 -142 71 -142 152c0 154 117 236 253 238l-8 -71c-80 -6 -138 -46 -147 -89zM635 71c0 40 -26 57 -55 57c-14 0 -24 -4 -36 -11c-10 -46 3 -94 53 -94 c19 0 38 13 38 48z" />
<glyph d="M135 -19l244 364l225 358l51 -31l-237 -349l-232 -375zM83 491l-3 1l25 197h209l-5 -83l-147 5l-8 -56c9 1 21 2 33 2c96 0 139 -55 139 -113c0 -81 -77 -137 -192 -137c-23 0 -45 1 -62 5l8 78c15 -3 43 -3 58 -3c71 0 97 27 97 54c0 33 -39 53 -100 53 c-19 0 -38 -2 -52 -3zM746 334l8 -11c-79 -123 -123 -243 -127 -363h-106c20 104 64 209 123 285l-3 7l-157 -3l6 85h256z" />
<glyph unicode="&#x215d;" d="M135 -19l244 364l225 358l51 -31l-237 -349l-232 -375zM83 491l-3 1l25 197h209l-5 -83l-147 5l-8 -56c9 1 21 2 33 2c96 0 139 -55 139 -113c0 -81 -77 -137 -192 -137c-23 0 -45 1 -62 5l8 78c15 -3 43 -3 58 -3c71 0 97 27 97 54c0 33 -39 53 -100 53 c-19 0 -38 -2 -52 -3zM480 51c0 44 34 79 63 91v3c-39 27 -51 58 -51 88c0 64 51 109 128 109c64 0 118 -36 118 -96c0 -40 -21 -67 -57 -86v-1c53 -31 69 -62 69 -100c0 -62 -58 -107 -134 -107c-81 0 -136 42 -136 99zM657 60c0 18 -16 34 -58 54c-18 -8 -31 -30 -31 -50 c0 -21 16 -39 45 -39c24 0 44 10 44 35zM577 234c0 -23 18 -34 52 -50c15 11 24 28 24 50c0 23 -17 36 -36 36c-30 0 -40 -19 -40 -36z" />
<glyph d="M135 -19l244 364l225 358l51 -31l-237 -349l-232 -375zM83 491l-3 1l25 197h209l-5 -83l-147 5l-8 -56c9 1 21 2 33 2c96 0 139 -55 139 -113c0 -81 -77 -137 -192 -137c-23 0 -45 1 -62 5l8 78c15 -3 43 -3 58 -3c71 0 97 27 97 54c0 33 -39 53 -100 53 c-19 0 -38 -2 -52 -3zM534 13v5c70 16 118 46 125 93l-4 4c-16 -10 -34 -15 -63 -15c-52 0 -113 40 -113 120c0 69 51 122 131 122c96 0 144 -71 144 -161c0 -139 -75 -196 -195 -232zM570 223c0 -42 26 -57 55 -57c14 0 24 4 36 15c8 43 -2 90 -48 90 c-24 0 -43 -18 -43 -48z" />
<glyph unicode="&#x215e;" d="M135 -19l244 364l225 358l51 -31l-237 -349l-232 -375zM370 689l8 -11c-79 -123 -123 -243 -127 -363h-106c20 104 64 209 123 285l-3 7l-157 -3l6 85h256zM480 51c0 44 34 79 63 91v3c-39 27 -51 58 -51 88c0 64 51 109 128 109c64 0 118 -36 118 -96 c0 -40 -21 -67 -57 -86v-1c53 -31 69 -62 69 -100c0 -62 -58 -107 -134 -107c-81 0 -136 42 -136 99zM657 60c0 18 -16 34 -58 54c-18 -8 -31 -30 -31 -50c0 -21 16 -39 45 -39c24 0 44 10 44 35zM577 234c0 -23 18 -34 52 -50c15 11 24 28 24 50c0 23 -17 36 -36 36 c-30 0 -40 -19 -40 -36z" />
<glyph d="M135 -19l244 364l225 358l51 -31l-237 -349l-232 -375zM370 689l8 -11c-79 -123 -123 -243 -127 -363h-106c20 104 64 209 123 285l-3 7l-157 -3l6 85h256zM534 13v5c70 16 118 46 125 93l-4 4c-16 -10 -34 -15 -63 -15c-52 0 -113 40 -113 120c0 69 51 122 131 122 c96 0 144 -71 144 -161c0 -139 -75 -196 -195 -232zM570 223c0 -42 26 -57 55 -57c14 0 24 4 36 15c8 43 -2 90 -48 90c-24 0 -43 -18 -43 -48z" />
<glyph d="M135 -19l244 364l225 358l51 -31l-237 -349l-232 -375zM65 406c0 44 34 79 63 91v3c-39 27 -51 58 -51 88c0 64 51 109 128 109c64 0 118 -36 118 -96c0 -40 -21 -67 -57 -86v-1c53 -31 69 -62 69 -100c0 -62 -58 -107 -134 -107c-81 0 -136 42 -136 99zM242 415 c0 18 -16 34 -58 54c-18 -8 -31 -30 -31 -50c0 -21 16 -39 45 -39c24 0 44 10 44 35zM162 589c0 -23 18 -34 52 -50c15 11 24 28 24 50c0 23 -17 36 -36 36c-30 0 -40 -19 -40 -36zM534 13v5c70 16 118 46 125 93l-4 4c-16 -10 -34 -15 -63 -15c-52 0 -113 40 -113 120 c0 69 51 122 131 122c96 0 144 -71 144 -161c0 -139 -75 -196 -195 -232zM570 223c0 -42 26 -57 55 -57c14 0 24 4 36 15c8 43 -2 90 -48 90c-24 0 -43 -18 -43 -48z" />
<glyph horiz-adv-x="340" d="M302 426c0 -139 -58 -199 -132 -199c-75 0 -132 51 -132 199c0 137 60 191 133 191c76 0 131 -63 131 -191zM213 427c0 83 -19 110 -42 110c-24 0 -45 -26 -45 -110c0 -94 21 -120 44 -120c28 0 43 29 43 120z" />
<glyph horiz-adv-x="340" d="M225 235h-85v295l-68 -8l-3 76l147 15l9 -7v-371z" />
<glyph horiz-adv-x="340" d="M61 506l-13 75c21 15 70 36 124 36c69 0 124 -29 124 -103c0 -59 -48 -133 -131 -201l3 -4l128 7v-81h-262l-4 38c128 112 178 164 178 221c0 29 -20 43 -50 43c-32 0 -72 -16 -97 -31z" />
<glyph horiz-adv-x="340" d="M48 330h2c32 -15 65 -23 96 -23c38 0 66 12 66 45c0 23 -19 40 -54 38l-75 -3l5 79l67 -3c28 -2 50 15 50 38c0 26 -23 36 -52 36c-34 0 -65 -13 -82 -22h-4l5 85c17 7 49 17 96 17c71 0 125 -33 125 -98c0 -44 -27 -73 -64 -86v-5c44 -15 71 -48 71 -88 c0 -89 -85 -113 -145 -113c-46 0 -78 7 -105 20z" />
<glyph horiz-adv-x="340" d="M309 405v-73h-40v-97h-86v97h-146l-9 39l150 238h91v-205zM119 400l64 2l2 112h-4l-65 -108z" />
<glyph horiz-adv-x="340" d="M53 411l-3 1l25 197h209l-5 -83l-147 5l-8 -56c9 1 21 2 33 2c96 0 139 -55 139 -113c0 -81 -77 -137 -192 -137c-23 0 -45 1 -62 5l8 78c15 -3 43 -3 58 -3c71 0 97 27 97 54c0 33 -39 53 -100 53c-19 0 -38 -2 -52 -3z" />
<glyph horiz-adv-x="340" d="M132 457l4 -3c13 6 26 14 54 14c53 0 119 -37 119 -121c0 -79 -64 -120 -133 -120c-96 0 -142 71 -142 152c0 154 117 236 253 238l-8 -71c-80 -6 -138 -46 -147 -89zM218 346c0 40 -26 57 -55 57c-14 0 -24 -4 -36 -11c-10 -46 3 -94 53 -94c19 0 38 13 38 48z" />
<glyph horiz-adv-x="340" d="M301 609l8 -11c-79 -123 -123 -243 -127 -363h-106c20 104 64 209 123 285l-3 7l-157 -3l6 85h256z" />
<glyph horiz-adv-x="340" d="M35 326c0 44 34 79 63 91v3c-39 27 -51 58 -51 88c0 64 51 109 128 109c64 0 118 -36 118 -96c0 -40 -21 -67 -57 -86v-1c53 -31 69 -62 69 -100c0 -62 -58 -107 -134 -107c-81 0 -136 42 -136 99zM212 335c0 18 -16 34 -58 54c-18 -8 -31 -30 -31 -50 c0 -21 16 -39 45 -39c24 0 44 10 44 35zM132 509c0 -23 18 -34 52 -50c15 11 24 28 24 50c0 23 -17 36 -36 36c-30 0 -40 -19 -40 -36z" />
<glyph horiz-adv-x="340" d="M89 288v5c70 16 118 46 125 93l-4 4c-16 -10 -34 -15 -63 -15c-52 0 -113 40 -113 120c0 69 51 122 131 122c96 0 144 -71 144 -161c0 -139 -75 -196 -195 -232zM125 498c0 -42 26 -57 55 -57c14 0 24 4 36 15c8 43 -2 90 -48 90c-24 0 -43 -18 -43 -48z" />
<glyph horiz-adv-x="340" d="M302 71c0 -139 -58 -199 -132 -199c-75 0 -132 51 -132 199c0 137 60 191 133 191c76 0 131 -63 131 -191zM213 72c0 83 -19 110 -42 110c-24 0 -45 -26 -45 -110c0 -94 21 -120 44 -120c28 0 43 29 43 120z" />
<glyph horiz-adv-x="340" d="M225 -120h-85v295l-68 -8l-3 76l147 15l9 -7v-371z" />
<glyph horiz-adv-x="340" d="M61 151l-13 75c21 15 70 36 124 36c69 0 124 -29 124 -103c0 -59 -48 -133 -131 -201l3 -4l128 7v-81h-262l-4 38c128 112 178 164 178 221c0 29 -20 43 -50 43c-32 0 -72 -16 -97 -31z" />
<glyph horiz-adv-x="340" d="M48 -25h2c32 -15 65 -23 96 -23c38 0 66 12 66 45c0 23 -19 40 -54 38l-75 -3l5 79l67 -3c28 -2 50 15 50 38c0 26 -23 36 -52 36c-34 0 -65 -13 -82 -22h-4l5 85c17 7 49 17 96 17c71 0 125 -33 125 -98c0 -44 -27 -73 -64 -86v-5c44 -15 71 -48 71 -88 c0 -89 -85 -113 -145 -113c-46 0 -78 7 -105 20z" />
<glyph horiz-adv-x="340" d="M309 50v-73h-40v-97h-86v97h-146l-9 39l150 238h91v-205zM119 45l64 2l2 112h-4l-65 -108z" />
<glyph horiz-adv-x="340" d="M53 56l-3 1l25 197h209l-5 -83l-147 5l-8 -56c9 1 21 2 33 2c96 0 139 -55 139 -113c0 -81 -77 -137 -192 -137c-23 0 -45 1 -62 5l8 78c15 -3 43 -3 58 -3c71 0 97 27 97 54c0 33 -39 53 -100 53c-19 0 -38 -2 -52 -3z" />
<glyph horiz-adv-x="340" d="M132 102l4 -3c13 6 26 14 54 14c53 0 119 -37 119 -121c0 -79 -64 -120 -133 -120c-96 0 -142 71 -142 152c0 154 117 236 253 238l-8 -71c-80 -6 -138 -46 -147 -89zM218 -9c0 40 -26 57 -55 57c-14 0 -24 -4 -36 -11c-10 -46 3 -94 53 -94c19 0 38 13 38 48z" />
<glyph horiz-adv-x="340" d="M301 254l8 -11c-79 -123 -123 -243 -127 -363h-106c20 104 64 209 123 285l-3 7l-157 -3l6 85h256z" />
<glyph horiz-adv-x="340" d="M35 -29c0 44 34 79 63 91v3c-39 27 -51 58 -51 88c0 64 51 109 128 109c64 0 118 -36 118 -96c0 -40 -21 -67 -57 -86v-1c53 -31 69 -62 69 -100c0 -62 -58 -107 -134 -107c-81 0 -136 42 -136 99zM212 -20c0 18 -16 34 -58 54c-18 -8 -31 -30 -31 -50 c0 -21 16 -39 45 -39c24 0 44 10 44 35zM132 154c0 -23 18 -34 52 -50c15 11 24 28 24 50c0 23 -17 36 -36 36c-30 0 -40 -19 -40 -36z" />
<glyph horiz-adv-x="340" d="M89 -67v5c70 16 118 46 125 93l-4 4c-16 -10 -34 -15 -63 -15c-52 0 -113 40 -113 120c0 69 51 122 131 122c96 0 144 -71 144 -161c0 -139 -75 -196 -195 -232zM125 143c0 -42 26 -57 55 -57c14 0 24 4 36 15c8 43 -2 90 -48 90c-24 0 -43 -18 -43 -48z" />
<glyph d="M135 -99l244 364l225 358l51 -31l-237 -349l-232 -375zM255 235h-85v295l-68 -8l-3 76l147 15l9 -7v-371zM506 151l-13 75c21 15 70 36 124 36c69 0 124 -29 124 -103c0 -59 -48 -133 -131 -201l3 -4l128 7v-81h-262l-4 38c128 112 178 164 178 221c0 29 -20 43 -50 43 c-32 0 -72 -16 -97 -31z" />
<glyph d="M135 -99l244 364l225 358l51 -31l-237 -349l-232 -375zM255 235h-85v295l-68 -8l-3 76l147 15l9 -7v-371zM493 -25h2c32 -15 65 -23 96 -23c38 0 66 12 66 45c0 23 -19 40 -54 38l-75 -3l5 79l67 -3c28 -2 50 15 50 38c0 26 -23 36 -52 36c-34 0 -65 -13 -82 -22h-4l5 85 c17 7 49 17 96 17c71 0 125 -33 125 -98c0 -44 -27 -73 -64 -86v-5c44 -15 71 -48 71 -88c0 -89 -85 -113 -145 -113c-46 0 -78 7 -105 20z" />
<glyph d="M135 -99l244 364l225 358l51 -31l-237 -349l-232 -375zM255 235h-85v295l-68 -8l-3 76l147 15l9 -7v-371zM729 50v-73h-40v-97h-86v97h-146l-9 39l150 238h91v-205zM539 45l64 2l2 112h-4l-65 -108z" />
<glyph d="M135 -99l244 364l225 358l51 -31l-237 -349l-232 -375zM255 235h-85v295l-68 -8l-3 76l147 15l9 -7v-371zM498 56l-3 1l25 197h209l-5 -83l-147 5l-8 -56c9 1 21 2 33 2c96 0 139 -55 139 -113c0 -81 -77 -137 -192 -137c-23 0 -45 1 -62 5l8 78c15 -3 43 -3 58 -3 c71 0 97 27 97 54c0 33 -39 53 -100 53c-19 0 -38 -2 -52 -3z" />
<glyph d="M135 -99l244 364l225 358l51 -31l-237 -349l-232 -375zM255 235h-85v295l-68 -8l-3 76l147 15l9 -7v-371zM549 102l4 -3c13 6 26 14 54 14c53 0 119 -37 119 -121c0 -79 -64 -120 -133 -120c-96 0 -142 71 -142 152c0 154 117 236 253 238l-8 -71 c-80 -6 -138 -46 -147 -89zM635 -9c0 40 -26 57 -55 57c-14 0 -24 -4 -36 -11c-10 -46 3 -94 53 -94c19 0 38 13 38 48z" />
<glyph d="M135 -99l244 364l225 358l51 -31l-237 -349l-232 -375zM255 235h-85v295l-68 -8l-3 76l147 15l9 -7v-371zM746 254l8 -11c-79 -123 -123 -243 -127 -363h-106c20 104 64 209 123 285l-3 7l-157 -3l6 85h256z" />
<glyph d="M135 -99l244 364l225 358l51 -31l-237 -349l-232 -375zM255 235h-85v295l-68 -8l-3 76l147 15l9 -7v-371zM480 -29c0 44 34 79 63 91v3c-39 27 -51 58 -51 88c0 64 51 109 128 109c64 0 118 -36 118 -96c0 -40 -21 -67 -57 -86v-1c53 -31 69 -62 69 -100 c0 -62 -58 -107 -134 -107c-81 0 -136 42 -136 99zM657 -20c0 18 -16 34 -58 54c-18 -8 -31 -30 -31 -50c0 -21 16 -39 45 -39c24 0 44 10 44 35zM577 154c0 -23 18 -34 52 -50c15 11 24 28 24 50c0 23 -17 36 -36 36c-30 0 -40 -19 -40 -36z" />
<glyph d="M135 -99l244 364l225 358l51 -31l-237 -349l-232 -375zM255 235h-85v295l-68 -8l-3 76l147 15l9 -7v-371zM534 -67v5c70 16 118 46 125 93l-4 4c-16 -10 -34 -15 -63 -15c-52 0 -113 40 -113 120c0 69 51 122 131 122c96 0 144 -71 144 -161c0 -139 -75 -196 -195 -232z M570 143c0 -42 26 -57 55 -57c14 0 24 4 36 15c8 43 -2 90 -48 90c-24 0 -43 -18 -43 -48z" />
<glyph d="M135 -99l244 364l225 358l51 -31l-237 -349l-232 -375zM91 506l-13 75c21 15 70 36 124 36c69 0 124 -29 124 -103c0 -59 -48 -133 -131 -201l3 -4l128 7v-81h-262l-4 38c128 112 178 164 178 221c0 29 -20 43 -50 43c-32 0 -72 -16 -97 -31zM493 -25h2 c32 -15 65 -23 96 -23c38 0 66 12 66 45c0 23 -19 40 -54 38l-75 -3l5 79l67 -3c28 -2 50 15 50 38c0 26 -23 36 -52 36c-34 0 -65 -13 -82 -22h-4l5 85c17 7 49 17 96 17c71 0 125 -33 125 -98c0 -44 -27 -73 -64 -86v-5c44 -15 71 -48 71 -88c0 -89 -85 -113 -145 -113 c-46 0 -78 7 -105 20z" />
<glyph d="M135 -99l244 364l225 358l51 -31l-237 -349l-232 -375zM91 506l-13 75c21 15 70 36 124 36c69 0 124 -29 124 -103c0 -59 -48 -133 -131 -201l3 -4l128 7v-81h-262l-4 38c128 112 178 164 178 221c0 29 -20 43 -50 43c-32 0 -72 -16 -97 -31zM498 56l-3 1l25 197h209 l-5 -83l-147 5l-8 -56c9 1 21 2 33 2c96 0 139 -55 139 -113c0 -81 -77 -137 -192 -137c-23 0 -45 1 -62 5l8 78c15 -3 43 -3 58 -3c71 0 97 27 97 54c0 33 -39 53 -100 53c-19 0 -38 -2 -52 -3z" />
<glyph d="M135 -99l244 364l225 358l51 -31l-237 -349l-232 -375zM91 506l-13 75c21 15 70 36 124 36c69 0 124 -29 124 -103c0 -59 -48 -133 -131 -201l3 -4l128 7v-81h-262l-4 38c128 112 178 164 178 221c0 29 -20 43 -50 43c-32 0 -72 -16 -97 -31zM746 254l8 -11 c-79 -123 -123 -243 -127 -363h-106c20 104 64 209 123 285l-3 7l-157 -3l6 85h256z" />
<glyph d="M135 -99l244 364l225 358l51 -31l-237 -349l-232 -375zM91 506l-13 75c21 15 70 36 124 36c69 0 124 -29 124 -103c0 -59 -48 -133 -131 -201l3 -4l128 7v-81h-262l-4 38c128 112 178 164 178 221c0 29 -20 43 -50 43c-32 0 -72 -16 -97 -31zM534 -67v5 c70 16 118 46 125 93l-4 4c-16 -10 -34 -15 -63 -15c-52 0 -113 40 -113 120c0 69 51 122 131 122c96 0 144 -71 144 -161c0 -139 -75 -196 -195 -232zM570 143c0 -42 26 -57 55 -57c14 0 24 4 36 15c8 43 -2 90 -48 90c-24 0 -43 -18 -43 -48z" />
<glyph d="M135 -99l244 364l225 358l51 -31l-237 -349l-232 -375zM78 330h2c32 -15 65 -23 96 -23c38 0 66 12 66 45c0 23 -19 40 -54 38l-75 -3l5 79l67 -3c28 -2 50 15 50 38c0 26 -23 36 -52 36c-34 0 -65 -13 -82 -22h-4l5 85c17 7 49 17 96 17c71 0 125 -33 125 -98 c0 -44 -27 -73 -64 -86v-5c44 -15 71 -48 71 -88c0 -89 -85 -113 -145 -113c-46 0 -78 7 -105 20zM729 50v-73h-40v-97h-86v97h-146l-9 39l150 238h91v-205zM539 45l64 2l2 112h-4l-65 -108z" />
<glyph d="M135 -99l244 364l225 358l51 -31l-237 -349l-232 -375zM78 330h2c32 -15 65 -23 96 -23c38 0 66 12 66 45c0 23 -19 40 -54 38l-75 -3l5 79l67 -3c28 -2 50 15 50 38c0 26 -23 36 -52 36c-34 0 -65 -13 -82 -22h-4l5 85c17 7 49 17 96 17c71 0 125 -33 125 -98 c0 -44 -27 -73 -64 -86v-5c44 -15 71 -48 71 -88c0 -89 -85 -113 -145 -113c-46 0 -78 7 -105 20zM498 56l-3 1l25 197h209l-5 -83l-147 5l-8 -56c9 1 21 2 33 2c96 0 139 -55 139 -113c0 -81 -77 -137 -192 -137c-23 0 -45 1 -62 5l8 78c15 -3 43 -3 58 -3 c71 0 97 27 97 54c0 33 -39 53 -100 53c-19 0 -38 -2 -52 -3z" />
<glyph d="M135 -99l244 364l225 358l51 -31l-237 -349l-232 -375zM78 330h2c32 -15 65 -23 96 -23c38 0 66 12 66 45c0 23 -19 40 -54 38l-75 -3l5 79l67 -3c28 -2 50 15 50 38c0 26 -23 36 -52 36c-34 0 -65 -13 -82 -22h-4l5 85c17 7 49 17 96 17c71 0 125 -33 125 -98 c0 -44 -27 -73 -64 -86v-5c44 -15 71 -48 71 -88c0 -89 -85 -113 -145 -113c-46 0 -78 7 -105 20zM746 254l8 -11c-79 -123 -123 -243 -127 -363h-106c20 104 64 209 123 285l-3 7l-157 -3l6 85h256z" />
<glyph d="M135 -99l244 364l225 358l51 -31l-237 -349l-232 -375zM78 330h2c32 -15 65 -23 96 -23c38 0 66 12 66 45c0 23 -19 40 -54 38l-75 -3l5 79l67 -3c28 -2 50 15 50 38c0 26 -23 36 -52 36c-34 0 -65 -13 -82 -22h-4l5 85c17 7 49 17 96 17c71 0 125 -33 125 -98 c0 -44 -27 -73 -64 -86v-5c44 -15 71 -48 71 -88c0 -89 -85 -113 -145 -113c-46 0 -78 7 -105 20zM480 -29c0 44 34 79 63 91v3c-39 27 -51 58 -51 88c0 64 51 109 128 109c64 0 118 -36 118 -96c0 -40 -21 -67 -57 -86v-1c53 -31 69 -62 69 -100c0 -62 -58 -107 -134 -107 c-81 0 -136 42 -136 99zM657 -20c0 18 -16 34 -58 54c-18 -8 -31 -30 -31 -50c0 -21 16 -39 45 -39c24 0 44 10 44 35zM577 154c0 -23 18 -34 52 -50c15 11 24 28 24 50c0 23 -17 36 -36 36c-30 0 -40 -19 -40 -36z" />
<glyph d="M135 -99l244 364l225 358l51 -31l-237 -349l-232 -375zM339 405v-73h-40v-97h-86v97h-146l-9 39l150 238h91v-205zM149 400l64 2l2 112h-4l-65 -108zM498 56l-3 1l25 197h209l-5 -83l-147 5l-8 -56c9 1 21 2 33 2c96 0 139 -55 139 -113c0 -81 -77 -137 -192 -137 c-23 0 -45 1 -62 5l8 78c15 -3 43 -3 58 -3c71 0 97 27 97 54c0 33 -39 53 -100 53c-19 0 -38 -2 -52 -3z" />
<glyph d="M135 -99l244 364l225 358l51 -31l-237 -349l-232 -375zM339 405v-73h-40v-97h-86v97h-146l-9 39l150 238h91v-205zM149 400l64 2l2 112h-4l-65 -108zM746 254l8 -11c-79 -123 -123 -243 -127 -363h-106c20 104 64 209 123 285l-3 7l-157 -3l6 85h256z" />
<glyph d="M135 -99l244 364l225 358l51 -31l-237 -349l-232 -375zM339 405v-73h-40v-97h-86v97h-146l-9 39l150 238h91v-205zM149 400l64 2l2 112h-4l-65 -108zM534 -67v5c70 16 118 46 125 93l-4 4c-16 -10 -34 -15 -63 -15c-52 0 -113 40 -113 120c0 69 51 122 131 122 c96 0 144 -71 144 -161c0 -139 -75 -196 -195 -232zM570 143c0 -42 26 -57 55 -57c14 0 24 4 36 15c8 43 -2 90 -48 90c-24 0 -43 -18 -43 -48z" />
<glyph d="M135 -99l244 364l225 358l51 -31l-237 -349l-232 -375zM83 411l-3 1l25 197h209l-5 -83l-147 5l-8 -56c9 1 21 2 33 2c96 0 139 -55 139 -113c0 -81 -77 -137 -192 -137c-23 0 -45 1 -62 5l8 78c15 -3 43 -3 58 -3c71 0 97 27 97 54c0 33 -39 53 -100 53 c-19 0 -38 -2 -52 -3zM549 102l4 -3c13 6 26 14 54 14c53 0 119 -37 119 -121c0 -79 -64 -120 -133 -120c-96 0 -142 71 -142 152c0 154 117 236 253 238l-8 -71c-80 -6 -138 -46 -147 -89zM635 -9c0 40 -26 57 -55 57c-14 0 -24 -4 -36 -11c-10 -46 3 -94 53 -94 c19 0 38 13 38 48z" />
<glyph d="M135 -99l244 364l225 358l51 -31l-237 -349l-232 -375zM83 411l-3 1l25 197h209l-5 -83l-147 5l-8 -56c9 1 21 2 33 2c96 0 139 -55 139 -113c0 -81 -77 -137 -192 -137c-23 0 -45 1 -62 5l8 78c15 -3 43 -3 58 -3c71 0 97 27 97 54c0 33 -39 53 -100 53 c-19 0 -38 -2 -52 -3zM746 254l8 -11c-79 -123 -123 -243 -127 -363h-106c20 104 64 209 123 285l-3 7l-157 -3l6 85h256z" />
<glyph d="M135 -99l244 364l225 358l51 -31l-237 -349l-232 -375zM83 411l-3 1l25 197h209l-5 -83l-147 5l-8 -56c9 1 21 2 33 2c96 0 139 -55 139 -113c0 -81 -77 -137 -192 -137c-23 0 -45 1 -62 5l8 78c15 -3 43 -3 58 -3c71 0 97 27 97 54c0 33 -39 53 -100 53 c-19 0 -38 -2 -52 -3zM480 -29c0 44 34 79 63 91v3c-39 27 -51 58 -51 88c0 64 51 109 128 109c64 0 118 -36 118 -96c0 -40 -21 -67 -57 -86v-1c53 -31 69 -62 69 -100c0 -62 -58 -107 -134 -107c-81 0 -136 42 -136 99zM657 -20c0 18 -16 34 -58 54 c-18 -8 -31 -30 -31 -50c0 -21 16 -39 45 -39c24 0 44 10 44 35zM577 154c0 -23 18 -34 52 -50c15 11 24 28 24 50c0 23 -17 36 -36 36c-30 0 -40 -19 -40 -36z" />
<glyph d="M135 -99l244 364l225 358l51 -31l-237 -349l-232 -375zM83 411l-3 1l25 197h209l-5 -83l-147 5l-8 -56c9 1 21 2 33 2c96 0 139 -55 139 -113c0 -81 -77 -137 -192 -137c-23 0 -45 1 -62 5l8 78c15 -3 43 -3 58 -3c71 0 97 27 97 54c0 33 -39 53 -100 53 c-19 0 -38 -2 -52 -3zM534 -67v5c70 16 118 46 125 93l-4 4c-16 -10 -34 -15 -63 -15c-52 0 -113 40 -113 120c0 69 51 122 131 122c96 0 144 -71 144 -161c0 -139 -75 -196 -195 -232zM570 143c0 -42 26 -57 55 -57c14 0 24 4 36 15c8 43 -2 90 -48 90 c-24 0 -43 -18 -43 -48z" />
<glyph d="M135 -99l244 364l225 358l51 -31l-237 -349l-232 -375zM370 609l8 -11c-79 -123 -123 -243 -127 -363h-106c20 104 64 209 123 285l-3 7l-157 -3l6 85h256zM480 -29c0 44 34 79 63 91v3c-39 27 -51 58 -51 88c0 64 51 109 128 109c64 0 118 -36 118 -96 c0 -40 -21 -67 -57 -86v-1c53 -31 69 -62 69 -100c0 -62 -58 -107 -134 -107c-81 0 -136 42 -136 99zM657 -20c0 18 -16 34 -58 54c-18 -8 -31 -30 -31 -50c0 -21 16 -39 45 -39c24 0 44 10 44 35zM577 154c0 -23 18 -34 52 -50c15 11 24 28 24 50c0 23 -17 36 -36 36 c-30 0 -40 -19 -40 -36z" />
<glyph d="M135 -99l244 364l225 358l51 -31l-237 -349l-232 -375zM370 609l8 -11c-79 -123 -123 -243 -127 -363h-106c20 104 64 209 123 285l-3 7l-157 -3l6 85h256zM534 -67v5c70 16 118 46 125 93l-4 4c-16 -10 -34 -15 -63 -15c-52 0 -113 40 -113 120c0 69 51 122 131 122 c96 0 144 -71 144 -161c0 -139 -75 -196 -195 -232zM570 143c0 -42 26 -57 55 -57c14 0 24 4 36 15c8 43 -2 90 -48 90c-24 0 -43 -18 -43 -48z" />
<glyph d="M135 -99l244 364l225 358l51 -31l-237 -349l-232 -375zM65 326c0 44 34 79 63 91v3c-39 27 -51 58 -51 88c0 64 51 109 128 109c64 0 118 -36 118 -96c0 -40 -21 -67 -57 -86v-1c53 -31 69 -62 69 -100c0 -62 -58 -107 -134 -107c-81 0 -136 42 -136 99zM242 335 c0 18 -16 34 -58 54c-18 -8 -31 -30 -31 -50c0 -21 16 -39 45 -39c24 0 44 10 44 35zM162 509c0 -23 18 -34 52 -50c15 11 24 28 24 50c0 23 -17 36 -36 36c-30 0 -40 -19 -40 -36zM534 -67v5c70 16 118 46 125 93l-4 4c-16 -10 -34 -15 -63 -15c-52 0 -113 40 -113 120 c0 69 51 122 131 122c96 0 144 -71 144 -161c0 -139 -75 -196 -195 -232zM570 143c0 -42 26 -57 55 -57c14 0 24 4 36 15c8 43 -2 90 -48 90c-24 0 -43 -18 -43 -48z" />
<glyph unicode="&#x2070;" horiz-adv-x="340" d="M302 606c0 -139 -58 -199 -132 -199c-75 0 -132 51 -132 199c0 137 60 191 133 191c76 0 131 -63 131 -191zM213 607c0 83 -19 110 -42 110c-24 0 -45 -26 -45 -110c0 -94 21 -120 44 -120c28 0 43 29 43 120z" />
<glyph unicode="&#xb9;" horiz-adv-x="340" d="M225 415h-85v295l-68 -8l-3 76l147 15l9 -7v-371z" />
<glyph unicode="&#xb2;" horiz-adv-x="340" d="M61 686l-13 75c21 15 70 36 124 36c69 0 124 -29 124 -103c0 -59 -48 -133 -131 -201l3 -4l128 7v-81h-262l-4 38c128 112 178 164 178 221c0 29 -20 43 -50 43c-32 0 -72 -16 -97 -31z" />
<glyph unicode="&#xb3;" horiz-adv-x="340" d="M48 510h2c32 -15 65 -23 96 -23c38 0 66 12 66 45c0 23 -19 40 -54 38l-75 -3l5 79l67 -3c28 -2 50 15 50 38c0 26 -23 36 -52 36c-34 0 -65 -13 -82 -22h-4l5 85c17 7 49 17 96 17c71 0 125 -33 125 -98c0 -44 -27 -73 -64 -86v-5c44 -15 71 -48 71 -88 c0 -89 -85 -113 -145 -113c-46 0 -78 7 -105 20z" />
<glyph unicode="&#x2074;" horiz-adv-x="340" d="M309 585v-73h-40v-97h-86v97h-146l-9 39l150 238h91v-205zM119 580l64 2l2 112h-4l-65 -108z" />
<glyph unicode="&#x2075;" horiz-adv-x="340" d="M53 591l-3 1l25 197h209l-5 -83l-147 5l-8 -56c9 1 21 2 33 2c96 0 139 -55 139 -113c0 -81 -77 -137 -192 -137c-23 0 -45 1 -62 5l8 78c15 -3 43 -3 58 -3c71 0 97 27 97 54c0 33 -39 53 -100 53c-19 0 -38 -2 -52 -3z" />
<glyph unicode="&#x2076;" horiz-adv-x="340" d="M132 637l4 -3c13 6 26 14 54 14c53 0 119 -37 119 -121c0 -79 -64 -120 -133 -120c-96 0 -142 71 -142 152c0 154 117 236 253 238l-8 -71c-80 -6 -138 -46 -147 -89zM218 526c0 40 -26 57 -55 57c-14 0 -24 -4 -36 -11c-10 -46 3 -94 53 -94c19 0 38 13 38 48z" />
<glyph unicode="&#x2077;" horiz-adv-x="340" d="M301 789l8 -11c-79 -123 -123 -243 -127 -363h-106c20 104 64 209 123 285l-3 7l-157 -3l6 85h256z" />
<glyph unicode="&#x2078;" horiz-adv-x="340" d="M35 506c0 44 34 79 63 91v3c-39 27 -51 58 -51 88c0 64 51 109 128 109c64 0 118 -36 118 -96c0 -40 -21 -67 -57 -86v-1c53 -31 69 -62 69 -100c0 -62 -58 -107 -134 -107c-81 0 -136 42 -136 99zM212 515c0 18 -16 34 -58 54c-18 -8 -31 -30 -31 -50 c0 -21 16 -39 45 -39c24 0 44 10 44 35zM132 689c0 -23 18 -34 52 -50c15 11 24 28 24 50c0 23 -17 36 -36 36c-30 0 -40 -19 -40 -36z" />
<glyph unicode="&#x2079;" horiz-adv-x="340" d="M89 468v5c70 16 118 46 125 93l-4 4c-16 -10 -34 -15 -63 -15c-52 0 -113 40 -113 120c0 69 51 122 131 122c96 0 144 -71 144 -161c0 -139 -75 -196 -195 -232zM125 678c0 -42 26 -57 55 -57c14 0 24 4 36 15c8 43 -2 90 -48 90c-24 0 -43 -18 -43 -48z" />
<glyph horiz-adv-x="340" d="M302 31c0 -139 -58 -199 -132 -199c-75 0 -132 51 -132 199c0 137 60 191 133 191c76 0 131 -63 131 -191zM213 32c0 83 -19 110 -42 110c-24 0 -45 -26 -45 -110c0 -94 21 -120 44 -120c28 0 43 29 43 120z" />
<glyph horiz-adv-x="340" d="M225 -160h-85v295l-68 -8l-3 76l147 15l9 -7v-371z" />
<glyph horiz-adv-x="340" d="M61 111l-13 75c21 15 70 36 124 36c69 0 124 -29 124 -103c0 -59 -48 -133 -131 -201l3 -4l128 7v-81h-262l-4 38c128 112 178 164 178 221c0 29 -20 43 -50 43c-32 0 -72 -16 -97 -31z" />
<glyph horiz-adv-x="340" d="M48 -65h2c32 -15 65 -23 96 -23c38 0 66 12 66 45c0 23 -19 40 -54 38l-75 -3l5 79l67 -3c28 -2 50 15 50 38c0 26 -23 36 -52 36c-34 0 -65 -13 -82 -22h-4l5 85c17 7 49 17 96 17c71 0 125 -33 125 -98c0 -44 -27 -73 -64 -86v-5c44 -15 71 -48 71 -88 c0 -89 -85 -113 -145 -113c-46 0 -78 7 -105 20z" />
<glyph horiz-adv-x="340" d="M309 10v-73h-40v-97h-86v97h-146l-9 39l150 238h91v-205zM119 5l64 2l2 112h-4l-65 -108z" />
<glyph horiz-adv-x="340" d="M53 16l-3 1l25 197h209l-5 -83l-147 5l-8 -56c9 1 21 2 33 2c96 0 139 -55 139 -113c0 -81 -77 -137 -192 -137c-23 0 -45 1 -62 5l8 78c15 -3 43 -3 58 -3c71 0 97 27 97 54c0 33 -39 53 -100 53c-19 0 -38 -2 -52 -3z" />
<glyph horiz-adv-x="340" d="M132 62l4 -3c13 6 26 14 54 14c53 0 119 -37 119 -121c0 -79 -64 -120 -133 -120c-96 0 -142 71 -142 152c0 154 117 236 253 238l-8 -71c-80 -6 -138 -46 -147 -89zM218 -49c0 40 -26 57 -55 57c-14 0 -24 -4 -36 -11c-10 -46 3 -94 53 -94c19 0 38 13 38 48z" />
<glyph horiz-adv-x="340" d="M301 214l8 -11c-79 -123 -123 -243 -127 -363h-106c20 104 64 209 123 285l-3 7l-157 -3l6 85h256z" />
<glyph horiz-adv-x="340" d="M35 -69c0 44 34 79 63 91v3c-39 27 -51 58 -51 88c0 64 51 109 128 109c64 0 118 -36 118 -96c0 -40 -21 -67 -57 -86v-1c53 -31 69 -62 69 -100c0 -62 -58 -107 -134 -107c-81 0 -136 42 -136 99zM212 -60c0 18 -16 34 -58 54c-18 -8 -31 -30 -31 -50 c0 -21 16 -39 45 -39c24 0 44 10 44 35zM132 114c0 -23 18 -34 52 -50c15 11 24 28 24 50c0 23 -17 36 -36 36c-30 0 -40 -19 -40 -36z" />
<glyph horiz-adv-x="340" d="M89 -107v5c70 16 118 46 125 93l-4 4c-16 -10 -34 -15 -63 -15c-52 0 -113 40 -113 120c0 69 51 122 131 122c96 0 144 -71 144 -161c0 -139 -75 -196 -195 -232zM125 103c0 -42 26 -57 55 -57c14 0 24 4 36 15c8 43 -2 90 -48 90c-24 0 -43 -18 -43 -48z" />
<glyph unicode="&#xc6;" horiz-adv-x="980" d="M888 680v-124h-267v-147h240v-124h-240v-161h278v-124h-413v133h-222l-85 -133h-145l447 680h407zM479 466l-140 -217h147v217h-7z" />
<glyph unicode="&#x152;" horiz-adv-x="1000" d="M908 680v-124h-267v-147h240v-124h-240v-161h278v-124h-411c-29 -10 -60 -15 -92 -15c-185 0 -345 133 -345 350c0 215 168 360 345 360c31 0 62 -6 91 -15h401zM416 112c33 0 63 7 90 19v415c-27 14 -58 22 -91 22c-112 0 -203 -90 -203 -231c0 -150 104 -225 204 -225z " />
<glyph unicode="&#xde;" horiz-adv-x="580" d="M106 680h135v-115h48c151 0 245 -78 245 -216c0 -132 -98 -223 -236 -223h-57v-126h-135v680zM393 347c0 65 -45 96 -101 96h-51v-195h51c53 0 101 26 101 99z" />
<glyph unicode="&#x1e9e;" horiz-adv-x="720" d="M572 534c0 -91 -88 -111 -88 -166c0 -78 185 -67 185 -232c0 -104 -99 -151 -192 -151c-83 0 -153 24 -181 53l44 110c34 -22 69 -41 118 -41c47 0 69 23 69 44c0 74 -191 77 -191 197c0 78 91 95 91 159c0 40 -48 63 -92 63c-47 0 -85 -22 -94 -43v-527h-135v597 c32 43 109 98 225 98c159 0 241 -84 241 -161z" />
<glyph unicode="&#xe6;" horiz-adv-x="800" d="M718 505v-112h-218v-84h188v-108h-188v-89h225v-112h-355v89h-158l-61 -89h-138l356 505h349zM366 319l-90 -135h94v135h-4z" />
<glyph unicode="&#xf0;" horiz-adv-x="580" d="M260 0h-180v217h-55v71h55v217h179c149 0 266 -101 266 -253c0 -161 -111 -252 -265 -252zM210 112h59c71 0 123 52 123 142c0 87 -68 139 -124 139h-58v-105h77v-71h-77v-105z" />
<glyph unicode="&#x153;" horiz-adv-x="830" d="M748 505v-112h-218v-84h188v-108h-188v-89h225v-112h-350c-24 -6 -51 -10 -79 -10c-158 0 -271 114 -271 260c0 161 130 265 271 265c25 0 50 -4 74 -10h348zM328 104c26 0 51 7 72 20v254c-22 15 -48 23 -75 23c-69 0 -136 -54 -136 -149c0 -77 47 -148 139 -148z" />
<glyph unicode="&#xfe;" horiz-adv-x="500" d="M80 505h130v-78h56c115 0 196 -66 196 -175c0 -70 -49 -162 -200 -162h-52v-90h-130v505zM323 255c0 36 -27 65 -71 65h-42v-125h45c40 0 68 21 68 60z" />
<glyph unicode="&#xdf;" horiz-adv-x="620" d="M507 373c0 -61 -67 -58 -67 -103c0 -41 134 -55 134 -155c0 -87 -90 -125 -177 -125c-67 0 -121 16 -141 33l24 108c30 -19 57 -29 98 -29c45 0 67 14 67 28c0 37 -139 53 -139 127c0 59 65 59 65 100c0 36 -36 50 -71 50c-45 0 -81 -22 -90 -43v-364h-130v417 c31 41 103 93 216 93c141 0 211 -67 211 -137z" />
<glyph unicode="&#x131;" horiz-adv-x="310" d="M220 505v-505h-130v505h130z" />
<glyph unicode="&#xb4;" horiz-adv-x="500" d="M173 453v8l96 164h134v-10l-149 -162h-81z" />
<glyph unicode="`" horiz-adv-x="500" d="M327 461v-8h-81l-149 162v10h134z" />
<glyph unicode="&#x2c6;" horiz-adv-x="500" d="M393 461v-8h-81l-61 78l-60 -78h-81v8l111 164h61z" />
<glyph unicode="&#xa8;" horiz-adv-x="500" d="M402 524c0 -33 -32 -62 -63 -62c-34 0 -64 29 -64 62c0 34 30 64 64 64c31 0 63 -30 63 -64zM225 524c0 -33 -28 -62 -63 -62c-33 0 -64 29 -64 62c0 34 31 64 64 64c35 0 63 -30 63 -64z" />
<glyph unicode="&#x2dc;" horiz-adv-x="500" d="M343 598h70c0 -68 -39 -130 -98 -130c-57 0 -76 53 -111 53c-25 0 -40 -23 -40 -51h-68c0 83 45 130 99 130s81 -54 113 -54c23 0 35 25 35 52z" />
<glyph unicode="&#xaf;" horiz-adv-x="500" d="M372 483h-244v85h244v-85z" />
<glyph unicode="&#x2d8;" horiz-adv-x="500" d="M249 453c-70 0 -134 55 -134 172h67c0 -49 26 -98 68 -98c36 0 68 41 68 98h67c0 -116 -66 -172 -136 -172z" />
<glyph unicode="&#x2c7;" horiz-adv-x="500" d="M393 625v-8l-111 -164h-61l-111 164v8h81l60 -78l61 78h81z" />
<glyph unicode="&#x2d9;" horiz-adv-x="500" d="M170 539c0 44 35 79 79 79s79 -35 79 -79s-35 -79 -79 -79s-79 35 -79 79z" />
<glyph unicode="&#x2da;" horiz-adv-x="500" d="M137 557c0 63 50 113 113 113s113 -50 113 -113s-50 -113 -113 -113s-113 50 -113 113zM203 557c0 -28 18 -50 46 -50c27 0 47 22 47 50c0 27 -20 52 -47 52c-28 0 -46 -25 -46 -52z" />
<glyph unicode="&#xb8;" horiz-adv-x="500" d="M192 -224l-8 40c47 7 82 24 82 52c0 23 -25 32 -56 32c-10 0 -31 -1 -40 -2l-5 7l58 115h65l-38 -75c60 0 110 -21 110 -70c0 -51 -66 -88 -168 -99z" />
<glyph unicode="&#x2dd;" horiz-adv-x="500" d="M119 453v8l96 164h129v-10l-154 -162h-71zM284 453v8l96 164h129v-10l-154 -162h-71z" />
<glyph unicode="&#x2db;" horiz-adv-x="500" d="M288 24v-6c-48 -33 -75 -74 -75 -110c0 -26 17 -36 35 -36c11 0 18 2 26 5v-68c-13 -5 -28 -8 -55 -8c-41 0 -91 22 -91 78c0 63 62 132 126 160z" />
<glyph horiz-adv-x="500" d="M173 458v8l96 124h144v-10l-149 -122h-91z" />
<glyph horiz-adv-x="500" d="M327 466v-8h-91l-149 122v10h144z" />
<glyph horiz-adv-x="500" d="M418 466v-8h-91l-76 58l-75 -58h-91v8l131 124h71z" />
<glyph horiz-adv-x="500" d="M249 448c-70 0 -134 41 -134 132h67c0 -33 26 -63 68 -63c36 0 68 27 68 63h67c0 -91 -66 -132 -136 -132z" />
<glyph horiz-adv-x="500" d="M418 590v-8l-131 -124h-71l-131 124v8h91l75 -58l76 58h91z" />
<glyph horiz-adv-x="500" d="M108 453v8l71 134h134v-10l-129 -132h-76zM278 453v8l71 134h134v-10l-129 -132h-76z" />
<glyph unicode="&#xc1;" horiz-adv-x="730" d="M541 0l-52 133h-248l-52 -133h-145l279 680h80l283 -680h-145zM361 458l-77 -209h161l-77 209h-7zM288 740v8l96 124h144v-10l-149 -122h-91z" />
<glyph unicode="&#xc0;" horiz-adv-x="730" d="M541 0l-52 133h-248l-52 -133h-145l279 680h80l283 -680h-145zM361 458l-77 -209h161l-77 209h-7zM442 748v-8h-91l-149 122v10h144z" />
<glyph unicode="&#xc2;" horiz-adv-x="730" d="M541 0l-52 133h-248l-52 -133h-145l279 680h80l283 -680h-145zM361 458l-77 -209h161l-77 209h-7zM533 748v-8h-91l-76 58l-75 -58h-91v8l131 124h71z" />
<glyph unicode="&#xc4;" horiz-adv-x="730" d="M541 0l-52 133h-248l-52 -133h-145l279 680h80l283 -680h-145zM361 458l-77 -209h161l-77 209h-7zM517 801c0 -33 -32 -62 -63 -62c-34 0 -64 29 -64 62c0 34 30 64 64 64c31 0 63 -30 63 -64zM340 801c0 -33 -28 -62 -63 -62c-33 0 -64 29 -64 62c0 34 31 64 64 64 c35 0 63 -30 63 -64z" />
<glyph unicode="&#xc3;" horiz-adv-x="730" d="M541 0l-52 133h-248l-52 -133h-145l279 680h80l283 -680h-145zM361 458l-77 -209h161l-77 209h-7zM458 875h70c0 -68 -39 -130 -98 -130c-57 0 -76 53 -111 53c-25 0 -40 -23 -40 -51h-68c0 83 45 130 99 130s81 -54 113 -54c23 0 35 25 35 52z" />
<glyph unicode="&#xc5;" horiz-adv-x="730" d="M541 0l-52 133h-248l-52 -133h-145l279 680h80l283 -680h-145zM361 458l-77 -209h161l-77 209h-7zM252 834c0 63 50 113 113 113s113 -50 113 -113s-50 -113 -113 -113s-113 50 -113 113zM318 834c0 -28 18 -50 46 -50c27 0 47 22 47 50c0 27 -20 52 -47 52 c-28 0 -46 -25 -46 -52z" />
<glyph unicode="&#xc7;" horiz-adv-x="720" d="M344 -224l-8 40c47 7 82 24 82 52c0 23 -25 32 -56 32c-10 0 -31 -1 -40 -2l-5 7l43 85c-175 27 -289 167 -289 334c0 223 157 371 353 371c94 0 170 -29 228 -65l-35 -123h-6c-39 32 -109 61 -188 61c-125 0 -211 -84 -211 -240c0 -134 103 -216 214 -216 c77 0 137 21 189 62h6l40 -111c-53 -46 -157 -78 -237 -78h-2l-20 -40c60 0 110 -21 110 -70c0 -51 -66 -88 -168 -99z" />
<glyph unicode="&#xd0;" horiz-adv-x="740" d="M316 0h-210v302h-59v71h59v307h204c208 0 359 -122 359 -346c0 -199 -158 -334 -353 -334zM241 124h71c123 0 217 84 217 212c0 155 -114 220 -208 220h-80v-183h134v-71h-134v-178z" />
<glyph unicode="&#xc9;" horiz-adv-x="600" d="M508 680v-124h-267v-147h240v-124h-240v-161h278v-124h-413v680h402zM229 740v8l96 124h144v-10l-149 -122h-91z" />
<glyph unicode="&#xc8;" horiz-adv-x="600" d="M508 680v-124h-267v-147h240v-124h-240v-161h278v-124h-413v680h402zM383 748v-8h-91l-149 122v10h144z" />
<glyph unicode="&#xca;" horiz-adv-x="600" d="M508 680v-124h-267v-147h240v-124h-240v-161h278v-124h-413v680h402zM474 748v-8h-91l-76 58l-75 -58h-91v8l131 124h71z" />
<glyph unicode="&#xcb;" horiz-adv-x="600" d="M508 680v-124h-267v-147h240v-124h-240v-161h278v-124h-413v680h402zM458 801c0 -33 -32 -62 -63 -62c-34 0 -64 29 -64 62c0 34 30 64 64 64c31 0 63 -30 63 -64zM281 801c0 -33 -28 -62 -63 -62c-33 0 -64 29 -64 62c0 34 31 64 64 64c35 0 63 -30 63 -64z" />
<glyph horiz-adv-x="640" d="M542 154h4l36 -111c-45 -38 -118 -58 -181 -58c-177 0 -330 128 -330 344c0 231 172 366 322 366c78 0 127 -13 188 -48l-41 -118h-4c-26 22 -80 40 -135 39c-72 -1 -156 -43 -182 -159h254v-124h-257c18 -116 104 -173 192 -173c56 0 95 16 134 42zM291 740v8l96 124 h144v-10l-149 -122h-91z" />
<glyph horiz-adv-x="640" d="M542 154h4l36 -111c-45 -38 -118 -58 -181 -58c-177 0 -330 128 -330 344c0 231 172 366 322 366c78 0 127 -13 188 -48l-41 -118h-4c-26 22 -80 40 -135 39c-72 -1 -156 -43 -182 -159h254v-124h-257c18 -116 104 -173 192 -173c56 0 95 16 134 42zM445 748v-8h-91 l-149 122v10h144z" />
<glyph horiz-adv-x="640" d="M542 154h4l36 -111c-45 -38 -118 -58 -181 -58c-177 0 -330 128 -330 344c0 231 172 366 322 366c78 0 127 -13 188 -48l-41 -118h-4c-26 22 -80 40 -135 39c-72 -1 -156 -43 -182 -159h254v-124h-257c18 -116 104 -173 192 -173c56 0 95 16 134 42zM536 748v-8h-91 l-76 58l-75 -58h-91v8l131 124h71z" />
<glyph horiz-adv-x="640" d="M542 154h4l36 -111c-45 -38 -118 -58 -181 -58c-177 0 -330 128 -330 344c0 231 172 366 322 366c78 0 127 -13 188 -48l-41 -118h-4c-26 22 -80 40 -135 39c-72 -1 -156 -43 -182 -159h254v-124h-257c18 -116 104 -173 192 -173c56 0 95 16 134 42zM520 801 c0 -33 -32 -62 -63 -62c-34 0 -64 29 -64 62c0 34 30 64 64 64c31 0 63 -30 63 -64zM343 801c0 -33 -28 -62 -63 -62c-33 0 -64 29 -64 62c0 34 31 64 64 64c35 0 63 -30 63 -64z" />
<glyph unicode="&#xcd;" horiz-adv-x="350" d="M243 680v-680h-135v680h135zM98 740v8l96 124h144v-10l-149 -122h-91z" />
<glyph unicode="&#xcc;" horiz-adv-x="350" d="M243 680v-680h-135v680h135zM252 748v-8h-91l-149 122v10h144z" />
<glyph unicode="&#xce;" horiz-adv-x="350" d="M243 680v-680h-135v680h135zM343 748v-8h-91l-76 58l-75 -58h-91v8l131 124h71z" />
<glyph unicode="&#xcf;" horiz-adv-x="350" d="M243 680v-680h-135v680h135zM327 801c0 -33 -32 -62 -63 -62c-34 0 -64 29 -64 62c0 34 30 64 64 64c31 0 63 -30 63 -64zM150 801c0 -33 -28 -62 -63 -62c-33 0 -64 29 -64 62c0 34 31 64 64 64c35 0 63 -30 63 -64z" />
<glyph unicode="&#x141;" horiz-adv-x="560" d="M241 680v-264l117 78l36 -53l-153 -102v-215h264v-124h-399v249l-48 -32l-36 53l84 56v354h135z" />
<glyph unicode="&#xd1;" horiz-adv-x="830" d="M193 680l391 -432h6v432h134v-680h-84l-394 437h-5v-437h-135v680h87zM508 875h70c0 -68 -39 -130 -98 -130c-57 0 -76 53 -111 53c-25 0 -40 -23 -40 -51h-68c0 83 45 130 99 130s81 -54 113 -54c23 0 35 25 35 52z" />
<glyph unicode="&#xd3;" horiz-adv-x="830" d="M759 335c0 -207 -155 -350 -343 -350c-185 0 -345 133 -345 350c0 215 168 360 345 360c182 0 343 -142 343 -360zM619 337c0 141 -89 231 -204 231c-112 0 -203 -90 -203 -231c0 -150 104 -225 204 -225c121 0 203 92 203 225zM338 740v8l96 124h144v-10l-149 -122h-91z " />
<glyph unicode="&#xd2;" horiz-adv-x="830" d="M759 335c0 -207 -155 -350 -343 -350c-185 0 -345 133 -345 350c0 215 168 360 345 360c182 0 343 -142 343 -360zM619 337c0 141 -89 231 -204 231c-112 0 -203 -90 -203 -231c0 -150 104 -225 204 -225c121 0 203 92 203 225zM492 748v-8h-91l-149 122v10h144z" />
<glyph unicode="&#xd4;" horiz-adv-x="830" d="M759 335c0 -207 -155 -350 -343 -350c-185 0 -345 133 -345 350c0 215 168 360 345 360c182 0 343 -142 343 -360zM619 337c0 141 -89 231 -204 231c-112 0 -203 -90 -203 -231c0 -150 104 -225 204 -225c121 0 203 92 203 225zM583 748v-8h-91l-76 58l-75 -58h-91v8 l131 124h71z" />
<glyph unicode="&#xd6;" horiz-adv-x="830" d="M759 335c0 -207 -155 -350 -343 -350c-185 0 -345 133 -345 350c0 215 168 360 345 360c182 0 343 -142 343 -360zM619 337c0 141 -89 231 -204 231c-112 0 -203 -90 -203 -231c0 -150 104 -225 204 -225c121 0 203 92 203 225zM567 801c0 -33 -32 -62 -63 -62 c-34 0 -64 29 -64 62c0 34 30 64 64 64c31 0 63 -30 63 -64zM390 801c0 -33 -28 -62 -63 -62c-33 0 -64 29 -64 62c0 34 31 64 64 64c35 0 63 -30 63 -64z" />
<glyph unicode="&#xd5;" horiz-adv-x="830" d="M759 335c0 -207 -155 -350 -343 -350c-185 0 -345 133 -345 350c0 215 168 360 345 360c182 0 343 -142 343 -360zM619 337c0 141 -89 231 -204 231c-112 0 -203 -90 -203 -231c0 -150 104 -225 204 -225c121 0 203 92 203 225zM508 875h70c0 -68 -39 -130 -98 -130 c-57 0 -76 53 -111 53c-25 0 -40 -23 -40 -51h-68c0 83 45 130 99 130s81 -54 113 -54c23 0 35 25 35 52z" />
<glyph unicode="&#xd8;" horiz-adv-x="830" d="M127 -12l59 80c-70 60 -115 152 -115 267c0 215 168 360 345 360c69 0 135 -21 191 -58l56 76l44 -28l-60 -81c68 -63 112 -156 112 -269c0 -207 -155 -350 -343 -350c-69 0 -134 18 -188 52l-57 -77zM212 337c0 -69 22 -122 55 -159l262 354c-32 23 -71 36 -114 36 c-112 0 -203 -90 -203 -231zM619 337c0 65 -20 120 -52 159l-260 -352c33 -22 71 -32 109 -32c121 0 203 92 203 225z" />
<glyph unicode="&#x160;" horiz-adv-x="590" d="M66 52l48 119c44 -34 103 -61 166 -61s93 37 93 69c0 48 -31 73 -124 125c-125 70 -169 118 -169 213c0 82 72 178 218 178c84 0 162 -37 204 -68l-38 -112c-51 32 -101 55 -159 55c-40 0 -84 -15 -84 -55s34 -64 140 -126c110 -65 156 -130 156 -208 c0 -141 -121 -196 -234 -196c-78 0 -175 30 -217 67zM459 872v-8l-131 -124h-71l-131 124v8h91l75 -58l76 58h91z" />
<glyph unicode="&#xda;" horiz-adv-x="770" d="M664 680v-429c0 -138 -90 -266 -279 -266c-234 0 -279 145 -279 252v443h135v-417c0 -82 40 -150 144 -150c78 0 145 40 145 155v412h134zM308 740v8l96 124h144v-10l-149 -122h-91z" />
<glyph unicode="&#xd9;" horiz-adv-x="770" d="M664 680v-429c0 -138 -90 -266 -279 -266c-234 0 -279 145 -279 252v443h135v-417c0 -82 40 -150 144 -150c78 0 145 40 145 155v412h134zM462 748v-8h-91l-149 122v10h144z" />
<glyph unicode="&#xdb;" horiz-adv-x="770" d="M664 680v-429c0 -138 -90 -266 -279 -266c-234 0 -279 145 -279 252v443h135v-417c0 -82 40 -150 144 -150c78 0 145 40 145 155v412h134zM553 748v-8h-91l-76 58l-75 -58h-91v8l131 124h71z" />
<glyph unicode="&#xdc;" horiz-adv-x="770" d="M664 680v-429c0 -138 -90 -266 -279 -266c-234 0 -279 145 -279 252v443h135v-417c0 -82 40 -150 144 -150c78 0 145 40 145 155v412h134zM537 801c0 -33 -32 -62 -63 -62c-34 0 -64 29 -64 62c0 34 30 64 64 64c31 0 63 -30 63 -64zM360 801c0 -33 -28 -62 -63 -62 c-33 0 -64 29 -64 62c0 34 31 64 64 64c35 0 63 -30 63 -64z" />
<glyph unicode="&#xdd;" horiz-adv-x="670" d="M192 680l142 -258h2l142 258h150l-225 -390v-290h-135v290l-226 390h150zM258 740v8l96 124h144v-10l-149 -122h-91z" />
<glyph unicode="&#x178;" horiz-adv-x="670" d="M192 680l142 -258h2l142 258h150l-225 -390v-290h-135v290l-226 390h150zM487 801c0 -33 -32 -62 -63 -62c-34 0 -64 29 -64 62c0 34 30 64 64 64c31 0 63 -30 63 -64zM310 801c0 -33 -28 -62 -63 -62c-33 0 -64 29 -64 62c0 34 31 64 64 64c35 0 63 -30 63 -64z" />
<glyph unicode="&#x17d;" horiz-adv-x="690" d="M401 550l-3 4h-299v126h530l3 -4l-338 -545l3 -5h317v-126h-543l-4 7zM539 872v-8l-131 -124h-71l-131 124v8h91l75 -58l76 58h91z" />
<glyph unicode="&#xe1;" horiz-adv-x="570" d="M409 0l-34 89h-181l-33 -89h-138l219 505h84l221 -505h-138zM281 329l-52 -145h111l-53 145h-6zM208 550v8l96 164h134v-10l-149 -162h-81z" />
<glyph unicode="&#xe0;" horiz-adv-x="570" d="M409 0l-34 89h-181l-33 -89h-138l219 505h84l221 -505h-138zM281 329l-52 -145h111l-53 145h-6zM362 558v-8h-81l-149 162v10h134z" />
<glyph unicode="&#xe2;" horiz-adv-x="570" d="M409 0l-34 89h-181l-33 -89h-138l219 505h84l221 -505h-138zM281 329l-52 -145h111l-53 145h-6zM428 558v-8h-81l-61 78l-60 -78h-81v8l111 164h61z" />
<glyph unicode="&#xe4;" horiz-adv-x="570" d="M409 0l-34 89h-181l-33 -89h-138l219 505h84l221 -505h-138zM281 329l-52 -145h111l-53 145h-6zM437 621c0 -33 -32 -62 -63 -62c-34 0 -64 29 -64 62c0 34 30 64 64 64c31 0 63 -30 63 -64zM260 621c0 -33 -28 -62 -63 -62c-33 0 -64 29 -64 62c0 34 31 64 64 64 c35 0 63 -30 63 -64z" />
<glyph unicode="&#xe3;" horiz-adv-x="570" d="M409 0l-34 89h-181l-33 -89h-138l219 505h84l221 -505h-138zM281 329l-52 -145h111l-53 145h-6zM378 695h70c0 -68 -39 -130 -98 -130c-57 0 -76 53 -111 53c-25 0 -40 -23 -40 -51h-68c0 83 45 130 99 130s81 -54 113 -54c23 0 35 25 35 52z" />
<glyph unicode="&#xe5;" horiz-adv-x="570" d="M409 0l-34 89h-181l-33 -89h-138l219 505h84l221 -505h-138zM281 329l-52 -145h111l-53 145h-6zM172 654c0 63 50 113 113 113s113 -50 113 -113s-50 -113 -113 -113s-113 50 -113 113zM238 654c0 -28 18 -50 46 -50c27 0 47 22 47 50c0 27 -20 52 -47 52 c-28 0 -46 -25 -46 -52z" />
<glyph unicode="&#xe7;" horiz-adv-x="570" d="M252 -224l-8 40c47 7 82 24 82 52c0 23 -25 32 -56 32c-10 0 -31 -1 -40 -2l-5 7l45 90c-132 21 -215 127 -215 252c0 170 134 268 273 268c81 0 148 -29 188 -63l-39 -100h-4c-31 27 -83 50 -144 49c-71 -1 -140 -50 -140 -152c0 -92 61 -145 144 -145 c56 0 96 14 140 44h5l38 -97c-49 -38 -114 -59 -183 -61l-23 -45c60 0 110 -21 110 -70c0 -51 -66 -88 -168 -99z" />
<glyph unicode="&#xe9;" horiz-adv-x="520" d="M438 505v-112h-228v-84h198v-108h-198v-89h235v-112h-365v505h358zM181 550v8l96 164h134v-10l-149 -162h-81z" />
<glyph unicode="&#xe8;" horiz-adv-x="520" d="M438 505v-112h-228v-84h198v-108h-198v-89h235v-112h-365v505h358zM335 558v-8h-81l-149 162v10h134z" />
<glyph unicode="&#xea;" horiz-adv-x="520" d="M438 505v-112h-228v-84h198v-108h-198v-89h235v-112h-365v505h358zM401 558v-8h-81l-61 78l-60 -78h-81v8l111 164h61z" />
<glyph unicode="&#xeb;" horiz-adv-x="520" d="M438 505v-112h-228v-84h198v-108h-198v-89h235v-112h-365v505h358zM410 621c0 -33 -32 -62 -63 -62c-34 0 -64 29 -64 62c0 34 30 64 64 64c31 0 63 -30 63 -64zM233 621c0 -33 -28 -62 -63 -62c-33 0 -64 29 -64 62c0 34 31 64 64 64c35 0 63 -30 63 -64z" />
<glyph horiz-adv-x="520" d="M445 133h5l36 -99c-46 -32 -103 -44 -165 -44c-155 0 -266 117 -266 257c0 167 134 268 268 268c67 0 125 -23 153 -43l-30 -103h-5c-29 19 -68 35 -115 34c-59 -1 -117 -32 -139 -97h211v-104h-212c20 -63 81 -100 147 -100c45 0 86 14 112 31zM224 550v8l96 164h134 v-10l-149 -162h-81z" />
<glyph horiz-adv-x="520" d="M445 133h5l36 -99c-46 -32 -103 -44 -165 -44c-155 0 -266 117 -266 257c0 167 134 268 268 268c67 0 125 -23 153 -43l-30 -103h-5c-29 19 -68 35 -115 34c-59 -1 -117 -32 -139 -97h211v-104h-212c20 -63 81 -100 147 -100c45 0 86 14 112 31zM378 558v-8h-81l-149 162 v10h134z" />
<glyph horiz-adv-x="520" d="M445 133h5l36 -99c-46 -32 -103 -44 -165 -44c-155 0 -266 117 -266 257c0 167 134 268 268 268c67 0 125 -23 153 -43l-30 -103h-5c-29 19 -68 35 -115 34c-59 -1 -117 -32 -139 -97h211v-104h-212c20 -63 81 -100 147 -100c45 0 86 14 112 31zM444 558v-8h-81l-61 78 l-60 -78h-81v8l111 164h61z" />
<glyph horiz-adv-x="520" d="M445 133h5l36 -99c-46 -32 -103 -44 -165 -44c-155 0 -266 117 -266 257c0 167 134 268 268 268c67 0 125 -23 153 -43l-30 -103h-5c-29 19 -68 35 -115 34c-59 -1 -117 -32 -139 -97h211v-104h-212c20 -63 81 -100 147 -100c45 0 86 14 112 31zM453 621 c0 -33 -32 -62 -63 -62c-34 0 -64 29 -64 62c0 34 30 64 64 64c31 0 63 -30 63 -64zM276 621c0 -33 -28 -62 -63 -62c-33 0 -64 29 -64 62c0 34 31 64 64 64c35 0 63 -30 63 -64z" />
<glyph unicode="&#xed;" horiz-adv-x="310" d="M220 505v-505h-130v505h130zM78 550v8l96 164h134v-10l-149 -162h-81z" />
<glyph unicode="&#xec;" horiz-adv-x="310" d="M220 505v-505h-130v505h130zM232 558v-8h-81l-149 162v10h134z" />
<glyph unicode="&#xee;" horiz-adv-x="310" d="M220 505v-505h-130v505h130zM298 558v-8h-81l-61 78l-60 -78h-81v8l111 164h61z" />
<glyph unicode="&#xef;" horiz-adv-x="310" d="M220 505v-505h-130v505h130zM307 621c0 -33 -32 -62 -63 -62c-34 0 -64 29 -64 62c0 34 30 64 64 64c31 0 63 -30 63 -64zM130 621c0 -33 -28 -62 -63 -62c-33 0 -64 29 -64 62c0 34 31 64 64 64c35 0 63 -30 63 -64z" />
<glyph unicode="&#x142;" horiz-adv-x="460" d="M210 505v-178l55 39l25 -38l-80 -56v-160h197v-112h-327v181l-34 -24l-25 38l59 41v269h130z" />
<glyph unicode="&#xf1;" horiz-adv-x="650" d="M163 505l272 -286h5v286h130v-505h-83l-272 287h-5v-287h-130v505h83zM418 695h70c0 -68 -39 -130 -98 -130c-57 0 -76 53 -111 53c-25 0 -40 -23 -40 -51h-68c0 83 45 130 99 130s81 -54 113 -54c23 0 35 25 35 52z" />
<glyph unicode="&#xf3;" horiz-adv-x="650" d="M595 250c0 -142 -106 -260 -269 -260c-158 0 -271 114 -271 260c0 161 130 265 271 265c138 0 269 -101 269 -265zM462 252c0 89 -63 149 -137 149c-69 0 -136 -54 -136 -149c0 -77 47 -148 139 -148c74 0 134 55 134 148zM248 550v8l96 164h134v-10l-149 -162h-81z" />
<glyph unicode="&#xf2;" horiz-adv-x="650" d="M595 250c0 -142 -106 -260 -269 -260c-158 0 -271 114 -271 260c0 161 130 265 271 265c138 0 269 -101 269 -265zM462 252c0 89 -63 149 -137 149c-69 0 -136 -54 -136 -149c0 -77 47 -148 139 -148c74 0 134 55 134 148zM402 558v-8h-81l-149 162v10h134z" />
<glyph unicode="&#xf4;" horiz-adv-x="650" d="M595 250c0 -142 -106 -260 -269 -260c-158 0 -271 114 -271 260c0 161 130 265 271 265c138 0 269 -101 269 -265zM462 252c0 89 -63 149 -137 149c-69 0 -136 -54 -136 -149c0 -77 47 -148 139 -148c74 0 134 55 134 148zM468 558v-8h-81l-61 78l-60 -78h-81v8l111 164 h61z" />
<glyph unicode="&#xf6;" horiz-adv-x="650" d="M595 250c0 -142 -106 -260 -269 -260c-158 0 -271 114 -271 260c0 161 130 265 271 265c138 0 269 -101 269 -265zM462 252c0 89 -63 149 -137 149c-69 0 -136 -54 -136 -149c0 -77 47 -148 139 -148c74 0 134 55 134 148zM477 621c0 -33 -32 -62 -63 -62 c-34 0 -64 29 -64 62c0 34 30 64 64 64c31 0 63 -30 63 -64zM300 621c0 -33 -28 -62 -63 -62c-33 0 -64 29 -64 62c0 34 31 64 64 64c35 0 63 -30 63 -64z" />
<glyph unicode="&#xf5;" horiz-adv-x="650" d="M595 250c0 -142 -106 -260 -269 -260c-158 0 -271 114 -271 260c0 161 130 265 271 265c138 0 269 -101 269 -265zM462 252c0 89 -63 149 -137 149c-69 0 -136 -54 -136 -149c0 -77 47 -148 139 -148c74 0 134 55 134 148zM418 695h70c0 -68 -39 -130 -98 -130 c-57 0 -76 53 -111 53c-25 0 -40 -23 -40 -51h-68c0 83 45 130 99 130s81 -54 113 -54c23 0 35 25 35 52z" />
<glyph unicode="&#xf8;" horiz-adv-x="650" d="M86 11l47 52c-49 47 -78 113 -78 187c0 161 130 265 271 265c59 0 116 -19 163 -53l42 47l34 -30l-42 -47c44 -45 72 -107 72 -182c0 -142 -106 -260 -269 -260c-61 0 -116 17 -159 46l-50 -55zM189 252c0 -35 10 -68 28 -94l191 214c-23 18 -52 29 -83 29 c-69 0 -136 -54 -136 -149zM462 252c0 33 -9 62 -24 86l-190 -211c21 -15 48 -23 80 -23c74 0 134 55 134 148z" />
<glyph unicode="&#x161;" horiz-adv-x="520" d="M58 48l36 105c44 -28 103 -53 161 -53c47 0 66 21 66 41c0 30 -33 42 -98 72c-102 48 -145 85 -145 157s61 145 186 145c70 0 132 -19 178 -48l-30 -104c-51 27 -100 42 -147 42c-38 0 -55 -16 -55 -35c0 -21 21 -33 99 -69c110 -51 147 -97 147 -166 c0 -95 -86 -145 -207 -145c-87 0 -161 30 -191 58zM403 722v-8l-111 -164h-61l-111 164v8h81l60 -78l61 78h81z" />
<glyph unicode="&#xfa;" horiz-adv-x="630" d="M550 505v-288c0 -117 -75 -227 -235 -227c-185 0 -235 111 -235 222v293h130v-276c0 -85 43 -119 105 -119c59 0 106 34 105 119v276h130zM238 550v8l96 164h134v-10l-149 -162h-81z" />
<glyph unicode="&#xf9;" horiz-adv-x="630" d="M550 505v-288c0 -117 -75 -227 -235 -227c-185 0 -235 111 -235 222v293h130v-276c0 -85 43 -119 105 -119c59 0 106 34 105 119v276h130zM392 558v-8h-81l-149 162v10h134z" />
<glyph unicode="&#xfb;" horiz-adv-x="630" d="M550 505v-288c0 -117 -75 -227 -235 -227c-185 0 -235 111 -235 222v293h130v-276c0 -85 43 -119 105 -119c59 0 106 34 105 119v276h130zM458 558v-8h-81l-61 78l-60 -78h-81v8l111 164h61z" />
<glyph unicode="&#xfc;" horiz-adv-x="630" d="M550 505v-288c0 -117 -75 -227 -235 -227c-185 0 -235 111 -235 222v293h130v-276c0 -85 43 -119 105 -119c59 0 106 34 105 119v276h130zM467 621c0 -33 -32 -62 -63 -62c-34 0 -64 29 -64 62c0 34 30 64 64 64c31 0 63 -30 63 -64zM290 621c0 -33 -28 -62 -63 -62 c-33 0 -64 29 -64 62c0 34 31 64 64 64c35 0 63 -30 63 -64z" />
<glyph unicode="&#xfd;" horiz-adv-x="530" d="M161 505l104 -184h4l100 184h143l-182 -307v-198h-130v198l-182 307h143zM188 550v8l96 164h134v-10l-149 -162h-81z" />
<glyph unicode="&#xff;" horiz-adv-x="530" d="M161 505l104 -184h4l100 184h143l-182 -307v-198h-130v198l-182 307h143zM417 621c0 -33 -32 -62 -63 -62c-34 0 -64 29 -64 62c0 34 30 64 64 64c31 0 63 -30 63 -64zM240 621c0 -33 -28 -62 -63 -62c-33 0 -64 29 -64 62c0 34 31 64 64 64c35 0 63 -30 63 -64z" />
<glyph unicode="&#x17e;" horiz-adv-x="560" d="M263 118l4 -4h233v-114h-438l-6 10l235 375l-4 6h-210v114h422l5 -5zM433 722v-8l-111 -164h-61l-111 164v8h81l60 -78l61 78h81z" />
<glyph unicode="|" horiz-adv-x="530" d="M216 -230v980h98v-980h-98z" />
<glyph unicode="&#xa6;" horiz-adv-x="530" d="M314 400h-98v350h98v-350zM216 120h98v-350h-98v350z" />
<glyph unicode="^" horiz-adv-x="530" d="M279 691l221 -377l-58 -33l-172 300h-8l-175 -300l-57 33l222 377h27z" />
<glyph unicode="~" horiz-adv-x="530" d="M434 369h68c0 -96 -55 -168 -138 -168c-92 0 -130 98 -193 98c-44 0 -75 -42 -75 -96h-64c0 108 66 168 139 168c91 0 134 -99 194 -99c43 0 69 45 69 97z" />
<glyph unicode="&#x221e;" horiz-adv-x="530" d="M402 149c-47 0 -90 21 -137 87c-43 -56 -82 -87 -137 -87c-85 0 -125 68 -125 127c0 72 58 131 124 131c59 0 98 -38 135 -92c42 54 80 92 135 92c75 0 129 -51 129 -127c0 -72 -56 -131 -124 -131zM398 359c-39 0 -59 -18 -108 -87c37 -52 72 -73 108 -73 c42 0 77 31 77 81c0 48 -37 79 -77 79zM129 197c40 0 63 22 107 82c-38 55 -69 78 -107 78c-40 0 -75 -31 -75 -81c0 -49 37 -79 75 -79z" />
<glyph unicode="&#xb5;" horiz-adv-x="530" d="M315 54h-6c-28 -37 -73 -69 -129 -69c-22 0 -42 4 -61 13c7 -62 16 -119 16 -147c0 -51 -28 -60 -52 -60c-35 0 -49 23 -49 52c0 40 8 175 9 298v9v303h130v-266c0 -55 21 -79 58 -79c31 0 61 22 76 62v283h130v-342c0 -18 5 -33 21 -33c11 0 20 19 24 34l38 -11 c-28 -88 -68 -111 -118 -111c-26 0 -65 7 -87 64z" />
<glyph unicode="&#x3bc;" horiz-adv-x="530" d="M315 54h-6c-28 -37 -73 -69 -129 -69c-22 0 -42 4 -61 13c7 -62 16 -119 16 -147c0 -51 -28 -60 -52 -60c-35 0 -49 23 -49 52c0 40 8 175 9 298v9v303h130v-266c0 -55 21 -79 58 -79c31 0 61 22 76 62v283h130v-342c0 -18 5 -33 21 -33c11 0 20 19 24 34l38 -11 c-28 -88 -68 -111 -118 -111c-26 0 -65 7 -87 64z" />
<glyph unicode="&#x2202;" horiz-adv-x="530" d="M267 599c-40 0 -81 -23 -105 -50h-40l17 78c27 36 91 66 153 66c140 0 207 -130 207 -321c0 -241 -116 -386 -266 -386c-117 0 -199 87 -199 225c0 123 97 254 215 254c63 0 101 -31 121 -65l5 3v29c0 93 -44 167 -108 167zM367 290c-11 40 -47 73 -92 73 c-57 0 -112 -54 -112 -148c0 -70 31 -118 86 -118c57 0 115 64 118 193z" />
<glyph unicode="&#x2211;" horiz-adv-x="580" d="M265 129l3 -5h271v-124h-526l-4 10l273 320v7l-259 336l5 7h511v-124h-255l-3 -3l159 -210v-11z" />
<glyph unicode="&#x220f;" horiz-adv-x="610" d="M17 680h576v-124h-73v-556h-135v556h-155v-556h-135v556h-78v124z" />
<glyph unicode="&#x3c0;" horiz-adv-x="550" d="M192 22c-57 -73 -164 -3 -98 62c69 67 83 151 83 257h-21c-35 0 -56 -7 -65 -36l-37 5c19 105 45 143 95 143h352v-112h-91l-21 -208c-4 -33 7 -46 27 -46c18 0 30 11 45 47l35 -8c-20 -78 -61 -133 -112 -133c-66 0 -95 43 -88 108l27 240h-69c-2 -95 -3 -243 -62 -319z " />
<glyph unicode="&#x222b;" horiz-adv-x="530" d="M298 497l12 -487c3 -126 -73 -214 -175 -214c-37 0 -75 20 -75 66c0 25 15 54 49 54c26 0 52 -16 57 -64l26 -7c26 25 43 94 41 155l-12 487c-3 129 73 213 173 213c39 0 77 -20 77 -65c0 -25 -16 -54 -50 -54c-25 0 -51 16 -56 64l-26 7c-28 -26 -43 -74 -41 -155z" />
<glyph unicode="&#x3a9;" horiz-adv-x="590" d="M294 568c-79 0 -116 -84 -116 -191c0 -132 47 -240 91 -262v-115h-243v124h115v5c-57 56 -104 154 -104 258c0 185 100 308 258 308s258 -132 258 -303c0 -106 -47 -206 -104 -263v-5h115v-124h-243v115c44 22 91 131 91 264c0 101 -38 189 -118 189z" />
<glyph unicode="&#x2126;" horiz-adv-x="590" d="M294 568c-79 0 -116 -84 -116 -191c0 -132 47 -240 91 -262v-115h-243v124h115v5c-57 56 -104 154 -104 258c0 185 100 308 258 308s258 -132 258 -303c0 -106 -47 -206 -104 -263v-5h115v-124h-243v115c44 22 91 131 91 264c0 101 -38 189 -118 189z" />
<glyph unicode="&#xac;" horiz-adv-x="530" d="M422 52v193h-389v68h457v-261h-68z" />
<glyph unicode="&#x221a;" horiz-adv-x="530" d="M312 61h13l152 695l49 -10l-184 -883h-37l-195 526l-98 -35l-16 37l175 59z" />
<glyph unicode="&#x192;" horiz-adv-x="530" d="M89 366l14 49h94l25 100c20 80 86 180 193 180c75 0 125 -35 125 -73c0 -25 -13 -47 -45 -47c-51 0 -38 72 -94 72c-45 0 -67 -57 -90 -139l-26 -93h120l-14 -49h-117l-88 -327c-29 -108 -86 -189 -165 -189c-53 0 -98 28 -98 69c0 24 14 45 37 45c41 0 45 -68 78 -68 c32 0 55 93 64 130l86 340h-99z" />
<glyph unicode="&#x2248;" horiz-adv-x="530" d="M424 388l53 -22c-18 -56 -58 -116 -131 -116c-67 0 -116 72 -169 72c-52 0 -71 -32 -90 -62l-44 32c19 37 69 89 134 89s115 -70 170 -70c39 0 69 38 77 77zM440 229l47 -23c-18 -52 -74 -96 -129 -96c-79 0 -128 71 -181 71c-32 0 -54 -29 -72 -64l-46 30 c18 32 53 93 118 93s115 -70 181 -70c43 0 71 28 82 59z" />
<glyph unicode="&#x394;" horiz-adv-x="590" d="M575 0h-560l258 695h25zM271 423l-114 -299h232z" />
<glyph unicode="&#x2206;" horiz-adv-x="590" d="M575 0h-560l258 695h25zM271 423l-114 -299h232z" />
<glyph unicode="&#x25ca;" horiz-adv-x="530" d="M264 -98l-245 373l245 375l246 -375zM103 275l161 -246l162 246l-162 248z" />
<glyph unicode="&#x2191;" horiz-adv-x="700" d="M358 604l264 -237l-76 -91l-138 128v-354h-117v351l-135 -125l-77 91l266 237h13z" />
<glyph unicode="&#x2193;" horiz-adv-x="700" d="M622 287l-264 -237h-13l-266 237l77 91l135 -125v351h117v-354l138 128z" />
<glyph unicode="&#xf8ff;" horiz-adv-x="530" d="M216 720h11l32 -121l-3 -82l68 -8l64 99l8 99h12l7 -99l-17 -129l36 -85l35 -38l1 -6l-7 -8v-18l8 -4l-1 -9l-17 -36l-36 7l-11 101l-34 56l-13 -2l26 -60l4 -99l-37 -46l3 -22l26 -37l7 -71l-64 -23l-33 16l-35 57l-75 25l-28 47l-3 42l-30 41l-2 58l4 27l-11 44z M494 244l6 -9l-3 -37l-12 -17l-5 -33l23 -8l-3 -10l-23 7l-43 -26l-5 10l39 23l5 36l-36 14l-13 31l-1 10l14 15l24 4zM277 305l36 -14l11 13l-3 14l-11 10l-30 -10zM334 64l3 -4l-7 -21l-40 -43l-68 -23l-97 14l-55 48l-18 62l34 95l11 -1l-9 -71l22 -41l37 -33l88 -16 l48 3zM149 438l9 -9l33 34l11 76h-18z" />
<glyph horiz-adv-x="530" d="M305 553v-192h182v-80h-182v-192h-80v192h-182v80h182v192h80zM487 -42h-444v80h444v-80z" />
<glyph horiz-adv-x="440" d="M394 -114l-55 -63c-110 81 -224 204 -224 404c0 188 101 315 224 388l50 -66c-90 -64 -153 -179 -153 -317c0 -156 63 -265 158 -346z" />
<glyph horiz-adv-x="440" d="M101 -177l-55 63c95 81 158 190 158 346c0 138 -63 253 -153 317l50 66c123 -73 224 -200 224 -388c0 -200 -114 -323 -224 -404z" />
<glyph horiz-adv-x="460" d="M392 525l-134 4l-6 -307l6 -301l140 4v-85l-260 -4l8 389l-8 389l254 -4v-85z" />
<glyph horiz-adv-x="460" d="M202 529l-134 -4v85l254 4l-8 -389l8 -389l-260 4v85l140 -4l6 301z" />
<glyph horiz-adv-x="460" d="M190 245v-10c65 -5 122 -41 122 -91c0 -39 -35 -87 -35 -136c0 -51 14 -80 131 -80v-88c-224 0 -258 50 -258 143c0 45 33 99 33 139c0 49 -45 74 -105 74v85c60 0 105 33 105 70c0 52 -31 90 -31 141c0 94 58 128 256 128v-88c-87 0 -131 -10 -131 -66 c0 -51 35 -92 35 -130c0 -46 -56 -81 -122 -91z" />
<glyph horiz-adv-x="460" d="M270 235v10c-66 10 -122 45 -122 91c0 38 35 79 35 130c0 56 -44 66 -131 66v88c198 0 256 -34 256 -128c0 -51 -31 -89 -31 -141c0 -37 45 -70 105 -70v-85c-60 0 -105 -25 -105 -74c0 -40 33 -94 33 -139c0 -93 -34 -143 -258 -143v88c117 0 131 29 131 80 c0 49 -35 97 -35 136c0 50 57 86 122 91z" />
<glyph horiz-adv-x="640" d="M576 219l-43 -8c7 -17 12 -35 12 -51c0 -114 -115 -175 -245 -175c-121 0 -225 50 -225 154c0 72 48 119 105 139v5c-53 21 -70 65 -70 99c0 82 92 138 196 138c61 0 108 -18 139 -35l-38 -101c-26 17 -58 27 -91 27c-40 0 -70 -14 -70 -51c0 -23 21 -45 59 -45v-66 c-72 0 -100 -45 -100 -83c0 -39 42 -71 112 -71c69 0 114 28 114 78c0 6 0 13 -2 19l-56 -10l-15 83l201 38z" />
<glyph horiz-adv-x="620" d="M569 3v-6h-130l-37 34c-44 -29 -96 -46 -151 -46c-117 0 -178 56 -178 128c0 67 46 106 97 138c-39 42 -67 80 -67 132c0 74 59 137 157 137c103 0 152 -68 152 -130c0 -70 -44 -110 -93 -142l76 -75c17 25 26 53 28 86h105c0 -59 -21 -115 -56 -161zM259 84 c23 0 47 6 67 19l-96 90c-22 -17 -36 -36 -36 -60c0 -33 28 -49 65 -49zM215 375c0 -27 16 -47 41 -69c26 20 44 42 44 72c0 23 -17 42 -42 42c-27 0 -43 -23 -43 -45z" />
<glyph horiz-adv-x="510" d="M308 510l-29 -143l109 61l24 -91l-122 -15l104 -104l-65 -58l-74 122l-71 -126l-70 64l101 96l-118 17l26 87l107 -50l-20 140h98z" />
<glyph horiz-adv-x="490" d="M55 -57l298 593h82l-298 -593h-82z" />
<glyph horiz-adv-x="490" d="M137 536l298 -593h-82l-298 593h82z" />
<glyph horiz-adv-x="600" d="M417 31l29 -80c-35 -25 -90 -35 -126 -35c-143 0 -245 103 -245 295c0 163 99 309 271 309c102 0 176 -43 169 -141l-14 -205c-2 -26 8 -44 21 -55l-1 -8l-89 -23l-14 33h-5c-21 -18 -45 -27 -73 -27c-55 0 -102 38 -102 111c0 81 60 139 130 139c19 0 42 0 59 -6l2 31 c3 44 -33 65 -90 65c-95 0 -168 -92 -168 -224c0 -137 69 -206 155 -206c38 0 65 7 88 27h3zM414 182l8 84c-12 6 -26 6 -38 6c-31 0 -56 -22 -56 -67c0 -30 19 -41 40 -41c14 0 32 7 46 18z" />
<glyph horiz-adv-x="520" d="M445 200c0 -37 -21 -70 -53 -97c31 -29 44 -62 44 -95c0 -81 -77 -119 -182 -119c-73 0 -139 18 -166 38l22 96c35 -22 84 -41 142 -41c42 0 62 15 62 33c0 25 -18 40 -100 76c-72 32 -131 74 -131 141c0 36 19 73 47 103c-29 24 -42 51 -42 86c0 58 56 119 169 119 c64 0 125 -17 158 -33l-20 -99c-36 22 -88 39 -136 39c-36 0 -51 -19 -51 -33c0 -17 14 -36 109 -70c94 -34 128 -86 128 -144zM252 272c-20 7 -37 14 -53 22c-6 -14 -9 -28 -9 -41c0 -34 29 -63 92 -86c14 -6 27 -11 39 -17c10 14 15 28 15 46c0 31 -32 56 -84 76z" />
<glyph horiz-adv-x="650" d="M577 520v-77h-44v-555h-82v555h-46v-555h-82v260c-143 0 -231 71 -231 186s94 186 221 186h264zM323 225v218c-59 0 -101 -44 -101 -108c0 -65 36 -110 101 -110z" />
<glyph unicode="&#x2605;" horiz-adv-x="570" d="M127 -8l-4 3l66 186l-166 118l2 5l201 -7l57 193h6l58 -193l199 5l1 -4l-163 -117l66 -188l-3 -1l-161 118z" />
<glyph horiz-adv-x="540" d="M87 349l-21 111c24 14 94 60 198 60c107 0 195 -46 195 -158c0 -85 -69 -166 -192 -246l5 -7l197 9v-118h-422l-10 50c209 140 283 228 283 289c0 47 -33 67 -77 67c-69 0 -133 -43 -156 -57z" />
<glyph horiz-adv-x="540" d="M368 0h-130v387l-115 -15l-6 114l234 26l17 -12v-500z" />
<glyph horiz-adv-x="540" d="M89 226l-4 3l33 276h333l-11 -115l-228 10l-9 -74c12 1 25 2 36 2c154 0 223 -76 223 -160c0 -130 -137 -183 -286 -183c-39 0 -75 2 -105 11l16 107c25 -6 64 -10 95 -10c102 0 149 33 149 73c0 46 -56 70 -151 70c-31 0 -69 -4 -91 -10z" />
<glyph horiz-adv-x="540" d="M379 276v-4c78 -34 101 -85 101 -142c0 -86 -74 -145 -202 -145c-138 0 -208 65 -208 135c0 57 42 105 102 127v4c-75 45 -87 83 -87 128c0 74 75 141 195 141c110 0 185 -58 185 -130c0 -61 -38 -93 -86 -114zM259 209l-15 6c-32 -20 -47 -50 -47 -77 c0 -32 35 -57 80 -57c37 0 74 18 74 53c0 33 -41 54 -92 75zM219 375c0 -24 21 -45 87 -74c25 19 33 40 33 66c0 32 -23 55 -61 55c-42 0 -59 -24 -59 -47z" />
<glyph horiz-adv-x="540" d="M132 87l1 2c108 21 183 61 207 118l-5 3c-29 -19 -67 -23 -101 -23c-98 0 -178 57 -178 159c0 99 88 174 208 174c152 0 217 -102 217 -206c0 -203 -163 -298 -319 -329zM188 348c0 -49 41 -72 83 -72c35 0 61 8 78 22c16 58 -14 121 -83 121c-42 0 -78 -25 -78 -71z" />
<glyph horiz-adv-x="540" d="M470 214v-99h-64v-115h-125v115h-230l-19 57l239 333h135v-293zM174 205l105 5v146h-8l-100 -145z" />
<glyph horiz-adv-x="540" d="M73 12l-3 117c54 -21 114 -34 173 -34c54 0 89 20 89 59c0 27 -25 52 -74 50l-125 -6l8 112l113 -6c47 -3 66 23 66 48c0 34 -30 56 -85 56c-45 0 -91 -10 -141 -28l9 114c32 11 93 26 160 26c120 0 186 -55 186 -139c0 -57 -36 -98 -93 -115v-5c67 -16 105 -73 105 -130 c0 -105 -96 -146 -217 -146c-68 0 -123 10 -171 27z" />
<glyph horiz-adv-x="540" d="M197 303l4 -4c26 15 65 22 101 22c87 0 180 -51 180 -162c0 -95 -82 -174 -213 -174c-140 0 -212 97 -212 196c0 210 173 329 380 339l-10 -105c-130 -10 -193 -58 -230 -112zM350 152c0 47 -43 78 -90 78c-30 0 -52 -8 -71 -20c-18 -69 17 -123 85 -123 c44 0 76 24 76 65z" />
<glyph d="M135 -99l244 364l225 358l51 -31l-237 -349l-232 -375zM162 457l4 -3c13 6 26 14 54 14c53 0 119 -37 119 -121c0 -79 -64 -120 -133 -120c-96 0 -142 71 -142 152c0 154 117 236 253 238l-8 -71c-80 -6 -138 -46 -147 -89zM248 346c0 40 -26 57 -55 57 c-14 0 -24 -4 -36 -11c-10 -46 3 -94 53 -94c19 0 38 13 38 48zM746 254l8 -11c-79 -123 -123 -243 -127 -363h-106c20 104 64 209 123 285l-3 7l-157 -3l6 85h256z" />
<glyph horiz-adv-x="540" d="M485 256c0 -174 -96 -271 -216 -271c-127 0 -224 94 -224 267c0 169 108 268 223 268c122 0 217 -109 217 -264zM352 254c0 94 -37 148 -83 148c-50 0 -91 -55 -91 -148c0 -101 43 -151 91 -151c46 0 83 53 83 151z" />
<glyph d="M135 -19l244 364l225 358l51 -31l-237 -349l-232 -375zM162 537l4 -3c13 6 26 14 54 14c53 0 119 -37 119 -121c0 -79 -64 -120 -133 -120c-96 0 -142 71 -142 152c0 154 117 236 253 238l-8 -71c-80 -6 -138 -46 -147 -89zM248 426c0 40 -26 57 -55 57 c-14 0 -24 -4 -36 -11c-10 -46 3 -94 53 -94c19 0 38 13 38 48zM746 334l8 -11c-79 -123 -123 -243 -127 -363h-106c20 104 64 209 123 285l-3 7l-157 -3l6 85h256z" />
<glyph horiz-adv-x="540" d="M477 505l7 -11c-100 -150 -168 -324 -172 -494h-156c25 137 84 272 164 388l-2 5l-218 -10l9 122h368z" />
<glyph horiz-adv-x="270" d="M97 226l-23 274h122l-24 -274h-75z" />
<glyph horiz-adv-x="420" d="M97 226l-23 274h122l-24 -274h-75zM247 226l-23 274h122l-24 -274h-75z" />
<glyph horiz-adv-x="300" d="M49 247l71 265l115 -41l-116 -250z" />
<glyph horiz-adv-x="490" d="M49 247l71 265l115 -41l-116 -250zM239 247l71 265l115 -41l-116 -250z" />
<glyph horiz-adv-x="880" d="M128 253c0 171 141 312 313 312c180 0 311 -141 311 -312c0 -172 -126 -313 -311 -313c-172 0 -313 129 -313 313zM187 251c0 -149 109 -256 255 -256c144 0 251 107 251 256c0 155 -110 261 -252 261c-141 0 -254 -110 -254 -261zM569 399l-16 -61c-16 9 -55 33 -104 32 c-54 0 -107 -36 -107 -118c0 -64 44 -111 108 -111c44 0 78 16 108 35l18 -60c-29 -21 -78 -38 -127 -38c-105 0 -176 77 -176 172c0 115 82 183 177 183c51 0 97 -19 119 -34z" />
<glyph horiz-adv-x="880" d="M128 253c0 171 141 312 313 312c180 0 311 -141 311 -312c0 -172 -126 -313 -311 -313c-172 0 -313 129 -313 313zM187 251c0 -149 109 -256 255 -256c144 0 251 107 251 256c0 155 -110 261 -252 261c-141 0 -254 -110 -254 -261zM580 322c0 -70 -50 -116 -120 -116h-45 v-123h-64v347h104c73 0 125 -40 125 -108zM513 321c0 34 -23 53 -57 53h-41v-111h41c28 0 57 17 57 58z" />
<glyph unicode="&#x13d;" horiz-adv-x="560" d="M337 476v5l15 199h100v-5l-47 -199h-68zM241 680v-556h264v-124h-399v680h135z" />
<glyph unicode="&#x13e;" horiz-adv-x="460" d="M343 301v5l15 199h100v-5l-47 -199h-68zM210 505v-393h197v-112h-327v505h130z" />
<glyph unicode="&#xf6c3;" horiz-adv-x="500" d="M173 -221v5l40 149h101v-5l-72 -149h-69z" />
<glyph horiz-adv-x="500" d="M173 539c0 44 35 79 79 79s79 -35 79 -79s-35 -79 -79 -79s-79 35 -79 79z" />
<glyph horiz-adv-x="690" d="M662 580v-87h-634v87h634z" />
<glyph unicode="&#x102;" horiz-adv-x="730" d="M541 0l-52 133h-248l-52 -133h-145l279 680h80l283 -680h-145zM361 458l-77 -209h161l-77 209h-7zM364 730c-70 0 -134 41 -134 132h67c0 -33 26 -63 68 -63c36 0 68 27 68 63h67c0 -91 -66 -132 -136 -132z" />
<glyph unicode="&#x100;" horiz-adv-x="730" d="M541 0l-52 133h-248l-52 -133h-145l279 680h80l283 -680h-145zM361 458l-77 -209h161l-77 209h-7zM487 760h-244v85h244v-85z" />
<glyph unicode="&#x104;" horiz-adv-x="730" d="M686 0h-87c-34 -29 -52 -62 -52 -92c0 -26 17 -36 35 -36c11 0 18 2 26 5v-68c-13 -5 -28 -8 -55 -8c-41 0 -91 22 -91 78c0 46 33 95 76 129l-49 125h-248l-52 -133h-145l279 680h80zM361 458l-77 -209h161l-77 209h-7z" />
<glyph unicode="&#x106;" horiz-adv-x="720" d="M617 507h-6c-39 32 -109 61 -188 61c-125 0 -211 -84 -211 -240c0 -134 103 -216 214 -216c77 0 137 21 189 62h6l40 -111c-53 -46 -157 -78 -237 -78c-211 0 -353 153 -353 339c0 223 157 371 353 371c94 0 170 -29 228 -65zM346 740v8l96 124h144v-10l-149 -122h-91z " />
<glyph unicode="&#x10c;" horiz-adv-x="720" d="M617 507h-6c-39 32 -109 61 -188 61c-125 0 -211 -84 -211 -240c0 -134 103 -216 214 -216c77 0 137 21 189 62h6l40 -111c-53 -46 -157 -78 -237 -78c-211 0 -353 153 -353 339c0 223 157 371 353 371c94 0 170 -29 228 -65zM591 872v-8l-131 -124h-71l-131 124v8h91 l75 -58l76 58h91z" />
<glyph unicode="&#x10a;" horiz-adv-x="720" d="M617 507h-6c-39 32 -109 61 -188 61c-125 0 -211 -84 -211 -240c0 -134 103 -216 214 -216c77 0 137 21 189 62h6l40 -111c-53 -46 -157 -78 -237 -78c-211 0 -353 153 -353 339c0 223 157 371 353 371c94 0 170 -29 228 -65zM346 821c0 44 35 79 79 79s79 -35 79 -79 s-35 -79 -79 -79s-79 35 -79 79z" />
<glyph unicode="&#x10e;" horiz-adv-x="740" d="M241 124h71c123 0 217 84 217 212c0 155 -114 220 -208 220h-80v-432zM316 0h-210v680h204c208 0 359 -122 359 -346c0 -199 -158 -334 -353 -334zM478 872v-8l-131 -124h-71l-131 124v8h91l75 -58l76 58h91z" />
<glyph unicode="&#x110;" horiz-adv-x="740" d="M316 0h-210v302h-59v71h59v307h204c208 0 359 -122 359 -346c0 -199 -158 -334 -353 -334zM241 124h71c123 0 217 84 217 212c0 155 -114 220 -208 220h-80v-183h134v-71h-134v-178z" />
<glyph unicode="&#x112;" horiz-adv-x="600" d="M508 680v-124h-267v-147h240v-124h-240v-161h278v-124h-413v680h402zM428 760h-244v85h244v-85z" />
<glyph unicode="&#x11a;" horiz-adv-x="600" d="M508 680v-124h-267v-147h240v-124h-240v-161h278v-124h-413v680h402zM474 872v-8l-131 -124h-71l-131 124v8h91l75 -58l76 58h91z" />
<glyph unicode="&#x116;" horiz-adv-x="600" d="M508 680v-124h-267v-147h240v-124h-240v-161h278v-124h-413v680h402zM229 821c0 44 35 79 79 79s79 -35 79 -79s-35 -79 -79 -79s-79 35 -79 79z" />
<glyph unicode="&#x118;" horiz-adv-x="600" d="M508 680v-124h-267v-147h240v-124h-240v-161h278v-124h-26c-34 -29 -52 -62 -52 -92c0 -26 17 -36 35 -36c11 0 18 2 26 5v-68c-13 -5 -28 -8 -55 -8c-41 0 -91 22 -91 78c0 43 28 88 66 121h-316v680h402z" />
<glyph horiz-adv-x="640" d="M542 154h4l36 -111c-45 -38 -118 -58 -181 -58c-177 0 -330 128 -330 344c0 231 172 366 322 366c78 0 127 -13 188 -48l-41 -118h-4c-26 22 -80 40 -135 39c-72 -1 -156 -43 -182 -159h254v-124h-257c18 -116 104 -173 192 -173c56 0 95 16 134 42zM490 760h-244v85h244 v-85z" />
<glyph horiz-adv-x="640" d="M542 154h4l36 -111c-45 -38 -118 -58 -181 -58c-177 0 -330 128 -330 344c0 231 172 366 322 366c78 0 127 -13 188 -48l-41 -118h-4c-26 22 -80 40 -135 39c-72 -1 -156 -43 -182 -159h254v-124h-257c18 -116 104 -173 192 -173c56 0 95 16 134 42zM536 872v-8 l-131 -124h-71l-131 124v8h91l75 -58l76 58h91z" />
<glyph horiz-adv-x="640" d="M542 154h4l36 -111c-45 -38 -118 -58 -181 -58c-177 0 -330 128 -330 344c0 231 172 366 322 366c78 0 127 -13 188 -48l-41 -118h-4c-26 22 -80 40 -135 39c-72 -1 -156 -43 -182 -159h254v-124h-257c18 -116 104 -173 192 -173c56 0 95 16 134 42zM291 821 c0 44 35 79 79 79s79 -35 79 -79s-35 -79 -79 -79s-79 35 -79 79z" />
<glyph horiz-adv-x="640" d="M542 154h4l36 -111c-14 -12 -30 -22 -48 -30c-44 -32 -68 -71 -68 -105c0 -26 17 -36 35 -36c11 0 18 2 26 5v-68c-13 -5 -28 -8 -55 -8c-41 0 -91 22 -91 78c0 37 21 77 52 108c-11 -1 -22 -2 -32 -2c-177 0 -330 128 -330 344c0 231 172 366 322 366 c78 0 127 -13 188 -48l-41 -118h-4c-26 22 -80 40 -135 39c-72 -1 -156 -43 -182 -159h254v-124h-257c18 -116 104 -173 192 -173c56 0 95 16 134 42z" />
<glyph unicode="&#x11e;" horiz-adv-x="770" d="M422 568c-107 0 -210 -70 -210 -240c0 -136 103 -216 213 -216c56 0 96 13 120 34v115h-153v124h287v-307c-66 -54 -148 -93 -259 -93c-202 0 -349 152 -349 339c0 232 163 371 353 371c95 0 171 -35 224 -66l-34 -123h-9c-42 35 -102 62 -183 62zM417 730 c-70 0 -134 41 -134 132h67c0 -33 26 -63 68 -63c36 0 68 27 68 63h67c0 -91 -66 -132 -136 -132z" />
<glyph unicode="&#x120;" horiz-adv-x="770" d="M422 568c-107 0 -210 -70 -210 -240c0 -136 103 -216 213 -216c56 0 96 13 120 34v115h-153v124h287v-307c-66 -54 -148 -93 -259 -93c-202 0 -349 152 -349 339c0 232 163 371 353 371c95 0 171 -35 224 -66l-34 -123h-9c-42 35 -102 62 -183 62zM341 821 c0 44 35 79 79 79s79 -35 79 -79s-35 -79 -79 -79s-79 35 -79 79z" />
<glyph unicode="&#x122;" horiz-adv-x="770" d="M422 568c-107 0 -210 -70 -210 -240c0 -136 103 -216 213 -216c56 0 96 13 120 34v115h-153v124h287v-307c-66 -54 -148 -93 -259 -93c-202 0 -349 152 -349 339c0 232 163 371 353 371c95 0 171 -35 224 -66l-34 -123h-9c-42 35 -102 62 -183 62zM343 -221v5l40 149h101 v-5l-72 -149h-69z" />
<glyph d="M689 543l-109 -71c-46 60 -97 96 -175 96c-86 0 -193 -71 -193 -235c0 -136 88 -221 200 -221c97 0 158 50 156 149h-174v124h318c19 -264 -101 -400 -305 -400c-157 0 -336 117 -336 344c0 215 158 366 342 366c104 0 203 -36 276 -152zM403 730c-70 0 -134 41 -134 132 h67c0 -33 26 -63 68 -63c36 0 68 27 68 63h67c0 -91 -66 -132 -136 -132z" />
<glyph d="M689 543l-109 -71c-46 60 -97 96 -175 96c-86 0 -193 -71 -193 -235c0 -136 88 -221 200 -221c97 0 158 50 156 149h-174v124h318c19 -264 -101 -400 -305 -400c-157 0 -336 117 -336 344c0 215 158 366 342 366c104 0 203 -36 276 -152zM327 821c0 44 35 79 79 79 s79 -35 79 -79s-35 -79 -79 -79s-79 35 -79 79z" />
<glyph d="M689 543l-109 -71c-46 60 -97 96 -175 96c-86 0 -193 -71 -193 -235c0 -136 88 -221 200 -221c97 0 158 50 156 149h-174v124h318c19 -264 -101 -400 -305 -400c-157 0 -336 117 -336 344c0 215 158 366 342 366c104 0 203 -36 276 -152zM329 -221v5l40 149h101v-5 l-72 -149h-69z" />
<glyph unicode="&#x126;" horiz-adv-x="770" d="M702 580v-87h-38v-493h-135v285h-288v-285h-135v493h-38v87h38v100h135v-100h288v100h135v-100h38zM241 409h288v84h-288v-84z" />
<glyph unicode="&#x12a;" horiz-adv-x="350" d="M243 680v-680h-135v680h135zM297 760h-244v85h244v-85z" />
<glyph unicode="&#x12e;" horiz-adv-x="350" d="M243 680v-680h-29c-34 -29 -52 -62 -52 -92c0 -26 17 -36 35 -36c11 0 18 2 26 5v-68c-13 -5 -28 -8 -55 -8c-41 0 -91 22 -91 78c0 43 28 88 66 121h-35v680h135z" />
<glyph unicode="&#x136;" horiz-adv-x="670" d="M245 279h-4v-279h-135v680h135v-264h4l209 264h166v-5l-263 -321l283 -350v-4h-175zM296 -221v5l40 149h101v-5l-72 -149h-69z" />
<glyph unicode="&#x139;" horiz-adv-x="560" d="M241 680v-556h264v-124h-399v680h135zM99 740v8l96 124h144v-10l-149 -122h-91z" />
<glyph unicode="&#x13b;" horiz-adv-x="560" d="M241 680v-556h264v-124h-399v680h135zM228 -221v5l40 149h101v-5l-72 -149h-69z" />
<glyph unicode="&#x143;" horiz-adv-x="830" d="M193 680l391 -432h6v432h134v-680h-84l-394 437h-5v-437h-135v680h87zM338 740v8l96 124h144v-10l-149 -122h-91z" />
<glyph unicode="&#x147;" horiz-adv-x="830" d="M193 680l391 -432h6v432h134v-680h-84l-394 437h-5v-437h-135v680h87zM583 872v-8l-131 -124h-71l-131 124v8h91l75 -58l76 58h91z" />
<glyph unicode="&#x145;" horiz-adv-x="830" d="M193 680l391 -432h6v432h134v-680h-84l-394 437h-5v-437h-135v680h87zM338 -221v5l40 149h101v-5l-72 -149h-69z" />
<glyph unicode="&#x14c;" horiz-adv-x="830" d="M759 335c0 -207 -155 -350 -343 -350c-185 0 -345 133 -345 350c0 215 168 360 345 360c182 0 343 -142 343 -360zM619 337c0 141 -89 231 -204 231c-112 0 -203 -90 -203 -231c0 -150 104 -225 204 -225c121 0 203 92 203 225zM537 760h-244v85h244v-85z" />
<glyph unicode="&#x150;" horiz-adv-x="830" d="M759 335c0 -207 -155 -350 -343 -350c-185 0 -345 133 -345 350c0 215 168 360 345 360c182 0 343 -142 343 -360zM619 337c0 141 -89 231 -204 231c-112 0 -203 -90 -203 -231c0 -150 104 -225 204 -225c121 0 203 92 203 225zM273 735v8l71 134h134v-10l-129 -132h-76z M443 735v8l71 134h134v-10l-129 -132h-76z" />
<glyph unicode="&#x154;" horiz-adv-x="650" d="M610 8v-8h-151l-197 261h-21v-261h-135v680h193c171 0 248 -103 248 -210c0 -96 -49 -163 -146 -191zM407 466c0 58 -41 94 -95 94h-71v-185h70c63 0 96 39 96 91zM221 740v8l96 124h144v-10l-149 -122h-91z" />
<glyph unicode="&#x158;" horiz-adv-x="650" d="M610 8v-8h-151l-197 261h-21v-261h-135v680h193c171 0 248 -103 248 -210c0 -96 -49 -163 -146 -191zM407 466c0 58 -41 94 -95 94h-71v-185h70c63 0 96 39 96 91zM466 872v-8l-131 -124h-71l-131 124v8h91l75 -58l76 58h91z" />
<glyph horiz-adv-x="670" d="M408 347v-5c119 -60 179 -258 224 -331v-11h-141c-32 59 -124 296 -245 296h-5v-296h-135v680h195c148 0 221 -89 221 -188c0 -72 -46 -130 -114 -145zM382 482c0 53 -38 76 -75 76h-66v-152h66c37 0 75 24 75 76zM223 740v8l96 124h144v-10l-149 -122h-91z" />
<glyph horiz-adv-x="670" d="M408 347v-5c119 -60 179 -258 224 -331v-11h-141c-32 59 -124 296 -245 296h-5v-296h-135v680h195c148 0 221 -89 221 -188c0 -72 -46 -130 -114 -145zM382 482c0 53 -38 76 -75 76h-66v-152h66c37 0 75 24 75 76zM468 872v-8l-131 -124h-71l-131 124v8h91l75 -58l76 58 h91z" />
<glyph unicode="&#x15a;" horiz-adv-x="590" d="M66 52l48 119c44 -34 103 -61 166 -61s93 37 93 69c0 48 -31 73 -124 125c-125 70 -169 118 -169 213c0 82 72 178 218 178c84 0 162 -37 204 -68l-38 -112c-51 32 -101 55 -159 55c-40 0 -84 -15 -84 -55s34 -64 140 -126c110 -65 156 -130 156 -208 c0 -141 -121 -196 -234 -196c-78 0 -175 30 -217 67zM214 740v8l96 124h144v-10l-149 -122h-91z" />
<glyph unicode="&#x15e;" horiz-adv-x="590" d="M233 -224l-8 40c47 7 82 24 82 52c0 23 -25 32 -56 32c-10 0 -31 -1 -40 -2l-5 7l41 82c-70 7 -145 33 -181 65l48 119c44 -34 103 -61 166 -61s93 37 93 69c0 48 -31 73 -124 125c-125 70 -169 118 -169 213c0 82 72 178 218 178c84 0 162 -37 204 -68l-38 -112 c-51 32 -101 55 -159 55c-40 0 -84 -15 -84 -55s34 -64 140 -126c110 -65 156 -130 156 -208c0 -129 -101 -186 -205 -195l-21 -41c60 0 110 -21 110 -70c0 -51 -66 -88 -168 -99z" />
<glyph unicode="&#x218;" horiz-adv-x="590" d="M66 52l48 119c44 -34 103 -61 166 -61s93 37 93 69c0 48 -31 73 -124 125c-125 70 -169 118 -169 213c0 82 72 178 218 178c84 0 162 -37 204 -68l-38 -112c-51 32 -101 55 -159 55c-40 0 -84 -15 -84 -55s34 -64 140 -126c110 -65 156 -130 156 -208 c0 -141 -121 -196 -234 -196c-78 0 -175 30 -217 67zM214 -221v5l40 149h101v-5l-72 -149h-69z" />
<glyph unicode="&#x164;" horiz-adv-x="630" d="M576 556h-194v-556h-134v556h-194v124h522v-124zM483 872v-8l-131 -124h-71l-131 124v8h91l75 -58l76 58h91z" />
<glyph unicode="&#x162;" horiz-adv-x="630" d="M576 556h-194v-556h-134v556h-194v124h522v-124zM238 -221v5l40 149h101v-5l-72 -149h-69z" />
<glyph unicode="&#x21a;" horiz-adv-x="630" d="M576 556h-194v-556h-134v556h-194v124h522v-124zM238 -221v5l40 149h101v-5l-72 -149h-69z" />
<glyph unicode="&#x16a;" horiz-adv-x="770" d="M664 680v-429c0 -138 -90 -266 -279 -266c-234 0 -279 145 -279 252v443h135v-417c0 -82 40 -150 144 -150c78 0 145 40 145 155v412h134zM507 760h-244v85h244v-85z" />
<glyph unicode="&#x170;" horiz-adv-x="770" d="M664 680v-429c0 -138 -90 -266 -279 -266c-234 0 -279 145 -279 252v443h135v-417c0 -82 40 -150 144 -150c78 0 145 40 145 155v412h134zM243 735v8l71 134h134v-10l-129 -132h-76zM413 735v8l71 134h134v-10l-129 -132h-76z" />
<glyph unicode="&#x16e;" horiz-adv-x="770" d="M664 680v-429c0 -138 -90 -266 -279 -266c-234 0 -279 145 -279 252v443h135v-417c0 -82 40 -150 144 -150c78 0 145 40 145 155v412h134zM272 834c0 63 50 113 113 113s113 -50 113 -113s-50 -113 -113 -113s-113 50 -113 113zM338 834c0 -28 18 -50 46 -50 c27 0 47 22 47 50c0 27 -20 52 -47 52c-28 0 -46 -25 -46 -52z" />
<glyph unicode="&#x172;" horiz-adv-x="770" d="M664 680v-429c0 -98 -45 -190 -138 -236c-46 -32 -71 -72 -71 -107c0 -26 17 -36 35 -36c11 0 18 2 26 5v-68c-13 -5 -28 -8 -55 -8c-41 0 -91 22 -91 78c0 37 21 76 52 108c-12 -1 -24 -2 -37 -2c-234 0 -279 145 -279 252v443h135v-417c0 -82 40 -150 144 -150 c78 0 145 40 145 155v412h134z" />
<glyph unicode="&#x1e82;" horiz-adv-x="970" d="M486 387h-4l-111 -387h-93l-221 680h145l126 -419h4l109 419h86l110 -419h4l127 419h145l-222 -680h-93zM408 740v8l96 124h144v-10l-149 -122h-91z" />
<glyph unicode="&#x174;" horiz-adv-x="970" d="M486 387h-4l-111 -387h-93l-221 680h145l126 -419h4l109 419h86l110 -419h4l127 419h145l-222 -680h-93zM653 748v-8h-91l-76 58l-75 -58h-91v8l131 124h71z" />
<glyph unicode="&#x1e84;" horiz-adv-x="970" d="M486 387h-4l-111 -387h-93l-221 680h145l126 -419h4l109 419h86l110 -419h4l127 419h145l-222 -680h-93zM637 801c0 -33 -32 -62 -63 -62c-34 0 -64 29 -64 62c0 34 30 64 64 64c31 0 63 -30 63 -64zM460 801c0 -33 -28 -62 -63 -62c-33 0 -64 29 -64 62 c0 34 31 64 64 64c35 0 63 -30 63 -64z" />
<glyph unicode="&#x1e80;" horiz-adv-x="970" d="M486 387h-4l-111 -387h-93l-221 680h145l126 -419h4l109 419h86l110 -419h4l127 419h145l-222 -680h-93zM562 748v-8h-91l-149 122v10h144z" />
<glyph horiz-adv-x="970" d="M432 680l53 -154l53 154h131l-117 -275l55 -165h7l154 440h145l-253 -680h-85l-90 264l-90 -264h-85l-253 680h145l154 -440h7l55 165l-117 275h131zM408 740v8l96 124h144v-10l-149 -122h-91z" />
<glyph horiz-adv-x="970" d="M432 680l53 -154l53 154h131l-117 -275l55 -165h7l154 440h145l-253 -680h-85l-90 264l-90 -264h-85l-253 680h145l154 -440h7l55 165l-117 275h131zM653 748v-8h-91l-76 58l-75 -58h-91v8l131 124h71z" />
<glyph horiz-adv-x="970" d="M432 680l53 -154l53 154h131l-117 -275l55 -165h7l154 440h145l-253 -680h-85l-90 264l-90 -264h-85l-253 680h145l154 -440h7l55 165l-117 275h131zM637 801c0 -33 -32 -62 -63 -62c-34 0 -64 29 -64 62c0 34 30 64 64 64c31 0 63 -30 63 -64zM460 801 c0 -33 -28 -62 -63 -62c-33 0 -64 29 -64 62c0 34 31 64 64 64c35 0 63 -30 63 -64z" />
<glyph horiz-adv-x="970" d="M432 680l53 -154l53 154h131l-117 -275l55 -165h7l154 440h145l-253 -680h-85l-90 264l-90 -264h-85l-253 680h145l154 -440h7l55 165l-117 275h131zM562 748v-8h-91l-149 122v10h144z" />
<glyph unicode="&#x176;" horiz-adv-x="670" d="M192 680l142 -258h2l142 258h150l-225 -390v-290h-135v290l-226 390h150zM503 748v-8h-91l-76 58l-75 -58h-91v8l131 124h71z" />
<glyph unicode="&#x1ef2;" horiz-adv-x="670" d="M192 680l142 -258h2l142 258h150l-225 -390v-290h-135v290l-226 390h150zM412 748v-8h-91l-149 122v10h144z" />
<glyph unicode="&#x179;" horiz-adv-x="690" d="M401 550l-3 4h-299v126h530l3 -4l-338 -545l3 -5h317v-126h-543l-4 7zM294 740v8l96 124h144v-10l-149 -122h-91z" />
<glyph unicode="&#x17b;" horiz-adv-x="690" d="M401 550l-3 4h-299v126h530l3 -4l-338 -545l3 -5h317v-126h-543l-4 7zM294 821c0 44 35 79 79 79s79 -35 79 -79s-35 -79 -79 -79s-79 35 -79 79z" />
<glyph unicode="&#x103;" horiz-adv-x="570" d="M409 0l-34 89h-181l-33 -89h-138l219 505h84l221 -505h-138zM281 329l-52 -145h111l-53 145h-6zM284 550c-70 0 -134 55 -134 172h67c0 -49 26 -98 68 -98c36 0 68 41 68 98h67c0 -116 -66 -172 -136 -172z" />
<glyph unicode="&#x101;" horiz-adv-x="570" d="M409 0l-34 89h-181l-33 -89h-138l219 505h84l221 -505h-138zM281 329l-52 -145h111l-53 145h-6zM407 580h-244v85h244v-85z" />
<glyph unicode="&#x105;" horiz-adv-x="570" d="M547 0h-73c-34 -29 -52 -62 -52 -92c0 -26 17 -36 35 -36c11 0 18 2 26 5v-68c-13 -5 -28 -8 -55 -8c-41 0 -91 22 -91 78c0 44 30 91 70 125l-32 85h-181l-33 -89h-138l219 505h84zM281 329l-52 -145h111l-53 145h-6z" />
<glyph unicode="&#x107;" horiz-adv-x="570" d="M473 148h5l38 -97c-52 -40 -121 -61 -195 -61c-161 0 -266 117 -266 257c0 170 134 268 273 268c81 0 148 -29 188 -63l-39 -100h-4c-31 27 -83 50 -144 49c-71 -1 -140 -50 -140 -152c0 -92 61 -145 144 -145c56 0 96 14 140 44zM251 550v8l96 164h134v-10l-149 -162 h-81z" />
<glyph unicode="&#x10d;" horiz-adv-x="570" d="M473 148h5l38 -97c-52 -40 -121 -61 -195 -61c-161 0 -266 117 -266 257c0 170 134 268 273 268c81 0 148 -29 188 -63l-39 -100h-4c-31 27 -83 50 -144 49c-71 -1 -140 -50 -140 -152c0 -92 61 -145 144 -145c56 0 96 14 140 44zM471 722v-8l-111 -164h-61l-111 164v8 h81l60 -78l61 78h81z" />
<glyph unicode="&#x10b;" horiz-adv-x="570" d="M473 148h5l38 -97c-52 -40 -121 -61 -195 -61c-161 0 -266 117 -266 257c0 170 134 268 273 268c81 0 148 -29 188 -63l-39 -100h-4c-31 27 -83 50 -144 49c-71 -1 -140 -50 -140 -152c0 -92 61 -145 144 -145c56 0 96 14 140 44zM248 636c0 44 35 79 79 79 s79 -35 79 -79s-35 -79 -79 -79s-79 35 -79 79z" />
<glyph unicode="&#x10f;" horiz-adv-x="580" d="M210 112h59c71 0 123 52 123 142c0 87 -68 139 -124 139h-58v-281zM260 0h-180v505h179c149 0 266 -101 266 -253c0 -161 -111 -252 -265 -252zM392 722v-8l-111 -164h-61l-111 164v8h81l60 -78l61 78h81z" />
<glyph unicode="&#x111;" horiz-adv-x="580" d="M260 0h-180v217h-55v71h55v217h179c149 0 266 -101 266 -253c0 -161 -111 -252 -265 -252zM210 112h59c71 0 123 52 123 142c0 87 -68 139 -124 139h-58v-105h77v-71h-77v-105z" />
<glyph unicode="&#x113;" horiz-adv-x="520" d="M438 505v-112h-228v-84h198v-108h-198v-89h235v-112h-365v505h358zM380 580h-244v85h244v-85z" />
<glyph unicode="&#x11b;" horiz-adv-x="520" d="M438 505v-112h-228v-84h198v-108h-198v-89h235v-112h-365v505h358zM401 722v-8l-111 -164h-61l-111 164v8h81l60 -78l61 78h81z" />
<glyph unicode="&#x117;" horiz-adv-x="520" d="M438 505v-112h-228v-84h198v-108h-198v-89h235v-112h-365v505h358zM178 636c0 44 35 79 79 79s79 -35 79 -79s-35 -79 -79 -79s-79 35 -79 79z" />
<glyph unicode="&#x119;" horiz-adv-x="520" d="M438 505v-112h-228v-84h198v-108h-198v-89h235v-112h-29c-34 -29 -52 -62 -52 -92c0 -26 17 -36 35 -36c11 0 18 2 26 5v-68c-13 -5 -28 -8 -55 -8c-41 0 -91 22 -91 78c0 43 28 88 66 121h-265v505h358z" />
<glyph horiz-adv-x="520" d="M445 133h5l36 -99c-46 -32 -103 -44 -165 -44c-155 0 -266 117 -266 257c0 167 134 268 268 268c67 0 125 -23 153 -43l-30 -103h-5c-29 19 -68 35 -115 34c-59 -1 -117 -32 -139 -97h211v-104h-212c20 -63 81 -100 147 -100c45 0 86 14 112 31zM423 580h-244v85h244v-85 z" />
<glyph horiz-adv-x="520" d="M445 133h5l36 -99c-46 -32 -103 -44 -165 -44c-155 0 -266 117 -266 257c0 167 134 268 268 268c67 0 125 -23 153 -43l-30 -103h-5c-29 19 -68 35 -115 34c-59 -1 -117 -32 -139 -97h211v-104h-212c20 -63 81 -100 147 -100c45 0 86 14 112 31zM444 722v-8l-111 -164 h-61l-111 164v8h81l60 -78l61 78h81z" />
<glyph horiz-adv-x="520" d="M445 133h5l36 -99c-46 -32 -103 -44 -165 -44c-155 0 -266 117 -266 257c0 167 134 268 268 268c67 0 125 -23 153 -43l-30 -103h-5c-29 19 -68 35 -115 34c-59 -1 -117 -32 -139 -97h211v-104h-212c20 -63 81 -100 147 -100c45 0 86 14 112 31zM221 636 c0 44 35 79 79 79s79 -35 79 -79s-35 -79 -79 -79s-79 35 -79 79z" />
<glyph horiz-adv-x="520" d="M445 133h5l36 -99c-11 -8 -22 -14 -33 -19c-46 -32 -71 -72 -71 -107c0 -26 17 -36 35 -36c11 0 18 2 26 5v-68c-13 -5 -28 -8 -55 -8c-41 0 -91 22 -91 78c0 39 23 80 56 112c-10 -1 -21 -1 -32 -1c-155 0 -266 117 -266 257c0 167 134 268 268 268 c67 0 125 -23 153 -43l-30 -103h-5c-29 19 -68 35 -115 34c-59 -1 -117 -32 -139 -97h211v-104h-212c20 -63 81 -100 147 -100c45 0 86 14 112 31z" />
<glyph unicode="&#x11f;" horiz-adv-x="610" d="M486 346h-5c-39 31 -86 56 -155 55c-70 -1 -137 -47 -137 -152c0 -83 58 -145 139 -145c36 0 69 10 92 27v63h-111v102h221v-230c-46 -44 -126 -76 -204 -76c-148 0 -271 103 -271 257c0 170 134 268 273 268c83 0 157 -35 193 -63zM327 550c-70 0 -134 55 -134 172h67 c0 -49 26 -98 68 -98c36 0 68 41 68 98h67c0 -116 -66 -172 -136 -172z" />
<glyph unicode="&#x121;" horiz-adv-x="610" d="M486 346h-5c-39 31 -86 56 -155 55c-70 -1 -137 -47 -137 -152c0 -83 58 -145 139 -145c36 0 69 10 92 27v63h-111v102h221v-230c-46 -44 -126 -76 -204 -76c-148 0 -271 103 -271 257c0 170 134 268 273 268c83 0 157 -35 193 -63zM248 636c0 44 35 79 79 79 s79 -35 79 -79s-35 -79 -79 -79s-79 35 -79 79z" />
<glyph unicode="&#x123;" horiz-adv-x="610" d="M486 346h-5c-39 31 -86 56 -155 55c-70 -1 -137 -47 -137 -152c0 -83 58 -145 139 -145c36 0 69 10 92 27v63h-111v102h221v-230c-46 -44 -126 -76 -204 -76c-148 0 -271 103 -271 257c0 170 134 268 273 268c83 0 157 -35 193 -63zM247 -221v5l40 149h101v-5l-72 -149 h-69z" />
<glyph horiz-adv-x="610" d="M304 293h243c20 -183 -52 -303 -236 -303c-147 0 -256 114 -256 254c0 170 134 271 257 271c97 0 173 -37 218 -114l-99 -66c-27 41 -62 66 -116 66c-61 0 -126 -46 -126 -155c0 -89 58 -142 127 -142c71 0 111 30 110 87h-122v102zM310 550c-70 0 -134 55 -134 172h67 c0 -49 26 -98 68 -98c36 0 68 41 68 98h67c0 -116 -66 -172 -136 -172z" />
<glyph horiz-adv-x="610" d="M304 293h243c20 -183 -52 -303 -236 -303c-147 0 -256 114 -256 254c0 170 134 271 257 271c97 0 173 -37 218 -114l-99 -66c-27 41 -62 66 -116 66c-61 0 -126 -46 -126 -155c0 -89 58 -142 127 -142c71 0 111 30 110 87h-122v102zM231 636c0 44 35 79 79 79 s79 -35 79 -79s-35 -79 -79 -79s-79 35 -79 79z" />
<glyph horiz-adv-x="610" d="M304 293h243c20 -183 -52 -303 -236 -303c-147 0 -256 114 -256 254c0 170 134 271 257 271c97 0 173 -37 218 -114l-99 -66c-27 41 -62 66 -116 66c-61 0 -126 -46 -126 -155c0 -89 58 -142 127 -142c71 0 111 30 110 87h-122v102zM234 -221v5l40 149h101v-5l-72 -149 h-69z" />
<glyph unicode="&#x127;" horiz-adv-x="610" d="M530 505v-58h32v-80h-32v-367h-130v198h-190v-198h-130v367h-32v80h32v58h130v-58h190v58h130zM210 310h190v57h-190v-57z" />
<glyph unicode="&#x12b;" horiz-adv-x="310" d="M220 505v-505h-130v505h130zM277 580h-244v85h244v-85z" />
<glyph unicode="&#x12f;" horiz-adv-x="310" d="M220 505v-505h-29c-34 -29 -52 -62 -52 -92c0 -26 17 -36 35 -36c11 0 18 2 26 5v-68c-13 -5 -28 -8 -55 -8c-41 0 -91 22 -91 78c0 43 28 88 66 121h-30v505h130z" />
<glyph unicode="&#x137;" horiz-adv-x="560" d="M213 190h-3v-190h-130v505h130v-204h3l166 204h147v-5l-208 -246l225 -249v-5h-159zM218 -221v5l40 149h101v-5l-72 -149h-69z" />
<glyph unicode="&#x13a;" horiz-adv-x="460" d="M210 505v-393h197v-112h-327v505h130zM73 560v8l96 124h144v-10l-149 -122h-91z" />
<glyph unicode="&#x13c;" horiz-adv-x="460" d="M210 505v-393h197v-112h-327v505h130zM166 -221v5l40 149h101v-5l-72 -149h-69z" />
<glyph unicode="&#x144;" horiz-adv-x="650" d="M163 505l272 -286h5v286h130v-505h-83l-272 287h-5v-287h-130v505h83zM248 550v8l96 164h134v-10l-149 -162h-81z" />
<glyph unicode="&#x148;" horiz-adv-x="650" d="M163 505l272 -286h5v286h130v-505h-83l-272 287h-5v-287h-130v505h83zM468 722v-8l-111 -164h-61l-111 164v8h81l60 -78l61 78h81z" />
<glyph unicode="&#x146;" horiz-adv-x="650" d="M163 505l272 -286h5v286h130v-505h-83l-272 287h-5v-287h-130v505h83zM266 -221v5l40 149h101v-5l-72 -149h-69z" />
<glyph unicode="&#x14d;" horiz-adv-x="650" d="M595 250c0 -142 -106 -260 -269 -260c-158 0 -271 114 -271 260c0 161 130 265 271 265c138 0 269 -101 269 -265zM462 252c0 89 -63 149 -137 149c-69 0 -136 -54 -136 -149c0 -77 47 -148 139 -148c74 0 134 55 134 148zM447 580h-244v85h244v-85z" />
<glyph unicode="&#x151;" horiz-adv-x="650" d="M595 250c0 -142 -106 -260 -269 -260c-158 0 -271 114 -271 260c0 161 130 265 271 265c138 0 269 -101 269 -265zM462 252c0 89 -63 149 -137 149c-69 0 -136 -54 -136 -149c0 -77 47 -148 139 -148c74 0 134 55 134 148zM194 550v8l96 164h129v-10l-154 -162h-71z M359 550v8l96 164h129v-10l-154 -162h-71z" />
<glyph unicode="&#x155;" horiz-adv-x="560" d="M361 208v-4l154 -199v-5h-154l-138 195h-13v-195h-130v505h201c112 0 191 -65 191 -165c0 -63 -40 -112 -111 -132zM333 340c0 37 -28 58 -66 58h-57v-115h60c36 0 63 20 63 57zM180 550v8l96 164h134v-10l-149 -162h-81z" />
<glyph unicode="&#x159;" horiz-adv-x="560" d="M361 208v-4l154 -199v-5h-154l-138 195h-13v-195h-130v505h201c112 0 191 -65 191 -165c0 -63 -40 -112 -111 -132zM333 340c0 37 -28 58 -66 58h-57v-115h60c36 0 63 20 63 57zM400 722v-8l-111 -164h-61l-111 164v8h81l60 -78l61 78h81z" />
<glyph horiz-adv-x="540" d="M361 240v-6c67 -45 123 -165 154 -229v-5h-140c-16 47 -97 200 -152 200h-13v-200h-130v505h196c103 0 176 -58 176 -148c0 -62 -38 -102 -91 -117zM313 345c0 34 -22 53 -51 53h-52v-105h55c27 0 48 18 48 52zM180 550v8l96 164h134v-10l-149 -162h-81z" />
<glyph horiz-adv-x="540" d="M361 240v-6c67 -45 123 -165 154 -229v-5h-140c-16 47 -97 200 -152 200h-13v-200h-130v505h196c103 0 176 -58 176 -148c0 -62 -38 -102 -91 -117zM313 345c0 34 -22 53 -51 53h-52v-105h55c27 0 48 18 48 52zM400 722v-8l-111 -164h-61l-111 164v8h81l60 -78l61 78h81z " />
<glyph unicode="&#x15b;" horiz-adv-x="520" d="M58 48l36 105c44 -28 103 -53 161 -53c47 0 66 21 66 41c0 30 -33 42 -98 72c-102 48 -145 85 -145 157s61 145 186 145c70 0 132 -19 178 -48l-30 -104c-51 27 -100 42 -147 42c-38 0 -55 -16 -55 -35c0 -21 21 -33 99 -69c110 -51 147 -97 147 -166 c0 -95 -86 -145 -207 -145c-87 0 -161 30 -191 58zM183 550v8l96 164h134v-10l-149 -162h-81z" />
<glyph unicode="&#x15f;" horiz-adv-x="520" d="M199 -224l-8 40c47 7 82 24 82 52c0 23 -25 32 -56 32c-10 0 -31 -1 -40 -2l-5 7l43 87c-72 6 -131 31 -157 56l36 105c44 -28 103 -53 161 -53c47 0 66 21 66 41c0 30 -33 42 -98 72c-102 48 -145 85 -145 157s61 145 186 145c70 0 132 -19 178 -48l-30 -104 c-51 27 -100 42 -147 42c-38 0 -55 -16 -55 -35c0 -21 21 -33 99 -69c110 -51 147 -97 147 -166c0 -87 -72 -135 -176 -143l-23 -47c60 0 110 -21 110 -70c0 -51 -66 -88 -168 -99z" />
<glyph unicode="&#x219;" horiz-adv-x="520" d="M58 48l36 105c44 -28 103 -53 161 -53c47 0 66 21 66 41c0 30 -33 42 -98 72c-102 48 -145 85 -145 157s61 145 186 145c70 0 132 -19 178 -48l-30 -104c-51 27 -100 42 -147 42c-38 0 -55 -16 -55 -35c0 -21 21 -33 99 -69c110 -51 147 -97 147 -166 c0 -95 -86 -145 -207 -145c-87 0 -161 30 -191 58zM180 -221v5l40 149h101v-5l-72 -149h-69z" />
<glyph unicode="&#x165;" horiz-adv-x="550" d="M492 393h-152v-393h-130v393h-152v112h434v-112zM418 722v-8l-111 -164h-61l-111 164v8h81l60 -78l61 78h81z" />
<glyph unicode="&#x163;" horiz-adv-x="550" d="M492 393h-152v-393h-130v393h-152v112h434v-112zM198 -221v5l40 149h101v-5l-72 -149h-69z" />
<glyph unicode="&#x21b;" horiz-adv-x="550" d="M492 393h-152v-393h-130v393h-152v112h434v-112zM198 -221v5l40 149h101v-5l-72 -149h-69z" />
<glyph unicode="&#x16b;" horiz-adv-x="630" d="M550 505v-288c0 -117 -75 -227 -235 -227c-185 0 -235 111 -235 222v293h130v-276c0 -85 43 -119 105 -119c59 0 106 34 105 119v276h130zM437 580h-244v85h244v-85z" />
<glyph unicode="&#x171;" horiz-adv-x="630" d="M550 505v-288c0 -117 -75 -227 -235 -227c-185 0 -235 111 -235 222v293h130v-276c0 -85 43 -119 105 -119c59 0 106 34 105 119v276h130zM184 550v8l96 164h129v-10l-154 -162h-71zM349 550v8l96 164h129v-10l-154 -162h-71z" />
<glyph unicode="&#x16f;" horiz-adv-x="630" d="M550 505v-288c0 -117 -75 -227 -235 -227c-185 0 -235 111 -235 222v293h130v-276c0 -85 43 -119 105 -119c59 0 106 34 105 119v276h130zM202 654c0 63 50 113 113 113s113 -50 113 -113s-50 -113 -113 -113s-113 50 -113 113zM268 654c0 -28 18 -50 46 -50 c27 0 47 22 47 50c0 27 -20 52 -47 52c-28 0 -46 -25 -46 -52z" />
<glyph unicode="&#x173;" horiz-adv-x="630" d="M550 505v-288c0 -83 -38 -162 -116 -201c-46 -32 -72 -73 -72 -108c0 -26 17 -36 35 -36c11 0 18 2 26 5v-68c-13 -5 -28 -8 -55 -8c-41 0 -91 22 -91 78c0 39 23 79 56 112c-6 -1 -12 -1 -18 -1c-185 0 -235 111 -235 222v293h130v-276c0 -85 43 -119 105 -119 c59 0 106 34 105 119v276h130z" />
<glyph unicode="&#x1e83;" d="M399 283h-4l-87 -283h-85l-190 505h141l92 -292h5l81 292h86l88 -292h5l85 292h141l-190 -505h-85zM318 550v8l96 164h134v-10l-149 -162h-81z" />
<glyph unicode="&#x175;" d="M399 283h-4l-87 -283h-85l-190 505h141l92 -292h5l81 292h86l88 -292h5l85 292h141l-190 -505h-85zM538 558v-8h-81l-61 78l-60 -78h-81v8l111 164h61z" />
<glyph unicode="&#x1e85;" d="M399 283h-4l-87 -283h-85l-190 505h141l92 -292h5l81 292h86l88 -292h5l85 292h141l-190 -505h-85zM547 621c0 -33 -32 -62 -63 -62c-34 0 -64 29 -64 62c0 34 30 64 64 64c31 0 63 -30 63 -64zM370 621c0 -33 -28 -62 -63 -62c-33 0 -64 29 -64 62c0 34 31 64 64 64 c35 0 63 -30 63 -64z" />
<glyph unicode="&#x1e81;" d="M399 283h-4l-87 -283h-85l-190 505h141l92 -292h5l81 292h86l88 -292h5l85 292h141l-190 -505h-85zM472 558v-8h-81l-149 162v10h134z" />
<glyph horiz-adv-x="780" d="M356 505l34 -100l34 100h118l-84 -200l38 -87h5l105 287h141l-210 -505h-64l-83 214l-83 -214h-64l-210 505h141l107 -287h5l36 84l-84 203h118zM313 550v8l96 164h134v-10l-149 -162h-81z" />
<glyph horiz-adv-x="780" d="M356 505l34 -100l34 100h118l-84 -200l38 -87h5l105 287h141l-210 -505h-64l-83 214l-83 -214h-64l-210 505h141l107 -287h5l36 84l-84 203h118zM533 558v-8h-81l-61 78l-60 -78h-81v8l111 164h61z" />
<glyph horiz-adv-x="780" d="M356 505l34 -100l34 100h118l-84 -200l38 -87h5l105 287h141l-210 -505h-64l-83 214l-83 -214h-64l-210 505h141l107 -287h5l36 84l-84 203h118zM542 621c0 -33 -32 -62 -63 -62c-34 0 -64 29 -64 62c0 34 30 64 64 64c31 0 63 -30 63 -64zM365 621 c0 -33 -28 -62 -63 -62c-33 0 -64 29 -64 62c0 34 31 64 64 64c35 0 63 -30 63 -64z" />
<glyph horiz-adv-x="780" d="M356 505l34 -100l34 100h118l-84 -200l38 -87h5l105 287h141l-210 -505h-64l-83 214l-83 -214h-64l-210 505h141l107 -287h5l36 84l-84 203h118zM467 558v-8h-81l-149 162v10h134z" />
<glyph unicode="&#x1ef3;" horiz-adv-x="530" d="M161 505l104 -184h4l100 184h143l-182 -307v-198h-130v198l-182 307h143zM342 558v-8h-81l-149 162v10h134z" />
<glyph unicode="&#x177;" horiz-adv-x="530" d="M161 505l104 -184h4l100 184h143l-182 -307v-198h-130v198l-182 307h143zM408 558v-8h-81l-61 78l-60 -78h-81v8l111 164h61z" />
<glyph unicode="&#x17a;" horiz-adv-x="560" d="M263 118l4 -4h233v-114h-438l-6 10l235 375l-4 6h-210v114h422l5 -5zM213 550v8l96 164h134v-10l-149 -162h-81z" />
<glyph unicode="&#x17c;" horiz-adv-x="560" d="M263 118l4 -4h233v-114h-438l-6 10l235 375l-4 6h-210v114h422l5 -5zM210 636c0 44 35 79 79 79s79 -35 79 -79s-35 -79 -79 -79s-79 35 -79 79z" />
<glyph unicode="&#x3bb;" horiz-adv-x="460" d="M242 575l199 -563l-125 -28l-81 272h-6l-68 -256h-137l135 421c-36 111 -54 171 -131 229l1 36h114c41 -5 75 -46 99 -111z" />
<glyph unicode="&#x2011;" horiz-adv-x="430" d="M90 298h250v-117h-250v117z" />
<glyph horiz-adv-x="430" d="M90 358h250v-117h-250v117z" />
<glyph horiz-adv-x="0" />
<glyph unicode="&#xa;" horiz-adv-x="0" />
<glyph horiz-adv-x="0" />
<glyph horiz-adv-x="0" />
<glyph horiz-adv-x="0" />
<glyph horiz-adv-x="0" />
<glyph horiz-adv-x="0" />
<glyph horiz-adv-x="0" />
<glyph unicode="&#xd;" horiz-adv-x="0" />
<glyph unicode="&#x9;" horiz-adv-x="0" />
<glyph horiz-adv-x="0" />
<glyph unicode="&#x13f;" horiz-adv-x="600" d="M241 680v-556h264v-124h-399v680h135zM406 356c0 43 34 77 77 77s77 -34 77 -77s-34 -77 -77 -77s-77 34 -77 77z" />
<glyph unicode="&#x140;" horiz-adv-x="500" d="M210 505v-393h197v-112h-327v505h130zM345 277c0 43 34 77 77 77s77 -34 77 -77s-34 -77 -77 -77s-77 34 -77 77z" />
<glyph horiz-adv-x="850" d="M243 680v-680h-135v680h135zM98 740v8l96 124h144v-10l-149 -122h-91zM406 8l25 116c16 -12 44 -22 77 -22c46 0 101 34 101 106v472h135v-484c0 -164 -120 -216 -221 -216c-55 0 -91 10 -117 28zM602 740v8l96 124h144v-10l-149 -122h-91z" />
<glyph horiz-adv-x="760" d="M220 505v-505h-130v505h130zM73 555v8l96 164h134v-10l-149 -162h-81zM372 133h3c17 -16 48 -29 83 -29c55 0 92 33 92 108v293h130v-319c0 -128 -89 -196 -212 -196c-49 0 -98 15 -128 36zM534 555v8l96 164h134v-10l-149 -162h-81z" />
<glyph horiz-adv-x="500" d="M209 453v8l46 164h119v-10l-89 -162h-76z" />
<glyph horiz-adv-x="500" d="M208 458v8l61 124h124v-10l-94 -122h-91z" />
<glyph horiz-adv-x="720" d="M617 507h-6c-39 32 -109 61 -188 61c-125 0 -211 -84 -211 -240c0 -134 103 -216 214 -216c77 0 137 21 189 62h6l40 -111c-53 -46 -157 -78 -237 -78c-211 0 -353 153 -353 339c0 223 157 371 353 371c94 0 170 -29 228 -65zM381 740v8l61 124h124v-10l-94 -122h-91z " />
<glyph unicode="&#x130;" horiz-adv-x="350" d="M243 680v-680h-135v680h135zM98 821c0 44 35 79 79 79s79 -35 79 -79s-35 -79 -79 -79s-79 35 -79 79z" />
<glyph horiz-adv-x="350" d="M243 680v-680h-135v680h135z" />
<glyph horiz-adv-x="830" d="M193 680l391 -432h6v432h134v-680h-84l-394 437h-5v-437h-135v680h87zM373 740v8l61 124h124v-10l-94 -122h-91z" />
<glyph horiz-adv-x="830" d="M759 335c0 -207 -155 -350 -343 -350c-185 0 -345 133 -345 350c0 215 168 360 345 360c182 0 343 -142 343 -360zM619 337c0 141 -89 231 -204 231c-112 0 -203 -90 -203 -231c0 -150 104 -225 204 -225c121 0 203 92 203 225zM373 740v8l61 124h124v-10l-94 -122h-91z " />
<glyph horiz-adv-x="590" d="M66 52l48 119c44 -34 103 -61 166 -61s93 37 93 69c0 48 -31 73 -124 125c-125 70 -169 118 -169 213c0 82 72 178 218 178c84 0 162 -37 204 -68l-38 -112c-51 32 -101 55 -159 55c-40 0 -84 -15 -84 -55s34 -64 140 -126c110 -65 156 -130 156 -208 c0 -141 -121 -196 -234 -196c-78 0 -175 30 -217 67zM249 740v8l61 124h124v-10l-94 -122h-91z" />
<glyph horiz-adv-x="690" d="M401 550l-3 4h-299v126h530l3 -4l-338 -545l3 -5h317v-126h-543l-4 7zM329 740v8l61 124h124v-10l-94 -122h-91z" />
<glyph horiz-adv-x="570" d="M473 148h5l38 -97c-52 -40 -121 -61 -195 -61c-161 0 -266 117 -266 257c0 170 134 268 273 268c81 0 148 -29 188 -63l-39 -100h-4c-31 27 -83 50 -144 49c-71 -1 -140 -50 -140 -152c0 -92 61 -145 144 -145c56 0 96 14 140 44zM287 550v8l46 164h119v-10l-89 -162h-76 z" />
<glyph horiz-adv-x="310" d="M220 505v-505h-130v505h130zM75 636c0 44 35 79 79 79s79 -35 79 -79s-35 -79 -79 -79s-79 35 -79 79z" />
<glyph horiz-adv-x="650" d="M163 505l272 -286h5v286h130v-505h-83l-272 287h-5v-287h-130v505h83zM284 550v8l46 164h119v-10l-89 -162h-76z" />
<glyph horiz-adv-x="650" d="M595 250c0 -142 -106 -260 -269 -260c-158 0 -271 114 -271 260c0 161 130 265 271 265c138 0 269 -101 269 -265zM462 252c0 89 -63 149 -137 149c-69 0 -136 -54 -136 -149c0 -77 47 -148 139 -148c74 0 134 55 134 148zM284 550v8l46 164h119v-10l-89 -162h-76z" />
<glyph horiz-adv-x="520" d="M58 48l36 105c44 -28 103 -53 161 -53c47 0 66 21 66 41c0 30 -33 42 -98 72c-102 48 -145 85 -145 157s61 145 186 145c70 0 132 -19 178 -48l-30 -104c-51 27 -100 42 -147 42c-38 0 -55 -16 -55 -35c0 -21 21 -33 99 -69c110 -51 147 -97 147 -166 c0 -95 -86 -145 -207 -145c-87 0 -161 30 -191 58zM219 550v8l46 164h119v-10l-89 -162h-76z" />
<glyph horiz-adv-x="560" d="M263 118l4 -4h233v-114h-438l-6 10l235 375l-4 6h-210v114h422l5 -5zM249 550v8l46 164h119v-10l-89 -162h-76z" />
</font>
</defs>
</svg>
