<?xml version="1.0" standalone="no"?>
<!DOCTYPE svg PUBLIC "-//W3C//DTD SVG 1.1//EN" "http://www.w3.org/Graphics/SVG/1.1/DTD/svg11.dtd" >
<svg xmlns="http://www.w3.org/2000/svg" xmlns:xlink="http://www.w3.org/1999/xlink" version="1.1">
<metadata></metadata>
<defs>
<font id="concourse_t2regular" horiz-adv-x="290" >
<font-face units-per-em="1000" ascent="742" descent="-258" />
<missing-glyph horiz-adv-x="220" />
<glyph unicode="&#x3c;&#x2d;" horiz-adv-x="700" d="M92 272l247 264l31 -26l-214 -225h470v-38h-472l216 -227l-31 -27l-247 266v13z" />
<glyph unicode="&#x2d;&#x3e;" horiz-adv-x="700" d="M361 536l247 -264v-13l-247 -266l-31 27l215 227h-471v38h469l-213 225z" />
<glyph unicode="&#x28;&#x3c;&#x2d;&#x29;" horiz-adv-x="880" d="M419 536l-247 -264v-13l247 -266l31 27l-216 227h472v38h-470l214 225zM822 263c0 -209 -171 -380 -380 -380c-212 0 -384 171 -384 380c0 212 172 383 384 383c209 0 380 -171 380 -383z" />
<glyph unicode="&#x28;&#x2d;&#x3e;&#x29;" horiz-adv-x="880" d="M708 272l-247 264l-31 -26l214 -225h-470v-38h472l-216 -227l31 -27l247 266v13zM58 263c0 212 171 383 380 383c212 0 384 -171 384 -383c0 -209 -172 -380 -384 -380c-209 0 -380 171 -380 380z" />
<glyph unicode="&#x28;&#x2191;&#x29;" horiz-adv-x="880" d="M711 285l-264 247h-13l-266 -247l27 -31l227 216v-472h38v470l225 -214zM438 -118c-209 0 -380 171 -380 380c0 212 171 384 380 384c212 0 383 -172 383 -384c0 -209 -171 -380 -383 -380z" />
<glyph unicode="&#x28;&#x2193;&#x29;" horiz-adv-x="880" d="M447 -4l264 247l-26 31l-225 -214v470h-38v-472l-227 216l-27 -31l266 -247h13zM438 646c212 0 383 -171 383 -380c0 -212 -171 -384 -383 -384c-209 0 -380 172 -380 384c0 209 171 380 380 380z" />
<glyph unicode="fi" horiz-adv-x="550" d="M290 412h-115v-412h-40v412h-103l12 36h91v43c0 113 55 160 114 192l61 9l3 -29c-80 -9 -138 -68 -138 -168v-47h115v-36zM415 446l40 5v-451h-40v446zM402 642c0 21 15 38 33 38s33 -17 33 -38s-15 -38 -33 -38s-33 17 -33 38z" />
<glyph unicode="fl" horiz-adv-x="550" d="M290 412h-115v-412h-40v412h-103l12 36h91v43c0 113 55 160 114 192l61 9l3 -29c-80 -9 -138 -68 -138 -168v-47h115v-36zM415 680l40 12v-692h-40v680z" />
<glyph unicode=" "  horiz-adv-x="220" />
<glyph unicode="&#x09;" horiz-adv-x="220" />
<glyph unicode="&#xa0;" horiz-adv-x="220" />
<glyph unicode="A" horiz-adv-x="680" d="M599 -7l-100 235h-318l-100 -235l-37 20l291 683h10l291 -683zM339 599l-142 -333h286l-141 333h-3z" />
<glyph unicode="B" horiz-adv-x="560" d="M343 359v-4c87 -18 154 -76 154 -170c0 -119 -81 -185 -216 -185h-188v680h163c143 0 205 -75 205 -170c0 -73 -47 -130 -118 -151zM264 335h-129v-297h146c100 0 172 45 172 144s-87 153 -189 153zM417 508c0 82 -59 134 -163 134h-119v-269h126c81 0 156 47 156 135z " />
<glyph unicode="C" horiz-adv-x="660" d="M604 615l-20 -34c-45 38 -115 71 -193 70c-151 -2 -284 -117 -284 -318c0 -177 115 -304 286 -304c83 0 152 32 203 72l19 -32c-49 -43 -138 -79 -224 -79c-194 0 -328 143 -328 339c0 228 155 361 330 361c91 0 162 -35 211 -75z" />
<glyph unicode="D" horiz-adv-x="670" d="M135 38h139c181 0 289 121 289 298c0 218 -152 306 -290 306h-138v-604zM270 0h-177v680h176c191 0 338 -134 338 -346c0 -206 -141 -334 -337 -334z" />
<glyph unicode="E" horiz-adv-x="510" d="M450 680v-38h-315v-269h285v-38h-285v-297h325v-38h-367v680h357z" />
<glyph horiz-adv-x="580" d="M537 647l-15 -35c-27 16 -72 40 -140 39c-124 -1 -256 -93 -273 -278h344l-10 -38h-336v-2c0 -177 112 -304 277 -304c57 0 100 14 140 39l12 -36c-34 -23 -97 -42 -155 -42c-188 0 -318 147 -318 339c0 246 168 361 320 361c71 0 126 -24 154 -43z" />
<glyph unicode="F" horiz-adv-x="490" d="M438 680v-38h-303v-269h273v-38h-273v-335h-42v680h345z" />
<glyph unicode="G" horiz-adv-x="710" d="M391 651c-152 0 -284 -117 -284 -318c0 -182 119 -304 290 -304c79 0 147 31 180 62v215h-213v38h255v-272c-58 -49 -139 -82 -221 -82c-213 0 -335 154 -335 339c0 209 136 361 330 361c91 0 163 -33 212 -74l-21 -34c-43 37 -100 69 -193 69z" />
<glyph horiz-adv-x="730" d="M380 651c-133 0 -273 -114 -273 -318c0 -184 122 -304 280 -304c133 0 228 101 226 277h-249v40h293c7 -248 -118 -356 -270 -356c-200 0 -324 154 -324 339c0 209 136 361 320 361c106 0 191 -53 240 -130l-29 -24c-62 87 -134 115 -214 115z" />
<glyph unicode="H" horiz-adv-x="690" d="M597 680v-680h-42v335h-420v-335h-42v680h42v-307h420v307h42z" />
<glyph unicode="I" horiz-adv-x="270" d="M156 680v-680h-42v680h42z" />
<glyph unicode="J" horiz-adv-x="410" d="M17 21l18 36c19 -11 53 -28 93 -28c94 0 147 60 147 202v449h42v-459c0 -158 -78 -231 -189 -231c-43 0 -84 13 -111 31z" />
<glyph unicode="K" horiz-adv-x="600" d="M532 661l-276 -279l308 -364v-3l-30 -21l-305 363l-94 -94v-263h-42v680h42v-365h2l366 372l29 -24v-2z" />
<glyph unicode="L" horiz-adv-x="490" d="M135 680v-642h312v-38h-354v680h42z" />
<glyph unicode="M" horiz-adv-x="850" d="M655 559l-6 1l-219 -570h-10l-219 570l-6 -1l-89 -565l-41 9l109 685l18 2l234 -601h2l230 601l18 -2l109 -685l-41 -9z" />
<glyph horiz-adv-x="790" d="M655 587h-6l-247 -377h-10l-251 377h-6v-587h-42v680h34l269 -406h2l265 406h34v-680h-42v587z" />
<glyph horiz-adv-x="810" d="M675 552h-5l-258 -557h-14l-259 557h-4v-552h-42v675l30 5l282 -604h2l280 604l30 -5v-675h-42v552z" />
<glyph unicode="N" horiz-adv-x="750" d="M117 687l494 -605l4 2v596h42v-680l-24 -7l-494 604l-4 -2v-595h-42v679z" />
<glyph unicode="O" horiz-adv-x="770" d="M707 335c0 -187 -127 -345 -321 -345s-323 153 -323 345c0 215 157 355 323 355c171 0 321 -137 321 -355zM663 337c0 182 -115 314 -277 314c-148 0 -279 -122 -279 -314c0 -166 103 -308 279 -308c170 0 277 142 277 308z" />
<glyph unicode="P" horiz-adv-x="520" d="M467 489c0 -124 -100 -189 -215 -189h-117v-300h-42v680h163c124 0 211 -73 211 -191zM423 487c0 95 -70 155 -166 155h-122v-304h117c83 0 171 41 171 149z" />
<glyph unicode="Q" horiz-adv-x="770" d="M162 28l20 39c-84 72 -119 170 -119 280c0 183 142 343 318 343c194 0 326 -156 326 -343c0 -199 -133 -351 -325 -351c-18 0 -40 0 -52 4l-2 -4c90 -86 178 -143 286 -139l-14 -42c-219 0 -295 210 -438 213zM663 349c0 128 -85 302 -282 302 c-164 0 -274 -161 -274 -302c0 -166 101 -314 275 -314c180 0 281 148 281 314z" />
<glyph horiz-adv-x="770" d="M707 335c0 -102 -38 -195 -103 -259l87 -92l-28 -27l-89 94c-51 -39 -115 -61 -188 -61c-194 0 -323 153 -323 345c0 215 157 355 323 355c171 0 321 -137 321 -355zM663 337c0 182 -115 314 -277 314c-148 0 -279 -122 -279 -314c0 -166 103 -308 279 -308 c63 0 117 19 160 52l-136 146l28 27l137 -147c56 57 88 140 88 230z" />
<glyph horiz-adv-x="770" d="M707 335c0 -177 -121 -329 -292 -344v-157h-42v157c-187 6 -310 151 -310 344c0 215 157 355 323 355c171 0 321 -137 321 -355zM415 222v-192c150 15 248 154 248 307c0 182 -115 314 -277 314c-145 0 -279 -122 -279 -314c0 -161 99 -300 266 -308v193h42z" />
<glyph unicode="R" horiz-adv-x="570" d="M477 495c0 -124 -79 -172 -167 -189l213 -291v-3l-34 -19l-224 307h-130v-300h-42v680h163c137 0 221 -71 221 -185zM433 495c0 93 -69 147 -176 147h-122v-304h118c95 0 180 39 180 157z" />
<glyph horiz-adv-x="600" d="M293 355v-4c128 -55 223 -269 289 -346v-5h-44c-60 69 -186 345 -338 345h-65v-345h-42v680h140c131 0 211 -65 211 -168c0 -94 -72 -148 -151 -157zM400 513c0 87 -73 129 -166 129h-99v-259h109c92 0 156 52 156 130z" />
<glyph unicode="S" horiz-adv-x="510" d="M409 590h-3c-48 45 -94 62 -152 62c-90 0 -139 -55 -139 -118c0 -66 39 -103 167 -171c121 -64 167 -115 167 -207c0 -103 -86 -166 -199 -166c-91 0 -161 39 -189 73l22 35h1c43 -46 100 -69 168 -69c111 0 153 57 153 132c0 69 -40 112 -154 173 c-127 68 -180 109 -180 193c0 81 66 163 183 163c74 0 136 -30 176 -70z" />
<glyph unicode="T" horiz-adv-x="560" d="M532 642h-231v-642h-42v642h-231v38h504v-38z" />
<glyph unicode="U" horiz-adv-x="690" d="M597 680v-433c0 -139 -78 -257 -252 -257c-191 0 -252 120 -252 257v433h42v-426c0 -161 85 -226 210 -226c122 0 210 63 210 226v426h42z" />
<glyph unicode="V" horiz-adv-x="610" d="M68 685l237 -601h2l238 601l37 -15l-272 -680h-10l-272 680z" />
<glyph unicode="W" horiz-adv-x="870" d="M437 562h-2l-156 -572h-14l-237 680l41 15l198 -581h4l157 589h14l160 -589h4l195 581l41 -15l-237 -680h-14z" />
<glyph horiz-adv-x="870" d="M328 685l108 -275l109 275l37 -15l-125 -313l108 -273h2l238 601l37 -15l-272 -680h-10l-125 312l-125 -312h-10l-272 680l40 15l237 -601h2l107 270l-126 316z" />
<glyph unicode="X" horiz-adv-x="590" d="M40 13l232 328l-223 322l33 22l215 -309l218 309l32 -23l-226 -321l229 -329l-35 -22l-219 316l-223 -316z" />
<glyph unicode="Y" horiz-adv-x="590" d="M66 685l229 -339h2l225 339l35 -22l-241 -360v-303h-42v303l-241 360z" />
<glyph unicode="Z" horiz-adv-x="590" d="M99 43l4 -5h439v-38h-515l-3 5l455 633l-3 4h-408v38h481l4 -5z" />
<glyph unicode="a" horiz-adv-x="450" d="M402 15v-2l-29 -24c-23 18 -40 42 -44 74h-3c-33 -51 -82 -73 -136 -73c-79 0 -137 52 -137 125c0 69 48 141 180 141c29 0 62 -4 92 -10v55c0 90 -57 120 -103 120c-43 0 -84 -13 -129 -43l-16 33c34 23 89 47 150 47c67 0 138 -43 138 -147v-219c0 -36 16 -65 37 -77z M325 125v85c-21 5 -55 11 -93 11c-90 0 -137 -40 -137 -106c0 -54 42 -88 98 -88c62 0 111 37 132 98z" />
<glyph horiz-adv-x="480" d="M365 71h-4c-40 -53 -90 -81 -140 -81c-96 0 -166 78 -166 217c0 142 75 251 188 251c52 0 95 -31 119 -68h3v58h40v-448h-36zM226 27c49 0 106 39 139 108v204c-24 45 -73 82 -117 82c-101 0 -151 -93 -151 -208c0 -127 54 -186 129 -186z" />
<glyph unicode="b" horiz-adv-x="490" d="M115 399h3c31 35 77 59 127 59c114 0 190 -101 190 -227c0 -156 -89 -241 -214 -241c-44 0 -104 17 -146 52v638l40 12v-293zM115 351v-288c25 -22 65 -36 107 -36c104 0 171 71 171 204c0 88 -46 190 -154 190c-47 0 -95 -26 -124 -70z" />
<glyph unicode="c" horiz-adv-x="400" d="M371 408l-20 -31c-29 28 -61 44 -101 44c-87 0 -153 -90 -153 -209s64 -185 147 -185c45 0 77 19 104 43l19 -30c-28 -28 -77 -50 -124 -50c-123 0 -188 97 -188 220c0 143 92 248 195 248c56 0 88 -19 121 -50z" />
<glyph unicode="d" horiz-adv-x="490" d="M375 66h-3c-36 -48 -94 -76 -146 -76c-99 0 -171 79 -171 212c0 145 77 256 193 256c49 0 98 -25 124 -60h3v282l40 12v-692h-31zM231 27c51 0 109 33 144 91v231c-29 42 -76 72 -127 72c-99 0 -151 -97 -151 -213c0 -121 56 -181 134 -181z" />
<glyph unicode="e" horiz-adv-x="450" d="M384 214h-287c1 -134 68 -187 149 -187c40 0 84 16 111 44h3l14 -31c-29 -28 -82 -50 -136 -50c-93 0 -183 70 -183 222c0 144 81 246 186 246c92 0 153 -79 153 -176c0 -17 -1 -46 -10 -68zM98 248h251c17 106 -40 173 -110 173c-78 0 -134 -76 -141 -173z" />
<glyph unicode="f" horiz-adv-x="320" d="M290 412h-115v-412h-40v412h-103l12 36h91v43c0 113 55 160 114 192l61 9l3 -29c-80 -9 -138 -68 -138 -168v-47h115v-36z" />
<glyph horiz-adv-x="320" d="M290 412h-115v-412h-40v412h-103l12 36h91v68c0 116 77 172 135 172c27 0 49 -5 63 -14v-35c-21 10 -40 13 -60 13c-58 0 -98 -50 -98 -137v-67h115v-36z" />
<glyph unicode="g" horiz-adv-x="490" d="M235 33c49 0 109 22 140 84v230c-22 41 -75 74 -127 74c-92 0 -151 -83 -151 -214c0 -119 57 -174 138 -174zM106 -131h2c34 -27 66 -39 117 -39c75 0 149 46 150 174v62h-3c-39 -61 -110 -70 -141 -70c-108 0 -176 75 -176 211s70 251 192 251c41 0 94 -19 125 -58h3 l9 48h31v-441c0 -143 -90 -214 -192 -214c-53 0 -96 12 -136 43z" />
<glyph horiz-adv-x="460" d="M229 168c-23 0 -45 3 -65 11l-54 -83l2 -6l196 -49c63 -15 112 -46 112 -111c0 -96 -102 -137 -198 -137c-108 0 -182 61 -182 129c0 49 36 96 109 119v3l-67 18l-9 35l62 96c-39 24 -65 64 -65 116c0 84 65 149 156 149c33 0 62 -9 85 -23l129 13v-36l-96 -5 c23 -27 36 -63 36 -99c0 -91 -76 -140 -151 -140zM380 -70c0 44 -33 66 -79 77l-93 24c-74 -10 -129 -58 -129 -108c0 -57 66 -95 142 -95c88 0 159 37 159 102zM340 308c0 72 -52 116 -113 116c-66 0 -117 -48 -117 -115c0 -70 56 -107 120 -107c61 0 110 44 110 106z" />
<glyph unicode="h" horiz-adv-x="480" d="M115 385h3c40 44 102 73 160 73c71 0 127 -44 127 -148v-310h-40v304c0 83 -42 117 -96 117c-55 0 -114 -30 -154 -84v-337h-40v680l40 12v-307z" />
<glyph unicode="i" horiz-adv-x="230" d="M95 446l40 5v-451h-40v446zM82 642c0 21 15 38 33 38s33 -17 33 -38s-15 -38 -33 -38s-33 17 -33 38z" />
<glyph unicode="j" horiz-adv-x="230" d="M95 -26v472l40 5v-478c0 -93 -23 -140 -53 -174l-41 -6l-2 15c38 35 56 80 56 166zM82 642c0 21 15 38 33 38s33 -17 33 -38s-15 -38 -33 -38s-33 17 -33 38z" />
<glyph horiz-adv-x="230" d="M95 446l40 5v-647h-40v642zM82 642c0 21 15 38 33 38s33 -17 33 -38s-15 -38 -33 -38s-33 17 -33 38z" />
<glyph unicode="k" horiz-adv-x="440" d="M391 434l-193 -183l204 -236v-3l-28 -22l-206 237l-53 -50v-177h-40v680l40 12v-467h2l248 233l26 -21v-3z" />
<glyph unicode="l" horiz-adv-x="230" d="M95 680l40 12v-692h-40v680z" />
<glyph horiz-adv-x="260" d="M95 115v565l40 12v-579c0 -58 28 -82 63 -82c18 0 31 4 45 15v-37c-9 -8 -29 -14 -48 -14c-47 0 -100 29 -100 120z" />
<glyph unicode="m" horiz-adv-x="750" d="M391 384h3c48 44 100 74 167 74c57 0 114 -44 114 -142v-316h-40v314c0 70 -38 107 -85 107c-60 0 -121 -39 -155 -87v-334h-40v324c0 74 -51 97 -90 97c-57 0 -116 -35 -150 -87v-334h-40v448h33l7 -64h4c37 41 94 74 157 74c46 0 93 -20 115 -74z" />
<glyph unicode="n" horiz-adv-x="480" d="M115 384h3c40 43 98 74 158 74c72 0 129 -44 129 -145v-313h-40v305c0 82 -41 116 -98 116c-56 0 -113 -33 -152 -84v-337h-40v448h33z" />
<glyph unicode="o" horiz-adv-x="490" d="M435 220c0 -134 -86 -230 -190 -230c-106 0 -190 96 -190 230c0 137 77 238 186 238c120 0 194 -102 194 -238zM393 220c0 114 -59 201 -152 201c-86 0 -144 -87 -144 -201c0 -111 61 -193 148 -193c85 0 148 82 148 193z" />
<glyph unicode="p" horiz-adv-x="490" d="M115 399h2c38 41 81 59 138 59c82 0 180 -76 180 -235c0 -156 -90 -233 -184 -233c-55 0 -110 29 -134 66h-2v-248l-40 -12v652h31zM247 421c-58 0 -105 -28 -132 -70v-242c23 -48 72 -82 131 -82c68 0 147 48 147 194c0 153 -87 200 -146 200z" />
<glyph unicode="q" horiz-adv-x="490" d="M372 398h4l12 50h27v-640l-40 -12v270h-3c-39 -58 -98 -76 -149 -76c-89 0 -168 72 -168 214c0 132 73 254 193 254c48 0 88 -18 124 -60zM253 421c-101 0 -156 -98 -156 -215c0 -114 51 -179 132 -179c55 0 110 28 146 92v228c-26 43 -76 74 -122 74z" />
<glyph unicode="r" horiz-adv-x="320" d="M263 456c17 0 25 -4 30 -8v-40h-2c-9 6 -18 8 -29 8c-60 0 -127 -78 -147 -173v-243h-40v448h40v-123h3c27 78 87 131 145 131z" />
<glyph unicode="s" horiz-adv-x="370" d="M285 376h-2c-36 30 -68 45 -105 45c-54 0 -81 -34 -81 -72c0 -50 35 -69 116 -111c74 -39 105 -80 105 -132c0 -77 -69 -116 -138 -116c-55 0 -105 21 -131 45l18 34h2c33 -27 64 -42 111 -42c58 0 96 29 96 75c0 48 -26 75 -107 116c-71 36 -114 69 -114 129 c0 57 45 111 125 111c47 0 90 -21 126 -52z" />
<glyph unicode="t" horiz-adv-x="310" d="M135 587l40 12v-151h110v-36h-110v-412h-40v412h-108l12 36h96v139z" />
<glyph horiz-adv-x="350" d="M120 104v308h-83l12 36h71v106h40v-106h155v-36h-155v-308c0 -55 35 -77 82 -77c22 0 50 9 72 21l10 -34c-22 -13 -53 -24 -91 -24c-79 0 -113 46 -113 114z" />
<glyph unicode="u" horiz-adv-x="480" d="M365 63h-3c-41 -44 -98 -73 -157 -73c-62 0 -130 39 -130 150v308h40v-299c0 -97 45 -122 99 -122c56 0 117 35 151 84v337h40v-448h-33z" />
<glyph horiz-adv-x="480" d="M405 448v-274c0 -108 -70 -184 -164 -184c-116 0 -166 75 -166 181v277h40v-278c0 -117 68 -143 128 -143c55 0 122 37 122 144v277h40z" />
<glyph unicode="v" horiz-adv-x="440" d="M74 454l141 -377h4l147 377l39 -12l-184 -452h-11l-175 452z" />
<glyph unicode="w" horiz-adv-x="640" d="M327 345h-4l-114 -355h-10l-164 452l39 12l127 -360h5l114 364h10l109 -364h5l122 360l39 -13l-165 -451h-10z" />
<glyph unicode="x" horiz-adv-x="440" d="M42 11l155 220l-145 205l31 20l136 -193l137 193l31 -20l-145 -205l156 -220l-31 -20l-147 208l-148 -210z" />
<glyph unicode="y" horiz-adv-x="440" d="M405 442l-213 -524c-16 -43 -46 -90 -75 -110l-51 -15l-6 27c61 23 100 95 134 205l-159 417l39 12l140 -377h3l149 377z" />
<glyph unicode="z" horiz-adv-x="420" d="M30 0l-3 5l284 404l-2 3h-257v36h323l3 -5l-282 -404l1 -3h280v-36h-347z" />
<glyph unicode="," horiz-adv-x="250" d="M59 -156h-37c43 75 83 154 114 244h48v-6c-34 -87 -74 -167 -125 -238z" />
<glyph unicode="." horiz-adv-x="270" d="M96 37c0 24 17 44 39 44c21 0 39 -20 39 -44c0 -25 -18 -44 -39 -44c-22 0 -39 19 -39 44z" />
<glyph unicode=";" d="M71 -156h-37c43 75 83 154 114 244h48v-6c-34 -87 -74 -167 -125 -238zM115 357c0 24 17 44 39 44c21 0 39 -20 39 -44c0 -25 -18 -44 -39 -44c-22 0 -39 19 -39 44z" />
<glyph unicode=":" horiz-adv-x="270" d="M96 37c0 24 17 44 39 44c21 0 39 -20 39 -44c0 -25 -18 -44 -39 -44c-22 0 -39 19 -39 44zM96 357c0 24 17 44 39 44c21 0 39 -20 39 -44c0 -25 -18 -44 -39 -44c-22 0 -39 19 -39 44z" />
<glyph unicode="&#x2026;" horiz-adv-x="910" d="M96 37c0 24 17 44 39 44c21 0 39 -20 39 -44c0 -25 -18 -44 -39 -44c-22 0 -39 19 -39 44zM416 37c0 24 17 44 39 44c21 0 39 -20 39 -44c0 -25 -18 -44 -39 -44c-22 0 -39 19 -39 44zM736 37c0 24 17 44 39 44c21 0 39 -20 39 -44c0 -25 -18 -44 -39 -44 c-22 0 -39 19 -39 44z" />
<glyph unicode="!" horiz-adv-x="310" d="M176 680l-4 -235l-5 -247h-28l-6 246l-7 236h50zM116 37c0 24 17 44 39 44c21 0 39 -20 39 -44c0 -25 -18 -44 -39 -44c-22 0 -39 19 -39 44z" />
<glyph unicode="&#xa1;" horiz-adv-x="310" d="M134 -217l4 235l5 247h28l6 -246l7 -236h-50zM194 426c0 -24 -17 -44 -39 -44c-21 0 -39 20 -39 44c0 25 18 44 39 44c22 0 39 -19 39 -44z" />
<glyph horiz-adv-x="310" d="M134 0l4 235l5 247h28l6 -246l7 -236h-50zM194 643c0 -24 -17 -44 -39 -44c-21 0 -39 20 -39 44c0 25 18 44 39 44c22 0 39 -19 39 -44z" />
<glyph unicode="?" horiz-adv-x="450" d="M78 626h-4l4 41c20 9 63 23 115 23c133 0 205 -75 205 -180c0 -124 -116 -185 -215 -195v-103h-42v136c102 9 213 43 213 160c0 88 -59 143 -159 143c-41 0 -88 -9 -117 -25zM123 37c0 24 17 44 39 44c21 0 39 -20 39 -44c0 -25 -18 -44 -39 -44c-22 0 -39 19 -39 44z " />
<glyph unicode="&#xbf;" horiz-adv-x="450" d="M372 -53h4l-4 -41c-20 -9 -63 -23 -115 -23c-133 0 -205 75 -205 180c0 124 116 185 215 195v103h42v-136c-102 -9 -213 -43 -213 -160c0 -88 59 -143 159 -143c41 0 88 9 117 25zM327 536c0 -24 -17 -44 -39 -44c-21 0 -39 20 -39 44c0 25 18 44 39 44 c22 0 39 -19 39 -44z" />
<glyph horiz-adv-x="450" d="M372 57h4l-4 -41c-20 -9 -63 -23 -115 -23c-133 0 -205 75 -205 180c0 124 116 185 215 195v103h42v-136c-102 -9 -213 -43 -213 -160c0 -88 59 -143 159 -143c41 0 88 9 117 25zM327 646c0 -24 -17 -44 -39 -44c-21 0 -39 20 -39 44c0 25 18 44 39 44 c22 0 39 -19 39 -44z" />
<glyph unicode="-" horiz-adv-x="340" d="M50 259h240v-38h-240v38z" />
<glyph unicode="&#x2013;" horiz-adv-x="480" d="M50 259h380v-38h-380v38z" />
<glyph unicode="&#x2014;" horiz-adv-x="1000" d="M92 259h816v-38h-816v38z" />
<glyph horiz-adv-x="340" d="M50 319h240v-38h-240v38z" />
<glyph horiz-adv-x="480" d="M50 319h380v-38h-380v38z" />
<glyph horiz-adv-x="1000" d="M92 319h816v-38h-816v38z" />
<glyph unicode="&#x2018;" horiz-adv-x="280" d="M193 680h29v-2c-37 -75 -75 -154 -103 -244h-47v6c32 87 74 169 121 240z" />
<glyph unicode="&#x2019;" horiz-adv-x="280" d="M87 434h-29v2c37 75 75 154 103 244h47v-6c-32 -87 -74 -169 -121 -240z" />
<glyph unicode="&#x201c;" horiz-adv-x="470" d="M193 680h29v-2c-37 -75 -75 -154 -103 -244h-47v6c32 87 74 169 121 240zM383 680h29v-2c-37 -75 -75 -154 -103 -244h-47v6c32 87 74 169 121 240z" />
<glyph unicode="&#x201d;" horiz-adv-x="470" d="M87 434h-29v2c37 75 75 154 103 244h47v-6c-32 -87 -74 -169 -121 -240zM277 434h-29v2c37 75 75 154 103 244h47v-6c-32 -87 -74 -169 -121 -240z" />
<glyph unicode="&#x201a;" horiz-adv-x="280" d="M87 -131h-29v2c37 75 75 154 103 244h47v-6c-32 -87 -74 -169 -121 -240z" />
<glyph unicode="&#x201e;" horiz-adv-x="470" d="M87 -131h-29v2c37 75 75 154 103 244h47v-6c-32 -87 -74 -169 -121 -240zM277 -131h-29v2c37 75 75 154 103 244h47v-6c-32 -87 -74 -169 -121 -240z" />
<glyph unicode="&#x2039;" horiz-adv-x="410" d="M75 233l227 226l24 -21l-192 -207v-2l192 -212l-24 -21l-227 228v9z" />
<glyph unicode="&#x203a;" horiz-adv-x="410" d="M108 459l227 -226v-9l-227 -228l-24 21l192 212v2l-192 207z" />
<glyph unicode="&#xab;" horiz-adv-x="620" d="M75 233l227 226l24 -21l-192 -207v-2l192 -212l-24 -21l-227 228v9zM285 233l227 226l24 -21l-192 -207v-2l192 -212l-24 -21l-227 228v9z" />
<glyph unicode="&#xbb;" horiz-adv-x="620" d="M108 459l227 -226v-9l-227 -228l-24 21l192 212v2l-192 207zM318 459l227 -226v-9l-227 -228l-24 21l192 212v2l-192 207z" />
<glyph horiz-adv-x="410" d="M75 323l227 226l24 -21l-192 -207v-2l192 -212l-24 -21l-227 228v9z" />
<glyph horiz-adv-x="410" d="M108 549l227 -226v-9l-227 -228l-24 21l192 212v2l-192 207z" />
<glyph horiz-adv-x="620" d="M75 323l227 226l24 -21l-192 -207v-2l192 -212l-24 -21l-227 228v9zM285 323l227 226l24 -21l-192 -207v-2l192 -212l-24 -21l-227 228v9z" />
<glyph horiz-adv-x="620" d="M108 549l227 -226v-9l-227 -228l-24 21l192 212v2l-192 207zM318 549l227 -226v-9l-227 -228l-24 21l192 212v2l-192 207z" />
<glyph unicode="(" horiz-adv-x="350" d="M333 -150l-24 -27c-143 105 -239 263 -239 449c0 194 93 371 239 463l22 -28c-132 -89 -217 -251 -217 -436c0 -168 89 -325 219 -421z" />
<glyph unicode=")" horiz-adv-x="350" d="M41 -177l-24 27c130 96 219 253 219 421c0 185 -85 347 -217 436l22 28c146 -92 239 -269 239 -463c0 -186 -96 -344 -239 -449z" />
<glyph unicode="[" horiz-adv-x="370" d="M352 682l-179 4v-812l185 4v-38l-226 -4v888l220 -4v-38z" />
<glyph unicode="]" horiz-adv-x="370" d="M197 686l-179 -4v38l220 4v-888l-226 4v38l185 -4v812z" />
<glyph unicode="{" horiz-adv-x="370" d="M122 292v-7c62 -6 117 -53 117 -120c0 -69 -39 -116 -39 -192c0 -53 34 -99 157 -99v-34c-146 0 -197 50 -197 128c0 75 36 123 36 190c0 68 -57 104 -135 104v50c78 0 135 48 135 105c0 72 -36 112 -36 190c0 74 68 113 197 113v-34c-91 0 -157 -26 -157 -85 c0 -70 39 -118 39 -189c0 -63 -54 -105 -117 -120z" />
<glyph unicode="}" horiz-adv-x="370" d="M248 285v7c-63 15 -117 57 -117 120c0 71 39 119 39 189c0 59 -66 85 -157 85v34c129 0 197 -39 197 -113c0 -78 -36 -118 -36 -190c0 -57 57 -105 135 -105v-50c-78 0 -135 -36 -135 -104c0 -67 36 -115 36 -190c0 -78 -51 -128 -197 -128v34c123 0 157 46 157 99 c0 76 -39 123 -39 192c0 67 55 114 117 120z" />
<glyph unicode="'" horiz-adv-x="250" d="M114 406l-18 274h58l-19 -274h-21z" />
<glyph unicode="&#x22;" horiz-adv-x="400" d="M114 406l-18 274h58l-19 -274h-21zM264 406l-18 274h58l-19 -274h-21z" />
<glyph unicode="&#x2032;" horiz-adv-x="280" d="M81 416l65 266l56 -17l-101 -256z" />
<glyph unicode="&#x2033;" horiz-adv-x="470" d="M81 416l65 266l56 -17l-101 -256zM271 416l65 266l56 -17l-101 -256z" />
<glyph unicode="&#x26;" horiz-adv-x="650" d="M619 347l-88 -24c19 -31 32 -75 32 -118c0 -138 -119 -215 -247 -215c-152 0 -251 92 -251 204c0 122 68 187 158 218v5c-77 25 -98 80 -98 120c0 87 87 153 187 153c68 0 110 -16 152 -40l-20 -35c-44 25 -82 36 -134 36c-82 0 -141 -55 -141 -116 c0 -53 44 -91 114 -104v-37c-98 -12 -174 -87 -174 -193c0 -107 91 -172 207 -172c118 0 204 73 204 173c0 38 -12 81 -30 109l-84 -23l-11 37l213 58z" />
<glyph horiz-adv-x="660" d="M615 3v-3h-50l-81 85c-56 -62 -133 -95 -214 -95c-131 0 -203 74 -203 166c0 96 77 151 155 203l-7 8c-52 52 -94 94 -94 172s57 151 153 151s148 -73 148 -142c0 -91 -70 -144 -144 -194l203 -211c37 55 58 127 55 204h41c0 -95 -26 -174 -69 -233zM273 29 c74 0 138 32 184 84l-210 220c-71 -47 -136 -96 -136 -176c0 -77 68 -128 162 -128zM163 537c0 -53 26 -92 82 -147l9 -10c67 45 126 92 126 166c0 53 -38 107 -108 107c-77 0 -109 -63 -109 -116z" />
<glyph unicode="*" horiz-adv-x="530" d="M296 680l-19 -199l164 63l16 -45l-172 -44l133 -158l-37 -26l-117 167l-115 -172l-36 27l131 162l-170 33l16 46l161 -53l-8 199h53z" />
<glyph unicode="&#x2042;" horiz-adv-x="770" d="M416 703l-12 -164l134 49l14 -38l-140 -37l107 -134l-32 -21l-98 135l-98 -140l-29 23l105 137l-139 28l14 38l132 -40l-3 164h45zM216 341l-12 -164l134 49l14 -38l-140 -37l107 -134l-32 -21l-98 135l-98 -140l-29 23l105 137l-139 28l14 38l132 -40l-3 164h45z M608 341l-12 -164l134 49l14 -38l-140 -37l107 -134l-32 -21l-98 135l-98 -140l-29 23l105 137l-139 28l14 38l132 -40l-3 164h45z" />
<glyph unicode="/" horiz-adv-x="460" d="M10 -160l400 860h40l-400 -860h-40z" />
<glyph unicode="\" horiz-adv-x="460" d="M50 700l400 -860h-40l-400 860h40z" />
<glyph unicode="@" horiz-adv-x="690" d="M516 -1l14 -35c-45 -35 -113 -48 -158 -48c-173 0 -292 142 -292 379c0 207 134 395 317 395c109 0 188 -52 180 -174l-19 -277c-2 -33 11 -68 27 -83l-1 -4l-31 -14c-18 14 -23 32 -29 54h-5c-33 -33 -78 -51 -127 -51c-81 0 -136 50 -136 146c0 102 72 175 171 175 c34 0 79 -9 106 -23l5 69c7 101 -55 142 -143 142c-149 0 -271 -161 -271 -356c0 -228 115 -338 249 -338c53 0 103 16 140 43h3zM519 232l11 168c-34 19 -68 26 -101 26c-74 0 -129 -49 -129 -139c0 -84 46 -107 106 -107c36 0 88 21 113 52z" />
<glyph unicode="_" horiz-adv-x="530" d="M-25 -170h580v-40h-580v40z" />
<glyph unicode="&#xb6;" horiz-adv-x="640" d="M607 680v-38h-66v-799h-42v799h-98v-799h-42v422h-45c-122 0 -232 54 -232 204c0 130 103 211 231 211h294zM314 303h45v339h-47c-117 0 -186 -76 -186 -172c0 -117 78 -167 188 -167z" />
<glyph unicode="&#xa7;" horiz-adv-x="570" d="M484 241c0 -56 -36 -97 -83 -124c57 -36 78 -73 78 -127c0 -86 -90 -146 -188 -146c-97 0 -159 30 -192 61l21 36c42 -38 93 -58 168 -58c94 0 145 51 145 112c0 64 -59 97 -162 139c-122 50 -180 96 -180 172c0 50 24 96 73 135c-45 29 -73 64 -73 117 c0 58 57 132 176 132c78 0 136 -34 171 -63l-22 -34c-40 36 -88 58 -148 58c-94 0 -133 -54 -133 -92c0 -56 37 -85 183 -146c123 -51 166 -108 166 -172zM271 388c-29 12 -55 23 -78 36c-38 -28 -58 -71 -58 -116c0 -61 53 -94 155 -136c30 -13 56 -24 78 -36 c49 26 70 62 70 100c0 62 -42 99 -167 152z" />
<glyph unicode="&#x2022;" horiz-adv-x="480" d="M131 264c0 60 49 109 109 109s109 -49 109 -109s-49 -109 -109 -109s-109 49 -109 109z" />
<glyph unicode="&#x2020;" horiz-adv-x="540" d="M290 680l-2 -210l197 6v-45l-197 5l-4 -455h-29l-5 455l-196 -5v45l196 -6l-2 210h42z" />
<glyph unicode="&#x2021;" horiz-adv-x="540" d="M290 680l-2 -210l197 6v-45l-197 5l-2 -166l180 6v-43l-180 5l-2 -257h-29l-3 257l-179 -5v43l179 -6l-2 166l-196 -5v45l196 -6l-2 210h42z" />
<glyph unicode="&#xb7;" horiz-adv-x="270" d="M96 244c0 24 17 44 39 44c21 0 39 -20 39 -44c0 -25 -18 -44 -39 -44c-22 0 -39 19 -39 44z" />
<glyph unicode="&#xae;" horiz-adv-x="560" d="M66 481c0 118 95 214 213 214s215 -96 215 -214s-92 -213 -215 -213c-118 0 -213 95 -213 213zM98 481c0 -100 78 -184 182 -184c106 0 182 84 182 184s-77 185 -184 185c-102 0 -180 -85 -180 -185zM362 541c0 -35 -24 -59 -61 -68l77 -101v-2l-27 -9l-82 109h-33v-106 h-29v249h73c46 0 82 -26 82 -72zM333 541c0 29 -24 46 -55 46h-42v-91h40c30 0 57 12 57 45z" />
<glyph unicode="&#xa9;" horiz-adv-x="790" d="M88 323c0 168 139 307 308 307c177 0 306 -139 306 -307c0 -169 -124 -308 -306 -308c-169 0 -308 127 -308 308zM122 321c0 -161 123 -273 275 -273c154 0 271 112 271 273c0 167 -122 278 -272 278c-147 0 -274 -115 -274 -278zM519 464l-18 -34c-3 1 -5 4 -9 6 c-1 1 -3 2 -4 2l-4 3c-8 5 -19 10 -32 14l-9 3c-1 1 -2 1 -3 1c-13 4 -27 6 -41 6h-5c-1 0 -3 -1 -5 -1c-6 0 -12 -1 -18 -2c-11 -3 -21 -6 -31 -12l-8 -5l-7 -6l-11 -9l-10 -12l-8 -13l-7 -15c-5 -12 -9 -26 -11 -41v-6c-1 -5 -1 -10 -1 -14v-7v-6c0 -4 0 -8 1 -12 c1 -13 4 -25 8 -37c0 -1 1 -3 2 -5c2 -6 5 -12 8 -18l12 -16l3 -4c4 -5 9 -9 14 -13c6 -5 13 -10 20 -13c2 -1 3 -2 5 -2c3 -2 6 -3 9 -4c9 -3 19 -5 30 -6h5h6h9h7c2 0 4 1 6 1c5 0 10 1 15 2l14 3c3 1 7 2 10 4l8 3c3 1 6 3 10 4l19 11l9 7l19 -30l-2 -2l-13 -9l-8 -5 c-9 -5 -19 -10 -30 -14l-13 -4c-15 -5 -31 -8 -47 -9h-7h-7h-7c-10 0 -19 1 -28 3l-6 2c-7 1 -13 3 -19 6c-4 1 -8 3 -12 5l-5 3c-8 4 -15 9 -21 14c-15 11 -28 26 -38 43l-6 11c-11 23 -18 50 -19 78v7c0 66 25 117 63 148c3 2 6 5 10 7l5 4l16 9l12 5c10 3 20 6 30 8 c2 0 5 0 7 1h6c4 1 8 1 13 1h7c3 0 5 -1 8 -1c23 -2 46 -8 64 -16l6 -2l8 -4l5 -3l9 -5c2 -2 4 -3 6 -4l4 -3c1 0 1 -1 2 -1z" />
<glyph unicode="&#x2117;" horiz-adv-x="790" d="M88 323c0 168 139 307 308 307c177 0 306 -139 306 -307c0 -169 -124 -308 -306 -308c-169 0 -308 127 -308 308zM122 321c0 -161 123 -273 275 -273c154 0 271 112 271 273c0 167 -122 278 -272 278c-147 0 -274 -115 -274 -278zM524 402c0 -67 -53 -103 -116 -103h-55 v-149h-37v350h94c68 0 114 -38 114 -98zM486 401c0 40 -32 66 -74 66h-59v-135h55c38 0 78 21 78 69z" />
<glyph unicode="&#x2122;" horiz-adv-x="690" d="M308 650h-100v-230h-34v230h-100v30h234v-30zM535 585h-5l-70 -169h-5l-70 169h-4l-27 -165h-32l43 262h15l77 -190h4l75 190h15l43 -262h-33z" />
<glyph unicode="0" horiz-adv-x="590" d="M530 347c0 -240 -98 -357 -233 -357c-130 0 -237 111 -237 357c0 230 107 343 237 343c135 0 233 -124 233 -343zM486 349c0 185 -77 302 -191 302c-107 0 -191 -105 -191 -302c0 -212 77 -320 194 -320c119 0 188 117 188 320z" />
<glyph unicode="1" horiz-adv-x="450" d="M272 0h-42v642l-139 -20l-5 38l178 25l8 -8v-677z" />
<glyph unicode="2" horiz-adv-x="540" d="M103 590l-18 34c40 37 114 66 179 66c119 0 201 -69 201 -183c0 -147 -132 -291 -357 -467l1 -2h376v-38h-427l-10 35c282 222 373 357 373 471c0 87 -64 145 -157 145c-71 0 -120 -27 -161 -61z" />
<glyph unicode="3" horiz-adv-x="520" d="M56 77l1 1c58 -36 107 -49 166 -49c107 0 183 62 183 160c0 85 -62 144 -145 144l-115 -6l8 45h98c78 0 137 56 137 135c0 96 -67 144 -153 144c-51 0 -97 -16 -146 -46h-3l5 44c28 17 81 41 146 41c122 0 195 -71 195 -179c0 -68 -42 -130 -113 -154v-4 c85 -18 130 -93 130 -162c0 -124 -94 -201 -228 -201c-68 0 -119 16 -165 42z" />
<glyph unicode="4" horiz-adv-x="550" d="M508 240v-38h-92v-202h-42v202h-310l-16 23l324 455h44v-440h92zM113 240h261v371h-5l-260 -365z" />
<glyph unicode="5" horiz-adv-x="540" d="M84 391l-4 3l36 286h338l-8 -43l-296 5l-25 -204c30 5 58 5 87 5c170 0 268 -96 268 -215c0 -139 -105 -238 -311 -238c-37 0 -69 3 -100 15l11 38c24 -9 61 -14 90 -14c186 0 266 88 266 195c0 112 -96 180 -226 180c-58 0 -89 -5 -126 -13z" />
<glyph unicode="6" horiz-adv-x="540" d="M109 331l2 -1c46 46 111 70 169 70c106 0 215 -63 215 -206c0 -130 -97 -204 -206 -204c-156 0 -229 124 -229 271c0 258 213 421 390 429l-8 -39c-185 -16 -316 -176 -333 -320zM451 192c0 126 -96 169 -175 169c-61 0 -124 -25 -170 -76c-1 -12 -2 -25 -2 -36 c0 -130 74 -220 183 -220c98 0 164 69 164 163z" />
<glyph unicode="7" horiz-adv-x="500" d="M472 680l10 -12c-161 -208 -250 -431 -261 -668h-45c19 247 117 477 248 639l-2 3l-374 -5l4 43h420z" />
<glyph unicode="8" horiz-adv-x="530" d="M315 353v-3c121 -58 157 -120 157 -190c0 -101 -87 -170 -207 -170c-123 0 -208 74 -208 175c0 82 66 151 158 187v2c-102 51 -135 116 -135 170c0 95 82 166 187 166c100 0 182 -61 182 -160c0 -80 -44 -133 -134 -177zM428 161c0 79 -73 133 -170 174 c-107 -39 -157 -105 -157 -170c0 -83 74 -136 163 -136c97 0 164 50 164 132zM124 528c0 -62 43 -111 147 -159c92 32 134 87 134 156c0 78 -58 126 -137 126c-85 0 -144 -54 -144 -123z" />
<glyph unicode="9" horiz-adv-x="540" d="M119 19l1 2c207 41 302 190 317 318l-4 3c-49 -41 -113 -62 -173 -62c-98 0 -210 54 -210 201c0 135 106 209 206 209c150 0 229 -118 229 -271c0 -255 -149 -385 -345 -434zM94 481c0 -122 88 -162 166 -162c67 0 138 23 179 66c1 16 2 34 2 46c0 130 -74 220 -183 220 c-97 0 -164 -73 -164 -170z" />
<glyph unicode="+" horiz-adv-x="530" d="M285 533v-212h212v-40h-212v-212h-40v212h-212v40h212v212h40z" />
<glyph unicode="&#x2212;" horiz-adv-x="530" d="M43 321h444v-40h-444v40z" />
<glyph unicode="&#xb1;" horiz-adv-x="530" d="M285 623v-212h202v-40h-202v-212h-40v212h-202v40h202v212h40zM43 94h444v-40h-444v40z" />
<glyph unicode="=" horiz-adv-x="530" d="M43 417h444v-40h-444v40zM43 217h444v-40h-444v40z" />
<glyph unicode="&#x2260;" horiz-adv-x="530" d="M43 417h257l70 145l36 -18l-62 -127h143v-40h-162l-77 -160h239v-40h-259l-71 -149l-36 18l63 131h-141v40h160l77 160h-237v40z" />
<glyph unicode="&#xd7;" horiz-adv-x="530" d="M105 484l160 -160l160 160l28 -28l-160 -160l160 -160l-28 -28l-160 160l-160 -160l-28 28l160 160l-160 160z" />
<glyph unicode="&#xf7;" horiz-adv-x="530" d="M222 465c0 24 19 43 43 43s43 -19 43 -43s-19 -43 -43 -43s-43 19 -43 43zM222 137c0 24 19 43 43 43s43 -19 43 -43s-19 -43 -43 -43s-43 19 -43 43zM43 321h444v-40h-444v40z" />
<glyph unicode="&#x3c;" horiz-adv-x="530" d="M472 506l-366 -185l366 -185l-18 -36l-404 205v32l404 205z" />
<glyph unicode="&#x3e;" horiz-adv-x="530" d="M424 321l-366 185l18 36l404 -205v-32l-404 -205l-18 36z" />
<glyph unicode="&#x2264;" horiz-adv-x="530" d="M472 566l-366 -185l366 -185l-18 -36l-404 205v32l404 205zM43 94h444v-40h-444v40z" />
<glyph unicode="&#x2265;" horiz-adv-x="530" d="M424 381l-366 185l18 36l404 -205v-32l-404 -205l-18 36zM43 94h444v-40h-444v40z" />
<glyph unicode="$" horiz-adv-x="470" d="M216 -66l-34 4l9 93c-59 8 -124 38 -147 63l20 37c35 -33 80 -55 131 -61l27 273c-108 53 -160 101 -160 171c0 86 75 151 183 151h9l9 84l34 -4l-9 -84c47 -9 95 -31 129 -59l-22 -32c-35 26 -69 46 -110 53l-26 -254c1 0 3 -1 4 -1c100 -50 158 -108 158 -182 c0 -110 -87 -156 -196 -157zM377 183c0 59 -45 103 -122 144l-26 -259c87 0 148 35 148 115zM106 514c0 -52 30 -80 121 -128l24 241h-5c-95 0 -140 -49 -140 -113z" />
<glyph unicode="&#xa2;" horiz-adv-x="430" d="M228 0l-35 5l9 97c-83 21 -146 94 -146 218c0 157 100 245 195 251l11 110l33 -5l-11 -105c47 -4 76 -21 110 -47l-20 -34c-27 24 -58 41 -93 44l-40 -400c6 -1 12 -1 19 -1c47 0 84 19 112 43l15 -32c-31 -26 -82 -48 -133 -48h-17zM98 322c0 -112 44 -166 108 -183 l41 395c-89 -10 -149 -92 -149 -212z" />
<glyph unicode="&#xa3;" horiz-adv-x="500" d="M435 606l-3 -1c-36 25 -78 46 -141 46c-70 0 -132 -40 -132 -145c0 -43 12 -88 22 -133h186v-38h-178c5 -23 8 -46 8 -67c0 -83 -23 -164 -88 -223l5 -6c25 17 64 35 106 35c71 0 86 -41 153 -41c28 0 53 7 83 28l4 -1l17 -35c-28 -24 -74 -35 -104 -35 c-66 0 -91 42 -163 42c-46 0 -94 -23 -127 -42l-30 45c74 66 100 150 100 230c0 23 -3 47 -7 70h-93v38h85c-11 47 -23 92 -23 134c0 132 87 183 176 183c69 0 134 -28 164 -55z" />
<glyph unicode="&#xa5;" horiz-adv-x="580" d="M138 195h131v65h-131v38h131v5l-241 360l33 22l229 -339h2l225 339l35 -22l-241 -360v-5h131v-38h-131v-65h131v-38h-131v-157h-42v157h-131v38z" />
<glyph unicode="&#x20ac;" horiz-adv-x="610" d="M51 408h58c30 191 173 282 304 282c69 0 115 -16 147 -34l-12 -37c-30 15 -69 33 -136 32c-112 -1 -231 -81 -259 -243h342l-10 -38h-337c-1 -12 -1 -25 -1 -37c0 -10 0 -19 1 -28h320l-10 -38h-306c24 -142 123 -238 262 -238c59 0 102 14 141 37l15 -37 c-39 -23 -99 -39 -159 -39c-153 0 -278 113 -304 277h-66l10 38h53c-1 8 -1 16 -1 24c0 14 0 27 1 41h-63z" />
<glyph unicode="&#xa4;" horiz-adv-x="620" d="M89 272c0 49 17 95 45 132l-45 44c-20 20 24 62 41 45l46 -47c37 29 84 47 134 47s95 -16 131 -44l43 45c18 19 66 -33 49 -50l-45 -43c27 -36 43 -81 43 -129c0 -51 -18 -97 -47 -135l48 -46c19 -19 -23 -64 -41 -45l-50 50c-37 -29 -82 -45 -131 -45 c-48 0 -93 15 -129 41l-42 -44c-19 -21 -70 25 -49 45l44 43c-29 37 -45 83 -45 136zM139 271c0 -101 68 -175 172 -175c96 0 168 74 168 175c0 106 -72 176 -169 176c-109 0 -171 -76 -171 -176z" />
<glyph unicode="#" horiz-adv-x="510" d="M79 526l119 -21l51 218l37 -9l-51 -216l113 -20l57 236l37 -9l-57 -233l115 -20l-6 -37l-118 21l-47 -192l108 -19l-6 -37l-111 19l-65 -268l-37 9l65 266l-110 19l-66 -284l-37 9l66 282l-126 22l6 37l128 -23l45 192l-116 21zM227 462l-45 -192l110 -20l47 192z" />
<glyph unicode="%" horiz-adv-x="680" d="M90 9l242 339l230 340l31 -16l-237 -337l-235 -344zM625 147c0 -92 -59 -157 -131 -157c-74 0 -131 65 -131 157c0 94 55 163 128 163c82 0 134 -69 134 -163zM585 148c0 77 -37 127 -91 127c-52 0 -91 -52 -91 -127c0 -72 39 -123 94 -123c48 0 88 49 88 123zM317 527 c0 -92 -59 -157 -131 -157c-74 0 -131 65 -131 157c0 94 55 163 128 163c82 0 134 -69 134 -163zM277 528c0 77 -37 127 -91 127c-52 0 -91 -52 -91 -127c0 -72 39 -123 94 -123c48 0 88 49 88 123z" />
<glyph unicode="&#x2030;" horiz-adv-x="990" d="M935 147c0 -92 -59 -157 -131 -157c-74 0 -131 65 -131 157c0 94 55 163 128 163c82 0 134 -69 134 -163zM895 148c0 77 -37 127 -91 127c-52 0 -91 -52 -91 -127c0 -72 39 -123 94 -123c48 0 88 49 88 123zM90 9l242 339l230 340l31 -16l-237 -337l-235 -344zM625 147 c0 -92 -59 -157 -131 -157c-74 0 -131 65 -131 157c0 94 55 163 128 163c82 0 134 -69 134 -163zM585 148c0 77 -37 127 -91 127c-52 0 -91 -52 -91 -127c0 -72 39 -123 94 -123c48 0 88 49 88 123zM317 527c0 -92 -59 -157 -131 -157c-74 0 -131 65 -131 157 c0 94 55 163 128 163c82 0 134 -69 134 -163zM277 528c0 77 -37 127 -91 127c-52 0 -91 -52 -91 -127c0 -72 39 -123 94 -123c48 0 88 49 88 123z" />
<glyph unicode="&#xb0;" horiz-adv-x="370" d="M52 559c0 73 61 134 133 134c73 0 134 -61 134 -134c0 -72 -61 -133 -134 -133c-72 0 -133 61 -133 133zM96 559c0 -52 36 -94 88 -94s93 42 93 94s-41 95 -93 95s-88 -43 -88 -95z" />
<glyph unicode="&#xaa;" horiz-adv-x="360" d="M322 316v-3l-25 -23c-17 12 -33 26 -40 54h-3c-19 -31 -63 -53 -102 -53c-56 0 -107 40 -107 110c0 65 51 120 136 120c23 0 51 -3 71 -7v40c0 75 -44 93 -80 93c-32 0 -63 -13 -98 -36l-19 30c32 20 72 41 126 41s107 -35 107 -120v-184c0 -30 16 -52 34 -62zM252 390 v93c-17 3 -47 6 -71 6c-65 0 -97 -38 -97 -87c0 -50 32 -76 73 -76c42 0 79 25 95 64z" />
<glyph unicode="&#xba;" horiz-adv-x="400" d="M353 483c0 -112 -65 -192 -153 -192c-90 0 -153 80 -153 192c0 115 65 199 150 199c95 0 156 -85 156 -199zM314 484c0 96 -46 163 -117 163c-65 0 -111 -69 -111 -163c0 -88 43 -158 114 -158c68 0 114 62 114 158z" />
<glyph horiz-adv-x="550" d="M500 347c0 -241 -94 -357 -223 -357c-124 0 -227 104 -227 357c0 241 103 343 227 343c129 0 223 -120 223 -343zM458 349c0 185 -75 301 -183 301c-101 0 -182 -104 -182 -301c0 -232 88 -319 185 -319c113 0 180 116 180 319z" />
<glyph horiz-adv-x="550" d="M324 0h-42v642l-139 -20l-5 38l178 25l8 -8v-677z" />
<glyph horiz-adv-x="550" d="M103 590l-18 34c40 37 114 66 179 66c119 0 201 -69 201 -183c0 -147 -132 -291 -357 -467l1 -2h376v-38h-427l-10 35c282 222 373 357 373 471c0 87 -64 145 -157 145c-71 0 -120 -27 -161 -61z" />
<glyph horiz-adv-x="550" d="M63 77l1 1c58 -36 107 -49 166 -49c107 0 183 62 183 160c0 85 -62 144 -145 144l-115 -6l8 45h98c78 0 137 56 137 135c0 96 -67 144 -153 144c-51 0 -97 -16 -146 -46h-3l5 44c28 17 81 41 146 41c122 0 195 -71 195 -179c0 -68 -42 -130 -113 -154v-4 c85 -18 130 -93 130 -162c0 -124 -94 -201 -228 -201c-68 0 -119 16 -165 42z" />
<glyph horiz-adv-x="550" d="M502 240v-38h-92v-202h-42v202h-310l-16 23l324 455h44v-440h92zM107 240h261v371h-5l-260 -365z" />
<glyph horiz-adv-x="550" d="M82 391l-4 3l36 286h338l-8 -43l-296 5l-25 -204c30 5 58 5 87 5c170 0 268 -96 268 -215c0 -139 -105 -238 -311 -238c-37 0 -69 3 -100 15l11 38c24 -9 61 -14 90 -14c186 0 266 88 266 195c0 112 -96 180 -226 180c-58 0 -89 -5 -126 -13z" />
<glyph horiz-adv-x="550" d="M114 331l2 -1c46 46 111 70 169 70c106 0 215 -63 215 -206c0 -130 -97 -204 -206 -204c-156 0 -229 124 -229 271c0 258 213 421 390 429l-8 -39c-185 -16 -316 -176 -333 -320zM456 192c0 126 -96 169 -175 169c-61 0 -124 -25 -170 -76c-1 -12 -2 -25 -2 -36 c0 -130 74 -220 183 -220c98 0 164 69 164 163z" />
<glyph horiz-adv-x="550" d="M487 680l10 -12c-161 -208 -250 -431 -261 -668h-45c19 247 117 477 248 639l-2 3l-374 -5l4 43h420z" />
<glyph horiz-adv-x="550" d="M325 353v-3c121 -58 157 -120 157 -190c0 -101 -87 -170 -207 -170c-123 0 -208 74 -208 175c0 82 66 151 158 187v2c-102 51 -135 116 -135 170c0 95 82 166 187 166c100 0 182 -61 182 -160c0 -80 -44 -133 -134 -177zM438 161c0 79 -73 133 -170 174 c-107 -39 -157 -105 -157 -170c0 -83 74 -136 163 -136c97 0 164 50 164 132zM134 528c0 -62 43 -111 147 -159c92 32 134 87 134 156c0 78 -58 126 -137 126c-85 0 -144 -54 -144 -123z" />
<glyph horiz-adv-x="550" d="M116 19l1 2c207 41 302 190 317 318l-4 3c-49 -41 -113 -62 -173 -62c-98 0 -210 54 -210 201c0 135 106 209 206 209c150 0 229 -118 229 -271c0 -255 -149 -385 -345 -434zM91 481c0 -122 88 -162 166 -162c67 0 138 23 179 66c1 16 2 34 2 46c0 130 -74 220 -183 220 c-97 0 -164 -73 -164 -170z" />
<glyph horiz-adv-x="540" d="M495 247c0 -168 -109 -257 -223 -257c-119 0 -227 99 -227 257s103 263 227 263c114 0 223 -101 223 -263zM451 249c0 122 -77 222 -180 222c-98 0 -182 -89 -182 -222c0 -150 96 -220 184 -220c99 0 178 79 178 220z" />
<glyph horiz-adv-x="390" d="M243 0h-42v462l-139 -20l-5 38l178 25l8 -8v-497z" />
<glyph horiz-adv-x="480" d="M81 413l-17 32c41 35 111 65 173 65c86 0 170 -43 170 -148c0 -91 -102 -195 -299 -319l2 -5h317v-38h-382l-10 30c222 145 328 245 328 331c0 71 -51 110 -128 110c-58 0 -114 -24 -154 -58z" />
<glyph horiz-adv-x="440" d="M31 63l2 2c59 -29 107 -36 166 -36c94 0 148 40 148 105c0 58 -56 102 -115 99l-120 -6l8 45h113c57 0 102 42 102 100c0 61 -50 99 -123 99c-53 0 -100 -13 -152 -40l-2 1l5 42c37 21 88 36 146 36c103 0 170 -53 170 -134c0 -61 -37 -107 -98 -121v-3 c73 -10 110 -65 110 -116c0 -91 -78 -146 -198 -146c-66 0 -115 12 -160 32z" />
<glyph horiz-adv-x="490" d="M442 180v-38h-72v-142h-42v142h-265l-16 28l279 330h44v-320h72zM109 180h219v260h-5l-217 -256z" />
<glyph horiz-adv-x="460" d="M64 269l-4 3l34 228h298l-7 -40l-255 2l-23 -149c21 3 47 5 70 5c159 0 233 -74 233 -155c0 -102 -92 -173 -261 -173c-35 0 -68 2 -95 11l11 38c23 -6 58 -10 85 -10c148 0 216 60 216 130c0 74 -76 120 -190 120c-50 0 -78 -4 -112 -10z" />
<glyph horiz-adv-x="480" d="M99 255l2 -2c37 40 100 57 150 57c86 0 185 -49 185 -161c0 -94 -74 -159 -181 -159c-128 0 -204 94 -204 211c0 186 183 301 340 309l-7 -39c-143 -10 -272 -112 -285 -216zM394 148c0 90 -78 125 -146 125c-51 0 -115 -20 -152 -62c-1 -7 -2 -16 -2 -23 c0 -94 69 -161 162 -161c80 0 138 48 138 121z" />
<glyph horiz-adv-x="430" d="M389 500l10 -12c-128 -142 -200 -323 -211 -488h-45c17 173 91 334 189 459l-3 3l-294 -2l4 40h350z" />
<glyph horiz-adv-x="470" d="M288 255v-2c95 -33 134 -86 134 -134c0 -83 -94 -129 -181 -129c-114 0 -193 53 -193 129c0 64 57 114 132 135v1c-88 39 -112 85 -112 124c0 71 66 131 171 131c88 0 163 -50 163 -125c0 -68 -55 -106 -114 -130zM235 235c-5 1 -9 2 -13 4c-100 -26 -132 -77 -132 -120 c0 -56 69 -93 150 -93c78 0 140 36 140 92c0 54 -54 88 -145 117zM110 380c0 -42 39 -76 135 -112c76 26 115 69 115 117c0 45 -47 89 -121 89c-85 0 -129 -48 -129 -94z" />
<glyph horiz-adv-x="480" d="M380 240l-4 3c-42 -36 -99 -53 -151 -53c-87 0 -183 46 -183 156c0 97 83 164 186 164c125 0 199 -94 199 -211c0 -186 -162 -284 -320 -309l-12 39c143 10 266 104 285 211zM84 348c0 -86 76 -121 144 -121c53 0 111 18 155 60c1 7 1 17 1 24c0 94 -70 162 -157 162 c-83 0 -143 -54 -143 -125z" />
<glyph horiz-adv-x="530" d="M285 463v-212h212v-40h-212v-212h-40v212h-212v40h212v212h40z" />
<glyph horiz-adv-x="530" d="M43 251h444v-40h-444v40z" />
<glyph horiz-adv-x="530" d="M105 414l160 -160l160 160l28 -28l-160 -160l160 -160l-28 -28l-160 160l-160 -160l-28 28l160 160l-160 160z" />
<glyph horiz-adv-x="530" d="M222 395c0 24 19 43 43 43s43 -19 43 -43s-19 -43 -43 -43s-43 19 -43 43zM222 67c0 24 19 43 43 43s43 -19 43 -43s-19 -43 -43 -43s-43 19 -43 43zM43 251h444v-40h-444v40z" />
<glyph horiz-adv-x="530" d="M43 347h444v-40h-444v40zM43 147h444v-40h-444v40z" />
<glyph horiz-adv-x="530" d="M43 347h257l70 145l36 -18l-62 -127h143v-40h-162l-77 -160h239v-40h-259l-71 -149l-36 18l63 131h-141v40h160l77 160h-237v40z" />
<glyph horiz-adv-x="530" d="M472 436l-366 -185l366 -185l-18 -36l-404 205v32l404 205z" />
<glyph horiz-adv-x="530" d="M424 251l-366 185l18 36l404 -205v-32l-404 -205l-18 36z" />
<glyph horiz-adv-x="530" d="M472 496l-366 -185l366 -185l-18 -36l-404 205v32l404 205zM43 24h444v-40h-444v40z" />
<glyph horiz-adv-x="530" d="M424 311l-366 185l18 36l404 -205v-32l-404 -205l-18 36zM43 24h444v-40h-444v40z" />
<glyph horiz-adv-x="460" d="M211 -111l-34 4l9 94c-52 9 -109 33 -137 59l21 33c34 -25 72 -47 119 -54l22 221c-82 37 -144 76 -144 136c0 74 65 133 168 133h2l10 97l34 -4l-10 -96c47 -6 88 -25 121 -47l-24 -33c-32 23 -65 37 -100 42l-20 -203l6 -2c116 -52 152 -100 152 -154 c0 -77 -66 -131 -184 -131h-2zM362 115c0 43 -35 77 -118 116l-20 -208c92 0 138 37 138 92zM110 385c0 -36 29 -62 105 -98l18 189c-67 0 -123 -29 -123 -91z" />
<glyph horiz-adv-x="440" d="M234 -80l-35 5l9 97c-83 21 -146 94 -146 218c0 157 100 245 195 251l11 110l33 -5l-11 -105c47 -4 76 -21 110 -47l-20 -34c-27 24 -58 41 -93 44l-40 -400c6 -1 12 -1 19 -1c47 0 84 19 112 43l15 -32c-31 -26 -82 -48 -133 -48h-17zM104 242c0 -112 44 -166 108 -183 l41 395c-89 -10 -149 -92 -149 -212z" />
<glyph horiz-adv-x="540" d="M59 321h56c31 120 136 189 245 189c57 0 105 -17 128 -33l-16 -36c-14 10 -59 31 -114 30c-90 -1 -170 -59 -198 -150h282l-10 -38h-280c-2 -12 -3 -24 -3 -37v-16h270l-10 -38h-254c21 -99 100 -163 205 -163c51 0 87 16 121 36l16 -34c-41 -27 -87 -41 -139 -41 c-130 0 -226 87 -248 202h-65l10 38h50v14c0 13 1 26 2 39h-58z" />
<glyph horiz-adv-x="460" d="M392 431l-3 -1c-32 25 -66 46 -121 46s-107 -33 -107 -110c0 -28 8 -61 16 -93h142v-38h-133c2 -11 3 -22 3 -32c0 -57 -17 -113 -78 -159l3 -6c23 15 55 31 93 31c48 0 80 -36 123 -36c26 0 50 7 78 28l4 -1l17 -35c-27 -24 -70 -35 -99 -35c-52 0 -85 37 -128 37 c-42 0 -86 -20 -117 -37l-30 45c66 49 90 111 90 165c0 11 -1 23 -3 35h-72v38h63c-8 32 -16 65 -16 94c0 103 75 148 151 148c61 0 118 -28 144 -55z" />
<glyph horiz-adv-x="470" d="M104 161v38h110v4l-194 287l33 20l182 -263h4l176 263l35 -20l-194 -287v-4h110v-38h-110v-53h110v-38h-110v-70h-42v70h-110v38h110v53h-110z" />
<glyph horiz-adv-x="440" d="M83 412l93 -17l40 166l34 -9l-40 -163l95 -17l44 182l34 -9l-43 -179l92 -16l-6 -35l-95 17l-36 -151l86 -15l-6 -35l-89 16l-49 -205l-34 9l49 202l-95 16l-52 -219l-34 9l52 216l-97 18l6 35l99 -18l37 151l-91 16zM202 355l-36 -151l94 -17l37 151z" />
<glyph horiz-adv-x="580" d="M84 -33l382 554l26 -16l-382 -556z" />
<glyph horiz-adv-x="670" d="M103 9l250 276l207 233l26 -16l-216 -237l-241 -274zM620 132c0 -83 -55 -142 -121 -142c-68 0 -121 59 -121 142c0 85 51 148 118 148c76 0 124 -63 124 -148zM580 133c0 68 -33 112 -81 112c-46 0 -81 -46 -81 -112c0 -63 35 -108 84 -108c42 0 78 43 78 108zM292 362 c0 -83 -55 -142 -121 -142c-68 0 -121 59 -121 142c0 85 51 148 118 148c76 0 124 -63 124 -148zM252 363c0 68 -33 112 -81 112c-46 0 -81 -46 -81 -112c0 -63 35 -108 84 -108c42 0 78 43 78 108z" />
<glyph horiz-adv-x="950" d="M900 132c0 -83 -55 -142 -121 -142c-68 0 -121 59 -121 142c0 85 51 148 118 148c76 0 124 -63 124 -148zM860 133c0 68 -33 112 -81 112c-46 0 -81 -46 -81 -112c0 -63 35 -108 84 -108c42 0 78 43 78 108zM103 9l250 276l207 233l26 -16l-216 -237l-241 -274zM620 132 c0 -83 -55 -142 -121 -142c-68 0 -121 59 -121 142c0 85 51 148 118 148c76 0 124 -63 124 -148zM580 133c0 68 -33 112 -81 112c-46 0 -81 -46 -81 -112c0 -63 35 -108 84 -108c42 0 78 43 78 108zM292 362c0 -83 -55 -142 -121 -142c-68 0 -121 59 -121 142 c0 85 51 148 118 148c76 0 124 -63 124 -148zM252 363c0 68 -33 112 -81 112c-46 0 -81 -46 -81 -112c0 -63 35 -108 84 -108c42 0 78 43 78 108z" />
<glyph horiz-adv-x="330" d="M297 202v-3l-25 -23c-17 11 -33 24 -40 49h-3c-17 -28 -57 -48 -92 -48c-50 0 -97 29 -97 95c0 53 45 100 121 100c21 0 47 -4 66 -7v55c0 47 -35 60 -65 60s-60 -11 -93 -31l-14 30c29 18 63 36 111 36s97 -30 97 -92v-159c0 -30 16 -52 34 -62zM227 271v63 c-16 0 -44 6 -66 6c-56 0 -82 -30 -82 -67c0 -43 26 -61 61 -61c38 0 73 23 87 59z" />
<glyph horiz-adv-x="370" d="M315 344c0 -99 -59 -167 -128 -167s-128 60 -128 167c0 101 55 171 125 171c80 0 131 -72 131 -171zM276 345c0 78 -33 135 -92 135c-53 0 -86 -60 -86 -135c0 -80 35 -133 89 -133c51 0 89 52 89 133z" />
<glyph horiz-adv-x="370" d="M52 379c0 73 61 134 133 134c73 0 134 -61 134 -134c0 -72 -61 -133 -134 -133c-72 0 -133 61 -133 133zM96 379c0 -52 36 -94 88 -94s93 42 93 94s-41 95 -93 95s-88 -43 -88 -95z" />
<glyph d="M268 506c0 -133 -51 -197 -122 -197c-68 0 -125 58 -125 197c0 132 57 189 125 189c71 0 122 -67 122 -189zM230 507c0 93 -35 152 -85 152c-47 0 -85 -53 -85 -152c0 -116 42 -162 86 -162c54 0 84 59 84 162z" />
<glyph d="M176 315h-39v337l-79 -9l-3 36l112 13l9 -6v-371z" />
<glyph d="M52 628l-13 31c14 12 54 36 103 36c62 0 113 -29 113 -101c0 -75 -67 -159 -170 -240l1 -3h174v-36h-235l-5 19c147 122 196 197 196 259c0 42 -30 66 -75 66c-40 0 -71 -17 -89 -31z" />
<glyph d="M39 333l-1 40c34 -19 61 -28 95 -28c46 0 83 29 83 74c0 41 -31 74 -65 72l-63 -3l4 40h54c35 0 64 25 64 66c0 39 -29 65 -70 65c-29 0 -54 -9 -82 -26l3 39c14 9 43 23 77 23c70 0 110 -40 110 -99c0 -42 -28 -73 -62 -82v-5c43 -10 69 -51 69 -89 c0 -68 -52 -111 -126 -111c-37 0 -65 9 -90 24z" />
<glyph d="M271 455v-34h-45v-106h-37v106h-162l-9 21l166 247h42v-234h45zM69 455h120v177h-5l-117 -174z" />
<glyph d="M42 513l-2 2l20 174h189l-4 -40l-155 2l-13 -97c12 1 24 2 36 2c103 0 147 -52 147 -115c0 -78 -55 -132 -166 -132c-21 0 -41 2 -57 7l6 35c14 -6 37 -6 51 -6c86 0 128 42 128 94c0 50 -37 82 -120 82c-22 0 -39 -3 -60 -8z" />
<glyph d="M71 505l2 -2c23 22 51 32 77 32c59 0 118 -32 118 -116c0 -71 -56 -110 -118 -110c-83 0 -121 65 -121 150c0 141 117 231 215 236l-5 -39c-86 -5 -158 -83 -168 -151zM230 418c0 59 -42 81 -84 81c-25 0 -55 -10 -77 -32c-1 -7 -1 -14 -1 -20c0 -60 35 -102 86 -102 c44 0 76 29 76 73z" />
<glyph d="M266 689l5 -7c-91 -114 -142 -237 -148 -367h-40c10 130 63 251 135 337l-2 3l-183 -2l2 36h231z" />
<glyph d="M178 514v-2c62 -35 81 -66 81 -106c0 -57 -50 -97 -114 -97c-66 0 -115 42 -115 100c0 41 25 81 80 100v2c-50 29 -67 63 -67 95c0 53 43 89 100 89s103 -34 103 -89c0 -37 -24 -72 -68 -92zM220 406c0 41 -31 66 -83 91c-45 -17 -68 -52 -68 -88c0 -41 37 -64 75 -64 c45 0 76 24 76 61zM81 608c0 -31 19 -56 70 -83c38 17 57 46 57 79c0 34 -28 55 -66 55s-61 -23 -61 -51z" />
<glyph d="M227 499l-2 1c-23 -21 -52 -31 -78 -31c-54 0 -118 32 -118 113c0 73 59 113 114 113c82 0 125 -65 125 -150c0 -140 -83 -215 -195 -238l-4 36c106 20 150 92 158 156zM68 583c0 -57 42 -78 84 -78c25 0 56 7 77 27c0 9 1 18 1 25c0 60 -35 102 -86 102 c-42 0 -76 -33 -76 -76z" />
<glyph d="M268 151c0 -133 -51 -197 -122 -197c-68 0 -125 58 -125 197c0 132 57 189 125 189c71 0 122 -67 122 -189zM230 152c0 93 -35 152 -85 152c-47 0 -85 -53 -85 -152c0 -116 42 -162 86 -162c54 0 84 59 84 162z" />
<glyph d="M176 -40h-39v337l-79 -9l-3 36l112 13l9 -6v-371z" />
<glyph d="M52 273l-13 31c14 12 54 36 103 36c62 0 113 -29 113 -101c0 -75 -67 -159 -170 -240l1 -3h174v-36h-235l-5 19c147 122 196 197 196 259c0 42 -30 66 -75 66c-40 0 -71 -17 -89 -31z" />
<glyph d="M39 -22l-1 40c34 -19 61 -28 95 -28c46 0 83 29 83 74c0 41 -31 74 -65 72l-63 -3l4 40h54c35 0 64 25 64 66c0 39 -29 65 -70 65c-29 0 -54 -9 -82 -26l3 39c14 9 43 23 77 23c70 0 110 -40 110 -99c0 -42 -28 -73 -62 -82v-5c43 -10 69 -51 69 -89 c0 -68 -52 -111 -126 -111c-37 0 -65 9 -90 24z" />
<glyph d="M271 100v-34h-45v-106h-37v106h-162l-9 21l166 247h42v-234h45zM69 100h120v177h-5l-117 -174z" />
<glyph d="M42 158l-2 2l20 174h189l-4 -40l-155 2l-13 -97c12 1 24 2 36 2c103 0 147 -52 147 -115c0 -78 -55 -132 -166 -132c-21 0 -41 2 -57 7l6 35c14 -6 37 -6 51 -6c86 0 128 42 128 94c0 50 -37 82 -120 82c-22 0 -39 -3 -60 -8z" />
<glyph d="M71 150l2 -2c23 22 51 32 77 32c59 0 118 -32 118 -116c0 -71 -56 -110 -118 -110c-83 0 -121 65 -121 150c0 141 117 231 215 236l-5 -39c-86 -5 -158 -83 -168 -151zM230 63c0 59 -42 81 -84 81c-25 0 -55 -10 -77 -32c-1 -7 -1 -14 -1 -20c0 -60 35 -102 86 -102 c44 0 76 29 76 73z" />
<glyph d="M266 334l5 -7c-91 -114 -142 -237 -148 -367h-40c10 130 63 251 135 337l-2 3l-183 -2l2 36h231z" />
<glyph d="M178 159v-2c62 -35 81 -66 81 -106c0 -57 -50 -97 -114 -97c-66 0 -115 42 -115 100c0 41 25 81 80 100v2c-50 29 -67 63 -67 95c0 53 43 89 100 89s103 -34 103 -89c0 -37 -24 -72 -68 -92zM220 51c0 41 -31 66 -83 91c-45 -17 -68 -52 -68 -88c0 -41 37 -64 75 -64 c45 0 76 24 76 61zM81 253c0 -31 19 -56 70 -83c38 17 57 46 57 79c0 34 -28 55 -66 55s-61 -23 -61 -51z" />
<glyph d="M227 144l-2 1c-23 -21 -52 -31 -78 -31c-54 0 -118 32 -118 113c0 73 59 113 114 113c82 0 125 -65 125 -150c0 -140 -83 -215 -195 -238l-4 36c106 20 150 92 158 156zM68 228c0 -57 42 -78 84 -78c25 0 56 7 77 27c0 9 1 18 1 25c0 60 -35 102 -86 102 c-42 0 -76 -33 -76 -76z" />
<glyph unicode="&#x2044;" horiz-adv-x="740" d="M108 -31l247 380l218 343l26 -16l-220 -340l-245 -385z" />
<glyph d="M268 426c0 -133 -51 -197 -122 -197c-68 0 -125 58 -125 197c0 132 57 189 125 189c71 0 122 -67 122 -189zM230 427c0 93 -35 152 -85 152c-47 0 -85 -53 -85 -152c0 -116 42 -162 86 -162c54 0 84 59 84 162z" />
<glyph d="M176 235h-39v337l-79 -9l-3 36l112 13l9 -6v-371z" />
<glyph d="M52 548l-13 31c14 12 54 36 103 36c62 0 113 -29 113 -101c0 -75 -67 -159 -170 -240l1 -3h174v-36h-235l-5 19c147 122 196 197 196 259c0 42 -30 66 -75 66c-40 0 -71 -17 -89 -31z" />
<glyph d="M39 253l-1 40c34 -19 61 -28 95 -28c46 0 83 29 83 74c0 41 -31 74 -65 72l-63 -3l4 40h54c35 0 64 25 64 66c0 39 -29 65 -70 65c-29 0 -54 -9 -82 -26l3 39c14 9 43 23 77 23c70 0 110 -40 110 -99c0 -42 -28 -73 -62 -82v-5c43 -10 69 -51 69 -89 c0 -68 -52 -111 -126 -111c-37 0 -65 9 -90 24z" />
<glyph d="M271 375v-34h-45v-106h-37v106h-162l-9 21l166 247h42v-234h45zM69 375h120v177h-5l-117 -174z" />
<glyph d="M42 433l-2 2l20 174h189l-4 -40l-155 2l-13 -97c12 1 24 2 36 2c103 0 147 -52 147 -115c0 -78 -55 -132 -166 -132c-21 0 -41 2 -57 7l6 35c14 -6 37 -6 51 -6c86 0 128 42 128 94c0 50 -37 82 -120 82c-22 0 -39 -3 -60 -8z" />
<glyph d="M71 425l2 -2c23 22 51 32 77 32c59 0 118 -32 118 -116c0 -71 -56 -110 -118 -110c-83 0 -121 65 -121 150c0 141 117 231 215 236l-5 -39c-86 -5 -158 -83 -168 -151zM230 338c0 59 -42 81 -84 81c-25 0 -55 -10 -77 -32c-1 -7 -1 -14 -1 -20c0 -60 35 -102 86 -102 c44 0 76 29 76 73z" />
<glyph d="M266 609l5 -7c-91 -114 -142 -237 -148 -367h-40c10 130 63 251 135 337l-2 3l-183 -2l2 36h231z" />
<glyph d="M178 434v-2c62 -35 81 -66 81 -106c0 -57 -50 -97 -114 -97c-66 0 -115 42 -115 100c0 41 25 81 80 100v2c-50 29 -67 63 -67 95c0 53 43 89 100 89s103 -34 103 -89c0 -37 -24 -72 -68 -92zM220 326c0 41 -31 66 -83 91c-45 -17 -68 -52 -68 -88c0 -41 37 -64 75 -64 c45 0 76 24 76 61zM81 528c0 -31 19 -56 70 -83c38 17 57 46 57 79c0 34 -28 55 -66 55s-61 -23 -61 -51z" />
<glyph d="M227 419l-2 1c-23 -21 -52 -31 -78 -31c-54 0 -118 32 -118 113c0 73 59 113 114 113c82 0 125 -65 125 -150c0 -140 -83 -215 -195 -238l-4 36c106 20 150 92 158 156zM68 503c0 -57 42 -78 84 -78c25 0 56 7 77 27c0 9 1 18 1 25c0 60 -35 102 -86 102 c-42 0 -76 -33 -76 -76z" />
<glyph d="M268 71c0 -133 -51 -197 -122 -197c-68 0 -125 58 -125 197c0 132 57 189 125 189c71 0 122 -67 122 -189zM230 72c0 93 -35 152 -85 152c-47 0 -85 -53 -85 -152c0 -116 42 -162 86 -162c54 0 84 59 84 162z" />
<glyph d="M176 -120h-39v337l-79 -9l-3 36l112 13l9 -6v-371z" />
<glyph d="M52 193l-13 31c14 12 54 36 103 36c62 0 113 -29 113 -101c0 -75 -67 -159 -170 -240l1 -3h174v-36h-235l-5 19c147 122 196 197 196 259c0 42 -30 66 -75 66c-40 0 -71 -17 -89 -31z" />
<glyph d="M39 -102l-1 40c34 -19 61 -28 95 -28c46 0 83 29 83 74c0 41 -31 74 -65 72l-63 -3l4 40h54c35 0 64 25 64 66c0 39 -29 65 -70 65c-29 0 -54 -9 -82 -26l3 39c14 9 43 23 77 23c70 0 110 -40 110 -99c0 -42 -28 -73 -62 -82v-5c43 -10 69 -51 69 -89 c0 -68 -52 -111 -126 -111c-37 0 -65 9 -90 24z" />
<glyph d="M271 20v-34h-45v-106h-37v106h-162l-9 21l166 247h42v-234h45zM69 20h120v177h-5l-117 -174z" />
<glyph d="M42 78l-2 2l20 174h189l-4 -40l-155 2l-13 -97c12 1 24 2 36 2c103 0 147 -52 147 -115c0 -78 -55 -132 -166 -132c-21 0 -41 2 -57 7l6 35c14 -6 37 -6 51 -6c86 0 128 42 128 94c0 50 -37 82 -120 82c-22 0 -39 -3 -60 -8z" />
<glyph d="M71 70l2 -2c23 22 51 32 77 32c59 0 118 -32 118 -116c0 -71 -56 -110 -118 -110c-83 0 -121 65 -121 150c0 141 117 231 215 236l-5 -39c-86 -5 -158 -83 -168 -151zM230 -17c0 59 -42 81 -84 81c-25 0 -55 -10 -77 -32c-1 -7 -1 -14 -1 -20c0 -60 35 -102 86 -102 c44 0 76 29 76 73z" />
<glyph d="M266 254l5 -7c-91 -114 -142 -237 -148 -367h-40c10 130 63 251 135 337l-2 3l-183 -2l2 36h231z" />
<glyph d="M178 79v-2c62 -35 81 -66 81 -106c0 -57 -50 -97 -114 -97c-66 0 -115 42 -115 100c0 41 25 81 80 100v2c-50 29 -67 63 -67 95c0 53 43 89 100 89s103 -34 103 -89c0 -37 -24 -72 -68 -92zM220 -29c0 41 -31 66 -83 91c-45 -17 -68 -52 -68 -88c0 -41 37 -64 75 -64 c45 0 76 24 76 61zM81 173c0 -31 19 -56 70 -83c38 17 57 46 57 79c0 34 -28 55 -66 55s-61 -23 -61 -51z" />
<glyph d="M227 64l-2 1c-23 -21 -52 -31 -78 -31c-54 0 -118 32 -118 113c0 73 59 113 114 113c82 0 125 -65 125 -150c0 -140 -83 -215 -195 -238l-4 36c106 20 150 92 158 156zM68 148c0 -57 42 -78 84 -78c25 0 56 7 77 27c0 9 1 18 1 25c0 60 -35 102 -86 102 c-42 0 -76 -33 -76 -76z" />
<glyph horiz-adv-x="740" d="M108 -111l247 380l218 343l26 -16l-220 -340l-245 -385zM192 235h-39v337l-79 -9l-3 36l112 13l9 -6v-371zM458 193l-13 31c14 12 54 36 103 36c62 0 113 -29 113 -101c0 -75 -67 -159 -170 -240l1 -3h174v-36h-235l-5 19c147 122 196 197 196 259c0 42 -30 66 -75 66 c-40 0 -71 -17 -89 -31z" />
<glyph horiz-adv-x="740" d="M108 -111l247 380l218 343l26 -16l-220 -340l-245 -385zM192 235h-39v337l-79 -9l-3 36l112 13l9 -6v-371zM445 -102l-1 40c34 -19 61 -28 95 -28c46 0 83 29 83 74c0 41 -31 74 -65 72l-63 -3l4 40h54c35 0 64 25 64 66c0 39 -29 65 -70 65c-29 0 -54 -9 -82 -26l3 39 c14 9 43 23 77 23c70 0 110 -40 110 -99c0 -42 -28 -73 -62 -82v-5c43 -10 69 -51 69 -89c0 -68 -52 -111 -126 -111c-37 0 -65 9 -90 24z" />
<glyph horiz-adv-x="740" d="M108 -111l247 380l218 343l26 -16l-220 -340l-245 -385zM192 235h-39v337l-79 -9l-3 36l112 13l9 -6v-371zM630 20v-34h-45v-106h-37v106h-162l-9 21l166 247h42v-234h45zM428 20h120v177h-5l-117 -174z" />
<glyph horiz-adv-x="740" d="M108 -111l247 380l218 343l26 -16l-220 -340l-245 -385zM192 235h-39v337l-79 -9l-3 36l112 13l9 -6v-371zM448 78l-2 2l20 174h189l-4 -40l-155 2l-13 -97c12 1 24 2 36 2c103 0 147 -52 147 -115c0 -78 -55 -132 -166 -132c-21 0 -41 2 -57 7l6 35c14 -6 37 -6 51 -6 c86 0 128 42 128 94c0 50 -37 82 -120 82c-22 0 -39 -3 -60 -8z" />
<glyph horiz-adv-x="740" d="M108 -111l247 380l218 343l26 -16l-220 -340l-245 -385zM192 235h-39v337l-79 -9l-3 36l112 13l9 -6v-371zM466 70l2 -2c23 22 51 32 77 32c59 0 118 -32 118 -116c0 -71 -56 -110 -118 -110c-83 0 -121 65 -121 150c0 141 117 231 215 236l-5 -39 c-86 -5 -158 -83 -168 -151zM625 -17c0 59 -42 81 -84 81c-25 0 -55 -10 -77 -32c-1 -7 -1 -14 -1 -20c0 -60 35 -102 86 -102c44 0 76 29 76 73z" />
<glyph horiz-adv-x="740" d="M108 -111l247 380l218 343l26 -16l-220 -340l-245 -385zM192 235h-39v337l-79 -9l-3 36l112 13l9 -6v-371zM672 254l5 -7c-91 -114 -142 -237 -148 -367h-40c10 130 63 251 135 337l-2 3l-183 -2l2 36h231z" />
<glyph horiz-adv-x="740" d="M108 -111l247 380l218 343l26 -16l-220 -340l-245 -385zM192 235h-39v337l-79 -9l-3 36l112 13l9 -6v-371zM584 79v-2c62 -35 81 -66 81 -106c0 -57 -50 -97 -114 -97c-66 0 -115 42 -115 100c0 41 25 81 80 100v2c-50 29 -67 63 -67 95c0 53 43 89 100 89 s103 -34 103 -89c0 -37 -24 -72 -68 -92zM626 -29c0 41 -31 66 -83 91c-45 -17 -68 -52 -68 -88c0 -41 37 -64 75 -64c45 0 76 24 76 61zM487 173c0 -31 19 -56 70 -83c38 17 57 46 57 79c0 34 -28 55 -66 55s-61 -23 -61 -51z" />
<glyph horiz-adv-x="740" d="M108 -111l247 380l218 343l26 -16l-220 -340l-245 -385zM192 235h-39v337l-79 -9l-3 36l112 13l9 -6v-371zM633 64l-2 1c-23 -21 -52 -31 -78 -31c-54 0 -118 32 -118 113c0 73 59 113 114 113c82 0 125 -65 125 -150c0 -140 -83 -215 -195 -238l-4 36 c106 20 150 92 158 156zM474 148c0 -57 42 -78 84 -78c25 0 56 7 77 27c0 9 1 18 1 25c0 60 -35 102 -86 102c-42 0 -76 -33 -76 -76z" />
<glyph horiz-adv-x="740" d="M108 -111l247 380l218 343l26 -16l-220 -340l-245 -385zM68 548l-13 31c14 12 54 36 103 36c62 0 113 -29 113 -101c0 -75 -67 -159 -170 -240l1 -3h174v-36h-235l-5 19c147 122 196 197 196 259c0 42 -30 66 -75 66c-40 0 -71 -17 -89 -31zM445 -102l-1 40 c34 -19 61 -28 95 -28c46 0 83 29 83 74c0 41 -31 74 -65 72l-63 -3l4 40h54c35 0 64 25 64 66c0 39 -29 65 -70 65c-29 0 -54 -9 -82 -26l3 39c14 9 43 23 77 23c70 0 110 -40 110 -99c0 -42 -28 -73 -62 -82v-5c43 -10 69 -51 69 -89c0 -68 -52 -111 -126 -111 c-37 0 -65 9 -90 24z" />
<glyph horiz-adv-x="740" d="M108 -111l247 380l218 343l26 -16l-220 -340l-245 -385zM68 548l-13 31c14 12 54 36 103 36c62 0 113 -29 113 -101c0 -75 -67 -159 -170 -240l1 -3h174v-36h-235l-5 19c147 122 196 197 196 259c0 42 -30 66 -75 66c-40 0 -71 -17 -89 -31zM448 78l-2 2l20 174h189 l-4 -40l-155 2l-13 -97c12 1 24 2 36 2c103 0 147 -52 147 -115c0 -78 -55 -132 -166 -132c-21 0 -41 2 -57 7l6 35c14 -6 37 -6 51 -6c86 0 128 42 128 94c0 50 -37 82 -120 82c-22 0 -39 -3 -60 -8z" />
<glyph horiz-adv-x="740" d="M108 -111l247 380l218 343l26 -16l-220 -340l-245 -385zM68 548l-13 31c14 12 54 36 103 36c62 0 113 -29 113 -101c0 -75 -67 -159 -170 -240l1 -3h174v-36h-235l-5 19c147 122 196 197 196 259c0 42 -30 66 -75 66c-40 0 -71 -17 -89 -31zM672 254l5 -7 c-91 -114 -142 -237 -148 -367h-40c10 130 63 251 135 337l-2 3l-183 -2l2 36h231z" />
<glyph horiz-adv-x="740" d="M108 -111l247 380l218 343l26 -16l-220 -340l-245 -385zM68 548l-13 31c14 12 54 36 103 36c62 0 113 -29 113 -101c0 -75 -67 -159 -170 -240l1 -3h174v-36h-235l-5 19c147 122 196 197 196 259c0 42 -30 66 -75 66c-40 0 -71 -17 -89 -31zM633 64l-2 1 c-23 -21 -52 -31 -78 -31c-54 0 -118 32 -118 113c0 73 59 113 114 113c82 0 125 -65 125 -150c0 -140 -83 -215 -195 -238l-4 36c106 20 150 92 158 156zM474 148c0 -57 42 -78 84 -78c25 0 56 7 77 27c0 9 1 18 1 25c0 60 -35 102 -86 102c-42 0 -76 -33 -76 -76z" />
<glyph horiz-adv-x="740" d="M108 -111l247 380l218 343l26 -16l-220 -340l-245 -385zM55 253l-1 40c34 -19 61 -28 95 -28c46 0 83 29 83 74c0 41 -31 74 -65 72l-63 -3l4 40h54c35 0 64 25 64 66c0 39 -29 65 -70 65c-29 0 -54 -9 -82 -26l3 39c14 9 43 23 77 23c70 0 110 -40 110 -99 c0 -42 -28 -73 -62 -82v-5c43 -10 69 -51 69 -89c0 -68 -52 -111 -126 -111c-37 0 -65 9 -90 24zM630 20v-34h-45v-106h-37v106h-162l-9 21l166 247h42v-234h45zM428 20h120v177h-5l-117 -174z" />
<glyph horiz-adv-x="740" d="M108 -111l247 380l218 343l26 -16l-220 -340l-245 -385zM55 253l-1 40c34 -19 61 -28 95 -28c46 0 83 29 83 74c0 41 -31 74 -65 72l-63 -3l4 40h54c35 0 64 25 64 66c0 39 -29 65 -70 65c-29 0 -54 -9 -82 -26l3 39c14 9 43 23 77 23c70 0 110 -40 110 -99 c0 -42 -28 -73 -62 -82v-5c43 -10 69 -51 69 -89c0 -68 -52 -111 -126 -111c-37 0 -65 9 -90 24zM448 78l-2 2l20 174h189l-4 -40l-155 2l-13 -97c12 1 24 2 36 2c103 0 147 -52 147 -115c0 -78 -55 -132 -166 -132c-21 0 -41 2 -57 7l6 35c14 -6 37 -6 51 -6 c86 0 128 42 128 94c0 50 -37 82 -120 82c-22 0 -39 -3 -60 -8z" />
<glyph horiz-adv-x="740" d="M108 -111l247 380l218 343l26 -16l-220 -340l-245 -385zM55 253l-1 40c34 -19 61 -28 95 -28c46 0 83 29 83 74c0 41 -31 74 -65 72l-63 -3l4 40h54c35 0 64 25 64 66c0 39 -29 65 -70 65c-29 0 -54 -9 -82 -26l3 39c14 9 43 23 77 23c70 0 110 -40 110 -99 c0 -42 -28 -73 -62 -82v-5c43 -10 69 -51 69 -89c0 -68 -52 -111 -126 -111c-37 0 -65 9 -90 24zM672 254l5 -7c-91 -114 -142 -237 -148 -367h-40c10 130 63 251 135 337l-2 3l-183 -2l2 36h231z" />
<glyph horiz-adv-x="740" d="M108 -111l247 380l218 343l26 -16l-220 -340l-245 -385zM55 253l-1 40c34 -19 61 -28 95 -28c46 0 83 29 83 74c0 41 -31 74 -65 72l-63 -3l4 40h54c35 0 64 25 64 66c0 39 -29 65 -70 65c-29 0 -54 -9 -82 -26l3 39c14 9 43 23 77 23c70 0 110 -40 110 -99 c0 -42 -28 -73 -62 -82v-5c43 -10 69 -51 69 -89c0 -68 -52 -111 -126 -111c-37 0 -65 9 -90 24zM584 79v-2c62 -35 81 -66 81 -106c0 -57 -50 -97 -114 -97c-66 0 -115 42 -115 100c0 41 25 81 80 100v2c-50 29 -67 63 -67 95c0 53 43 89 100 89s103 -34 103 -89 c0 -37 -24 -72 -68 -92zM626 -29c0 41 -31 66 -83 91c-45 -17 -68 -52 -68 -88c0 -41 37 -64 75 -64c45 0 76 24 76 61zM487 173c0 -31 19 -56 70 -83c38 17 57 46 57 79c0 34 -28 55 -66 55s-61 -23 -61 -51z" />
<glyph horiz-adv-x="740" d="M108 -111l247 380l218 343l26 -16l-220 -340l-245 -385zM287 375v-34h-45v-106h-37v106h-162l-9 21l166 247h42v-234h45zM85 375h120v177h-5l-117 -174zM448 78l-2 2l20 174h189l-4 -40l-155 2l-13 -97c12 1 24 2 36 2c103 0 147 -52 147 -115c0 -78 -55 -132 -166 -132 c-21 0 -41 2 -57 7l6 35c14 -6 37 -6 51 -6c86 0 128 42 128 94c0 50 -37 82 -120 82c-22 0 -39 -3 -60 -8z" />
<glyph horiz-adv-x="740" d="M108 -111l247 380l218 343l26 -16l-220 -340l-245 -385zM287 375v-34h-45v-106h-37v106h-162l-9 21l166 247h42v-234h45zM85 375h120v177h-5l-117 -174zM672 254l5 -7c-91 -114 -142 -237 -148 -367h-40c10 130 63 251 135 337l-2 3l-183 -2l2 36h231z" />
<glyph horiz-adv-x="740" d="M108 -111l247 380l218 343l26 -16l-220 -340l-245 -385zM287 375v-34h-45v-106h-37v106h-162l-9 21l166 247h42v-234h45zM85 375h120v177h-5l-117 -174zM633 64l-2 1c-23 -21 -52 -31 -78 -31c-54 0 -118 32 -118 113c0 73 59 113 114 113c82 0 125 -65 125 -150 c0 -140 -83 -215 -195 -238l-4 36c106 20 150 92 158 156zM474 148c0 -57 42 -78 84 -78c25 0 56 7 77 27c0 9 1 18 1 25c0 60 -35 102 -86 102c-42 0 -76 -33 -76 -76z" />
<glyph horiz-adv-x="740" d="M108 -111l247 380l218 343l26 -16l-220 -340l-245 -385zM58 433l-2 2l20 174h189l-4 -40l-155 2l-13 -97c12 1 24 2 36 2c103 0 147 -52 147 -115c0 -78 -55 -132 -166 -132c-21 0 -41 2 -57 7l6 35c14 -6 37 -6 51 -6c86 0 128 42 128 94c0 50 -37 82 -120 82 c-22 0 -39 -3 -60 -8zM466 70l2 -2c23 22 51 32 77 32c59 0 118 -32 118 -116c0 -71 -56 -110 -118 -110c-83 0 -121 65 -121 150c0 141 117 231 215 236l-5 -39c-86 -5 -158 -83 -168 -151zM625 -17c0 59 -42 81 -84 81c-25 0 -55 -10 -77 -32c-1 -7 -1 -14 -1 -20 c0 -60 35 -102 86 -102c44 0 76 29 76 73z" />
<glyph horiz-adv-x="740" d="M108 -111l247 380l218 343l26 -16l-220 -340l-245 -385zM58 433l-2 2l20 174h189l-4 -40l-155 2l-13 -97c12 1 24 2 36 2c103 0 147 -52 147 -115c0 -78 -55 -132 -166 -132c-21 0 -41 2 -57 7l6 35c14 -6 37 -6 51 -6c86 0 128 42 128 94c0 50 -37 82 -120 82 c-22 0 -39 -3 -60 -8zM672 254l5 -7c-91 -114 -142 -237 -148 -367h-40c10 130 63 251 135 337l-2 3l-183 -2l2 36h231z" />
<glyph horiz-adv-x="740" d="M108 -111l247 380l218 343l26 -16l-220 -340l-245 -385zM58 433l-2 2l20 174h189l-4 -40l-155 2l-13 -97c12 1 24 2 36 2c103 0 147 -52 147 -115c0 -78 -55 -132 -166 -132c-21 0 -41 2 -57 7l6 35c14 -6 37 -6 51 -6c86 0 128 42 128 94c0 50 -37 82 -120 82 c-22 0 -39 -3 -60 -8zM584 79v-2c62 -35 81 -66 81 -106c0 -57 -50 -97 -114 -97c-66 0 -115 42 -115 100c0 41 25 81 80 100v2c-50 29 -67 63 -67 95c0 53 43 89 100 89s103 -34 103 -89c0 -37 -24 -72 -68 -92zM626 -29c0 41 -31 66 -83 91c-45 -17 -68 -52 -68 -88 c0 -41 37 -64 75 -64c45 0 76 24 76 61zM487 173c0 -31 19 -56 70 -83c38 17 57 46 57 79c0 34 -28 55 -66 55s-61 -23 -61 -51z" />
<glyph horiz-adv-x="740" d="M108 -111l247 380l218 343l26 -16l-220 -340l-245 -385zM58 433l-2 2l20 174h189l-4 -40l-155 2l-13 -97c12 1 24 2 36 2c103 0 147 -52 147 -115c0 -78 -55 -132 -166 -132c-21 0 -41 2 -57 7l6 35c14 -6 37 -6 51 -6c86 0 128 42 128 94c0 50 -37 82 -120 82 c-22 0 -39 -3 -60 -8zM633 64l-2 1c-23 -21 -52 -31 -78 -31c-54 0 -118 32 -118 113c0 73 59 113 114 113c82 0 125 -65 125 -150c0 -140 -83 -215 -195 -238l-4 36c106 20 150 92 158 156zM474 148c0 -57 42 -78 84 -78c25 0 56 7 77 27c0 9 1 18 1 25 c0 60 -35 102 -86 102c-42 0 -76 -33 -76 -76z" />
<glyph horiz-adv-x="740" d="M108 -111l247 380l218 343l26 -16l-220 -340l-245 -385zM316 609l5 -7c-91 -114 -142 -237 -148 -367h-40c10 130 63 251 135 337l-2 3l-183 -2l2 36h231zM584 79v-2c62 -35 81 -66 81 -106c0 -57 -50 -97 -114 -97c-66 0 -115 42 -115 100c0 41 25 81 80 100v2 c-50 29 -67 63 -67 95c0 53 43 89 100 89s103 -34 103 -89c0 -37 -24 -72 -68 -92zM626 -29c0 41 -31 66 -83 91c-45 -17 -68 -52 -68 -88c0 -41 37 -64 75 -64c45 0 76 24 76 61zM487 173c0 -31 19 -56 70 -83c38 17 57 46 57 79c0 34 -28 55 -66 55s-61 -23 -61 -51z" />
<glyph horiz-adv-x="740" d="M108 -111l247 380l218 343l26 -16l-220 -340l-245 -385zM316 609l5 -7c-91 -114 -142 -237 -148 -367h-40c10 130 63 251 135 337l-2 3l-183 -2l2 36h231zM633 64l-2 1c-23 -21 -52 -31 -78 -31c-54 0 -118 32 -118 113c0 73 59 113 114 113c82 0 125 -65 125 -150 c0 -140 -83 -215 -195 -238l-4 36c106 20 150 92 158 156zM474 148c0 -57 42 -78 84 -78c25 0 56 7 77 27c0 9 1 18 1 25c0 60 -35 102 -86 102c-42 0 -76 -33 -76 -76z" />
<glyph horiz-adv-x="740" d="M108 -111l247 380l218 343l26 -16l-220 -340l-245 -385zM194 434v-2c62 -35 81 -66 81 -106c0 -57 -50 -97 -114 -97c-66 0 -115 42 -115 100c0 41 25 81 80 100v2c-50 29 -67 63 -67 95c0 53 43 89 100 89s103 -34 103 -89c0 -37 -24 -72 -68 -92zM236 326 c0 41 -31 66 -83 91c-45 -17 -68 -52 -68 -88c0 -41 37 -64 75 -64c45 0 76 24 76 61zM97 528c0 -31 19 -56 70 -83c38 17 57 46 57 79c0 34 -28 55 -66 55s-61 -23 -61 -51zM633 64l-2 1c-23 -21 -52 -31 -78 -31c-54 0 -118 32 -118 113c0 73 59 113 114 113 c82 0 125 -65 125 -150c0 -140 -83 -215 -195 -238l-4 36c106 20 150 92 158 156zM474 148c0 -57 42 -78 84 -78c25 0 56 7 77 27c0 9 1 18 1 25c0 60 -35 102 -86 102c-42 0 -76 -33 -76 -76z" />
<glyph unicode="&#x2070;" d="M268 606c0 -133 -51 -197 -122 -197c-68 0 -125 58 -125 197c0 132 57 189 125 189c71 0 122 -67 122 -189zM230 607c0 93 -35 152 -85 152c-47 0 -85 -53 -85 -152c0 -116 42 -162 86 -162c54 0 84 59 84 162z" />
<glyph unicode="&#xb9;" d="M176 415h-39v337l-79 -9l-3 36l112 13l9 -6v-371z" />
<glyph unicode="&#xb2;" d="M52 728l-13 31c14 12 54 36 103 36c62 0 113 -29 113 -101c0 -75 -67 -159 -170 -240l1 -3h174v-36h-235l-5 19c147 122 196 197 196 259c0 42 -30 66 -75 66c-40 0 -71 -17 -89 -31z" />
<glyph unicode="&#xb3;" d="M39 433l-1 40c34 -19 61 -28 95 -28c46 0 83 29 83 74c0 41 -31 74 -65 72l-63 -3l4 40h54c35 0 64 25 64 66c0 39 -29 65 -70 65c-29 0 -54 -9 -82 -26l3 39c14 9 43 23 77 23c70 0 110 -40 110 -99c0 -42 -28 -73 -62 -82v-5c43 -10 69 -51 69 -89 c0 -68 -52 -111 -126 -111c-37 0 -65 9 -90 24z" />
<glyph unicode="&#x2074;" d="M271 555v-34h-45v-106h-37v106h-162l-9 21l166 247h42v-234h45zM69 555h120v177h-5l-117 -174z" />
<glyph unicode="&#x2075;" d="M42 613l-2 2l20 174h189l-4 -40l-155 2l-13 -97c12 1 24 2 36 2c103 0 147 -52 147 -115c0 -78 -55 -132 -166 -132c-21 0 -41 2 -57 7l6 35c14 -6 37 -6 51 -6c86 0 128 42 128 94c0 50 -37 82 -120 82c-22 0 -39 -3 -60 -8z" />
<glyph unicode="&#x2076;" d="M71 605l2 -2c23 22 51 32 77 32c59 0 118 -32 118 -116c0 -71 -56 -110 -118 -110c-83 0 -121 65 -121 150c0 141 117 231 215 236l-5 -39c-86 -5 -158 -83 -168 -151zM230 518c0 59 -42 81 -84 81c-25 0 -55 -10 -77 -32c-1 -7 -1 -14 -1 -20c0 -60 35 -102 86 -102 c44 0 76 29 76 73z" />
<glyph unicode="&#x2077;" d="M266 789l5 -7c-91 -114 -142 -237 -148 -367h-40c10 130 63 251 135 337l-2 3l-183 -2l2 36h231z" />
<glyph unicode="&#x2078;" d="M178 614v-2c62 -35 81 -66 81 -106c0 -57 -50 -97 -114 -97c-66 0 -115 42 -115 100c0 41 25 81 80 100v2c-50 29 -67 63 -67 95c0 53 43 89 100 89s103 -34 103 -89c0 -37 -24 -72 -68 -92zM220 506c0 41 -31 66 -83 91c-45 -17 -68 -52 -68 -88c0 -41 37 -64 75 -64 c45 0 76 24 76 61zM81 708c0 -31 19 -56 70 -83c38 17 57 46 57 79c0 34 -28 55 -66 55s-61 -23 -61 -51z" />
<glyph unicode="&#x2079;" d="M227 599l-2 1c-23 -21 -52 -31 -78 -31c-54 0 -118 32 -118 113c0 73 59 113 114 113c82 0 125 -65 125 -150c0 -140 -83 -215 -195 -238l-4 36c106 20 150 92 158 156zM68 683c0 -57 42 -78 84 -78c25 0 56 7 77 27c0 9 1 18 1 25c0 60 -35 102 -86 102 c-42 0 -76 -33 -76 -76z" />
<glyph d="M268 31c0 -133 -51 -197 -122 -197c-68 0 -125 58 -125 197c0 132 57 189 125 189c71 0 122 -67 122 -189zM230 32c0 93 -35 152 -85 152c-47 0 -85 -53 -85 -152c0 -116 42 -162 86 -162c54 0 84 59 84 162z" />
<glyph d="M176 -160h-39v337l-79 -9l-3 36l112 13l9 -6v-371z" />
<glyph d="M52 153l-13 31c14 12 54 36 103 36c62 0 113 -29 113 -101c0 -75 -67 -159 -170 -240l1 -3h174v-36h-235l-5 19c147 122 196 197 196 259c0 42 -30 66 -75 66c-40 0 -71 -17 -89 -31z" />
<glyph d="M39 -142l-1 40c34 -19 61 -28 95 -28c46 0 83 29 83 74c0 41 -31 74 -65 72l-63 -3l4 40h54c35 0 64 25 64 66c0 39 -29 65 -70 65c-29 0 -54 -9 -82 -26l3 39c14 9 43 23 77 23c70 0 110 -40 110 -99c0 -42 -28 -73 -62 -82v-5c43 -10 69 -51 69 -89 c0 -68 -52 -111 -126 -111c-37 0 -65 9 -90 24z" />
<glyph d="M271 -20v-34h-45v-106h-37v106h-162l-9 21l166 247h42v-234h45zM69 -20h120v177h-5l-117 -174z" />
<glyph d="M42 38l-2 2l20 174h189l-4 -40l-155 2l-13 -97c12 1 24 2 36 2c103 0 147 -52 147 -115c0 -78 -55 -132 -166 -132c-21 0 -41 2 -57 7l6 35c14 -6 37 -6 51 -6c86 0 128 42 128 94c0 50 -37 82 -120 82c-22 0 -39 -3 -60 -8z" />
<glyph d="M71 30l2 -2c23 22 51 32 77 32c59 0 118 -32 118 -116c0 -71 -56 -110 -118 -110c-83 0 -121 65 -121 150c0 141 117 231 215 236l-5 -39c-86 -5 -158 -83 -168 -151zM230 -57c0 59 -42 81 -84 81c-25 0 -55 -10 -77 -32c-1 -7 -1 -14 -1 -20c0 -60 35 -102 86 -102 c44 0 76 29 76 73z" />
<glyph d="M266 214l5 -7c-91 -114 -142 -237 -148 -367h-40c10 130 63 251 135 337l-2 3l-183 -2l2 36h231z" />
<glyph d="M178 39v-2c62 -35 81 -66 81 -106c0 -57 -50 -97 -114 -97c-66 0 -115 42 -115 100c0 41 25 81 80 100v2c-50 29 -67 63 -67 95c0 53 43 89 100 89s103 -34 103 -89c0 -37 -24 -72 -68 -92zM220 -69c0 41 -31 66 -83 91c-45 -17 -68 -52 -68 -88c0 -41 37 -64 75 -64 c45 0 76 24 76 61zM81 133c0 -31 19 -56 70 -83c38 17 57 46 57 79c0 34 -28 55 -66 55s-61 -23 -61 -51z" />
<glyph d="M227 24l-2 1c-23 -21 -52 -31 -78 -31c-54 0 -118 32 -118 113c0 73 59 113 114 113c82 0 125 -65 125 -150c0 -140 -83 -215 -195 -238l-4 36c106 20 150 92 158 156zM68 108c0 -57 42 -78 84 -78c25 0 56 7 77 27c0 9 1 18 1 25c0 60 -35 102 -86 102 c-42 0 -76 -33 -76 -76z" />
<glyph unicode="&#xc6;" horiz-adv-x="900" d="M840 680v-38h-315v-269h285v-38h-285v-297h325v-38h-367v228h-263l-159 -235l-32 23l451 664h360zM481 614l-236 -348h238v348h-2z" />
<glyph unicode="&#x152;" horiz-adv-x="920" d="M860 680v-38h-315v-269h285v-38h-285v-297h325v-38h-367c-33 -7 -68 -10 -107 -10c-200 0 -333 153 -333 345c0 215 161 355 333 355c37 0 74 -3 109 -10h355zM396 29c39 0 75 4 107 13v597c-34 9 -69 12 -107 12c-154 0 -289 -122 -289 -314c0 -166 107 -308 289 -308z " />
<glyph unicode="&#xde;" horiz-adv-x="520" d="M93 680h42v-140h121c124 0 211 -73 211 -191c0 -124 -100 -189 -215 -189h-117v-160h-42v680zM423 347c0 95 -70 155 -166 155h-122v-304h117c83 0 171 41 171 149z" />
<glyph unicode="&#x1e9e;" horiz-adv-x="640" d="M487 547c0 -122 -145 -121 -145 -202c0 -100 253 -79 253 -224c0 -75 -65 -131 -178 -131c-69 0 -132 23 -160 54l23 37c31 -33 84 -52 138 -52c89 0 133 45 133 90c0 119 -253 91 -253 223c0 105 145 102 145 206c0 66 -71 103 -151 103c-78 0 -137 -38 -157 -69v-582 h-42v602c27 39 102 88 202 88c128 0 192 -70 192 -143z" />
<glyph unicode="&#xe6;" horiz-adv-x="700" d="M634 214h-280c1 -134 67 -187 142 -187c40 0 84 16 111 44h3l14 -31c-29 -28 -82 -50 -136 -50c-60 0 -122 33 -154 103c-39 -81 -93 -103 -151 -103c-76 0 -130 52 -130 125c0 69 45 141 173 141c29 0 57 -4 87 -10v55c0 90 -52 120 -98 120c-41 0 -79 -13 -122 -43 l-16 33c33 23 84 47 143 47c57 0 109 -31 124 -104c30 63 88 104 147 104c92 0 153 -79 153 -176c0 -17 -1 -46 -10 -68zM313 125v85c-26 5 -50 11 -88 11c-87 0 -130 -40 -130 -106c0 -54 38 -88 91 -88c62 0 106 37 127 98zM355 248h244c17 106 -40 173 -110 173 c-72 0 -127 -76 -134 -173z" />
<glyph unicode="&#xf0;" horiz-adv-x="490" d="M150 536l86 58c-36 27 -75 47 -117 62l15 34c51 -20 95 -45 133 -75l105 72l16 -24l-98 -67c102 -93 145 -222 145 -358c0 -162 -86 -248 -190 -248c-106 0 -190 96 -190 230c0 137 80 238 186 238c48 0 99 -19 131 -66l4 2c-25 77 -66 137 -116 181h-1l-93 -63zM393 221 c0 117 -59 200 -152 200c-86 0 -144 -86 -144 -200c0 -109 58 -194 148 -194c85 0 148 77 148 194z" />
<glyph unicode="&#x153;" horiz-adv-x="770" d="M704 214h-277c1 -134 64 -187 139 -187c40 0 84 16 111 44h3l14 -31c-29 -28 -82 -50 -136 -50c-63 0 -126 37 -156 115c-31 -71 -90 -115 -157 -115c-106 0 -190 96 -190 230c0 137 77 238 186 238c79 0 137 -49 165 -125c29 77 87 125 155 125c92 0 153 -79 153 -176 c0 -17 -1 -46 -10 -68zM383 220c0 114 -55 201 -142 201c-86 0 -144 -87 -144 -201c0 -111 61 -193 148 -193c79 0 138 82 138 193zM428 248h241c17 106 -40 173 -110 173c-72 0 -124 -76 -131 -173z" />
<glyph unicode="&#xfe;" horiz-adv-x="490" d="M115 399h2c38 41 81 59 138 59c82 0 180 -76 180 -235c0 -156 -90 -233 -184 -233c-55 0 -110 29 -134 66h-2v-245l-40 -12v881l40 12v-293zM247 421c-58 0 -105 -28 -132 -70v-242c23 -48 72 -82 131 -82c68 0 147 48 147 194c0 153 -87 200 -146 200z" />
<glyph unicode="&#xdf;" horiz-adv-x="550" d="M120 448v43c0 114 67 196 181 196c110 0 204 -82 175 -266c-110 11 -164 -22 -164 -75c0 -38 24 -59 101 -108c67 -43 95 -80 95 -132c0 -77 -68 -116 -131 -116c-54 0 -99 17 -124 38l18 36c30 -21 59 -37 104 -37c56 0 91 29 91 79c0 42 -30 71 -86 108 c-70 46 -110 76 -110 129c0 68 56 117 171 115c10 114 -43 192 -139 192c-103 0 -142 -75 -142 -155v-495h-40v412h-83l12 36h71z" />
<glyph unicode="&#x259;" horiz-adv-x="450" d="M66 234h287c-1 134 -68 187 -149 187c-40 0 -84 -16 -111 -44h-3l-14 31c29 28 82 50 136 50c93 0 183 -70 183 -222c0 -144 -81 -246 -186 -246c-92 0 -153 79 -153 176c0 17 1 46 10 68zM352 200h-251c-17 -106 40 -173 110 -173c78 0 134 76 141 173z" />
<glyph unicode="&#x131;" horiz-adv-x="230" d="M95 446l40 5v-451h-40v446z" />
<glyph unicode="&#xb4;" horiz-adv-x="500" d="M215 468v3l101 159h49v-4l-124 -158h-26z" />
<glyph unicode="`" horiz-adv-x="500" d="M285 471v-3h-26l-124 158v4h49z" />
<glyph unicode="&#x2c6;" horiz-adv-x="500" d="M364 474v-6h-26l-89 126l-89 -126h-26v6l96 156h38z" />
<glyph unicode="&#xa8;" horiz-adv-x="500" d="M350 510c0 -21 -16 -33 -30 -33c-15 0 -30 11 -30 33c0 19 14 35 30 35s30 -14 30 -35zM210 510c0 -21 -16 -33 -30 -33c-15 0 -30 11 -30 33c0 19 14 35 30 35s30 -14 30 -35z" />
<glyph unicode="&#x2dc;" horiz-adv-x="500" d="M353 593h30c0 -69 -37 -110 -78 -110c-51 0 -71 80 -109 80c-33 0 -52 -32 -52 -78h-28c0 71 37 110 79 110c54 0 72 -81 111 -81c29 0 47 35 47 79z" />
<glyph unicode="&#xaf;" horiz-adv-x="500" d="M362 513h-224v34h224v-34z" />
<glyph unicode="&#x2d8;" horiz-adv-x="500" d="M249 458c-61 0 -119 55 -119 172h29c0 -66 34 -137 91 -137c51 0 91 56 91 137h29c0 -116 -60 -172 -121 -172z" />
<glyph unicode="&#x2c7;" horiz-adv-x="500" d="M364 630v-6l-96 -156h-38l-96 156v6h26l89 -126l89 126h26z" />
<glyph unicode="&#x2d9;" horiz-adv-x="500" d="M215 544c0 21 15 38 33 38s33 -17 33 -38s-15 -38 -33 -38s-33 17 -33 38z" />
<glyph unicode="&#x2da;" horiz-adv-x="500" d="M161 552c0 49 40 89 89 89s89 -40 89 -89s-40 -89 -89 -89s-89 40 -89 89zM193 552c0 -38 23 -60 56 -60c32 0 57 24 57 60s-25 60 -57 60c-33 0 -56 -26 -56 -60z" />
<glyph unicode="&#xb8;" horiz-adv-x="500" d="M222 -199l-9 25c56 9 92 27 92 53c0 30 -36 39 -76 39c-8 0 -23 -1 -30 -2l-4 9l63 95h34l-50 -75c59 0 98 -18 98 -62c0 -42 -51 -71 -118 -82z" />
<glyph unicode="&#x2dd;" horiz-adv-x="500" d="M172 468v3l101 159h49v-4l-124 -158h-26zM283 468v3l101 159h49v-4l-124 -158h-26z" />
<glyph unicode="&#x2db;" horiz-adv-x="500" d="M248 24l18 -8v-5c-45 -33 -73 -72 -73 -119c0 -33 18 -58 49 -58c13 0 23 3 32 6v-32c-11 -5 -24 -7 -37 -7c-42 0 -84 23 -84 83c0 53 41 110 95 140z" />
<glyph horiz-adv-x="500" d="M215 458v8l101 124h49v-10l-124 -122h-26z" />
<glyph horiz-adv-x="500" d="M285 466v-8h-26l-124 122v10h49z" />
<glyph horiz-adv-x="500" d="M364 466v-8h-26l-89 96l-89 -96h-26v8l96 124h38z" />
<glyph horiz-adv-x="500" d="M249 458c-61 0 -119 39 -119 132h29c0 -49 34 -97 91 -97c51 0 91 40 91 97h29c0 -93 -60 -132 -121 -132z" />
<glyph horiz-adv-x="500" d="M364 590v-8l-96 -124h-38l-96 124v8h26l89 -96l89 96h26z" />
<glyph horiz-adv-x="500" d="M175 458v8l101 124h49v-10l-124 -122h-26zM285 458v8l101 124h49v-10l-124 -122h-26z" />
<glyph unicode="|" horiz-adv-x="530" d="M244 -230v980h42v-980h-42z" />
<glyph unicode="&#xa6;" horiz-adv-x="530" d="M286 400h-42v350h42v-350zM244 120h42v-350h-42v350z" />
<glyph unicode="^" horiz-adv-x="530" d="M274 691l226 -377l-36 -25l-194 327h-8l-197 -327l-35 25l227 377h17z" />
<glyph unicode="~" horiz-adv-x="530" d="M455 369h42c0 -96 -51 -168 -128 -168c-101 0 -129 131 -203 131c-53 0 -87 -57 -87 -129h-42c0 108 62 168 129 168c97 0 132 -132 204 -132c55 0 85 49 85 130z" />
<glyph unicode="&#x221e;" horiz-adv-x="530" d="M402 149c-46 0 -90 22 -137 93c-43 -59 -82 -93 -137 -93c-85 0 -125 68 -125 127c0 72 58 131 124 131c60 0 98 -41 135 -99c42 58 80 99 135 99c75 0 129 -51 129 -127c0 -72 -56 -131 -124 -131zM398 369c-41 0 -62 -20 -113 -97c39 -59 75 -83 113 -83 c48 0 87 35 87 91c0 54 -41 89 -87 89zM129 187c43 0 66 24 113 92c-41 63 -73 88 -113 88c-46 0 -85 -35 -85 -91c0 -55 41 -89 85 -89z" />
<glyph unicode="&#xb5;" horiz-adv-x="530" d="M390 62h-5c-35 -38 -89 -72 -157 -72c-35 0 -68 11 -92 40c2 -76 5 -150 5 -184c0 -47 -10 -55 -24 -55c-15 0 -22 23 -22 52c0 41 5 192 5 313v292h40v-294c0 -97 37 -127 98 -127s124 38 152 83v338h40v-372c0 -25 4 -48 26 -48c17 0 29 25 36 44l24 -8 c-16 -54 -43 -73 -67 -73c-23 0 -55 13 -59 71z" />
<glyph unicode="&#x3bc;" horiz-adv-x="530" d="M390 62h-5c-35 -38 -89 -72 -157 -72c-35 0 -68 11 -92 40c2 -76 5 -150 5 -184c0 -47 -10 -55 -24 -55c-15 0 -22 23 -22 52c0 41 5 192 5 313v292h40v-294c0 -97 37 -127 98 -127s124 38 152 83v338h40v-372c0 -25 4 -48 26 -48c17 0 29 25 36 44l24 -8 c-16 -54 -43 -73 -67 -73c-23 0 -55 13 -59 71z" />
<glyph unicode="&#x2202;" horiz-adv-x="530" d="M273 656c-57 0 -98 -44 -109 -72h-25l12 48c22 33 76 61 128 61c128 0 187 -140 187 -319c0 -284 -89 -384 -216 -384c-108 0 -181 85 -181 220c0 121 70 249 202 249c57 0 112 -25 149 -103l4 2v29c0 165 -52 269 -151 269zM421 285c-23 79 -78 137 -149 137 c-86 0 -161 -80 -161 -213c0 -109 53 -182 144 -182c105 0 159 103 166 258z" />
<glyph unicode="&#x2211;" horiz-adv-x="580" d="M105 42l2 -4h422v-38h-501l-4 10l298 328v4l-284 331l5 7h486v-38h-407l-3 -3l257 -297v-6z" />
<glyph unicode="&#x220f;" horiz-adv-x="610" d="M27 680h556v-38h-103v-642h-42v642h-266v-642h-42v642h-103v38z" />
<glyph unicode="&#x3c0;" horiz-adv-x="550" d="M152 22c-38 -58 -87 -9 -48 30c69 81 88 190 88 360h-31c-38 0 -60 -9 -70 -46l-27 5c17 55 41 77 85 77h352v-36h-106l-23 -309c-4 -55 13 -71 36 -71c16 0 34 14 43 47l30 -3c-13 -51 -44 -83 -82 -83c-41 0 -71 30 -65 108l27 311h-132c-3 -180 -26 -288 -77 -390z " />
<glyph unicode="&#x222b;" horiz-adv-x="530" d="M288 497l12 -487c3 -126 -67 -214 -160 -214c-38 0 -75 20 -75 66c0 25 14 54 49 54c26 0 52 -16 57 -64l26 -7c29 25 48 94 46 155l-12 487c-3 129 67 213 158 213c38 0 77 -20 77 -65c0 -25 -16 -54 -50 -54c-25 0 -51 16 -56 64l-26 7c-31 -26 -48 -74 -46 -155z" />
<glyph unicode="&#x3a9;" horiz-adv-x="590" d="M295 651c-142 0 -214 -119 -214 -274c0 -139 81 -316 183 -338v-39h-238v38h150v5c-55 42 -139 160 -139 339c0 185 101 308 259 308s257 -128 257 -308c0 -163 -79 -295 -144 -339v-5h155v-38h-238v39c102 22 183 185 183 345c0 146 -71 267 -214 267z" />
<glyph unicode="&#x2126;" horiz-adv-x="590" d="M295 651c-142 0 -214 -119 -214 -274c0 -139 81 -316 183 -338v-39h-238v38h150v5c-55 42 -139 160 -139 339c0 185 101 308 259 308s257 -128 257 -308c0 -163 -79 -295 -144 -339v-5h155v-38h-238v39c102 22 183 185 183 345c0 146 -71 267 -214 267z" />
<glyph unicode="&#xac;" horiz-adv-x="530" d="M442 52v213h-409v48h457v-261h-48z" />
<glyph unicode="&#x221a;" horiz-adv-x="530" d="M323 -10h8l153 764l42 -8l-184 -883h-27l-195 526l-108 -35l-16 37l160 52z" />
<glyph unicode="&#x192;" horiz-adv-x="530" d="M99 366l14 49h94l25 100c18 80 82 180 183 180c75 0 125 -35 125 -73c0 -25 -13 -47 -45 -47c-51 0 -38 72 -94 72c-51 0 -75 -57 -100 -139l-26 -93h120l-14 -49h-117l-88 -327c-27 -108 -80 -189 -155 -189c-53 0 -98 28 -98 69c0 24 14 45 37 45c41 0 45 -68 78 -68 c36 0 63 93 74 130l86 340h-99z" />
<glyph unicode="&#x2248;" horiz-adv-x="530" d="M439 383l38 -17c-18 -54 -58 -111 -131 -111c-67 0 -109 82 -169 82c-58 0 -79 -35 -100 -67l-34 22c19 37 69 89 134 89s115 -85 170 -85c48 0 81 42 92 87zM450 224l37 -18c-18 -52 -74 -96 -129 -96c-79 0 -123 81 -181 81c-36 0 -62 -29 -82 -64l-36 20 c18 30 53 88 118 88c73 0 115 -85 181 -85c49 0 79 34 92 74z" />
<glyph unicode="&#x394;" horiz-adv-x="590" d="M575 0h-560l258 695h25zM288 617l-213 -579h442z" />
<glyph unicode="&#x2206;" horiz-adv-x="590" d="M575 0h-560l258 695h25zM288 617l-213 -579h442z" />
<glyph unicode="&#x25ca;" horiz-adv-x="530" d="M264 -98l-245 373l245 375l246 -375zM69 275l195 -298l196 298l-196 300z" />
<glyph unicode="&#x2191;" horiz-adv-x="700" d="M357 598l264 -247l-26 -31l-225 213v-469h-38v471l-227 -215l-27 31l266 247h13z" />
<glyph unicode="&#x2193;" horiz-adv-x="700" d="M621 311l-264 -247h-13l-266 247l27 31l227 -216v472h38v-470l225 214z" />
<glyph unicode="&#xf8ff;" horiz-adv-x="530" d="M216 720h11l32 -121l-3 -82l68 -8l64 99l8 99h12l7 -99l-17 -129l36 -85l35 -38l1 -6l-7 -8v-18l8 -4l-1 -9l-17 -36l-36 7l-11 101l-34 56l-13 -2l26 -60l4 -99l-37 -46l3 -22l26 -37l7 -71l-64 -23l-33 16l-35 57l-75 25l-28 47l-3 42l-30 41l-2 58l4 27l-11 44z M494 244l6 -9l-3 -37l-12 -17l-5 -33l23 -8l-3 -10l-23 7l-43 -26l-5 10l39 23l5 36l-36 14l-13 31l-1 10l14 15l24 4zM277 305l36 -14l11 13l-3 14l-11 10l-30 -10zM334 64l3 -4l-7 -21l-40 -43l-68 -23l-97 14l-55 48l-18 62l34 95l11 -1l-9 -71l22 -41l37 -33l88 -16 l48 3zM149 438l9 -9l33 34l11 76h-18z" />
<glyph horiz-adv-x="530" d="M285 553v-212h202v-40h-202v-212h-40v212h-202v40h202v212h40zM43 24h444v-40h-444v40z" />
<glyph horiz-adv-x="350" d="M318 -150l-24 -27c-128 95 -214 233 -214 399s83 315 214 393l22 -28c-117 -75 -192 -209 -192 -366c0 -148 79 -285 194 -371z" />
<glyph horiz-adv-x="350" d="M56 -177l-24 27c115 86 194 223 194 371c0 157 -75 291 -192 366l22 28c131 -78 214 -227 214 -393s-86 -304 -214 -399z" />
<glyph horiz-adv-x="370" d="M337 572l-179 4v-702l185 4v-38l-226 -4v778l220 -4v-38z" />
<glyph horiz-adv-x="370" d="M212 576l-179 -4v38l220 4v-778l-226 4v38l185 -4v702z" />
<glyph horiz-adv-x="370" d="M120 237v-7c62 -6 117 -45 117 -100c0 -65 -39 -110 -39 -182c0 -38 34 -71 157 -71v-37c-146 0 -197 40 -197 103c0 71 36 117 36 180c0 56 -57 84 -135 84v50c78 0 135 38 135 80c0 64 -36 100 -36 170c0 74 68 113 197 113v-37c-91 0 -157 -23 -157 -82 c0 -62 39 -106 39 -169c0 -48 -54 -86 -117 -95z" />
<glyph horiz-adv-x="370" d="M250 230v7c-63 9 -117 47 -117 95c0 63 39 107 39 169c0 59 -66 82 -157 82v37c129 0 197 -39 197 -113c0 -70 -36 -106 -36 -170c0 -42 57 -80 135 -80v-50c-78 0 -135 -28 -135 -84c0 -63 36 -109 36 -180c0 -63 -51 -103 -197 -103v37c123 0 157 33 157 71 c0 72 -39 117 -39 182c0 55 55 94 117 100z" />
<glyph horiz-adv-x="550" d="M516 257l-75 -23c17 -21 27 -54 27 -83c0 -101 -96 -161 -212 -161c-105 0 -207 48 -207 153c0 60 48 125 115 142v5c-53 13 -73 60 -73 92c0 76 72 128 163 128c60 0 99 -18 127 -36l-23 -34c-30 21 -65 31 -104 31c-65 0 -119 -32 -119 -91c0 -44 47 -76 98 -76v-34 c-74 0 -140 -56 -140 -127s72 -114 166 -114c102 0 168 53 168 123c0 23 -7 53 -25 70l-74 -22l-11 34l189 57z" />
<glyph horiz-adv-x="530" d="M499 5v-5h-46l-74 68c-42 -47 -102 -78 -173 -78c-90 0 -149 54 -149 123c0 75 57 114 115 147c-46 44 -82 81 -82 131c0 72 59 119 123 119c66 0 121 -47 121 -115c0 -73 -52 -107 -107 -139l146 -135c23 36 36 81 37 133h37c0 -58 -17 -113 -47 -158zM208 27 c57 0 108 24 145 65l-158 147c-51 -30 -97 -62 -97 -125c0 -49 43 -87 110 -87zM130 390c0 -38 23 -64 60 -99l13 -13c50 29 93 59 93 112c0 44 -32 84 -84 84c-49 0 -82 -37 -82 -84z" />
<glyph horiz-adv-x="420" d="M243 510l-19 -158l125 51l16 -45l-133 -32l106 -122l-37 -26l-90 131l-92 -134l-36 27l108 124l-135 24l16 46l126 -44l-8 158h53z" />
<glyph horiz-adv-x="400" d="M10 -57l340 593h40l-340 -593h-40z" />
<glyph horiz-adv-x="400" d="M50 536l340 -593h-40l-340 593h40z" />
<glyph horiz-adv-x="430" d="M371 190c0 -40 -28 -71 -65 -94c42 -28 61 -59 61 -95c0 -74 -76 -112 -162 -112c-58 0 -119 20 -141 43l17 36c31 -26 81 -40 130 -40c81 0 110 43 110 77c0 43 -41 67 -113 99c-98 43 -144 81 -144 138c0 36 23 71 55 99c-35 23 -50 45 -50 80c0 54 46 109 144 109 c52 0 101 -23 128 -43l-20 -32c-31 22 -71 37 -109 37c-63 0 -98 -33 -98 -71c0 -33 22 -53 126 -98c92 -41 131 -83 131 -133zM205 298c-23 10 -43 19 -59 27c-25 -19 -40 -47 -40 -82c0 -38 34 -69 127 -108c16 -7 30 -14 43 -21c34 17 51 45 51 72c0 45 -49 79 -122 112z " />
<glyph horiz-adv-x="560" d="M523 520v-38h-71v-594h-42v594h-68v-594h-42v262h-30c-107 0 -207 50 -207 184c0 115 89 186 196 186h264zM270 188h30v294h-42c-96 0 -151 -74 -151 -147c0 -106 68 -147 163 -147z" />
<glyph horiz-adv-x="510" d="M384 -12l16 -30c-34 -29 -85 -42 -120 -42c-110 0 -220 82 -220 290c0 179 96 309 236 309c87 0 149 -43 142 -141l-15 -214c-2 -26 8 -44 21 -55l-1 -5l-28 -18c-13 9 -20 22 -25 38h-5c-24 -21 -52 -32 -86 -32c-52 0 -97 38 -97 111c0 81 54 139 118 139 c25 0 54 -6 74 -16l4 47c7 77 -38 107 -104 107c-107 0 -190 -109 -190 -271c0 -180 84 -250 177 -250c42 0 74 11 99 33h4zM383 156l9 130c-24 13 -43 16 -63 16c-46 0 -83 -37 -83 -103c0 -50 28 -72 61 -72c25 0 53 8 76 29z" />
<glyph unicode="&#x2605;" horiz-adv-x="570" d="M127 -8l-4 3l66 186l-166 118l2 5l201 -7l57 193h6l58 -193l199 5l1 -4l-163 -117l66 -188l-3 -1l-161 118z" />
<glyph horiz-adv-x="740" d="M108 -111l247 380l218 343l26 -16l-220 -340l-245 -385zM87 425l2 -2c23 22 51 32 77 32c59 0 118 -32 118 -116c0 -71 -56 -110 -118 -110c-83 0 -121 65 -121 150c0 141 117 231 215 236l-5 -39c-86 -5 -158 -83 -168 -151zM246 338c0 59 -42 81 -84 81 c-25 0 -55 -10 -77 -32c-1 -7 -1 -14 -1 -20c0 -60 35 -102 86 -102c44 0 76 29 76 73zM672 254l5 -7c-91 -114 -142 -237 -148 -367h-40c10 130 63 251 135 337l-2 3l-183 -2l2 36h231z" />
<glyph horiz-adv-x="490" d="M455 247c0 -168 -103 -257 -208 -257c-110 0 -212 99 -212 257s97 263 212 263c105 0 208 -101 208 -263zM411 249c0 122 -71 222 -165 222c-89 0 -167 -89 -167 -222c0 -150 87 -220 169 -220c90 0 163 79 163 220z" />
<glyph horiz-adv-x="490" d="M293 0h-42v462l-139 -20l-5 38l178 25l8 -8v-497z" />
<glyph horiz-adv-x="490" d="M84 413l-17 32c41 35 111 65 173 65c86 0 170 -43 170 -148c0 -91 -102 -195 -299 -319l2 -5h317v-38h-382l-10 30c222 145 328 245 328 331c0 71 -51 110 -128 110c-58 0 -114 -24 -154 -58z" />
<glyph horiz-adv-x="490" d="M54 63l2 2c59 -29 107 -36 166 -36c94 0 148 40 148 105c0 58 -56 102 -115 99l-120 -6l8 45h113c57 0 102 42 102 100c0 61 -50 99 -123 99c-53 0 -100 -13 -152 -40l-2 1l5 42c37 21 88 36 146 36c103 0 170 -53 170 -134c0 -61 -37 -107 -98 -121v-3 c73 -10 110 -65 110 -116c0 -91 -78 -146 -198 -146c-66 0 -115 12 -160 32z" />
<glyph horiz-adv-x="490" d="M430 180v-38h-72v-142h-42v142h-265l-16 28l279 330h44v-320h72zM97 180h219v260h-5l-217 -256z" />
<glyph horiz-adv-x="490" d="M82 269l-4 3l34 228h298l-7 -40l-255 2l-23 -149c21 3 47 5 70 5c159 0 233 -74 233 -155c0 -102 -92 -173 -261 -173c-35 0 -68 2 -95 11l11 38c23 -6 58 -10 85 -10c148 0 216 60 216 130c0 74 -76 120 -190 120c-50 0 -78 -4 -112 -10z" />
<glyph horiz-adv-x="490" d="M109 255l2 -2c37 40 100 57 150 57c86 0 185 -49 185 -161c0 -94 -74 -159 -181 -159c-128 0 -204 94 -204 211c0 186 183 301 340 309l-7 -39c-143 -10 -272 -112 -285 -216zM404 148c0 90 -78 125 -146 125c-51 0 -115 -20 -152 -62c-1 -7 -2 -16 -2 -23 c0 -94 69 -161 162 -161c80 0 138 48 138 121z" />
<glyph horiz-adv-x="490" d="M420 500l10 -12c-128 -142 -200 -323 -211 -488h-45c17 173 91 334 189 459l-3 3l-294 -2l4 40h350z" />
<glyph horiz-adv-x="490" d="M298 255v-2c95 -33 134 -86 134 -134c0 -83 -94 -129 -181 -129c-114 0 -193 53 -193 129c0 64 57 114 132 135v1c-88 39 -112 85 -112 124c0 71 66 131 171 131c88 0 163 -50 163 -125c0 -68 -55 -106 -114 -130zM245 235c-5 1 -9 2 -13 4c-100 -26 -132 -77 -132 -120 c0 -56 69 -93 150 -93c78 0 140 36 140 92c0 54 -54 88 -145 117zM120 380c0 -42 39 -76 135 -112c76 26 115 69 115 117c0 45 -47 89 -121 89c-85 0 -129 -48 -129 -94z" />
<glyph horiz-adv-x="490" d="M391 240l-4 3c-42 -36 -99 -53 -151 -53c-87 0 -183 46 -183 156c0 97 83 164 186 164c125 0 199 -94 199 -211c0 -186 -162 -284 -320 -309l-12 39c143 10 266 104 285 211zM95 348c0 -86 76 -121 144 -121c53 0 111 18 155 60c1 7 1 17 1 24c0 94 -70 162 -157 162 c-83 0 -143 -54 -143 -125z" />
<glyph unicode="&#xd8;" horiz-adv-x="770" d="M79 -29l84 107c-63 63 -100 154 -100 257c0 215 157 355 323 355c74 0 145 -26 201 -74l78 100l27 -20l-81 -103c59 -61 96 -150 96 -258c0 -187 -127 -345 -321 -345c-78 0 -145 24 -198 66l-82 -105zM107 337c0 -88 29 -169 82 -226l373 474c-46 42 -107 66 -176 66 c-148 0 -279 -122 -279 -314zM663 337c0 90 -29 169 -77 224l-373 -473c45 -37 103 -59 173 -59c170 0 277 142 277 308z" />
<glyph unicode="&#xf8;" horiz-adv-x="490" d="M47 -21l59 80c-32 41 -51 96 -51 161c0 137 77 238 186 238c49 0 91 -18 123 -48l51 70l25 -19l-55 -74c32 -43 50 -101 50 -167c0 -134 -86 -230 -190 -230c-45 0 -85 16 -117 46l-56 -76zM97 220c0 -50 12 -94 33 -127l210 284c-26 28 -59 44 -99 44 c-86 0 -144 -87 -144 -201zM393 220c0 51 -12 96 -34 131l-208 -284c25 -25 57 -40 94 -40c85 0 148 82 148 193z" />
<glyph horiz-adv-x="250" d="M114 226l-18 274h58l-19 -274h-21z" />
<glyph horiz-adv-x="400" d="M114 226l-18 274h58l-19 -274h-21zM264 226l-18 274h58l-19 -274h-21z" />
<glyph horiz-adv-x="280" d="M81 236l65 266l56 -17l-101 -256z" />
<glyph horiz-adv-x="470" d="M81 236l65 266l56 -17l-101 -256zM271 236l65 266l56 -17l-101 -256z" />
<glyph horiz-adv-x="790" d="M88 253c0 168 139 307 308 307c177 0 306 -139 306 -307c0 -169 -124 -308 -306 -308c-169 0 -308 127 -308 308zM122 251c0 -161 123 -273 275 -273c154 0 271 112 271 273c0 167 -122 278 -272 278c-147 0 -274 -115 -274 -278zM519 394l-18 -34c-3 1 -5 4 -9 6 c-1 1 -3 2 -4 2l-4 3c-8 5 -19 10 -32 14l-9 3c-1 1 -2 1 -3 1c-13 4 -27 6 -41 6h-5c-1 0 -3 -1 -5 -1c-6 0 -12 -1 -18 -2c-11 -3 -21 -6 -31 -12l-8 -5l-7 -6l-11 -9l-10 -12l-8 -13l-7 -15c-5 -12 -9 -26 -11 -41v-6c-1 -5 -1 -10 -1 -14v-13c0 -4 0 -8 1 -12 c1 -13 4 -25 8 -37c0 -1 1 -3 2 -5c2 -6 5 -12 8 -18l15 -20c4 -5 9 -9 14 -13c6 -5 13 -10 20 -13c2 -1 3 -2 5 -2c3 -2 6 -3 9 -4c9 -3 19 -5 30 -6h27c2 0 4 1 6 1c5 0 10 1 15 2l14 3c3 1 7 2 10 4l8 3c3 1 6 3 10 4l19 11l9 7l19 -30l-2 -2l-13 -9l-8 -5 c-9 -5 -19 -10 -30 -14l-13 -4c-15 -5 -31 -8 -47 -9h-21c-10 0 -19 1 -28 3l-6 2c-7 1 -13 3 -19 6c-4 1 -8 3 -12 5l-5 3c-8 4 -15 9 -21 14c-15 11 -28 26 -38 43l-6 11c-11 23 -18 50 -19 78v7c0 66 25 117 63 148c3 2 6 5 10 7l5 4l16 9l12 5c10 3 20 6 30 8 c2 0 5 0 7 1h6c4 1 8 1 13 1h7c3 0 5 -1 8 -1c23 -2 46 -8 64 -16l6 -2l8 -4l5 -3l9 -5c2 -2 4 -3 6 -4l4 -3c1 0 1 -1 2 -1z" />
<glyph horiz-adv-x="790" d="M88 253c0 168 139 307 308 307c177 0 306 -139 306 -307c0 -169 -124 -308 -306 -308c-169 0 -308 127 -308 308zM122 251c0 -161 123 -273 275 -273c154 0 271 112 271 273c0 167 -122 278 -272 278c-147 0 -274 -115 -274 -278zM524 332c0 -67 -53 -103 -116 -103h-55 v-149h-37v350h94c68 0 114 -38 114 -98zM486 331c0 40 -32 66 -74 66h-59v-135h55c38 0 78 21 78 69z" />
<glyph horiz-adv-x="750" d="M684 214h-277c1 -134 64 -187 139 -187c40 0 84 16 111 44h3l14 -31c-29 -28 -82 -50 -136 -50c-50 0 -100 23 -133 71v-61h-36l-4 71h-4c-40 -53 -90 -81 -140 -81c-96 0 -166 78 -166 217c0 142 75 251 188 251c52 0 95 -31 119 -68h3v58h40v-76c32 54 80 86 136 86 c92 0 153 -79 153 -176c0 -17 -1 -46 -10 -68zM226 27c49 0 106 39 139 108v204c-24 45 -73 82 -117 82c-101 0 -151 -93 -151 -208c0 -127 54 -186 129 -186zM408 248h241c17 106 -40 173 -110 173c-72 0 -124 -76 -131 -173z" />
<glyph unicode="&#xd0;" horiz-adv-x="670" d="M270 0h-177v323h-79v36h79v321h176c191 0 338 -134 338 -346c0 -206 -141 -334 -337 -334zM135 38h139c181 0 289 121 289 298c0 218 -152 306 -290 306h-138v-283h167v-36h-167v-285z" />
<glyph unicode="&#x141;" horiz-adv-x="490" d="M135 680v-333l166 118l19 -28l-185 -131v-268h312v-38h-354v276l-66 -46l-19 28l85 60v362h42z" />
<glyph unicode="&#x142;" horiz-adv-x="230" d="M95 680l40 12v-323l74 48l17 -23l-91 -60v-334h-40v308l-72 -47l-18 25l90 58v336z" />
<glyph horiz-adv-x="260" d="M95 115v190l-66 -43l-18 25l84 54v339l40 12v-326l80 52l17 -23l-97 -64v-218c0 -58 28 -82 63 -82c18 0 31 4 45 15v-37c-9 -8 -29 -14 -48 -14c-47 0 -100 29 -100 120z" />
<glyph unicode="&#x13d;" horiz-adv-x="490" d="M135 680v-642h312v-38h-354v680h42zM291 506h-28c11 50 23 112 34 174h39v-6c-14 -59 -26 -120 -45 -168z" />
<glyph unicode="&#x13e;" horiz-adv-x="230" d="M223 516h-28c11 50 23 112 34 174h39v-6c-14 -59 -26 -120 -45 -168zM95 680l40 12v-692h-40v680z" />
<glyph horiz-adv-x="260" d="M223 516h-28c11 50 23 112 34 174h39v-6c-14 -59 -26 -120 -45 -168zM95 115v565l40 12v-579c0 -58 28 -82 63 -82c18 0 31 4 45 15v-37c-9 -8 -29 -14 -48 -14c-47 0 -100 29 -100 120z" />
<glyph unicode="&#xf6c3;" horiz-adv-x="500" d="M210 -201h-28c21 46 41 100 59 154h39v-6c-21 -51 -41 -104 -70 -148z" />
<glyph horiz-adv-x="500" d="M278 472h-28c11 50 23 112 34 174h39v-6c-14 -59 -26 -120 -45 -168z" />
<glyph horiz-adv-x="500" d="M283 639h31c-21 -48 -41 -103 -59 -159h-42v6c21 53 41 107 70 153z" />
<glyph horiz-adv-x="690" d="M651 543v-36h-612v36h612z" />
<glyph horiz-adv-x="500" d="M372 403h-244v34h244v-34z" />
<glyph unicode="&#x3bb;" horiz-adv-x="460" d="M183 575l232 -571l-37 -13l-151 378h-3l-137 -369h-43l160 421c-40 131 -81 216 -148 247v17h42c33 -20 67 -67 85 -110z" />
<glyph unicode="&#x2011;" horiz-adv-x="340" d="M50 259h240v-38h-240v38z" />
<glyph horiz-adv-x="340" d="M50 319h240v-38h-240v38z" />
<glyph horiz-adv-x="500" d="M215 525c0 21 15 38 33 38s33 -17 33 -38s-15 -38 -33 -38s-33 17 -33 38z" />
<glyph unicode="&#x110;" horiz-adv-x="670" d="M270 0h-177v323h-79v36h79v321h176c191 0 338 -134 338 -346c0 -206 -141 -334 -337 -334zM135 38h139c181 0 289 121 289 298c0 218 -152 306 -290 306h-138v-283h167v-36h-167v-285z" />
<glyph horiz-adv-x="500" d="M230 468v3l53 159h47v-4l-74 -158h-26z" />
<glyph horiz-adv-x="500" d="M235 458v8l56 124h44v-10l-74 -122h-26z" />
<glyph horiz-adv-x="680" d="M156 680v-680h-42v680h42zM100 730v8l101 124h49v-10l-124 -122h-26zM287 21l18 36c19 -11 53 -28 93 -28c94 0 147 60 147 202v449h42v-459c0 -158 -78 -231 -189 -231c-43 0 -84 13 -111 31zM529 730v8l101 124h49v-10l-124 -122h-26z" />
<glyph horiz-adv-x="460" d="M325 -26v472l40 5v-478c0 -93 -23 -140 -53 -174l-41 -6l-2 15c38 35 56 80 56 166zM95 446l40 5v-451h-40v446zM80 518v3l101 159h49v-4l-124 -158h-26zM310 518v3l101 159h49v-4l-124 -158h-26z" />
<glyph unicode="&#x13f;" horiz-adv-x="550" d="M135 680v-642h312v-38h-354v680h42zM437 337c0 24 17 44 39 44c21 0 39 -20 39 -44c0 -25 -18 -44 -39 -44c-22 0 -39 19 -39 44z" />
<glyph unicode="&#x140;" horiz-adv-x="380" d="M95 680l40 12v-692h-40v680zM277 244c0 24 17 44 39 44c21 0 39 -20 39 -44c0 -25 -18 -44 -39 -44c-22 0 -39 19 -39 44z" />
<glyph horiz-adv-x="270" d="M156 680v-680h-42v680h42z" />
<glyph horiz-adv-x="230" d="M95 446l40 5v-451h-40v446zM82 642c0 21 15 38 33 38s33 -17 33 -38s-15 -38 -33 -38s-33 17 -33 38z" />
<glyph unicode="&#xbd;" horiz-adv-x="740" d="M108 -31l247 380l218 343l26 -16l-220 -340l-245 -385zM192 315h-39v337l-79 -9l-3 36l112 13l9 -6v-371zM458 273l-13 31c14 12 54 36 103 36c62 0 113 -29 113 -101c0 -75 -67 -159 -170 -240l1 -3h174v-36h-235l-5 19c147 122 196 197 196 259c0 42 -30 66 -75 66 c-40 0 -71 -17 -89 -31z" />
<glyph unicode="&#x2153;" horiz-adv-x="740" d="M108 -31l247 380l218 343l26 -16l-220 -340l-245 -385zM192 315h-39v337l-79 -9l-3 36l112 13l9 -6v-371zM445 -22l-1 40c34 -19 61 -28 95 -28c46 0 83 29 83 74c0 41 -31 74 -65 72l-63 -3l4 40h54c35 0 64 25 64 66c0 39 -29 65 -70 65c-29 0 -54 -9 -82 -26l3 39 c14 9 43 23 77 23c70 0 110 -40 110 -99c0 -42 -28 -73 -62 -82v-5c43 -10 69 -51 69 -89c0 -68 -52 -111 -126 -111c-37 0 -65 9 -90 24z" />
<glyph unicode="&#xbc;" horiz-adv-x="740" d="M108 -31l247 380l218 343l26 -16l-220 -340l-245 -385zM192 315h-39v337l-79 -9l-3 36l112 13l9 -6v-371zM630 100v-34h-45v-106h-37v106h-162l-9 21l166 247h42v-234h45zM428 100h120v177h-5l-117 -174z" />
<glyph horiz-adv-x="740" d="M108 -31l247 380l218 343l26 -16l-220 -340l-245 -385zM192 315h-39v337l-79 -9l-3 36l112 13l9 -6v-371zM448 158l-2 2l20 174h189l-4 -40l-155 2l-13 -97c12 1 24 2 36 2c103 0 147 -52 147 -115c0 -78 -55 -132 -166 -132c-21 0 -41 2 -57 7l6 35c14 -6 37 -6 51 -6 c86 0 128 42 128 94c0 50 -37 82 -120 82c-22 0 -39 -3 -60 -8z" />
<glyph horiz-adv-x="740" d="M108 -31l247 380l218 343l26 -16l-220 -340l-245 -385zM192 315h-39v337l-79 -9l-3 36l112 13l9 -6v-371zM466 150l2 -2c23 22 51 32 77 32c59 0 118 -32 118 -116c0 -71 -56 -110 -118 -110c-83 0 -121 65 -121 150c0 141 117 231 215 236l-5 -39 c-86 -5 -158 -83 -168 -151zM625 63c0 59 -42 81 -84 81c-25 0 -55 -10 -77 -32c-1 -7 -1 -14 -1 -20c0 -60 35 -102 86 -102c44 0 76 29 76 73z" />
<glyph horiz-adv-x="740" d="M108 -31l247 380l218 343l26 -16l-220 -340l-245 -385zM192 315h-39v337l-79 -9l-3 36l112 13l9 -6v-371zM672 334l5 -7c-91 -114 -142 -237 -148 -367h-40c10 130 63 251 135 337l-2 3l-183 -2l2 36h231z" />
<glyph unicode="&#x215b;" horiz-adv-x="740" d="M108 -31l247 380l218 343l26 -16l-220 -340l-245 -385zM192 315h-39v337l-79 -9l-3 36l112 13l9 -6v-371zM584 159v-2c62 -35 81 -66 81 -106c0 -57 -50 -97 -114 -97c-66 0 -115 42 -115 100c0 41 25 81 80 100v2c-50 29 -67 63 -67 95c0 53 43 89 100 89 s103 -34 103 -89c0 -37 -24 -72 -68 -92zM626 51c0 41 -31 66 -83 91c-45 -17 -68 -52 -68 -88c0 -41 37 -64 75 -64c45 0 76 24 76 61zM487 253c0 -31 19 -56 70 -83c38 17 57 46 57 79c0 34 -28 55 -66 55s-61 -23 -61 -51z" />
<glyph horiz-adv-x="740" d="M108 -31l247 380l218 343l26 -16l-220 -340l-245 -385zM192 315h-39v337l-79 -9l-3 36l112 13l9 -6v-371zM633 144l-2 1c-23 -21 -52 -31 -78 -31c-54 0 -118 32 -118 113c0 73 59 113 114 113c82 0 125 -65 125 -150c0 -140 -83 -215 -195 -238l-4 36 c106 20 150 92 158 156zM474 228c0 -57 42 -78 84 -78c25 0 56 7 77 27c0 9 1 18 1 25c0 60 -35 102 -86 102c-42 0 -76 -33 -76 -76z" />
<glyph unicode="&#x2154;" horiz-adv-x="740" d="M108 -31l247 380l218 343l26 -16l-220 -340l-245 -385zM68 628l-13 31c14 12 54 36 103 36c62 0 113 -29 113 -101c0 -75 -67 -159 -170 -240l1 -3h174v-36h-235l-5 19c147 122 196 197 196 259c0 42 -30 66 -75 66c-40 0 -71 -17 -89 -31zM445 -22l-1 40 c34 -19 61 -28 95 -28c46 0 83 29 83 74c0 41 -31 74 -65 72l-63 -3l4 40h54c35 0 64 25 64 66c0 39 -29 65 -70 65c-29 0 -54 -9 -82 -26l3 39c14 9 43 23 77 23c70 0 110 -40 110 -99c0 -42 -28 -73 -62 -82v-5c43 -10 69 -51 69 -89c0 -68 -52 -111 -126 -111 c-37 0 -65 9 -90 24z" />
<glyph horiz-adv-x="740" d="M108 -31l247 380l218 343l26 -16l-220 -340l-245 -385zM68 628l-13 31c14 12 54 36 103 36c62 0 113 -29 113 -101c0 -75 -67 -159 -170 -240l1 -3h174v-36h-235l-5 19c147 122 196 197 196 259c0 42 -30 66 -75 66c-40 0 -71 -17 -89 -31zM448 158l-2 2l20 174h189 l-4 -40l-155 2l-13 -97c12 1 24 2 36 2c103 0 147 -52 147 -115c0 -78 -55 -132 -166 -132c-21 0 -41 2 -57 7l6 35c14 -6 37 -6 51 -6c86 0 128 42 128 94c0 50 -37 82 -120 82c-22 0 -39 -3 -60 -8z" />
<glyph horiz-adv-x="740" d="M108 -31l247 380l218 343l26 -16l-220 -340l-245 -385zM68 628l-13 31c14 12 54 36 103 36c62 0 113 -29 113 -101c0 -75 -67 -159 -170 -240l1 -3h174v-36h-235l-5 19c147 122 196 197 196 259c0 42 -30 66 -75 66c-40 0 -71 -17 -89 -31zM672 334l5 -7 c-91 -114 -142 -237 -148 -367h-40c10 130 63 251 135 337l-2 3l-183 -2l2 36h231z" />
<glyph horiz-adv-x="740" d="M108 -31l247 380l218 343l26 -16l-220 -340l-245 -385zM68 628l-13 31c14 12 54 36 103 36c62 0 113 -29 113 -101c0 -75 -67 -159 -170 -240l1 -3h174v-36h-235l-5 19c147 122 196 197 196 259c0 42 -30 66 -75 66c-40 0 -71 -17 -89 -31zM633 144l-2 1 c-23 -21 -52 -31 -78 -31c-54 0 -118 32 -118 113c0 73 59 113 114 113c82 0 125 -65 125 -150c0 -140 -83 -215 -195 -238l-4 36c106 20 150 92 158 156zM474 228c0 -57 42 -78 84 -78c25 0 56 7 77 27c0 9 1 18 1 25c0 60 -35 102 -86 102c-42 0 -76 -33 -76 -76z" />
<glyph unicode="&#xbe;" horiz-adv-x="740" d="M108 -31l247 380l218 343l26 -16l-220 -340l-245 -385zM55 333l-1 40c34 -19 61 -28 95 -28c46 0 83 29 83 74c0 41 -31 74 -65 72l-63 -3l4 40h54c35 0 64 25 64 66c0 39 -29 65 -70 65c-29 0 -54 -9 -82 -26l3 39c14 9 43 23 77 23c70 0 110 -40 110 -99 c0 -42 -28 -73 -62 -82v-5c43 -10 69 -51 69 -89c0 -68 -52 -111 -126 -111c-37 0 -65 9 -90 24zM630 100v-34h-45v-106h-37v106h-162l-9 21l166 247h42v-234h45zM428 100h120v177h-5l-117 -174z" />
<glyph horiz-adv-x="740" d="M108 -31l247 380l218 343l26 -16l-220 -340l-245 -385zM55 333l-1 40c34 -19 61 -28 95 -28c46 0 83 29 83 74c0 41 -31 74 -65 72l-63 -3l4 40h54c35 0 64 25 64 66c0 39 -29 65 -70 65c-29 0 -54 -9 -82 -26l3 39c14 9 43 23 77 23c70 0 110 -40 110 -99 c0 -42 -28 -73 -62 -82v-5c43 -10 69 -51 69 -89c0 -68 -52 -111 -126 -111c-37 0 -65 9 -90 24zM448 158l-2 2l20 174h189l-4 -40l-155 2l-13 -97c12 1 24 2 36 2c103 0 147 -52 147 -115c0 -78 -55 -132 -166 -132c-21 0 -41 2 -57 7l6 35c14 -6 37 -6 51 -6 c86 0 128 42 128 94c0 50 -37 82 -120 82c-22 0 -39 -3 -60 -8z" />
<glyph horiz-adv-x="740" d="M108 -31l247 380l218 343l26 -16l-220 -340l-245 -385zM55 333l-1 40c34 -19 61 -28 95 -28c46 0 83 29 83 74c0 41 -31 74 -65 72l-63 -3l4 40h54c35 0 64 25 64 66c0 39 -29 65 -70 65c-29 0 -54 -9 -82 -26l3 39c14 9 43 23 77 23c70 0 110 -40 110 -99 c0 -42 -28 -73 -62 -82v-5c43 -10 69 -51 69 -89c0 -68 -52 -111 -126 -111c-37 0 -65 9 -90 24zM672 334l5 -7c-91 -114 -142 -237 -148 -367h-40c10 130 63 251 135 337l-2 3l-183 -2l2 36h231z" />
<glyph unicode="&#x215c;" horiz-adv-x="740" d="M108 -31l247 380l218 343l26 -16l-220 -340l-245 -385zM55 333l-1 40c34 -19 61 -28 95 -28c46 0 83 29 83 74c0 41 -31 74 -65 72l-63 -3l4 40h54c35 0 64 25 64 66c0 39 -29 65 -70 65c-29 0 -54 -9 -82 -26l3 39c14 9 43 23 77 23c70 0 110 -40 110 -99 c0 -42 -28 -73 -62 -82v-5c43 -10 69 -51 69 -89c0 -68 -52 -111 -126 -111c-37 0 -65 9 -90 24zM584 159v-2c62 -35 81 -66 81 -106c0 -57 -50 -97 -114 -97c-66 0 -115 42 -115 100c0 41 25 81 80 100v2c-50 29 -67 63 -67 95c0 53 43 89 100 89s103 -34 103 -89 c0 -37 -24 -72 -68 -92zM626 51c0 41 -31 66 -83 91c-45 -17 -68 -52 -68 -88c0 -41 37 -64 75 -64c45 0 76 24 76 61zM487 253c0 -31 19 -56 70 -83c38 17 57 46 57 79c0 34 -28 55 -66 55s-61 -23 -61 -51z" />
<glyph horiz-adv-x="740" d="M108 -31l247 380l218 343l26 -16l-220 -340l-245 -385zM287 455v-34h-45v-106h-37v106h-162l-9 21l166 247h42v-234h45zM85 455h120v177h-5l-117 -174zM448 158l-2 2l20 174h189l-4 -40l-155 2l-13 -97c12 1 24 2 36 2c103 0 147 -52 147 -115c0 -78 -55 -132 -166 -132 c-21 0 -41 2 -57 7l6 35c14 -6 37 -6 51 -6c86 0 128 42 128 94c0 50 -37 82 -120 82c-22 0 -39 -3 -60 -8z" />
<glyph horiz-adv-x="740" d="M108 -31l247 380l218 343l26 -16l-220 -340l-245 -385zM287 455v-34h-45v-106h-37v106h-162l-9 21l166 247h42v-234h45zM85 455h120v177h-5l-117 -174zM672 334l5 -7c-91 -114 -142 -237 -148 -367h-40c10 130 63 251 135 337l-2 3l-183 -2l2 36h231z" />
<glyph horiz-adv-x="740" d="M108 -31l247 380l218 343l26 -16l-220 -340l-245 -385zM287 455v-34h-45v-106h-37v106h-162l-9 21l166 247h42v-234h45zM85 455h120v177h-5l-117 -174zM633 144l-2 1c-23 -21 -52 -31 -78 -31c-54 0 -118 32 -118 113c0 73 59 113 114 113c82 0 125 -65 125 -150 c0 -140 -83 -215 -195 -238l-4 36c106 20 150 92 158 156zM474 228c0 -57 42 -78 84 -78c25 0 56 7 77 27c0 9 1 18 1 25c0 60 -35 102 -86 102c-42 0 -76 -33 -76 -76z" />
<glyph horiz-adv-x="740" d="M108 -31l247 380l218 343l26 -16l-220 -340l-245 -385zM58 513l-2 2l20 174h189l-4 -40l-155 2l-13 -97c12 1 24 2 36 2c103 0 147 -52 147 -115c0 -78 -55 -132 -166 -132c-21 0 -41 2 -57 7l6 35c14 -6 37 -6 51 -6c86 0 128 42 128 94c0 50 -37 82 -120 82 c-22 0 -39 -3 -60 -8zM466 150l2 -2c23 22 51 32 77 32c59 0 118 -32 118 -116c0 -71 -56 -110 -118 -110c-83 0 -121 65 -121 150c0 141 117 231 215 236l-5 -39c-86 -5 -158 -83 -168 -151zM625 63c0 59 -42 81 -84 81c-25 0 -55 -10 -77 -32c-1 -7 -1 -14 -1 -20 c0 -60 35 -102 86 -102c44 0 76 29 76 73z" />
<glyph horiz-adv-x="740" d="M108 -31l247 380l218 343l26 -16l-220 -340l-245 -385zM58 513l-2 2l20 174h189l-4 -40l-155 2l-13 -97c12 1 24 2 36 2c103 0 147 -52 147 -115c0 -78 -55 -132 -166 -132c-21 0 -41 2 -57 7l6 35c14 -6 37 -6 51 -6c86 0 128 42 128 94c0 50 -37 82 -120 82 c-22 0 -39 -3 -60 -8zM672 334l5 -7c-91 -114 -142 -237 -148 -367h-40c10 130 63 251 135 337l-2 3l-183 -2l2 36h231z" />
<glyph unicode="&#x215d;" horiz-adv-x="740" d="M108 -31l247 380l218 343l26 -16l-220 -340l-245 -385zM58 513l-2 2l20 174h189l-4 -40l-155 2l-13 -97c12 1 24 2 36 2c103 0 147 -52 147 -115c0 -78 -55 -132 -166 -132c-21 0 -41 2 -57 7l6 35c14 -6 37 -6 51 -6c86 0 128 42 128 94c0 50 -37 82 -120 82 c-22 0 -39 -3 -60 -8zM584 159v-2c62 -35 81 -66 81 -106c0 -57 -50 -97 -114 -97c-66 0 -115 42 -115 100c0 41 25 81 80 100v2c-50 29 -67 63 -67 95c0 53 43 89 100 89s103 -34 103 -89c0 -37 -24 -72 -68 -92zM626 51c0 41 -31 66 -83 91c-45 -17 -68 -52 -68 -88 c0 -41 37 -64 75 -64c45 0 76 24 76 61zM487 253c0 -31 19 -56 70 -83c38 17 57 46 57 79c0 34 -28 55 -66 55s-61 -23 -61 -51z" />
<glyph horiz-adv-x="740" d="M108 -31l247 380l218 343l26 -16l-220 -340l-245 -385zM58 513l-2 2l20 174h189l-4 -40l-155 2l-13 -97c12 1 24 2 36 2c103 0 147 -52 147 -115c0 -78 -55 -132 -166 -132c-21 0 -41 2 -57 7l6 35c14 -6 37 -6 51 -6c86 0 128 42 128 94c0 50 -37 82 -120 82 c-22 0 -39 -3 -60 -8zM633 144l-2 1c-23 -21 -52 -31 -78 -31c-54 0 -118 32 -118 113c0 73 59 113 114 113c82 0 125 -65 125 -150c0 -140 -83 -215 -195 -238l-4 36c106 20 150 92 158 156zM474 228c0 -57 42 -78 84 -78c25 0 56 7 77 27c0 9 1 18 1 25 c0 60 -35 102 -86 102c-42 0 -76 -33 -76 -76z" />
<glyph horiz-adv-x="740" d="M108 -31l247 380l218 343l26 -16l-220 -340l-245 -385zM87 505l2 -2c23 22 51 32 77 32c59 0 118 -32 118 -116c0 -71 -56 -110 -118 -110c-83 0 -121 65 -121 150c0 141 117 231 215 236l-5 -39c-86 -5 -158 -83 -168 -151zM246 418c0 59 -42 81 -84 81 c-25 0 -55 -10 -77 -32c-1 -7 -1 -14 -1 -20c0 -60 35 -102 86 -102c44 0 76 29 76 73zM672 334l5 -7c-91 -114 -142 -237 -148 -367h-40c10 130 63 251 135 337l-2 3l-183 -2l2 36h231z" />
<glyph unicode="&#x215e;" horiz-adv-x="740" d="M108 -31l247 380l218 343l26 -16l-220 -340l-245 -385zM316 689l5 -7c-91 -114 -142 -237 -148 -367h-40c10 130 63 251 135 337l-2 3l-183 -2l2 36h231zM584 159v-2c62 -35 81 -66 81 -106c0 -57 -50 -97 -114 -97c-66 0 -115 42 -115 100c0 41 25 81 80 100v2 c-50 29 -67 63 -67 95c0 53 43 89 100 89s103 -34 103 -89c0 -37 -24 -72 -68 -92zM626 51c0 41 -31 66 -83 91c-45 -17 -68 -52 -68 -88c0 -41 37 -64 75 -64c45 0 76 24 76 61zM487 253c0 -31 19 -56 70 -83c38 17 57 46 57 79c0 34 -28 55 -66 55s-61 -23 -61 -51z" />
<glyph horiz-adv-x="740" d="M108 -31l247 380l218 343l26 -16l-220 -340l-245 -385zM316 689l5 -7c-91 -114 -142 -237 -148 -367h-40c10 130 63 251 135 337l-2 3l-183 -2l2 36h231zM633 144l-2 1c-23 -21 -52 -31 -78 -31c-54 0 -118 32 -118 113c0 73 59 113 114 113c82 0 125 -65 125 -150 c0 -140 -83 -215 -195 -238l-4 36c106 20 150 92 158 156zM474 228c0 -57 42 -78 84 -78c25 0 56 7 77 27c0 9 1 18 1 25c0 60 -35 102 -86 102c-42 0 -76 -33 -76 -76z" />
<glyph horiz-adv-x="740" d="M108 -31l247 380l218 343l26 -16l-220 -340l-245 -385zM194 514v-2c62 -35 81 -66 81 -106c0 -57 -50 -97 -114 -97c-66 0 -115 42 -115 100c0 41 25 81 80 100v2c-50 29 -67 63 -67 95c0 53 43 89 100 89s103 -34 103 -89c0 -37 -24 -72 -68 -92zM236 406 c0 41 -31 66 -83 91c-45 -17 -68 -52 -68 -88c0 -41 37 -64 75 -64c45 0 76 24 76 61zM97 608c0 -31 19 -56 70 -83c38 17 57 46 57 79c0 34 -28 55 -66 55s-61 -23 -61 -51zM633 144l-2 1c-23 -21 -52 -31 -78 -31c-54 0 -118 32 -118 113c0 73 59 113 114 113 c82 0 125 -65 125 -150c0 -140 -83 -215 -195 -238l-4 36c106 20 150 92 158 156zM474 228c0 -57 42 -78 84 -78c25 0 56 7 77 27c0 9 1 18 1 25c0 60 -35 102 -86 102c-42 0 -76 -33 -76 -76z" />
<glyph horiz-adv-x="550" d="M290 412h-115v-412h-40v412h-103l12 36h91v68c0 116 77 172 135 172c27 0 49 -5 63 -14v-35c-21 10 -40 13 -60 13c-58 0 -98 -50 -98 -137v-67h115v-36zM415 446l40 5v-451h-40v446zM402 642c0 21 15 38 33 38s33 -17 33 -38s-15 -38 -33 -38s-33 17 -33 38z" />
<glyph horiz-adv-x="580" d="M290 412h-115v-412h-40v412h-103l12 36h91v68c0 116 77 172 135 172c27 0 49 -5 63 -14v-35c-21 10 -40 13 -60 13c-58 0 -98 -50 -98 -137v-67h115v-36zM415 115v565l40 12v-579c0 -58 28 -82 63 -82c18 0 31 4 45 15v-37c-9 -8 -29 -14 -48 -14c-47 0 -100 29 -100 120 z" />
<glyph horiz-adv-x="550" d="M290 412h-115v-412h-40v412h-103l12 36h91v68c0 116 77 172 135 172c27 0 49 -5 63 -14v-35c-21 10 -40 13 -60 13c-58 0 -98 -50 -98 -137v-67h115v-36zM415 680l40 12v-692h-40v680z" />
<glyph unicode="&#xc1;" horiz-adv-x="680" d="M599 -7l-100 235h-318l-100 -235l-37 20l291 683h10l291 -683zM339 599l-142 -333h286l-141 333h-3zM305 730v8l101 124h49v-10l-124 -122h-26z" />
<glyph unicode="&#xc0;" horiz-adv-x="680" d="M599 -7l-100 235h-318l-100 -235l-37 20l291 683h10l291 -683zM339 599l-142 -333h286l-141 333h-3zM375 738v-8h-26l-124 122v10h49z" />
<glyph unicode="&#xc2;" horiz-adv-x="680" d="M599 -7l-100 235h-318l-100 -235l-37 20l291 683h10l291 -683zM339 599l-142 -333h286l-141 333h-3zM454 738v-8h-26l-89 96l-89 -96h-26v8l96 124h38z" />
<glyph unicode="&#xc4;" horiz-adv-x="680" d="M599 -7l-100 235h-318l-100 -235l-37 20l291 683h10l291 -683zM339 599l-142 -333h286l-141 333h-3zM440 782c0 -21 -16 -33 -30 -33c-15 0 -30 11 -30 33c0 19 14 35 30 35s30 -14 30 -35zM300 782c0 -21 -16 -33 -30 -33c-15 0 -30 11 -30 33c0 19 14 35 30 35 s30 -14 30 -35z" />
<glyph unicode="&#xc3;" horiz-adv-x="680" d="M599 -7l-100 235h-318l-100 -235l-37 20l291 683h10l291 -683zM339 599l-142 -333h286l-141 333h-3zM443 865h30c0 -69 -37 -110 -78 -110c-51 0 -71 80 -109 80c-33 0 -52 -32 -52 -78h-28c0 71 37 110 79 110c54 0 72 -81 111 -81c29 0 47 35 47 79z" />
<glyph unicode="&#xc5;" horiz-adv-x="680" d="M599 -7l-100 235h-318l-100 -235l-37 20l291 683h10l291 -683zM339 599l-142 -333h286l-141 333h-3zM251 824c0 49 40 89 89 89s89 -40 89 -89s-40 -89 -89 -89s-89 40 -89 89zM283 824c0 -38 23 -60 56 -60c32 0 57 24 57 60s-25 60 -57 60c-33 0 -56 -26 -56 -60z" />
<glyph unicode="&#x102;" horiz-adv-x="680" d="M599 -7l-100 235h-318l-100 -235l-37 20l291 683h10l291 -683zM339 599l-142 -333h286l-141 333h-3zM339 730c-61 0 -119 39 -119 132h29c0 -49 34 -97 91 -97c51 0 91 40 91 97h29c0 -93 -60 -132 -121 -132z" />
<glyph unicode="&#x100;" horiz-adv-x="680" d="M599 -7l-100 235h-318l-100 -235l-37 20l291 683h10l291 -683zM339 599l-142 -333h286l-141 333h-3zM452 785h-224v34h224v-34z" />
<glyph unicode="&#x104;" horiz-adv-x="680" d="M599 -7c-32 -29 -51 -62 -51 -101c0 -33 18 -58 49 -58c13 0 23 3 32 6v-32c-11 -5 -24 -7 -37 -7c-42 0 -84 23 -84 83c0 49 34 101 81 132l-90 212h-318l-100 -235l-37 20l291 683h10l291 -683zM339 599l-142 -333h286l-141 333h-3z" />
<glyph unicode="&#xc7;" horiz-adv-x="660" d="M351 -199l-9 25c56 9 92 27 92 53c0 30 -36 39 -76 39c-8 0 -23 -1 -30 -2l-4 9l43 66c-181 11 -304 150 -304 338c0 228 155 361 330 361c91 0 162 -35 211 -75l-20 -34c-45 38 -115 71 -193 70c-151 -2 -284 -117 -284 -318c0 -177 115 -304 286 -304 c83 0 152 32 203 72l19 -32c-47 -42 -131 -76 -214 -79l-30 -45c59 0 98 -18 98 -62c0 -42 -51 -71 -118 -82z" />
<glyph unicode="&#x106;" horiz-adv-x="660" d="M604 615l-20 -34c-45 38 -115 71 -193 70c-151 -2 -284 -117 -284 -318c0 -177 115 -304 286 -304c83 0 152 32 203 72l19 -32c-49 -43 -138 -79 -224 -79c-194 0 -328 143 -328 339c0 228 155 361 330 361c91 0 162 -35 211 -75zM356 730v8l101 124h49v-10l-124 -122 h-26z" />
<glyph horiz-adv-x="660" d="M604 615l-20 -34c-45 38 -115 71 -193 70c-151 -2 -284 -117 -284 -318c0 -177 115 -304 286 -304c83 0 152 32 203 72l19 -32c-49 -43 -138 -79 -224 -79c-194 0 -328 143 -328 339c0 228 155 361 330 361c91 0 162 -35 211 -75zM376 730v8l56 124h44v-10l-74 -122h-26z " />
<glyph unicode="&#x10c;" horiz-adv-x="660" d="M604 615l-20 -34c-45 38 -115 71 -193 70c-151 -2 -284 -117 -284 -318c0 -177 115 -304 286 -304c83 0 152 32 203 72l19 -32c-49 -43 -138 -79 -224 -79c-194 0 -328 143 -328 339c0 228 155 361 330 361c91 0 162 -35 211 -75zM505 862v-8l-96 -124h-38l-96 124v8h26 l89 -96l89 96h26z" />
<glyph unicode="&#x10a;" horiz-adv-x="660" d="M604 615l-20 -34c-45 38 -115 71 -193 70c-151 -2 -284 -117 -284 -318c0 -177 115 -304 286 -304c83 0 152 32 203 72l19 -32c-49 -43 -138 -79 -224 -79c-194 0 -328 143 -328 339c0 228 155 361 330 361c91 0 162 -35 211 -75zM356 797c0 21 15 38 33 38 s33 -17 33 -38s-15 -38 -33 -38s-33 17 -33 38z" />
<glyph unicode="&#x10e;" horiz-adv-x="670" d="M135 38h139c181 0 289 121 289 298c0 218 -152 306 -290 306h-138v-604zM270 0h-177v680h176c191 0 338 -134 338 -346c0 -206 -141 -334 -337 -334zM405 862v-8l-96 -124h-38l-96 124v8h26l89 -96l89 96h26z" />
<glyph unicode="&#xc9;" horiz-adv-x="510" d="M450 680v-38h-315v-269h285v-38h-285v-297h325v-38h-367v680h357zM241 730v8l101 124h49v-10l-124 -122h-26z" />
<glyph unicode="&#xc8;" horiz-adv-x="510" d="M450 680v-38h-315v-269h285v-38h-285v-297h325v-38h-367v680h357zM311 738v-8h-26l-124 122v10h49z" />
<glyph unicode="&#xca;" horiz-adv-x="510" d="M450 680v-38h-315v-269h285v-38h-285v-297h325v-38h-367v680h357zM390 738v-8h-26l-89 96l-89 -96h-26v8l96 124h38z" />
<glyph unicode="&#xcb;" horiz-adv-x="510" d="M450 680v-38h-315v-269h285v-38h-285v-297h325v-38h-367v680h357zM376 782c0 -21 -16 -33 -30 -33c-15 0 -30 11 -30 33c0 19 14 35 30 35s30 -14 30 -35zM236 782c0 -21 -16 -33 -30 -33c-15 0 -30 11 -30 33c0 19 14 35 30 35s30 -14 30 -35z" />
<glyph unicode="&#x112;" horiz-adv-x="510" d="M450 680v-38h-315v-269h285v-38h-285v-297h325v-38h-367v680h357zM388 785h-224v34h224v-34z" />
<glyph unicode="&#x11a;" horiz-adv-x="510" d="M450 680v-38h-315v-269h285v-38h-285v-297h325v-38h-367v680h357zM390 862v-8l-96 -124h-38l-96 124v8h26l89 -96l89 96h26z" />
<glyph unicode="&#x116;" horiz-adv-x="510" d="M450 680v-38h-315v-269h285v-38h-285v-297h325v-38h-367v680h357zM241 797c0 21 15 38 33 38s33 -17 33 -38s-15 -38 -33 -38s-33 17 -33 38z" />
<glyph unicode="&#x118;" horiz-adv-x="510" d="M450 680v-38h-315v-269h285v-38h-285v-297h325v-38h-18c-37 -30 -59 -66 -59 -108c0 -33 18 -58 49 -58c13 0 23 3 32 6v-32c-11 -5 -24 -7 -37 -7c-42 0 -84 23 -84 83c0 41 25 85 61 116h-311v680h357z" />
<glyph horiz-adv-x="580" d="M537 647l-15 -35c-27 16 -72 40 -140 39c-124 -1 -256 -93 -273 -278h344l-10 -38h-336v-2c0 -177 112 -304 277 -304c57 0 100 14 140 39l12 -36c-34 -23 -97 -42 -155 -42c-188 0 -318 147 -318 339c0 246 168 361 320 361c71 0 126 -24 154 -43zM331 730v8l101 124h49 v-10l-124 -122h-26z" />
<glyph horiz-adv-x="580" d="M537 647l-15 -35c-27 16 -72 40 -140 39c-124 -1 -256 -93 -273 -278h344l-10 -38h-336v-2c0 -177 112 -304 277 -304c57 0 100 14 140 39l12 -36c-34 -23 -97 -42 -155 -42c-188 0 -318 147 -318 339c0 246 168 361 320 361c71 0 126 -24 154 -43zM401 738v-8h-26 l-124 122v10h49z" />
<glyph horiz-adv-x="580" d="M537 647l-15 -35c-27 16 -72 40 -140 39c-124 -1 -256 -93 -273 -278h344l-10 -38h-336v-2c0 -177 112 -304 277 -304c57 0 100 14 140 39l12 -36c-34 -23 -97 -42 -155 -42c-188 0 -318 147 -318 339c0 246 168 361 320 361c71 0 126 -24 154 -43zM480 738v-8h-26 l-89 96l-89 -96h-26v8l96 124h38z" />
<glyph horiz-adv-x="580" d="M537 647l-15 -35c-27 16 -72 40 -140 39c-124 -1 -256 -93 -273 -278h344l-10 -38h-336v-2c0 -177 112 -304 277 -304c57 0 100 14 140 39l12 -36c-34 -23 -97 -42 -155 -42c-188 0 -318 147 -318 339c0 246 168 361 320 361c71 0 126 -24 154 -43zM466 782 c0 -21 -16 -33 -30 -33c-15 0 -30 11 -30 33c0 19 14 35 30 35s30 -14 30 -35zM326 782c0 -21 -16 -33 -30 -33c-15 0 -30 11 -30 33c0 19 14 35 30 35s30 -14 30 -35z" />
<glyph horiz-adv-x="580" d="M537 647l-15 -35c-27 16 -72 40 -140 39c-124 -1 -256 -93 -273 -278h344l-10 -38h-336v-2c0 -177 112 -304 277 -304c57 0 100 14 140 39l12 -36c-34 -23 -97 -42 -155 -42c-188 0 -318 147 -318 339c0 246 168 361 320 361c71 0 126 -24 154 -43zM478 785h-224v34h224 v-34z" />
<glyph horiz-adv-x="580" d="M537 647l-15 -35c-27 16 -72 40 -140 39c-124 -1 -256 -93 -273 -278h344l-10 -38h-336v-2c0 -177 112 -304 277 -304c57 0 100 14 140 39l12 -36c-34 -23 -97 -42 -155 -42c-188 0 -318 147 -318 339c0 246 168 361 320 361c71 0 126 -24 154 -43zM480 862v-8l-96 -124 h-38l-96 124v8h26l89 -96l89 96h26z" />
<glyph horiz-adv-x="580" d="M537 647l-15 -35c-27 16 -72 40 -140 39c-124 -1 -256 -93 -273 -278h344l-10 -38h-336v-2c0 -177 112 -304 277 -304c57 0 100 14 140 39l12 -36c-34 -23 -97 -42 -155 -42c-188 0 -318 147 -318 339c0 246 168 361 320 361c71 0 126 -24 154 -43zM331 797 c0 21 15 38 33 38s33 -17 33 -38s-15 -38 -33 -38s-33 17 -33 38z" />
<glyph horiz-adv-x="580" d="M537 647l-15 -35c-27 16 -72 40 -140 39c-124 -1 -256 -93 -273 -278h344l-10 -38h-336v-2c0 -177 112 -304 277 -304c57 0 100 14 140 39l12 -36c-15 -10 -35 -20 -58 -27c-40 -31 -65 -68 -65 -113c0 -33 18 -58 49 -58c13 0 23 3 32 6v-32c-11 -5 -24 -7 -37 -7 c-42 0 -84 23 -84 83c0 38 21 79 53 110c-15 -3 -30 -4 -45 -4c-188 0 -318 147 -318 339c0 246 168 361 320 361c71 0 126 -24 154 -43z" />
<glyph unicode="&#x11e;" horiz-adv-x="710" d="M391 651c-152 0 -284 -117 -284 -318c0 -182 119 -304 290 -304c79 0 147 31 180 62v215h-213v38h255v-272c-58 -49 -139 -82 -221 -82c-213 0 -335 154 -335 339c0 209 136 361 330 361c91 0 163 -33 212 -74l-21 -34c-43 37 -100 69 -193 69zM389 730 c-61 0 -119 39 -119 132h29c0 -49 34 -97 91 -97c51 0 91 40 91 97h29c0 -93 -60 -132 -121 -132z" />
<glyph unicode="&#x120;" horiz-adv-x="710" d="M391 651c-152 0 -284 -117 -284 -318c0 -182 119 -304 290 -304c79 0 147 31 180 62v215h-213v38h255v-272c-58 -49 -139 -82 -221 -82c-213 0 -335 154 -335 339c0 209 136 361 330 361c91 0 163 -33 212 -74l-21 -34c-43 37 -100 69 -193 69zM355 797c0 21 15 38 33 38 s33 -17 33 -38s-15 -38 -33 -38s-33 17 -33 38z" />
<glyph unicode="&#x122;" horiz-adv-x="710" d="M391 651c-152 0 -284 -117 -284 -318c0 -182 119 -304 290 -304c79 0 147 31 180 62v215h-213v38h255v-272c-58 -49 -139 -82 -221 -82c-213 0 -335 154 -335 339c0 209 136 361 330 361c91 0 163 -33 212 -74l-21 -34c-43 37 -100 69 -193 69zM354 -201h-28 c21 46 41 100 59 154h39v-6c-21 -51 -41 -104 -70 -148z" />
<glyph horiz-adv-x="730" d="M380 651c-133 0 -273 -114 -273 -318c0 -184 122 -304 280 -304c133 0 228 101 226 277h-249v40h293c7 -248 -118 -356 -270 -356c-200 0 -324 154 -324 339c0 209 136 361 320 361c106 0 191 -53 240 -130l-29 -24c-62 87 -134 115 -214 115zM380 730 c-61 0 -119 39 -119 132h29c0 -49 34 -97 91 -97c51 0 91 40 91 97h29c0 -93 -60 -132 -121 -132z" />
<glyph horiz-adv-x="730" d="M380 651c-133 0 -273 -114 -273 -318c0 -184 122 -304 280 -304c133 0 228 101 226 277h-249v40h293c7 -248 -118 -356 -270 -356c-200 0 -324 154 -324 339c0 209 136 361 320 361c106 0 191 -53 240 -130l-29 -24c-62 87 -134 115 -214 115zM346 797c0 21 15 38 33 38 s33 -17 33 -38s-15 -38 -33 -38s-33 17 -33 38z" />
<glyph horiz-adv-x="730" d="M380 651c-133 0 -273 -114 -273 -318c0 -184 122 -304 280 -304c133 0 228 101 226 277h-249v40h293c7 -248 -118 -356 -270 -356c-200 0 -324 154 -324 339c0 209 136 361 320 361c106 0 191 -53 240 -130l-29 -24c-62 87 -134 115 -214 115zM351 -201h-28 c21 46 41 100 59 154h39v-6c-21 -51 -41 -104 -70 -148z" />
<glyph unicode="&#x126;" horiz-adv-x="690" d="M651 543v-36h-54v-507h-42v335h-420v-335h-42v507h-54v36h54v137h42v-137h420v137h42v-137h54zM135 373h420v134h-420v-134z" />
<glyph unicode="&#xcd;" horiz-adv-x="270" d="M156 680v-680h-42v680h42zM100 730v8l101 124h49v-10l-124 -122h-26z" />
<glyph unicode="&#xcc;" horiz-adv-x="270" d="M156 680v-680h-42v680h42zM170 738v-8h-26l-124 122v10h49z" />
<glyph unicode="&#xce;" horiz-adv-x="270" d="M156 680v-680h-42v680h42zM249 738v-8h-26l-89 96l-89 -96h-26v8l96 124h38z" />
<glyph unicode="&#xcf;" horiz-adv-x="270" d="M156 680v-680h-42v680h42zM235 782c0 -21 -16 -33 -30 -33c-15 0 -30 11 -30 33c0 19 14 35 30 35s30 -14 30 -35zM95 782c0 -21 -16 -33 -30 -33c-15 0 -30 11 -30 33c0 19 14 35 30 35s30 -14 30 -35z" />
<glyph unicode="&#x12a;" horiz-adv-x="270" d="M156 680v-680h-42v680h42zM247 785h-224v34h224v-34z" />
<glyph unicode="&#x130;" horiz-adv-x="270" d="M156 680v-680h-42v680h42zM100 797c0 21 15 38 33 38s33 -17 33 -38s-15 -38 -33 -38s-33 17 -33 38z" />
<glyph unicode="&#x12e;" horiz-adv-x="270" d="M156 680v-680h-18c-37 -30 -59 -66 -59 -108c0 -33 18 -58 49 -58c13 0 23 3 32 6v-32c-11 -5 -24 -7 -37 -7c-42 0 -84 23 -84 83c0 47 31 96 75 127v669h42z" />
<glyph unicode="&#x136;" horiz-adv-x="600" d="M532 661l-276 -279l308 -364v-3l-30 -21l-305 363l-94 -94v-263h-42v680h42v-365h2l366 372l29 -24v-2zM274 -201h-28c21 46 41 100 59 154h39v-6c-21 -51 -41 -104 -70 -148z" />
<glyph unicode="&#x139;" horiz-adv-x="490" d="M135 680v-642h312v-38h-354v680h42zM85 730v8l101 124h49v-10l-124 -122h-26z" />
<glyph unicode="&#x13b;" horiz-adv-x="490" d="M135 680v-642h312v-38h-354v680h42zM238 -201h-28c21 46 41 100 59 154h39v-6c-21 -51 -41 -104 -70 -148z" />
<glyph unicode="&#xd1;" horiz-adv-x="750" d="M117 687l494 -605l4 2v596h42v-680l-24 -7l-494 604l-4 -2v-595h-42v679zM478 865h30c0 -69 -37 -110 -78 -110c-51 0 -71 80 -109 80c-33 0 -52 -32 -52 -78h-28c0 71 37 110 79 110c54 0 72 -81 111 -81c29 0 47 35 47 79z" />
<glyph unicode="&#x143;" horiz-adv-x="750" d="M117 687l494 -605l4 2v596h42v-680l-24 -7l-494 604l-4 -2v-595h-42v679zM340 730v8l101 124h49v-10l-124 -122h-26z" />
<glyph horiz-adv-x="750" d="M117 687l494 -605l4 2v596h42v-680l-24 -7l-494 604l-4 -2v-595h-42v679zM360 730v8l56 124h44v-10l-74 -122h-26z" />
<glyph unicode="&#x147;" horiz-adv-x="750" d="M117 687l494 -605l4 2v596h42v-680l-24 -7l-494 604l-4 -2v-595h-42v679zM489 862v-8l-96 -124h-38l-96 124v8h26l89 -96l89 96h26z" />
<glyph unicode="&#x145;" horiz-adv-x="750" d="M117 687l494 -605l4 2v596h42v-680l-24 -7l-494 604l-4 -2v-595h-42v679zM335 -201h-28c21 46 41 100 59 154h39v-6c-21 -51 -41 -104 -70 -148z" />
<glyph unicode="&#xd3;" horiz-adv-x="770" d="M707 335c0 -187 -127 -345 -321 -345s-323 153 -323 345c0 215 157 355 323 355c171 0 321 -137 321 -355zM663 337c0 182 -115 314 -277 314c-148 0 -279 -122 -279 -314c0 -166 103 -308 279 -308c170 0 277 142 277 308zM350 730v8l101 124h49v-10l-124 -122h-26z" />
<glyph horiz-adv-x="770" d="M707 335c0 -187 -127 -345 -321 -345s-323 153 -323 345c0 215 157 355 323 355c171 0 321 -137 321 -355zM663 337c0 182 -115 314 -277 314c-148 0 -279 -122 -279 -314c0 -166 103 -308 279 -308c170 0 277 142 277 308zM370 730v8l56 124h44v-10l-74 -122h-26z" />
<glyph unicode="&#xd2;" horiz-adv-x="770" d="M707 335c0 -187 -127 -345 -321 -345s-323 153 -323 345c0 215 157 355 323 355c171 0 321 -137 321 -355zM663 337c0 182 -115 314 -277 314c-148 0 -279 -122 -279 -314c0 -166 103 -308 279 -308c170 0 277 142 277 308zM420 738v-8h-26l-124 122v10h49z" />
<glyph unicode="&#xd4;" horiz-adv-x="770" d="M707 335c0 -187 -127 -345 -321 -345s-323 153 -323 345c0 215 157 355 323 355c171 0 321 -137 321 -355zM663 337c0 182 -115 314 -277 314c-148 0 -279 -122 -279 -314c0 -166 103 -308 279 -308c170 0 277 142 277 308zM499 738v-8h-26l-89 96l-89 -96h-26v8l96 124 h38z" />
<glyph unicode="&#xd6;" horiz-adv-x="770" d="M707 335c0 -187 -127 -345 -321 -345s-323 153 -323 345c0 215 157 355 323 355c171 0 321 -137 321 -355zM663 337c0 182 -115 314 -277 314c-148 0 -279 -122 -279 -314c0 -166 103 -308 279 -308c170 0 277 142 277 308zM485 782c0 -21 -16 -33 -30 -33 c-15 0 -30 11 -30 33c0 19 14 35 30 35s30 -14 30 -35zM345 782c0 -21 -16 -33 -30 -33c-15 0 -30 11 -30 33c0 19 14 35 30 35s30 -14 30 -35z" />
<glyph unicode="&#xd5;" horiz-adv-x="770" d="M707 335c0 -187 -127 -345 -321 -345s-323 153 -323 345c0 215 157 355 323 355c171 0 321 -137 321 -355zM663 337c0 182 -115 314 -277 314c-148 0 -279 -122 -279 -314c0 -166 103 -308 279 -308c170 0 277 142 277 308zM488 865h30c0 -69 -37 -110 -78 -110 c-51 0 -71 80 -109 80c-33 0 -52 -32 -52 -78h-28c0 71 37 110 79 110c54 0 72 -81 111 -81c29 0 47 35 47 79z" />
<glyph unicode="&#x14c;" horiz-adv-x="770" d="M707 335c0 -187 -127 -345 -321 -345s-323 153 -323 345c0 215 157 355 323 355c171 0 321 -137 321 -355zM663 337c0 182 -115 314 -277 314c-148 0 -279 -122 -279 -314c0 -166 103 -308 279 -308c170 0 277 142 277 308zM497 785h-224v34h224v-34z" />
<glyph unicode="&#x150;" horiz-adv-x="770" d="M707 335c0 -187 -127 -345 -321 -345s-323 153 -323 345c0 215 157 355 323 355c171 0 321 -137 321 -355zM663 337c0 182 -115 314 -277 314c-148 0 -279 -122 -279 -314c0 -166 103 -308 279 -308c170 0 277 142 277 308zM310 730v8l101 124h49v-10l-124 -122h-26z M420 730v8l101 124h49v-10l-124 -122h-26z" />
<glyph unicode="&#x154;" horiz-adv-x="570" d="M477 495c0 -124 -79 -172 -167 -189l213 -291v-3l-34 -19l-224 307h-130v-300h-42v680h163c137 0 221 -71 221 -185zM433 495c0 93 -69 147 -176 147h-122v-304h118c95 0 180 39 180 157zM224 730v8l101 124h49v-10l-124 -122h-26z" />
<glyph unicode="&#x158;" horiz-adv-x="570" d="M477 495c0 -124 -79 -172 -167 -189l213 -291v-3l-34 -19l-224 307h-130v-300h-42v680h163c137 0 221 -71 221 -185zM433 495c0 93 -69 147 -176 147h-122v-304h118c95 0 180 39 180 157zM373 862v-8l-96 -124h-38l-96 124v8h26l89 -96l89 96h26z" />
<glyph horiz-adv-x="600" d="M293 355v-4c128 -55 223 -269 289 -346v-5h-44c-60 69 -186 345 -338 345h-65v-345h-42v680h140c131 0 211 -65 211 -168c0 -94 -72 -148 -151 -157zM400 513c0 87 -73 129 -166 129h-99v-259h109c92 0 156 52 156 130zM200 730v8l101 124h49v-10l-124 -122h-26z" />
<glyph horiz-adv-x="600" d="M293 355v-4c128 -55 223 -269 289 -346v-5h-44c-60 69 -186 345 -338 345h-65v-345h-42v680h140c131 0 211 -65 211 -168c0 -94 -72 -148 -151 -157zM400 513c0 87 -73 129 -166 129h-99v-259h109c92 0 156 52 156 130zM349 862v-8l-96 -124h-38l-96 124v8h26l89 -96 l89 96h26z" />
<glyph unicode="&#x160;" horiz-adv-x="510" d="M409 590h-3c-48 45 -94 62 -152 62c-90 0 -139 -55 -139 -118c0 -66 39 -103 167 -171c121 -64 167 -115 167 -207c0 -103 -86 -166 -199 -166c-91 0 -161 39 -189 73l22 35h1c43 -46 100 -69 168 -69c111 0 153 57 153 132c0 69 -40 112 -154 173 c-127 68 -180 109 -180 193c0 81 66 163 183 163c74 0 136 -30 176 -70zM369 862v-8l-96 -124h-38l-96 124v8h26l89 -96l89 96h26z" />
<glyph unicode="&#x15a;" horiz-adv-x="510" d="M409 590h-3c-48 45 -94 62 -152 62c-90 0 -139 -55 -139 -118c0 -66 39 -103 167 -171c121 -64 167 -115 167 -207c0 -103 -86 -166 -199 -166c-91 0 -161 39 -189 73l22 35h1c43 -46 100 -69 168 -69c111 0 153 57 153 132c0 69 -40 112 -154 173 c-127 68 -180 109 -180 193c0 81 66 163 183 163c74 0 136 -30 176 -70zM220 730v8l101 124h49v-10l-124 -122h-26z" />
<glyph horiz-adv-x="510" d="M409 590h-3c-48 45 -94 62 -152 62c-90 0 -139 -55 -139 -118c0 -66 39 -103 167 -171c121 -64 167 -115 167 -207c0 -103 -86 -166 -199 -166c-91 0 -161 39 -189 73l22 35h1c43 -46 100 -69 168 -69c111 0 153 57 153 132c0 69 -40 112 -154 173 c-127 68 -180 109 -180 193c0 81 66 163 183 163c74 0 136 -30 176 -70zM240 730v8l56 124h44v-10l-74 -122h-26z" />
<glyph unicode="&#x15e;" horiz-adv-x="510" d="M220 -199l-9 25c56 9 92 27 92 53c0 30 -36 39 -76 39c-8 0 -23 -1 -30 -2l-4 9l43 66c-84 3 -149 39 -175 72l22 35h1c43 -46 100 -69 168 -69c111 0 153 57 153 132c0 69 -40 112 -154 173c-127 68 -180 109 -180 193c0 81 66 163 183 163c74 0 136 -30 176 -70 l-21 -30h-3c-48 45 -94 62 -152 62c-90 0 -139 -55 -139 -118c0 -66 39 -103 167 -171c121 -64 167 -115 167 -207c0 -97 -76 -158 -179 -165l-30 -46c59 0 98 -18 98 -62c0 -42 -51 -71 -118 -82z" />
<glyph unicode="&#x218;" horiz-adv-x="510" d="M409 590h-3c-48 45 -94 62 -152 62c-90 0 -139 -55 -139 -118c0 -66 39 -103 167 -171c121 -64 167 -115 167 -207c0 -103 -86 -166 -199 -166c-91 0 -161 39 -189 73l22 35h1c43 -46 100 -69 168 -69c111 0 153 57 153 132c0 69 -40 112 -154 173 c-127 68 -180 109 -180 193c0 81 66 163 183 163c74 0 136 -30 176 -70zM208 -201h-28c21 46 41 100 59 154h39v-6c-21 -51 -41 -104 -70 -148z" />
<glyph unicode="&#x164;" horiz-adv-x="560" d="M532 642h-231v-642h-42v642h-231v38h504v-38zM394 862v-8l-96 -124h-38l-96 124v8h26l89 -96l89 96h26z" />
<glyph unicode="&#x162;" horiz-adv-x="560" d="M532 642h-231v-642h-42v642h-231v38h504v-38zM240 -201h-28c21 46 41 100 59 154h39v-6c-21 -51 -41 -104 -70 -148z" />
<glyph unicode="&#x21a;" horiz-adv-x="560" d="M532 642h-231v-642h-42v642h-231v38h504v-38zM240 -201h-28c21 46 41 100 59 154h39v-6c-21 -51 -41 -104 -70 -148z" />
<glyph unicode="&#xda;" horiz-adv-x="690" d="M597 680v-433c0 -139 -78 -257 -252 -257c-191 0 -252 120 -252 257v433h42v-426c0 -161 85 -226 210 -226c122 0 210 63 210 226v426h42zM310 730v8l101 124h49v-10l-124 -122h-26z" />
<glyph unicode="&#xd9;" horiz-adv-x="690" d="M597 680v-433c0 -139 -78 -257 -252 -257c-191 0 -252 120 -252 257v433h42v-426c0 -161 85 -226 210 -226c122 0 210 63 210 226v426h42zM380 738v-8h-26l-124 122v10h49z" />
<glyph unicode="&#xdb;" horiz-adv-x="690" d="M597 680v-433c0 -139 -78 -257 -252 -257c-191 0 -252 120 -252 257v433h42v-426c0 -161 85 -226 210 -226c122 0 210 63 210 226v426h42zM459 738v-8h-26l-89 96l-89 -96h-26v8l96 124h38z" />
<glyph unicode="&#xdc;" horiz-adv-x="690" d="M597 680v-433c0 -139 -78 -257 -252 -257c-191 0 -252 120 -252 257v433h42v-426c0 -161 85 -226 210 -226c122 0 210 63 210 226v426h42zM445 782c0 -21 -16 -33 -30 -33c-15 0 -30 11 -30 33c0 19 14 35 30 35s30 -14 30 -35zM305 782c0 -21 -16 -33 -30 -33 c-15 0 -30 11 -30 33c0 19 14 35 30 35s30 -14 30 -35z" />
<glyph unicode="&#x16a;" horiz-adv-x="690" d="M597 680v-433c0 -139 -78 -257 -252 -257c-191 0 -252 120 -252 257v433h42v-426c0 -161 85 -226 210 -226c122 0 210 63 210 226v426h42zM457 785h-224v34h224v-34z" />
<glyph unicode="&#x170;" horiz-adv-x="690" d="M597 680v-433c0 -139 -78 -257 -252 -257c-191 0 -252 120 -252 257v433h42v-426c0 -161 85 -226 210 -226c122 0 210 63 210 226v426h42zM270 730v8l101 124h49v-10l-124 -122h-26zM380 730v8l101 124h49v-10l-124 -122h-26z" />
<glyph unicode="&#x16e;" horiz-adv-x="690" d="M597 680v-433c0 -139 -78 -257 -252 -257c-191 0 -252 120 -252 257v433h42v-426c0 -161 85 -226 210 -226c122 0 210 63 210 226v426h42zM256 824c0 49 40 89 89 89s89 -40 89 -89s-40 -89 -89 -89s-89 40 -89 89zM288 824c0 -38 23 -60 56 -60c32 0 57 24 57 60 s-25 60 -57 60c-33 0 -56 -26 -56 -60z" />
<glyph unicode="&#x172;" horiz-adv-x="690" d="M597 680v-433c0 -108 -47 -204 -150 -241c-42 -31 -67 -69 -67 -114c0 -33 18 -58 49 -58c13 0 23 3 32 6v-32c-11 -5 -24 -7 -37 -7c-42 0 -84 23 -84 83c0 38 21 79 53 110c-15 -2 -31 -4 -48 -4c-191 0 -252 120 -252 257v433h42v-426c0 -161 85 -226 210 -226 c122 0 210 63 210 226v426h42z" />
<glyph unicode="&#x1e82;" horiz-adv-x="870" d="M437 562h-2l-156 -572h-14l-237 680l41 15l198 -581h4l157 589h14l160 -589h4l195 581l41 -15l-237 -680h-14zM400 730v8l101 124h49v-10l-124 -122h-26z" />
<glyph unicode="&#x174;" horiz-adv-x="870" d="M437 562h-2l-156 -572h-14l-237 680l41 15l198 -581h4l157 589h14l160 -589h4l195 581l41 -15l-237 -680h-14zM549 738v-8h-26l-89 96l-89 -96h-26v8l96 124h38z" />
<glyph unicode="&#x1e84;" horiz-adv-x="870" d="M437 562h-2l-156 -572h-14l-237 680l41 15l198 -581h4l157 589h14l160 -589h4l195 581l41 -15l-237 -680h-14zM535 782c0 -21 -16 -33 -30 -33c-15 0 -30 11 -30 33c0 19 14 35 30 35s30 -14 30 -35zM395 782c0 -21 -16 -33 -30 -33c-15 0 -30 11 -30 33 c0 19 14 35 30 35s30 -14 30 -35z" />
<glyph unicode="&#x1e80;" horiz-adv-x="870" d="M437 562h-2l-156 -572h-14l-237 680l41 15l198 -581h4l157 589h14l160 -589h4l195 581l41 -15l-237 -680h-14zM470 738v-8h-26l-124 122v10h49z" />
<glyph horiz-adv-x="870" d="M328 685l108 -275l109 275l37 -15l-125 -313l108 -273h2l238 601l37 -15l-272 -680h-10l-125 312l-125 -312h-10l-272 680l40 15l237 -601h2l107 270l-126 316zM397 730v8l101 124h49v-10l-124 -122h-26z" />
<glyph horiz-adv-x="870" d="M328 685l108 -275l109 275l37 -15l-125 -313l108 -273h2l238 601l37 -15l-272 -680h-10l-125 312l-125 -312h-10l-272 680l40 15l237 -601h2l107 270l-126 316zM546 738v-8h-26l-89 96l-89 -96h-26v8l96 124h38z" />
<glyph horiz-adv-x="870" d="M328 685l108 -275l109 275l37 -15l-125 -313l108 -273h2l238 601l37 -15l-272 -680h-10l-125 312l-125 -312h-10l-272 680l40 15l237 -601h2l107 270l-126 316zM532 782c0 -21 -16 -33 -30 -33c-15 0 -30 11 -30 33c0 19 14 35 30 35s30 -14 30 -35zM392 782 c0 -21 -16 -33 -30 -33c-15 0 -30 11 -30 33c0 19 14 35 30 35s30 -14 30 -35z" />
<glyph horiz-adv-x="870" d="M328 685l108 -275l109 275l37 -15l-125 -313l108 -273h2l238 601l37 -15l-272 -680h-10l-125 312l-125 -312h-10l-272 680l40 15l237 -601h2l107 270l-126 316zM467 738v-8h-26l-124 122v10h49z" />
<glyph unicode="&#xdd;" horiz-adv-x="590" d="M66 685l229 -339h2l225 339l35 -22l-241 -360v-303h-42v303l-241 360zM260 730v8l101 124h49v-10l-124 -122h-26z" />
<glyph unicode="&#x178;" horiz-adv-x="590" d="M66 685l229 -339h2l225 339l35 -22l-241 -360v-303h-42v303l-241 360zM395 782c0 -21 -16 -33 -30 -33c-15 0 -30 11 -30 33c0 19 14 35 30 35s30 -14 30 -35zM255 782c0 -21 -16 -33 -30 -33c-15 0 -30 11 -30 33c0 19 14 35 30 35s30 -14 30 -35z" />
<glyph unicode="&#x176;" horiz-adv-x="590" d="M66 685l229 -339h2l225 339l35 -22l-241 -360v-303h-42v303l-241 360zM409 738v-8h-26l-89 96l-89 -96h-26v8l96 124h38z" />
<glyph unicode="&#x1ef2;" horiz-adv-x="590" d="M66 685l229 -339h2l225 339l35 -22l-241 -360v-303h-42v303l-241 360zM330 738v-8h-26l-124 122v10h49z" />
<glyph unicode="&#x17d;" horiz-adv-x="590" d="M99 43l4 -5h439v-38h-515l-3 5l455 633l-3 4h-408v38h481l4 -5zM422 862v-8l-96 -124h-38l-96 124v8h26l89 -96l89 96h26z" />
<glyph unicode="&#x179;" horiz-adv-x="590" d="M99 43l4 -5h439v-38h-515l-3 5l455 633l-3 4h-408v38h481l4 -5zM273 730v8l101 124h49v-10l-124 -122h-26z" />
<glyph horiz-adv-x="590" d="M99 43l4 -5h439v-38h-515l-3 5l455 633l-3 4h-408v38h481l4 -5zM293 730v8l56 124h44v-10l-74 -122h-26z" />
<glyph unicode="&#x17b;" horiz-adv-x="590" d="M99 43l4 -5h439v-38h-515l-3 5l455 633l-3 4h-408v38h481l4 -5zM273 797c0 21 15 38 33 38s33 -17 33 -38s-15 -38 -33 -38s-33 17 -33 38z" />
<glyph unicode="&#xe1;" horiz-adv-x="450" d="M402 15v-2l-29 -24c-23 18 -40 42 -44 74h-3c-33 -51 -82 -73 -136 -73c-79 0 -137 52 -137 125c0 69 48 141 180 141c29 0 62 -4 92 -10v55c0 90 -57 120 -103 120c-43 0 -84 -13 -129 -43l-16 33c34 23 89 47 150 47c67 0 138 -43 138 -147v-219c0 -36 16 -65 37 -77z M325 125v85c-21 5 -55 11 -93 11c-90 0 -137 -40 -137 -106c0 -54 42 -88 98 -88c62 0 111 37 132 98zM185 518v3l101 159h49v-4l-124 -158h-26z" />
<glyph unicode="&#xe0;" horiz-adv-x="450" d="M402 15v-2l-29 -24c-23 18 -40 42 -44 74h-3c-33 -51 -82 -73 -136 -73c-79 0 -137 52 -137 125c0 69 48 141 180 141c29 0 62 -4 92 -10v55c0 90 -57 120 -103 120c-43 0 -84 -13 -129 -43l-16 33c34 23 89 47 150 47c67 0 138 -43 138 -147v-219c0 -36 16 -65 37 -77z M325 125v85c-21 5 -55 11 -93 11c-90 0 -137 -40 -137 -106c0 -54 42 -88 98 -88c62 0 111 37 132 98zM255 521v-3h-26l-124 158v4h49z" />
<glyph unicode="&#xe2;" horiz-adv-x="450" d="M402 15v-2l-29 -24c-23 18 -40 42 -44 74h-3c-33 -51 -82 -73 -136 -73c-79 0 -137 52 -137 125c0 69 48 141 180 141c29 0 62 -4 92 -10v55c0 90 -57 120 -103 120c-43 0 -84 -13 -129 -43l-16 33c34 23 89 47 150 47c67 0 138 -43 138 -147v-219c0 -36 16 -65 37 -77z M325 125v85c-21 5 -55 11 -93 11c-90 0 -137 -40 -137 -106c0 -54 42 -88 98 -88c62 0 111 37 132 98zM334 524v-6h-26l-89 126l-89 -126h-26v6l96 156h38z" />
<glyph unicode="&#xe4;" horiz-adv-x="450" d="M402 15v-2l-29 -24c-23 18 -40 42 -44 74h-3c-33 -51 -82 -73 -136 -73c-79 0 -137 52 -137 125c0 69 48 141 180 141c29 0 62 -4 92 -10v55c0 90 -57 120 -103 120c-43 0 -84 -13 -129 -43l-16 33c34 23 89 47 150 47c67 0 138 -43 138 -147v-219c0 -36 16 -65 37 -77z M325 125v85c-21 5 -55 11 -93 11c-90 0 -137 -40 -137 -106c0 -54 42 -88 98 -88c62 0 111 37 132 98zM320 560c0 -21 -16 -33 -30 -33c-15 0 -30 11 -30 33c0 19 14 35 30 35s30 -14 30 -35zM180 560c0 -21 -16 -33 -30 -33c-15 0 -30 11 -30 33c0 19 14 35 30 35 s30 -14 30 -35z" />
<glyph unicode="&#xe3;" horiz-adv-x="450" d="M402 15v-2l-29 -24c-23 18 -40 42 -44 74h-3c-33 -51 -82 -73 -136 -73c-79 0 -137 52 -137 125c0 69 48 141 180 141c29 0 62 -4 92 -10v55c0 90 -57 120 -103 120c-43 0 -84 -13 -129 -43l-16 33c34 23 89 47 150 47c67 0 138 -43 138 -147v-219c0 -36 16 -65 37 -77z M325 125v85c-21 5 -55 11 -93 11c-90 0 -137 -40 -137 -106c0 -54 42 -88 98 -88c62 0 111 37 132 98zM323 643h30c0 -69 -37 -110 -78 -110c-51 0 -71 80 -109 80c-33 0 -52 -32 -52 -78h-28c0 71 37 110 79 110c54 0 72 -81 111 -81c29 0 47 35 47 79z" />
<glyph unicode="&#xe5;" horiz-adv-x="450" d="M402 15v-2l-29 -24c-23 18 -40 42 -44 74h-3c-33 -51 -82 -73 -136 -73c-79 0 -137 52 -137 125c0 69 48 141 180 141c29 0 62 -4 92 -10v55c0 90 -57 120 -103 120c-43 0 -84 -13 -129 -43l-16 33c34 23 89 47 150 47c67 0 138 -43 138 -147v-219c0 -36 16 -65 37 -77z M325 125v85c-21 5 -55 11 -93 11c-90 0 -137 -40 -137 -106c0 -54 42 -88 98 -88c62 0 111 37 132 98zM131 602c0 49 40 89 89 89s89 -40 89 -89s-40 -89 -89 -89s-89 40 -89 89zM163 602c0 -38 23 -60 56 -60c32 0 57 24 57 60s-25 60 -57 60c-33 0 -56 -26 -56 -60z" />
<glyph unicode="&#x103;" horiz-adv-x="450" d="M402 15v-2l-29 -24c-23 18 -40 42 -44 74h-3c-33 -51 -82 -73 -136 -73c-79 0 -137 52 -137 125c0 69 48 141 180 141c29 0 62 -4 92 -10v55c0 90 -57 120 -103 120c-43 0 -84 -13 -129 -43l-16 33c34 23 89 47 150 47c67 0 138 -43 138 -147v-219c0 -36 16 -65 37 -77z M325 125v85c-21 5 -55 11 -93 11c-90 0 -137 -40 -137 -106c0 -54 42 -88 98 -88c62 0 111 37 132 98zM219 508c-61 0 -119 55 -119 172h29c0 -66 34 -137 91 -137c51 0 91 56 91 137h29c0 -116 -60 -172 -121 -172z" />
<glyph unicode="&#x101;" horiz-adv-x="450" d="M402 15v-2l-29 -24c-23 18 -40 42 -44 74h-3c-33 -51 -82 -73 -136 -73c-79 0 -137 52 -137 125c0 69 48 141 180 141c29 0 62 -4 92 -10v55c0 90 -57 120 -103 120c-43 0 -84 -13 -129 -43l-16 33c34 23 89 47 150 47c67 0 138 -43 138 -147v-219c0 -36 16 -65 37 -77z M325 125v85c-21 5 -55 11 -93 11c-90 0 -137 -40 -137 -106c0 -54 42 -88 98 -88c62 0 111 37 132 98zM332 563h-224v34h224v-34z" />
<glyph unicode="&#x105;" horiz-adv-x="450" d="M402 15v-2l-29 -24h-1c-29 -28 -46 -60 -46 -97c0 -33 18 -58 49 -58c13 0 23 3 32 6v-32c-11 -5 -24 -7 -37 -7c-42 0 -84 23 -84 83c0 44 28 91 68 122c-13 16 -22 34 -25 57h-3c-33 -51 -82 -73 -136 -73c-79 0 -137 52 -137 125c0 69 48 141 180 141 c29 0 62 -4 92 -10v55c0 90 -57 120 -103 120c-43 0 -84 -13 -129 -43l-16 33c34 23 89 47 150 47c67 0 138 -43 138 -147v-219c0 -36 16 -65 37 -77zM325 125v85c-21 5 -55 11 -93 11c-90 0 -137 -40 -137 -106c0 -54 42 -88 98 -88c62 0 111 37 132 98z" />
<glyph horiz-adv-x="480" d="M365 71h-4c-40 -53 -90 -81 -140 -81c-96 0 -166 78 -166 217c0 142 75 251 188 251c52 0 95 -31 119 -68h3v58h40v-448h-36zM226 27c49 0 106 39 139 108v204c-24 45 -73 82 -117 82c-101 0 -151 -93 -151 -208c0 -127 54 -186 129 -186zM212 518v3l101 159h49v-4 l-124 -158h-26z" />
<glyph horiz-adv-x="480" d="M365 71h-4c-40 -53 -90 -81 -140 -81c-96 0 -166 78 -166 217c0 142 75 251 188 251c52 0 95 -31 119 -68h3v58h40v-448h-36zM226 27c49 0 106 39 139 108v204c-24 45 -73 82 -117 82c-101 0 -151 -93 -151 -208c0 -127 54 -186 129 -186zM282 521v-3h-26l-124 158v4h49z " />
<glyph horiz-adv-x="480" d="M365 71h-4c-40 -53 -90 -81 -140 -81c-96 0 -166 78 -166 217c0 142 75 251 188 251c52 0 95 -31 119 -68h3v58h40v-448h-36zM226 27c49 0 106 39 139 108v204c-24 45 -73 82 -117 82c-101 0 -151 -93 -151 -208c0 -127 54 -186 129 -186zM361 524v-6h-26l-89 126 l-89 -126h-26v6l96 156h38z" />
<glyph horiz-adv-x="480" d="M365 71h-4c-40 -53 -90 -81 -140 -81c-96 0 -166 78 -166 217c0 142 75 251 188 251c52 0 95 -31 119 -68h3v58h40v-448h-36zM226 27c49 0 106 39 139 108v204c-24 45 -73 82 -117 82c-101 0 -151 -93 -151 -208c0 -127 54 -186 129 -186zM347 560c0 -21 -16 -33 -30 -33 c-15 0 -30 11 -30 33c0 19 14 35 30 35s30 -14 30 -35zM207 560c0 -21 -16 -33 -30 -33c-15 0 -30 11 -30 33c0 19 14 35 30 35s30 -14 30 -35z" />
<glyph horiz-adv-x="480" d="M365 71h-4c-40 -53 -90 -81 -140 -81c-96 0 -166 78 -166 217c0 142 75 251 188 251c52 0 95 -31 119 -68h3v58h40v-448h-36zM226 27c49 0 106 39 139 108v204c-24 45 -73 82 -117 82c-101 0 -151 -93 -151 -208c0 -127 54 -186 129 -186zM350 643h30 c0 -69 -37 -110 -78 -110c-51 0 -71 80 -109 80c-33 0 -52 -32 -52 -78h-28c0 71 37 110 79 110c54 0 72 -81 111 -81c29 0 47 35 47 79z" />
<glyph horiz-adv-x="480" d="M365 71h-4c-40 -53 -90 -81 -140 -81c-96 0 -166 78 -166 217c0 142 75 251 188 251c52 0 95 -31 119 -68h3v58h40v-448h-36zM226 27c49 0 106 39 139 108v204c-24 45 -73 82 -117 82c-101 0 -151 -93 -151 -208c0 -127 54 -186 129 -186zM158 602c0 49 40 89 89 89 s89 -40 89 -89s-40 -89 -89 -89s-89 40 -89 89zM190 602c0 -38 23 -60 56 -60c32 0 57 24 57 60s-25 60 -57 60c-33 0 -56 -26 -56 -60z" />
<glyph horiz-adv-x="480" d="M365 71h-4c-40 -53 -90 -81 -140 -81c-96 0 -166 78 -166 217c0 142 75 251 188 251c52 0 95 -31 119 -68h3v58h40v-448h-36zM226 27c49 0 106 39 139 108v204c-24 45 -73 82 -117 82c-101 0 -151 -93 -151 -208c0 -127 54 -186 129 -186zM246 508 c-61 0 -119 55 -119 172h29c0 -66 34 -137 91 -137c51 0 91 56 91 137h29c0 -116 -60 -172 -121 -172z" />
<glyph horiz-adv-x="480" d="M365 71h-4c-40 -53 -90 -81 -140 -81c-96 0 -166 78 -166 217c0 142 75 251 188 251c52 0 95 -31 119 -68h3v58h40v-448h-36zM226 27c49 0 106 39 139 108v204c-24 45 -73 82 -117 82c-101 0 -151 -93 -151 -208c0 -127 54 -186 129 -186zM359 563h-224v34h224v-34z" />
<glyph horiz-adv-x="480" d="M365 71h-4c-40 -53 -90 -81 -140 -81c-96 0 -166 78 -166 217c0 142 75 251 188 251c52 0 95 -31 119 -68h3v58h40v-448h-15c-37 -30 -59 -66 -59 -108c0 -33 18 -58 49 -58c13 0 23 3 32 6v-32c-11 -5 -24 -7 -37 -7c-42 0 -84 23 -84 83c0 47 32 98 77 129zM226 27 c49 0 106 39 139 108v204c-24 45 -73 82 -117 82c-101 0 -151 -93 -151 -208c0 -127 54 -186 129 -186z" />
<glyph unicode="&#xe7;" horiz-adv-x="400" d="M202 -199l-9 25c56 9 92 27 92 53c0 30 -36 39 -76 39c-8 0 -23 -1 -30 -2l-4 9l44 66c-108 12 -164 104 -164 219c0 143 92 248 195 248c56 0 88 -19 121 -50l-20 -31c-29 28 -61 44 -101 44c-87 0 -153 -90 -153 -209s64 -185 147 -185c45 0 77 19 104 43l19 -30 c-26 -26 -71 -47 -115 -50l-30 -45c59 0 98 -18 98 -62c0 -42 -51 -71 -118 -82z" />
<glyph unicode="&#x107;" horiz-adv-x="400" d="M371 408l-20 -31c-29 28 -61 44 -101 44c-87 0 -153 -90 -153 -209s64 -185 147 -185c45 0 77 19 104 43l19 -30c-28 -28 -77 -50 -124 -50c-123 0 -188 97 -188 220c0 143 92 248 195 248c56 0 88 -19 121 -50zM214 516v3l101 159h49v-4l-124 -158h-26z" />
<glyph horiz-adv-x="400" d="M371 408l-20 -31c-29 28 -61 44 -101 44c-87 0 -153 -90 -153 -209s64 -185 147 -185c45 0 77 19 104 43l19 -30c-28 -28 -77 -50 -124 -50c-123 0 -188 97 -188 220c0 143 92 248 195 248c56 0 88 -19 121 -50zM229 516v3l53 159h47v-4l-74 -158h-26z" />
<glyph unicode="&#x10d;" horiz-adv-x="400" d="M371 408l-20 -31c-29 28 -61 44 -101 44c-87 0 -153 -90 -153 -209s64 -185 147 -185c45 0 77 19 104 43l19 -30c-28 -28 -77 -50 -124 -50c-123 0 -188 97 -188 220c0 143 92 248 195 248c56 0 88 -19 121 -50zM363 678v-6l-96 -156h-38l-96 156v6h26l89 -126l89 126h26 z" />
<glyph unicode="&#x10b;" horiz-adv-x="400" d="M371 408l-20 -31c-29 28 -61 44 -101 44c-87 0 -153 -90 -153 -209s64 -185 147 -185c45 0 77 19 104 43l19 -30c-28 -28 -77 -50 -124 -50c-123 0 -188 97 -188 220c0 143 92 248 195 248c56 0 88 -19 121 -50zM214 592c0 21 15 38 33 38s33 -17 33 -38s-15 -38 -33 -38 s-33 17 -33 38z" />
<glyph unicode="&#x10f;" horiz-adv-x="490" d="M375 66h-3c-36 -48 -94 -76 -146 -76c-99 0 -171 79 -171 212c0 145 77 256 193 256c49 0 98 -25 124 -60h3v282l40 12v-692h-31zM231 27c51 0 109 33 144 91v231c-29 42 -76 72 -127 72c-99 0 -151 -97 -151 -213c0 -121 56 -181 134 -181zM496 518h-28 c11 50 23 112 34 174h39v-6c-14 -59 -26 -120 -45 -168z" />
<glyph unicode="&#x111;" horiz-adv-x="490" d="M470 549h-55v-549h-31l-9 66h-3c-36 -48 -94 -76 -146 -76c-99 0 -171 79 -171 212c0 145 77 256 193 256c49 0 98 -25 124 -60h3v151h-149v34h149v97l40 12v-109h55v-34zM231 27c51 0 109 33 144 91v231c-29 42 -76 72 -127 72c-99 0 -151 -97 -151 -213 c0 -121 56 -181 134 -181z" />
<glyph unicode="&#xe9;" horiz-adv-x="450" d="M384 214h-287c1 -134 68 -187 149 -187c40 0 84 16 111 44h3l14 -31c-29 -28 -82 -50 -136 -50c-93 0 -183 70 -183 222c0 144 81 246 186 246c92 0 153 -79 153 -176c0 -17 -1 -46 -10 -68zM98 248h251c17 106 -40 173 -110 173c-78 0 -134 -76 -141 -173zM201 518v3 l101 159h49v-4l-124 -158h-26z" />
<glyph unicode="&#xe8;" horiz-adv-x="450" d="M384 214h-287c1 -134 68 -187 149 -187c40 0 84 16 111 44h3l14 -31c-29 -28 -82 -50 -136 -50c-93 0 -183 70 -183 222c0 144 81 246 186 246c92 0 153 -79 153 -176c0 -17 -1 -46 -10 -68zM98 248h251c17 106 -40 173 -110 173c-78 0 -134 -76 -141 -173zM271 521v-3 h-26l-124 158v4h49z" />
<glyph unicode="&#xea;" horiz-adv-x="450" d="M384 214h-287c1 -134 68 -187 149 -187c40 0 84 16 111 44h3l14 -31c-29 -28 -82 -50 -136 -50c-93 0 -183 70 -183 222c0 144 81 246 186 246c92 0 153 -79 153 -176c0 -17 -1 -46 -10 -68zM98 248h251c17 106 -40 173 -110 173c-78 0 -134 -76 -141 -173zM350 524v-6 h-26l-89 126l-89 -126h-26v6l96 156h38z" />
<glyph unicode="&#xeb;" horiz-adv-x="450" d="M384 214h-287c1 -134 68 -187 149 -187c40 0 84 16 111 44h3l14 -31c-29 -28 -82 -50 -136 -50c-93 0 -183 70 -183 222c0 144 81 246 186 246c92 0 153 -79 153 -176c0 -17 -1 -46 -10 -68zM98 248h251c17 106 -40 173 -110 173c-78 0 -134 -76 -141 -173zM336 560 c0 -21 -16 -33 -30 -33c-15 0 -30 11 -30 33c0 19 14 35 30 35s30 -14 30 -35zM196 560c0 -21 -16 -33 -30 -33c-15 0 -30 11 -30 33c0 19 14 35 30 35s30 -14 30 -35z" />
<glyph unicode="&#x113;" horiz-adv-x="450" d="M384 214h-287c1 -134 68 -187 149 -187c40 0 84 16 111 44h3l14 -31c-29 -28 -82 -50 -136 -50c-93 0 -183 70 -183 222c0 144 81 246 186 246c92 0 153 -79 153 -176c0 -17 -1 -46 -10 -68zM98 248h251c17 106 -40 173 -110 173c-78 0 -134 -76 -141 -173zM348 563h-224 v34h224v-34z" />
<glyph unicode="&#x11b;" horiz-adv-x="450" d="M384 214h-287c1 -134 68 -187 149 -187c40 0 84 16 111 44h3l14 -31c-29 -28 -82 -50 -136 -50c-93 0 -183 70 -183 222c0 144 81 246 186 246c92 0 153 -79 153 -176c0 -17 -1 -46 -10 -68zM98 248h251c17 106 -40 173 -110 173c-78 0 -134 -76 -141 -173zM350 680v-6 l-96 -156h-38l-96 156v6h26l89 -126l89 126h26z" />
<glyph unicode="&#x117;" horiz-adv-x="450" d="M384 214h-287c1 -134 68 -187 149 -187c40 0 84 16 111 44h3l14 -31c-29 -28 -82 -50 -136 -50c-93 0 -183 70 -183 222c0 144 81 246 186 246c92 0 153 -79 153 -176c0 -17 -1 -46 -10 -68zM98 248h251c17 106 -40 173 -110 173c-78 0 -134 -76 -141 -173zM201 594 c0 21 15 38 33 38s33 -17 33 -38s-15 -38 -33 -38s-33 17 -33 38z" />
<glyph unicode="&#x119;" horiz-adv-x="450" d="M384 214h-287c1 -134 68 -187 149 -187c40 0 84 16 111 44h3l14 -31c-12 -11 -27 -22 -45 -30c-44 -32 -72 -71 -72 -118c0 -33 18 -58 49 -58c13 0 23 3 32 6v-32c-11 -5 -24 -7 -37 -7c-42 0 -84 23 -84 83c0 38 21 78 52 109c-10 -2 -21 -3 -31 -3 c-93 0 -183 70 -183 222c0 144 81 246 186 246c92 0 153 -79 153 -176c0 -17 -1 -46 -10 -68zM98 248h251c17 106 -40 173 -110 173c-78 0 -134 -76 -141 -173z" />
<glyph unicode="&#x11f;" horiz-adv-x="490" d="M235 33c49 0 109 22 140 84v230c-22 41 -75 74 -127 74c-92 0 -151 -83 -151 -214c0 -119 57 -174 138 -174zM106 -131h2c34 -27 66 -39 117 -39c75 0 149 46 150 174v62h-3c-39 -61 -110 -70 -141 -70c-108 0 -176 75 -176 211s70 251 192 251c41 0 94 -19 125 -58h3 l9 48h31v-441c0 -143 -90 -214 -192 -214c-53 0 -96 12 -136 43zM245 508c-61 0 -119 55 -119 172h29c0 -66 34 -137 91 -137c51 0 91 56 91 137h29c0 -116 -60 -172 -121 -172z" />
<glyph unicode="&#x121;" horiz-adv-x="490" d="M235 33c49 0 109 22 140 84v230c-22 41 -75 74 -127 74c-92 0 -151 -83 -151 -214c0 -119 57 -174 138 -174zM106 -131h2c34 -27 66 -39 117 -39c75 0 149 46 150 174v62h-3c-39 -61 -110 -70 -141 -70c-108 0 -176 75 -176 211s70 251 192 251c41 0 94 -19 125 -58h3 l9 48h31v-441c0 -143 -90 -214 -192 -214c-53 0 -96 12 -136 43zM211 594c0 21 15 38 33 38s33 -17 33 -38s-15 -38 -33 -38s-33 17 -33 38z" />
<glyph unicode="&#x123;" horiz-adv-x="490" d="M235 33c49 0 109 22 140 84v230c-22 41 -75 74 -127 74c-92 0 -151 -83 -151 -214c0 -119 57 -174 138 -174zM106 -131h2c34 -27 66 -39 117 -39c75 0 149 46 150 174v62h-3c-39 -61 -110 -70 -141 -70c-108 0 -176 75 -176 211s70 251 192 251c41 0 94 -19 125 -58h3 l9 48h31v-441c0 -143 -90 -214 -192 -214c-53 0 -96 12 -136 43zM279 699h31c-21 -48 -41 -103 -59 -159h-42v6c21 53 41 107 70 153z" />
<glyph horiz-adv-x="460" d="M229 168c-23 0 -45 3 -65 11l-54 -83l2 -6l196 -49c63 -15 112 -46 112 -111c0 -96 -102 -137 -198 -137c-108 0 -182 61 -182 129c0 49 36 96 109 119v3l-67 18l-9 35l62 96c-39 24 -65 64 -65 116c0 84 65 149 156 149c33 0 62 -9 85 -23l129 13v-36l-96 -5 c23 -27 36 -63 36 -99c0 -91 -76 -140 -151 -140zM380 -70c0 44 -33 66 -79 77l-93 24c-74 -10 -129 -58 -129 -108c0 -57 66 -95 142 -95c88 0 159 37 159 102zM340 308c0 72 -52 116 -113 116c-66 0 -117 -48 -117 -115c0 -70 56 -107 120 -107c61 0 110 44 110 106z M226 508c-61 0 -119 55 -119 172h29c0 -66 34 -137 91 -137c51 0 91 56 91 137h29c0 -116 -60 -172 -121 -172z" />
<glyph horiz-adv-x="460" d="M229 168c-23 0 -45 3 -65 11l-54 -83l2 -6l196 -49c63 -15 112 -46 112 -111c0 -96 -102 -137 -198 -137c-108 0 -182 61 -182 129c0 49 36 96 109 119v3l-67 18l-9 35l62 96c-39 24 -65 64 -65 116c0 84 65 149 156 149c33 0 62 -9 85 -23l129 13v-36l-96 -5 c23 -27 36 -63 36 -99c0 -91 -76 -140 -151 -140zM380 -70c0 44 -33 66 -79 77l-93 24c-74 -10 -129 -58 -129 -108c0 -57 66 -95 142 -95c88 0 159 37 159 102zM340 308c0 72 -52 116 -113 116c-66 0 -117 -48 -117 -115c0 -70 56 -107 120 -107c61 0 110 44 110 106z M192 594c0 21 15 38 33 38s33 -17 33 -38s-15 -38 -33 -38s-33 17 -33 38z" />
<glyph horiz-adv-x="460" d="M229 168c-23 0 -45 3 -65 11l-54 -83l2 -6l196 -49c63 -15 112 -46 112 -111c0 -96 -102 -137 -198 -137c-108 0 -182 61 -182 129c0 49 36 96 109 119v3l-67 18l-9 35l62 96c-39 24 -65 64 -65 116c0 84 65 149 156 149c33 0 62 -9 85 -23l129 13v-36l-96 -5 c23 -27 36 -63 36 -99c0 -91 -76 -140 -151 -140zM380 -70c0 44 -33 66 -79 77l-93 24c-74 -10 -129 -58 -129 -108c0 -57 66 -95 142 -95c88 0 159 37 159 102zM340 308c0 72 -52 116 -113 116c-66 0 -117 -48 -117 -115c0 -70 56 -107 120 -107c61 0 110 44 110 106z M260 699h31c-21 -48 -41 -103 -59 -159h-42v6c21 53 41 107 70 153z" />
<glyph unicode="&#x127;" horiz-adv-x="480" d="M115 385h3c40 44 102 73 160 73c71 0 127 -44 127 -148v-310h-40v304c0 83 -42 117 -96 117c-55 0 -114 -30 -154 -84v-337h-40v548h-61v34h61v98l40 12v-110h143v-34h-143v-163z" />
<glyph unicode="&#xed;" horiz-adv-x="230" d="M95 446l40 5v-451h-40v446zM80 518v3l101 159h49v-4l-124 -158h-26z" />
<glyph unicode="&#xec;" horiz-adv-x="230" d="M95 446l40 5v-451h-40v446zM150 521v-3h-26l-124 158v4h49z" />
<glyph unicode="&#xee;" horiz-adv-x="230" d="M95 446l40 5v-451h-40v446zM229 524v-6h-26l-89 126l-89 -126h-26v6l96 156h38z" />
<glyph unicode="&#xef;" horiz-adv-x="230" d="M95 446l40 5v-451h-40v446zM215 560c0 -21 -16 -33 -30 -33c-15 0 -30 11 -30 33c0 19 14 35 30 35s30 -14 30 -35zM75 560c0 -21 -16 -33 -30 -33c-15 0 -30 11 -30 33c0 19 14 35 30 35s30 -14 30 -35z" />
<glyph unicode="&#x12b;" horiz-adv-x="230" d="M95 446l40 5v-451h-40v446zM227 563h-224v34h224v-34z" />
<glyph unicode="&#x12f;" horiz-adv-x="230" d="M95 446l40 5v-451h-15c-37 -30 -59 -66 -59 -108c0 -33 18 -58 49 -58c13 0 23 3 32 6v-32c-11 -5 -24 -7 -37 -7c-42 0 -84 23 -84 83c0 46 30 95 74 126v436zM82 642c0 21 15 38 33 38s33 -17 33 -38s-15 -38 -33 -38s-33 17 -33 38z" />
<glyph unicode="&#x137;" horiz-adv-x="440" d="M391 434l-193 -183l204 -236v-3l-28 -22l-206 237l-53 -50v-177h-40v680l40 12v-467h2l248 233l26 -21v-3zM185 -201h-28c21 46 41 100 59 154h39v-6c-21 -51 -41 -104 -70 -148z" />
<glyph unicode="&#x13a;" horiz-adv-x="230" d="M95 680l40 12v-692h-40v680zM80 730v8l101 124h49v-10l-124 -122h-26z" />
<glyph unicode="&#x13c;" horiz-adv-x="230" d="M95 680l40 12v-692h-40v680zM75 -201h-28c21 46 41 100 59 154h39v-6c-21 -51 -41 -104 -70 -148z" />
<glyph horiz-adv-x="260" d="M95 115v565l40 12v-579c0 -58 28 -82 63 -82c18 0 31 4 45 15v-37c-9 -8 -29 -14 -48 -14c-47 0 -100 29 -100 120zM79 730v8l101 124h49v-10l-124 -122h-26z" />
<glyph horiz-adv-x="260" d="M95 115v565l40 12v-579c0 -58 28 -82 63 -82c18 0 31 4 45 15v-37c-9 -8 -29 -14 -48 -14c-47 0 -100 29 -100 120zM129 -201h-28c21 46 41 100 59 154h39v-6c-21 -51 -41 -104 -70 -148z" />
<glyph unicode="&#xf1;" horiz-adv-x="480" d="M115 384h3c40 43 98 74 158 74c72 0 129 -44 129 -145v-313h-40v305c0 82 -41 116 -98 116c-56 0 -113 -33 -152 -84v-337h-40v448h33zM344 643h30c0 -69 -37 -110 -78 -110c-51 0 -71 80 -109 80c-33 0 -52 -32 -52 -78h-28c0 71 37 110 79 110c54 0 72 -81 111 -81 c29 0 47 35 47 79z" />
<glyph unicode="&#x144;" horiz-adv-x="480" d="M115 384h3c40 43 98 74 158 74c72 0 129 -44 129 -145v-313h-40v305c0 82 -41 116 -98 116c-56 0 -113 -33 -152 -84v-337h-40v448h33zM206 518v3l101 159h49v-4l-124 -158h-26z" />
<glyph horiz-adv-x="480" d="M115 384h3c40 43 98 74 158 74c72 0 129 -44 129 -145v-313h-40v305c0 82 -41 116 -98 116c-56 0 -113 -33 -152 -84v-337h-40v448h33zM221 518v3l53 159h47v-4l-74 -158h-26z" />
<glyph unicode="&#x148;" horiz-adv-x="480" d="M115 384h3c40 43 98 74 158 74c72 0 129 -44 129 -145v-313h-40v305c0 82 -41 116 -98 116c-56 0 -113 -33 -152 -84v-337h-40v448h33zM355 680v-6l-96 -156h-38l-96 156v6h26l89 -126l89 126h26z" />
<glyph unicode="&#x146;" horiz-adv-x="480" d="M115 384h3c40 43 98 74 158 74c72 0 129 -44 129 -145v-313h-40v305c0 82 -41 116 -98 116c-56 0 -113 -33 -152 -84v-337h-40v448h33zM200 -201h-28c21 46 41 100 59 154h39v-6c-21 -51 -41 -104 -70 -148z" />
<glyph unicode="&#xf3;" horiz-adv-x="490" d="M435 220c0 -134 -86 -230 -190 -230c-106 0 -190 96 -190 230c0 137 77 238 186 238c120 0 194 -102 194 -238zM393 220c0 114 -59 201 -152 201c-86 0 -144 -87 -144 -201c0 -111 61 -193 148 -193c85 0 148 82 148 193zM210 518v3l101 159h49v-4l-124 -158h-26z" />
<glyph horiz-adv-x="490" d="M435 220c0 -134 -86 -230 -190 -230c-106 0 -190 96 -190 230c0 137 77 238 186 238c120 0 194 -102 194 -238zM393 220c0 114 -59 201 -152 201c-86 0 -144 -87 -144 -201c0 -111 61 -193 148 -193c85 0 148 82 148 193zM225 518v3l53 159h47v-4l-74 -158h-26z" />
<glyph unicode="&#xf2;" horiz-adv-x="490" d="M435 220c0 -134 -86 -230 -190 -230c-106 0 -190 96 -190 230c0 137 77 238 186 238c120 0 194 -102 194 -238zM393 220c0 114 -59 201 -152 201c-86 0 -144 -87 -144 -201c0 -111 61 -193 148 -193c85 0 148 82 148 193zM280 521v-3h-26l-124 158v4h49z" />
<glyph unicode="&#xf4;" horiz-adv-x="490" d="M435 220c0 -134 -86 -230 -190 -230c-106 0 -190 96 -190 230c0 137 77 238 186 238c120 0 194 -102 194 -238zM393 220c0 114 -59 201 -152 201c-86 0 -144 -87 -144 -201c0 -111 61 -193 148 -193c85 0 148 82 148 193zM359 524v-6h-26l-89 126l-89 -126h-26v6l96 156 h38z" />
<glyph unicode="&#xf6;" horiz-adv-x="490" d="M435 220c0 -134 -86 -230 -190 -230c-106 0 -190 96 -190 230c0 137 77 238 186 238c120 0 194 -102 194 -238zM393 220c0 114 -59 201 -152 201c-86 0 -144 -87 -144 -201c0 -111 61 -193 148 -193c85 0 148 82 148 193zM345 560c0 -21 -16 -33 -30 -33 c-15 0 -30 11 -30 33c0 19 14 35 30 35s30 -14 30 -35zM205 560c0 -21 -16 -33 -30 -33c-15 0 -30 11 -30 33c0 19 14 35 30 35s30 -14 30 -35z" />
<glyph unicode="&#xf5;" horiz-adv-x="490" d="M435 220c0 -134 -86 -230 -190 -230c-106 0 -190 96 -190 230c0 137 77 238 186 238c120 0 194 -102 194 -238zM393 220c0 114 -59 201 -152 201c-86 0 -144 -87 -144 -201c0 -111 61 -193 148 -193c85 0 148 82 148 193zM348 643h30c0 -69 -37 -110 -78 -110 c-51 0 -71 80 -109 80c-33 0 -52 -32 -52 -78h-28c0 71 37 110 79 110c54 0 72 -81 111 -81c29 0 47 35 47 79z" />
<glyph unicode="&#x14d;" horiz-adv-x="490" d="M435 220c0 -134 -86 -230 -190 -230c-106 0 -190 96 -190 230c0 137 77 238 186 238c120 0 194 -102 194 -238zM393 220c0 114 -59 201 -152 201c-86 0 -144 -87 -144 -201c0 -111 61 -193 148 -193c85 0 148 82 148 193zM357 563h-224v34h224v-34z" />
<glyph unicode="&#x151;" horiz-adv-x="490" d="M435 220c0 -134 -86 -230 -190 -230c-106 0 -190 96 -190 230c0 137 77 238 186 238c120 0 194 -102 194 -238zM393 220c0 114 -59 201 -152 201c-86 0 -144 -87 -144 -201c0 -111 61 -193 148 -193c85 0 148 82 148 193zM167 518v3l101 159h49v-4l-124 -158h-26z M278 518v3l101 159h49v-4l-124 -158h-26z" />
<glyph unicode="&#x155;" horiz-adv-x="320" d="M263 456c17 0 25 -4 30 -8v-40h-2c-9 6 -18 8 -29 8c-60 0 -127 -78 -147 -173v-243h-40v448h40v-123h3c27 78 87 131 145 131zM144 518v3l101 159h49v-4l-124 -158h-26z" />
<glyph unicode="&#x159;" horiz-adv-x="320" d="M263 456c17 0 25 -4 30 -8v-40h-2c-9 6 -18 8 -29 8c-60 0 -127 -78 -147 -173v-243h-40v448h40v-123h3c27 78 87 131 145 131zM293 680v-6l-96 -156h-38l-96 156v6h26l89 -126l89 126h26z" />
<glyph unicode="&#x161;" horiz-adv-x="370" d="M285 376h-2c-36 30 -68 45 -105 45c-54 0 -81 -34 -81 -72c0 -50 35 -69 116 -111c74 -39 105 -80 105 -132c0 -77 -69 -116 -138 -116c-55 0 -105 21 -131 45l18 34h2c33 -27 64 -42 111 -42c58 0 96 29 96 75c0 48 -26 75 -107 116c-71 36 -114 69 -114 129 c0 57 45 111 125 111c47 0 90 -21 126 -52zM297 680v-6l-96 -156h-38l-96 156v6h26l89 -126l89 126h26z" />
<glyph unicode="&#x15b;" horiz-adv-x="370" d="M285 376h-2c-36 30 -68 45 -105 45c-54 0 -81 -34 -81 -72c0 -50 35 -69 116 -111c74 -39 105 -80 105 -132c0 -77 -69 -116 -138 -116c-55 0 -105 21 -131 45l18 34h2c33 -27 64 -42 111 -42c58 0 96 29 96 75c0 48 -26 75 -107 116c-71 36 -114 69 -114 129 c0 57 45 111 125 111c47 0 90 -21 126 -52zM148 518v3l101 159h49v-4l-124 -158h-26z" />
<glyph horiz-adv-x="370" d="M285 376h-2c-36 30 -68 45 -105 45c-54 0 -81 -34 -81 -72c0 -50 35 -69 116 -111c74 -39 105 -80 105 -132c0 -77 -69 -116 -138 -116c-55 0 -105 21 -131 45l18 34h2c33 -27 64 -42 111 -42c58 0 96 29 96 75c0 48 -26 75 -107 116c-71 36 -114 69 -114 129 c0 57 45 111 125 111c47 0 90 -21 126 -52zM163 518v3l53 159h47v-4l-74 -158h-26z" />
<glyph unicode="&#x15f;" horiz-adv-x="370" d="M155 -199l-9 25c56 9 92 27 92 53c0 30 -36 39 -76 39c-8 0 -23 -1 -30 -2l-4 9l43 65c-52 2 -98 22 -122 45l18 34h2c33 -27 64 -42 111 -42c58 0 96 29 96 75c0 48 -26 75 -107 116c-71 36 -114 69 -114 129c0 57 45 111 125 111c47 0 90 -21 126 -52l-21 -30h-2 c-36 30 -68 45 -105 45c-54 0 -81 -34 -81 -72c0 -50 35 -69 116 -111c74 -39 105 -80 105 -132c0 -68 -53 -106 -112 -114l-31 -47c59 0 98 -18 98 -62c0 -42 -51 -71 -118 -82z" />
<glyph unicode="&#x219;" horiz-adv-x="370" d="M285 376h-2c-36 30 -68 45 -105 45c-54 0 -81 -34 -81 -72c0 -50 35 -69 116 -111c74 -39 105 -80 105 -132c0 -77 -69 -116 -138 -116c-55 0 -105 21 -131 45l18 34h2c33 -27 64 -42 111 -42c58 0 96 29 96 75c0 48 -26 75 -107 116c-71 36 -114 69 -114 129 c0 57 45 111 125 111c47 0 90 -21 126 -52zM143 -201h-28c21 46 41 100 59 154h39v-6c-21 -51 -41 -104 -70 -148z" />
<glyph unicode="&#x165;" horiz-adv-x="310" d="M135 587l40 12v-151h110v-36h-110v-412h-40v412h-108l12 36h96v139zM259 518h-28c11 50 23 112 34 174h39v-6c-14 -59 -26 -120 -45 -168z" />
<glyph unicode="&#x163;" horiz-adv-x="310" d="M135 587l40 12v-151h110v-36h-110v-412h-40v412h-108l12 36h96v139zM116 -201h-28c21 46 41 100 59 154h39v-6c-21 -51 -41 -104 -70 -148z" />
<glyph unicode="&#x21b;" horiz-adv-x="310" d="M135 587l40 12v-151h110v-36h-110v-412h-40v412h-108l12 36h96v139zM116 -201h-28c21 46 41 100 59 154h39v-6c-21 -51 -41 -104 -70 -148z" />
<glyph horiz-adv-x="350" d="M120 104v308h-83l12 36h71v106h40v-106h155v-36h-155v-308c0 -55 35 -77 82 -77c22 0 50 9 72 21l10 -34c-22 -13 -53 -24 -91 -24c-79 0 -113 46 -113 114zM249 518h-28c11 50 23 112 34 174h39v-6c-14 -59 -26 -120 -45 -168z" />
<glyph horiz-adv-x="350" d="M120 104v308h-83l12 36h71v106h40v-106h155v-36h-155v-308c0 -55 35 -77 82 -77c22 0 50 9 72 21l10 -34c-22 -13 -53 -24 -91 -24c-79 0 -113 46 -113 114zM182 -201h-28c21 46 41 100 59 154h39v-6c-21 -51 -41 -104 -70 -148z" />
<glyph unicode="&#xfa;" horiz-adv-x="480" d="M365 63h-3c-41 -44 -98 -73 -157 -73c-62 0 -130 39 -130 150v308h40v-299c0 -97 45 -122 99 -122c56 0 117 35 151 84v337h40v-448h-33zM205 518v3l101 159h49v-4l-124 -158h-26z" />
<glyph unicode="&#xf9;" horiz-adv-x="480" d="M365 63h-3c-41 -44 -98 -73 -157 -73c-62 0 -130 39 -130 150v308h40v-299c0 -97 45 -122 99 -122c56 0 117 35 151 84v337h40v-448h-33zM275 521v-3h-26l-124 158v4h49z" />
<glyph unicode="&#xfb;" horiz-adv-x="480" d="M365 63h-3c-41 -44 -98 -73 -157 -73c-62 0 -130 39 -130 150v308h40v-299c0 -97 45 -122 99 -122c56 0 117 35 151 84v337h40v-448h-33zM354 524v-6h-26l-89 126l-89 -126h-26v6l96 156h38z" />
<glyph unicode="&#xfc;" horiz-adv-x="480" d="M365 63h-3c-41 -44 -98 -73 -157 -73c-62 0 -130 39 -130 150v308h40v-299c0 -97 45 -122 99 -122c56 0 117 35 151 84v337h40v-448h-33zM340 560c0 -21 -16 -33 -30 -33c-15 0 -30 11 -30 33c0 19 14 35 30 35s30 -14 30 -35zM200 560c0 -21 -16 -33 -30 -33 c-15 0 -30 11 -30 33c0 19 14 35 30 35s30 -14 30 -35z" />
<glyph unicode="&#x16b;" horiz-adv-x="480" d="M365 63h-3c-41 -44 -98 -73 -157 -73c-62 0 -130 39 -130 150v308h40v-299c0 -97 45 -122 99 -122c56 0 117 35 151 84v337h40v-448h-33zM352 563h-224v34h224v-34z" />
<glyph unicode="&#x171;" horiz-adv-x="480" d="M365 63h-3c-41 -44 -98 -73 -157 -73c-62 0 -130 39 -130 150v308h40v-299c0 -97 45 -122 99 -122c56 0 117 35 151 84v337h40v-448h-33zM162 518v3l101 159h49v-4l-124 -158h-26zM273 518v3l101 159h49v-4l-124 -158h-26z" />
<glyph unicode="&#x16f;" horiz-adv-x="480" d="M365 63h-3c-41 -44 -98 -73 -157 -73c-62 0 -130 39 -130 150v308h40v-299c0 -97 45 -122 99 -122c56 0 117 35 151 84v337h40v-448h-33zM151 602c0 49 40 89 89 89s89 -40 89 -89s-40 -89 -89 -89s-89 40 -89 89zM183 602c0 -38 23 -60 56 -60c32 0 57 24 57 60 s-25 60 -57 60c-33 0 -56 -26 -56 -60z" />
<glyph unicode="&#x173;" horiz-adv-x="480" d="M365 63h-3c-41 -44 -98 -73 -157 -73c-62 0 -130 39 -130 150v308h40v-299c0 -97 45 -122 99 -122c56 0 117 35 151 84v337h40v-448h-15c-37 -30 -59 -66 -59 -108c0 -33 18 -58 49 -58c13 0 23 3 32 6v-32c-11 -5 -24 -7 -37 -7c-42 0 -84 23 -84 83c0 48 33 99 79 130z " />
<glyph horiz-adv-x="480" d="M405 448v-274c0 -108 -70 -184 -164 -184c-116 0 -166 75 -166 181v277h40v-278c0 -117 68 -143 128 -143c55 0 122 37 122 144v277h40zM205 518v3l101 159h49v-4l-124 -158h-26z" />
<glyph horiz-adv-x="480" d="M405 448v-274c0 -108 -70 -184 -164 -184c-116 0 -166 75 -166 181v277h40v-278c0 -117 68 -143 128 -143c55 0 122 37 122 144v277h40zM275 521v-3h-26l-124 158v4h49z" />
<glyph horiz-adv-x="480" d="M405 448v-274c0 -108 -70 -184 -164 -184c-116 0 -166 75 -166 181v277h40v-278c0 -117 68 -143 128 -143c55 0 122 37 122 144v277h40zM354 524v-6h-26l-89 126l-89 -126h-26v6l96 156h38z" />
<glyph horiz-adv-x="480" d="M405 448v-274c0 -108 -70 -184 -164 -184c-116 0 -166 75 -166 181v277h40v-278c0 -117 68 -143 128 -143c55 0 122 37 122 144v277h40zM340 560c0 -21 -16 -33 -30 -33c-15 0 -30 11 -30 33c0 19 14 35 30 35s30 -14 30 -35zM200 560c0 -21 -16 -33 -30 -33 c-15 0 -30 11 -30 33c0 19 14 35 30 35s30 -14 30 -35z" />
<glyph horiz-adv-x="480" d="M405 448v-274c0 -108 -70 -184 -164 -184c-116 0 -166 75 -166 181v277h40v-278c0 -117 68 -143 128 -143c55 0 122 37 122 144v277h40zM352 563h-224v34h224v-34z" />
<glyph horiz-adv-x="480" d="M405 448v-274c0 -108 -70 -184 -164 -184c-116 0 -166 75 -166 181v277h40v-278c0 -117 68 -143 128 -143c55 0 122 37 122 144v277h40zM162 518v3l101 159h49v-4l-124 -158h-26zM273 518v3l101 159h49v-4l-124 -158h-26z" />
<glyph horiz-adv-x="480" d="M405 448v-274c0 -108 -70 -184 -164 -184c-116 0 -166 75 -166 181v277h40v-278c0 -117 68 -143 128 -143c55 0 122 37 122 144v277h40zM151 602c0 49 40 89 89 89s89 -40 89 -89s-40 -89 -89 -89s-89 40 -89 89zM183 602c0 -38 23 -60 56 -60c32 0 57 24 57 60 s-25 60 -57 60c-33 0 -56 -26 -56 -60z" />
<glyph horiz-adv-x="480" d="M405 448v-274c0 -78 -36 -138 -91 -167c-42 -32 -68 -69 -68 -115c0 -33 18 -58 49 -58c13 0 23 3 32 6v-32c-11 -5 -24 -7 -37 -7c-42 0 -84 23 -84 83c0 37 20 76 50 107c-5 -1 -10 -1 -15 -1c-116 0 -166 75 -166 181v277h40v-278c0 -117 68 -143 128 -143 c55 0 122 37 122 144v277h40z" />
<glyph unicode="&#x1e83;" horiz-adv-x="640" d="M327 345h-4l-114 -355h-10l-164 452l39 12l127 -360h5l114 364h10l109 -364h5l122 360l39 -13l-165 -451h-10zM285 518v3l101 159h49v-4l-124 -158h-26z" />
<glyph unicode="&#x175;" horiz-adv-x="640" d="M327 345h-4l-114 -355h-10l-164 452l39 12l127 -360h5l114 364h10l109 -364h5l122 360l39 -13l-165 -451h-10zM434 524v-6h-26l-89 126l-89 -126h-26v6l96 156h38z" />
<glyph unicode="&#x1e85;" horiz-adv-x="640" d="M327 345h-4l-114 -355h-10l-164 452l39 12l127 -360h5l114 364h10l109 -364h5l122 360l39 -13l-165 -451h-10zM420 560c0 -21 -16 -33 -30 -33c-15 0 -30 11 -30 33c0 19 14 35 30 35s30 -14 30 -35zM280 560c0 -21 -16 -33 -30 -33c-15 0 -30 11 -30 33 c0 19 14 35 30 35s30 -14 30 -35z" />
<glyph unicode="&#x1e81;" horiz-adv-x="640" d="M327 345h-4l-114 -355h-10l-164 452l39 12l127 -360h5l114 364h10l109 -364h5l122 360l39 -13l-165 -451h-10zM355 521v-3h-26l-124 158v4h49z" />
<glyph unicode="&#xfd;" horiz-adv-x="440" d="M405 442l-213 -524c-16 -43 -46 -90 -75 -110l-51 -15l-6 27c61 23 100 95 134 205l-159 417l39 12l140 -377h3l149 377zM185 518v3l101 159h49v-4l-124 -158h-26z" />
<glyph unicode="&#xff;" horiz-adv-x="440" d="M405 442l-213 -524c-16 -43 -46 -90 -75 -110l-51 -15l-6 27c61 23 100 95 134 205l-159 417l39 12l140 -377h3l149 377zM320 560c0 -21 -16 -33 -30 -33c-15 0 -30 11 -30 33c0 19 14 35 30 35s30 -14 30 -35zM180 560c0 -21 -16 -33 -30 -33c-15 0 -30 11 -30 33 c0 19 14 35 30 35s30 -14 30 -35z" />
<glyph unicode="&#x177;" horiz-adv-x="440" d="M405 442l-213 -524c-16 -43 -46 -90 -75 -110l-51 -15l-6 27c61 23 100 95 134 205l-159 417l39 12l140 -377h3l149 377zM334 524v-6h-26l-89 126l-89 -126h-26v6l96 156h38z" />
<glyph unicode="&#x1ef3;" horiz-adv-x="440" d="M405 442l-213 -524c-16 -43 -46 -90 -75 -110l-51 -15l-6 27c61 23 100 95 134 205l-159 417l39 12l140 -377h3l149 377zM255 521v-3h-26l-124 158v4h49z" />
<glyph unicode="&#x17e;" horiz-adv-x="420" d="M30 0l-3 5l284 404l-2 3h-257v36h323l3 -5l-282 -404l1 -3h280v-36h-347zM330 680v-6l-96 -156h-38l-96 156v6h26l89 -126l89 126h26z" />
<glyph unicode="&#x17a;" horiz-adv-x="420" d="M30 0l-3 5l284 404l-2 3h-257v36h323l3 -5l-282 -404l1 -3h280v-36h-347zM181 518v3l101 159h49v-4l-124 -158h-26z" />
<glyph horiz-adv-x="420" d="M30 0l-3 5l284 404l-2 3h-257v36h323l3 -5l-282 -404l1 -3h280v-36h-347zM196 518v3l53 159h47v-4l-74 -158h-26z" />
<glyph unicode="&#x17c;" horiz-adv-x="420" d="M30 0l-3 5l284 404l-2 3h-257v36h323l3 -5l-282 -404l1 -3h280v-36h-347zM181 594c0 21 15 38 33 38s33 -17 33 -38s-15 -38 -33 -38s-33 17 -33 38z" />
</font>
</defs>
</svg>
