<svg width="205" height="64" xmlns="http://www.w3.org/2000/svg">

 <metadata id="imagebot_9">image/svg+xml</metadata>
 <g id="imagebot_2" label="Layer 1">
  <g label="Layer 1" transform="translate(3.43813 8.69957) matrix(0.484145 0 0 0.484145 -208.756 -93.5762)" id="imagebot_3">
   <path fill="#660000" d="M635.87939,238.20485C573.76147,216.40627 509.04266,193.90089 482.07159,193.90089C447.17395,193.90089 427.79294,217.82384 432.50201,248.97102C441.36359,307.58414 522.07892,294.10962 516.48914,252.68362C511.35715,214.65063 465.78174,218.64366 469.07751,248.97102C469.85657,256.13974 474.26944,262.04761 489.20801,262.04761C489.20801,262.04761 473.06137,257.83481 473.45013,245.8772C474.08182,226.44717 505.68634,221.57072 511.85483,248.72353C518.83081,279.43063 479.07822,290.55005 457.00635,277.65585C424.0834,258.42258 432.14529,209.93658 463.57819,201.30263C487.4422,194.74768 493.94727,193.83575 635.87939,244.73868" id="imagebot_8"/>
   <path fill="#660000" id="imagebot_7" d="M635.74841,244.69173C697.86633,266.4903 762.58514,288.9957 789.55621,288.9957C824.45386,288.9957 843.8349,265.07275 839.12579,233.92557C830.26422,175.31242 749.54889,188.78696 755.13867,230.21297C760.27063,268.24594 805.84607,264.25293 802.55029,233.92557C801.77124,226.75684 797.35834,220.84898 782.4198,220.84898C782.4198,220.84898 798.56647,225.06177 798.17767,237.01939C797.54596,256.44943 765.94147,261.32587 759.77295,234.17307C752.797,203.46594 792.54956,192.34653 814.62146,205.24072C847.54437,224.474 839.48248,272.95999 808.04962,281.59396C784.18561,288.1489 777.68054,289.06082 635.74841,238.1579"/>
   <g fill="#660000" stroke="#660000" stroke-width="6.78309" stroke-miterlimit="4" id="imagebot_4" transform="matrix(0.63908787,0,0,0.63908787,236.50302,118.88601)">
    <path fill="#660000" stroke="#660000" stroke-width="6.78309" stroke-miterlimit="4" id="imagebot_6" d="M619.96826,170.46722L609.83893,208.27048"/>
    <path fill="#660000" stroke="#660000" stroke-width="6.78309" stroke-miterlimit="4" d="M639.58374,176.16734L629.45441,213.9706" id="imagebot_5"/>
   </g>
  </g>
  <title>Layer 1</title>
 </g>
</svg>
