<?xml version="1.0" standalone="no"?>
<!DOCTYPE svg PUBLIC "-//W3C//DTD SVG 1.1//EN" "http://www.w3.org/Graphics/SVG/1.1/DTD/svg11.dtd" >
<svg xmlns="http://www.w3.org/2000/svg" xmlns:xlink="http://www.w3.org/1999/xlink" version="1.1">
<metadata></metadata>
<defs>
<font id="high_tidesans" horiz-adv-x="677" >
<font-face units-per-em="1000" ascent="750" descent="-250" />
<missing-glyph horiz-adv-x="304" />
<glyph horiz-adv-x="500" />
<glyph unicode=" "  horiz-adv-x="304" />
<glyph unicode="&#x09;" horiz-adv-x="304" />
<glyph unicode="&#xa0;" horiz-adv-x="304" />
<glyph unicode="0" horiz-adv-x="617" d="M307 709c201 0 262 -170 262 -358s-61 -358 -262 -358s-262 170 -262 358s61 358 262 358zM307 634c-150 0 -183 -151 -183 -283s33 -283 183 -283s183 151 183 283s-33 283 -183 283z" />
<glyph unicode="1" horiz-adv-x="264" d="M106 0v624h-88v75h167v-699h-79z" />
<glyph unicode="2" horiz-adv-x="528" d="M108 571l-40 61c145 141 400 75 400 -119c0 -130 -87 -242 -290 -435h308v-77h-432v61c138 113 333 311 333 439c0 107 -124 193 -279 70z" />
<glyph unicode="3" horiz-adv-x="545" d="M475 592l-163 -143c112 -18 181 -102 181 -209c0 -146 -115 -245 -248 -245c-89 0 -169 44 -213 124l63 40c35 -53 95 -86 150 -86c89 0 168 69 168 167c0 97 -67 148 -183 159l-22 51l178 163v11h-314v76h403v-108z" />
<glyph unicode="4" horiz-adv-x="539" d="M434 195v-195h-79v195h-335v63l317 440h97v-431h77v-72h-77zM112 267h243v351z" />
<glyph unicode="5" horiz-adv-x="484" d="M58 375v324h353v-71h-274v-177c178 10 307 -62 307 -221c0 -165 -117 -237 -252 -237c-55 0 -112 15 -164 48l37 60c46 -31 82 -35 126 -35c88 0 174 44 174 163c0 178 -207 159 -307 146z" />
<glyph unicode="6" horiz-adv-x="579" d="M315 453c164 0 204 -136 204 -223c0 -123 -63 -234 -212 -234c-195 0 -254 156 -254 336c0 183 56 374 250 374c101 0 179 -55 200 -172h-82c-14 67 -59 98 -124 98c-117 0 -165 -139 -165 -285c48 78 110 106 183 106zM302 70c92 0 140 81 138 160 c-2 75 -48 149 -135 149c-196 0 -204 -309 -3 -309z" />
<glyph unicode="7" horiz-adv-x="503" d="M36 626v74h441v-54l-292 -646h-89l286 626h-346z" />
<glyph unicode="8" horiz-adv-x="538" d="M379 362c85 -38 114 -103 114 -172c0 -112 -78 -198 -224 -198c-149 0 -224 86 -224 198c0 69 39 136 113 172c-70 23 -104 99 -104 151c0 120 93 193 215 193c120 0 216 -73 216 -193c0 -61 -35 -122 -106 -151zM132 513c0 -77 60 -120 137 -120s137 43 137 120 c0 80 -60 121 -137 121s-137 -44 -137 -121zM269 66c86 0 147 49 147 124c0 83 -61 134 -147 134s-147 -48 -147 -134c0 -78 61 -124 147 -124z" />
<glyph unicode="9" horiz-adv-x="578" d="M257 249c-164 0 -204 136 -204 223c0 123 63 234 212 234c195 0 252 -136 252 -338c0 -183 -54 -372 -248 -372c-101 0 -179 55 -200 172h82c14 -67 59 -98 124 -98c117 0 165 139 165 285c-48 -78 -110 -106 -183 -106zM270 632c-92 0 -140 -81 -138 -160 c2 -75 48 -149 135 -149c196 0 215 309 3 309z" />
<glyph unicode="a" d="M191 219l-83 -219h-89l275 700h105l257 -700h-88l-78 219h-299zM346 629l-126 -333h243z" />
<glyph unicode="b" horiz-adv-x="634" d="M579 205c0 -141 -109 -205 -257 -205h-243v701h235c119 0 226 -49 226 -177c0 -67 -31 -124 -91 -151c78 -20 130 -91 130 -168zM162 405h169c96 0 130 51 130 115c0 85 -86 107 -147 107h-152v-222zM296 334h-134v-257h160c77 0 177 29 177 128c0 104 -120 129 -203 129 z" />
<glyph unicode="c" horiz-adv-x="678" d="M380 69c56 0 161 18 205 87l59 -46c-67 -88 -165 -121 -264 -121c-188 5 -330 122 -330 368c0 213 149 355 341 354c98 -1 171 -34 232 -97l-52 -50c-50 51 -121 69 -185 69c-178 0 -254 -147 -254 -279c0 -169 87 -285 248 -285z" />
<glyph unicode="d" horiz-adv-x="635" d="M590 351c0 -182 -81 -345 -303 -351h-207v700h205c191 0 305 -141 305 -349zM160 621v-542h125c158 3 224 130 224 272c0 110 -44 270 -224 270h-125z" />
<glyph unicode="e" horiz-adv-x="594" d="M154 78h378v-78h-458v700h449v-80h-369v-186h349v-74h-349v-282z" />
<glyph unicode="f" horiz-adv-x="561" d="M499 361h-346v-361h-79v700h444v-79h-365v-183h346v-77z" />
<glyph unicode="g" horiz-adv-x="662" d="M513 81l3 210h-168v75h251l-5 -348c-71 -23 -132 -29 -198 -29c-241 0 -355 138 -355 362c0 201 139 357 368 360c82 1 141 -23 188 -43l-28 -75c-49 20 -114 36 -161 37c-150 2 -272 -99 -277 -279c0 -208 113 -284 264 -284c39 0 78 4 118 14z" />
<glyph unicode="h" horiz-adv-x="706" d="M153 393v-391h-79v698h79v-234h399v234h79v-698h-79v391h-399z" />
<glyph unicode="i" horiz-adv-x="256" d="M84 0v701h81v-701h-81z" />
<glyph unicode="j" horiz-adv-x="510" d="M354 214v412h-111v74h191v-488c0 -152 -84 -223 -200 -223c-142 0 -201 85 -201 216h81c2 -72 25 -135 121 -135c84 0 121 60 119 144z" />
<glyph unicode="k" horiz-adv-x="519" d="M155 328v-328h-81v700h81v-313l231 313h96l-254 -338l276 -362h-103z" />
<glyph unicode="l" horiz-adv-x="508" d="M483 77v-77h-409v699h80v-622h329z" />
<glyph unicode="m" horiz-adv-x="803" d="M392 260l-238 325v-585h-80v700h96l231 -319l231 319h96v-700h-80v585l-238 -325h-18z" />
<glyph unicode="n" horiz-adv-x="700" d="M154 594v-594h-80v700h80l390 -324v324h81v-700h-81v276z" />
<glyph unicode="o" horiz-adv-x="783" d="M396 711c194 0 352 -167 352 -361s-158 -361 -352 -361c-205 0 -361 167 -361 361s156 361 361 361zM396 69c151 0 272 130 272 281s-121 281 -272 281c-160 0 -281 -130 -281 -281s121 -281 281 -281z" />
<glyph unicode="p" horiz-adv-x="546" d="M261 338c133 0 183 62 183 145c0 48 -17 141 -185 141h-104v-286h106zM264 264h-109v-264h-81v700h186c149 0 260 -64 260 -216c0 -143 -97 -220 -256 -220z" />
<glyph unicode="q" horiz-adv-x="793" d="M401 711c194 0 352 -167 352 -361c0 -94 -37 -181 -97 -247l92 -108h-99l-50 58c-57 -40 -125 -64 -198 -64c-205 0 -361 167 -361 361s156 361 361 361zM401 69c54 0 104 17 146 45l-107 125h101l63 -75c43 50 69 116 69 186c0 151 -121 281 -272 281 c-160 0 -281 -130 -281 -281s121 -281 281 -281z" />
<glyph unicode="r" horiz-adv-x="559" d="M264 264h-109v-264h-81v700h186c149 0 260 -64 260 -216c0 -108 -56 -178 -151 -206l159 -278h-93l-148 264h-23zM155 338h106c133 0 183 62 183 145c0 48 -17 141 -185 141h-104v-286z" />
<glyph unicode="s" horiz-adv-x="511" d="M467 187c2 -115 -79 -198 -241 -198c-68 0 -127 16 -167 46l22 72c39 -20 85 -40 153 -40c86 0 155 44 154 119c-1 68 -54 104 -149 144c-108 37 -177 93 -179 191c-3 109 86 190 219 190c82 0 138 -31 153 -39l-30 -70c-42 30 -89 35 -130 33c-69 -3 -134 -45 -132 -109 c1 -48 38 -89 116 -121c97 -41 208 -95 211 -218z" />
<glyph unicode="t" horiz-adv-x="557" d="M239 628h-227v72h533v-72h-228v-628h-78v628z" />
<glyph unicode="u" horiz-adv-x="642" d="M317 71c132 0 177 84 177 220v409h83v-406c0 -213 -105 -305 -260 -305c-136 0 -247 89 -247 302v409h83v-409c0 -117 45 -220 164 -220z" />
<glyph unicode="v" horiz-adv-x="651" d="M95 700l222 -619l237 619h85l-268 -700h-106l-259 700h89z" />
<glyph unicode="w" horiz-adv-x="996" d="M286 81l187 554h51l187 -554l189 619h87l-223 -706h-103l-163 475l-162 -475h-103l-223 706h87z" />
<glyph unicode="x" horiz-adv-x="578" d="M285 445l154 256h90l-199 -331l224 -370h-98l-174 290l-174 -290h-92l221 366l-201 335h95z" />
<glyph unicode="y" horiz-adv-x="575" d="M281 391l210 309h86l-260 -381v-319h-79v319l-242 381h87z" />
<glyph unicode="z" horiz-adv-x="568" d="M22 47l402 578h-373v75h481v-57l-397 -568h397v-75h-510v47z" />
<glyph unicode="A" d="M191 219l-83 -219h-89l275 700h105l257 -700h-88l-78 219h-299zM346 629l-126 -333h243z" />
<glyph unicode="B" horiz-adv-x="634" d="M579 205c0 -141 -109 -205 -257 -205h-243v701h235c119 0 226 -49 226 -177c0 -67 -31 -124 -91 -151c78 -20 130 -91 130 -168zM162 405h169c96 0 130 51 130 115c0 85 -86 107 -147 107h-152v-222zM296 334h-134v-257h160c77 0 177 29 177 128c0 104 -120 129 -203 129 z" />
<glyph unicode="C" horiz-adv-x="678" d="M380 69c56 0 161 18 205 87l59 -46c-67 -88 -165 -121 -264 -121c-188 5 -330 122 -330 368c0 213 149 355 341 354c98 -1 171 -34 232 -97l-52 -50c-50 51 -121 69 -185 69c-178 0 -254 -147 -254 -279c0 -169 87 -285 248 -285z" />
<glyph unicode="D" horiz-adv-x="635" d="M590 351c0 -182 -81 -345 -303 -351h-207v700h205c191 0 305 -141 305 -349zM160 621v-542h125c158 3 224 130 224 272c0 110 -44 270 -224 270h-125z" />
<glyph unicode="E" horiz-adv-x="594" d="M154 78h378v-78h-458v700h449v-80h-369v-186h349v-74h-349v-282z" />
<glyph unicode="F" horiz-adv-x="561" d="M499 361h-346v-361h-79v700h444v-79h-365v-183h346v-77z" />
<glyph unicode="G" horiz-adv-x="662" d="M513 81l3 210h-168v75h251l-5 -348c-71 -23 -132 -29 -198 -29c-241 0 -355 138 -355 362c0 201 139 357 368 360c82 1 141 -23 188 -43l-28 -75c-49 20 -114 36 -161 37c-150 2 -272 -99 -277 -279c0 -208 113 -284 264 -284c39 0 78 4 118 14z" />
<glyph unicode="H" horiz-adv-x="706" d="M153 393v-391h-79v698h79v-234h399v234h79v-698h-79v391h-399z" />
<glyph unicode="I" horiz-adv-x="256" d="M84 0v701h81v-701h-81z" />
<glyph unicode="J" horiz-adv-x="510" d="M354 214v412h-111v74h191v-488c0 -152 -84 -223 -200 -223c-142 0 -201 85 -201 216h81c2 -72 25 -135 121 -135c84 0 121 60 119 144z" />
<glyph unicode="K" horiz-adv-x="519" d="M155 328v-328h-81v700h81v-313l231 313h96l-254 -338l276 -362h-103z" />
<glyph unicode="L" horiz-adv-x="508" d="M483 77v-77h-409v699h80v-622h329z" />
<glyph unicode="M" horiz-adv-x="803" d="M392 260l-238 325v-585h-80v700h96l231 -319l231 319h96v-700h-80v585l-238 -325h-18z" />
<glyph unicode="N" horiz-adv-x="700" d="M154 594v-594h-80v700h80l390 -324v324h81v-700h-81v276z" />
<glyph unicode="O" horiz-adv-x="783" d="M396 711c194 0 352 -167 352 -361s-158 -361 -352 -361c-205 0 -361 167 -361 361s156 361 361 361zM396 69c151 0 272 130 272 281s-121 281 -272 281c-160 0 -281 -130 -281 -281s121 -281 281 -281z" />
<glyph unicode="P" horiz-adv-x="546" d="M261 338c133 0 183 62 183 145c0 48 -17 141 -185 141h-104v-286h106zM264 264h-109v-264h-81v700h186c149 0 260 -64 260 -216c0 -143 -97 -220 -256 -220z" />
<glyph unicode="Q" horiz-adv-x="793" d="M401 711c194 0 352 -167 352 -361c0 -94 -37 -181 -97 -247l92 -108h-99l-50 58c-57 -40 -125 -64 -198 -64c-205 0 -361 167 -361 361s156 361 361 361zM401 69c54 0 104 17 146 45l-107 125h101l63 -75c43 50 69 116 69 186c0 151 -121 281 -272 281 c-160 0 -281 -130 -281 -281s121 -281 281 -281z" />
<glyph unicode="R" horiz-adv-x="559" d="M264 264h-109v-264h-81v700h186c149 0 260 -64 260 -216c0 -108 -56 -178 -151 -206l159 -278h-93l-148 264h-23zM155 338h106c133 0 183 62 183 145c0 48 -17 141 -185 141h-104v-286z" />
<glyph unicode="S" horiz-adv-x="511" d="M467 187c2 -115 -79 -198 -241 -198c-68 0 -127 14 -167 44l20 73c39 -20 87 -40 155 -40c86 0 155 45 154 120c-1 68 -54 104 -149 144c-108 37 -177 93 -179 191c-3 109 86 190 219 190c82 0 138 -32 153 -40l-30 -70c-42 30 -89 35 -130 33c-69 -3 -134 -44 -132 -108 c1 -48 38 -89 116 -121c97 -41 208 -95 211 -218z" />
<glyph unicode="T" horiz-adv-x="557" d="M239 628h-227v72h533v-72h-228v-628h-78v628z" />
<glyph unicode="U" horiz-adv-x="642" d="M317 71c132 0 177 84 177 220v409h83v-406c0 -213 -105 -305 -260 -305c-136 0 -247 89 -247 302v409h83v-409c0 -117 45 -220 164 -220z" />
<glyph unicode="V" horiz-adv-x="651" d="M95 700l222 -619l237 619h85l-268 -700h-106l-259 700h89z" />
<glyph unicode="W" horiz-adv-x="996" d="M286 81l187 554h51l187 -554l189 619h87l-223 -706h-103l-163 475l-162 -475h-103l-223 706h87z" />
<glyph unicode="X" horiz-adv-x="578" d="M285 445l154 256h90l-199 -331l224 -370h-98l-174 290l-174 -290h-92l221 366l-201 335h95z" />
<glyph unicode="Y" horiz-adv-x="575" d="M281 391l210 309h86l-260 -381v-319h-79v319l-242 381h87z" />
<glyph unicode="Z" horiz-adv-x="568" d="M22 47l402 578h-373v75h481v-57l-397 -568h397v-75h-510v47z" />
<glyph unicode="`" horiz-adv-x="193" d="M167 572h-66l-81 103v7l72 29l75 -132v-7z" />
<glyph unicode="&#xb4;" horiz-adv-x="181" d="M80 572h-66v7l75 132l72 -29v-7z" />
<glyph unicode="&#x2c6;" horiz-adv-x="400" d="M375 567h-71l-98 87l-99 -87h-72v8l133 126h75l132 -127v-7z" />
<glyph unicode="&#x2c7;" horiz-adv-x="401" d="M35 701h71l98 -87l99 87h72v-8l-133 -126h-75l-132 127v7z" />
<glyph unicode="&#x2dc;" horiz-adv-x="379" d="M76 606l-46 25c35 73 98 96 174 52c40 -27 73 -30 100 19c16 -8 31 -16 46 -23c-29 -71 -95 -99 -166 -56c-43 27 -80 32 -108 -17z" />
<glyph unicode="&#xa8;" horiz-adv-x="425" d="M322 618c-28 0 -49 18 -49 45c0 28 21 46 49 46c27 0 49 -18 49 -46c0 -27 -22 -45 -49 -45zM115 618c-27 0 -49 18 -49 45c0 28 22 46 49 46c28 0 50 -18 50 -46c0 -27 -22 -45 -50 -45z" />
<glyph unicode="&#x2da;" horiz-adv-x="299" d="M266 614c0 -139 -225 -139 -225 0s225 139 225 0zM91 614c0 -76 125 -76 125 0s-125 76 -125 0z" />
<glyph unicode="&#x2d8;" horiz-adv-x="370" d="M31 702h66c19 -97 164 -96 182 0h66c-19 -179 -295 -177 -314 0z" />
<glyph unicode="&#xb8;" horiz-adv-x="246" d="M15 -195l21 39c41 -23 111 -32 125 12c16 49 -47 73 -85 68l23 87h59l-16 -63c65 -3 97 -53 81 -107c-27 -79 -145 -80 -208 -36z" />
<glyph unicode="&#x2db;" horiz-adv-x="234" d="M87 10l50 -5c-93 -57 -71 -200 55 -132l16 -48c-152 -86 -254 83 -121 185z" />
<glyph unicode="?" horiz-adv-x="510" d="M113 542l-68 28c26 93 107 134 203 134c115 0 206 -67 206 -191c0 -156 -186 -159 -178 -365h-75c-4 241 173 218 173 369c0 67 -57 113 -125 116c-61 3 -120 -27 -136 -91zM241 -13c-28 0 -50 19 -50 47s22 46 50 46s49 -18 49 -46s-21 -47 -49 -47z" />
<glyph unicode="!" horiz-adv-x="242" d="M127 -13c-27 0 -48 19 -48 46c0 28 21 46 48 46c28 0 50 -18 50 -46c0 -27 -22 -46 -50 -46zM91 147l-5 553h82l-4 -553h-73z" />
<glyph unicode="&#x26;" horiz-adv-x="633" d="M498 644l-60 -48c-23 34 -73 52 -121 52c-65 0 -142 -31 -142 -112c0 -80 63 -113 160 -113v-65c-12 0 -25 0 -38 -1c-90 -8 -163 -49 -163 -149c0 -103 79 -154 174 -154c96 0 159 64 159 173v196h145v-66h-75v-131c0 -142 -78 -241 -229 -241c-155 0 -254 96 -254 221 c0 99 55 162 144 191c-64 20 -99 72 -99 139c0 122 103 179 219 179c79 0 145 -25 180 -71z" />
<glyph unicode="$" horiz-adv-x="511" d="M228 708v84h59v-80c77 -2 130 -33 145 -40l-30 -70c-37 26 -78 33 -115 33v-243c88 -40 177 -95 180 -205c1 -100 -59 -174 -180 -192v-73h-59v69h-2c-68 0 -127 14 -167 44l20 73c38 -20 84 -39 149 -40v266c-102 37 -166 92 -168 187c-3 94 64 169 168 187zM388 186 c-1 55 -37 89 -101 122v-234c59 14 102 53 101 112zM140 526c1 -42 29 -79 88 -109v210c-50 -15 -90 -51 -88 -101z" />
<glyph unicode="," horiz-adv-x="230" d="M161 30c-1 -7 -3 -15 -6 -24l-30 -95h-49l22 78c-20 7 -35 22 -35 45c0 28 21 46 49 46c23 0 41 -13 48 -34c1 -7 2 -13 1 -16z" />
<glyph unicode="." horiz-adv-x="225" d="M105 -9c-28 0 -51 20 -51 47c0 31 23 48 51 48c29 0 52 -17 52 -48c0 -27 -23 -47 -52 -47z" />
<glyph unicode="-" horiz-adv-x="461" d="M68 299v67h325v-67h-325z" />
<glyph unicode="&#x22;" horiz-adv-x="362" d="M75 700h75l-10 -223h-65v223zM218 700h74l-10 -223h-64v223z" />
<glyph unicode="'" horiz-adv-x="221" d="M75 700h76l-10 -223h-66v223z" />
<glyph unicode="(" horiz-adv-x="307" d="M250 769l28 -48c-204 -156 -195 -719 0 -878l-28 -48c-268 180 -275 795 0 974z" />
<glyph unicode=")" horiz-adv-x="307" d="M29 721l28 48c276 -176 267 -792 0 -974l-28 48c193 161 205 721 0 878z" />
<glyph unicode="/" horiz-adv-x="464" d="M25 1l355 732l61 -33l-358 -731z" />
<glyph unicode="@" horiz-adv-x="820" d="M528 203l2 15c-30 -68 -92 -104 -162 -105c-126 0 -185 112 -174 238c21 219 242 307 419 182l-24 -296c-3 -40 -3 -71 26 -71c63 -3 95 116 102 188c17 201 -90 330 -279 330c-182 0 -325 -135 -341 -333c-24 -261 158 -392 377 -301l-4 -46c-242 -90 -444 56 -418 347 c18 224 181 381 390 381c212 0 340 -148 319 -378c-10 -119 -75 -243 -172 -243c-49 0 -67 39 -61 92zM530 342l13 163c-130 50 -265 12 -280 -154c-7 -91 30 -169 120 -169c87 0 138 74 147 160z" />
<glyph unicode="&#xc0;" d="M108 0l83 219h299l78 -219h88l-257 700h-105l-275 -700h89zM220 296l126 333l117 -333h-243zM384 753h-66l-81 103v7l72 29l75 -132v-7z" />
<glyph unicode="&#xc1;" d="M191 219l-83 -219h-89l275 700h105l257 -700h-88l-78 219h-299zM346 629l-126 -333h243zM379 752h-66v7l75 132l72 -29v-7z" />
<glyph unicode="&#xc2;" d="M108 0l83 219h299l78 -219h88l-257 700h-105l-275 -700h89zM220 296l126 333l117 -333h-243zM517 743h-71l-98 87l-99 -87h-72v8l133 126h75l132 -127v-7z" />
<glyph unicode="&#xc3;" d="M108 0l83 219h299l78 -219h88l-257 700h-105l-275 -700h89zM220 296l126 333l117 -333h-243zM236 753l-46 25c35 73 98 96 174 52c40 -27 73 -30 100 19c16 -8 31 -16 46 -23c-29 -71 -95 -99 -166 -56c-43 27 -80 32 -108 -17z" />
<glyph unicode="&#xc4;" d="M108 0l83 219h299l78 -219h88l-257 700h-105l-275 -700h89zM220 296l126 333l117 -333h-243zM450 743c-28 0 -49 18 -49 45c0 28 21 46 49 46c27 0 49 -18 49 -46c0 -27 -22 -45 -49 -45zM243 743c-27 0 -49 18 -49 45c0 28 22 46 49 46c28 0 50 -18 50 -46 c0 -27 -22 -45 -50 -45z" />
<glyph unicode="&#xc5;" d="M191 219l-83 -219h-89l268 683c-32 16 -55 46 -55 91c0 139 225 139 225 0c0 -44 -22 -73 -53 -90l252 -684h-88l-78 219h-299zM346 629l-126 -333h243zM282 774c0 -76 125 -76 125 0s-125 76 -125 0z" />
<glyph unicode="&#xc6;" horiz-adv-x="1271" d="M296 228l-111 -228h-92l354 700h397v-80h-289v-324h269v-68h-269v-150h298v-78h-378v228h-179zM330 296h145v296z" />
<glyph unicode="&#x20ac;" horiz-adv-x="514" d="M0 261v59h52v31v28h-52v59h57c18 150 87 271 257 271c71 0 122 -23 162 -59l-44 -59c-27 29 -66 43 -118 43c-118 0 -163 -93 -178 -196h210l-21 -59h-194v-28v-31h177l-19 -59h-152c15 -103 60 -193 177 -193c61 0 102 16 135 52l45 -54c-41 -45 -99 -73 -180 -73 c-168 0 -238 119 -257 268h-57z" />
<glyph unicode="&#x160;" horiz-adv-x="511" d="M467 187c-3 123 -114 177 -211 218c-78 32 -115 73 -116 121c-2 64 63 105 132 108c41 2 88 -3 130 -33l30 70c-15 8 -71 40 -153 40c-133 0 -222 -81 -219 -190c2 -98 71 -154 179 -191c95 -40 148 -76 149 -144c1 -75 -68 -120 -154 -120c-68 0 -116 20 -155 40 l-20 -73c40 -30 99 -44 167 -44c162 0 243 83 241 198zM118 884h62l85 -75l87 75h63v-7l-117 -108h-65l-115 109v6z" />
<glyph unicode="&#x17d;" horiz-adv-x="568" d="M424 625l-402 -578v-47h510v75h-397l397 568v57h-481v-75h373zM129 891h71l98 -87l99 87h72v-8l-133 -126h-75l-132 127v7z" />
<glyph unicode="&#x161;" horiz-adv-x="511" d="M467 187c-3 123 -114 177 -211 218c-78 32 -115 73 -116 121c-2 64 63 105 132 108c41 2 88 -3 130 -33l30 70c-15 8 -71 40 -153 40c-133 0 -222 -81 -219 -190c2 -98 71 -154 179 -191c95 -40 148 -76 149 -144c1 -75 -68 -120 -154 -120c-68 0 -116 20 -155 40 l-20 -73c40 -30 99 -44 167 -44c162 0 243 83 241 198zM118 884h61l85 -81l85 81h62v-8l-114 -117h-65l-114 118v7z" />
<glyph unicode="&#x17e;" horiz-adv-x="568" d="M424 625l-402 -578v-47h510v75h-397l397 568v57h-481v-75h373zM129 891h71l98 -87l99 87h72v-8l-133 -126h-75l-132 127v7z" />
<glyph unicode="&#x178;" horiz-adv-x="575" d="M491 700l-210 -309l-198 309h-87l242 -381v-319h79v319l260 381h-86zM387 747c-28 0 -49 18 -49 45c0 28 21 46 49 46c27 0 49 -18 49 -46c0 -27 -22 -45 -49 -45zM180 747c-27 0 -49 18 -49 45c0 28 22 46 49 46c28 0 50 -18 50 -46c0 -27 -22 -45 -50 -45z" />
<glyph unicode="&#x152;" horiz-adv-x="853" d="M519 75h295v-75h-359c-27 -7 -56 -11 -85 -11c-205 0 -333 152 -333 361c0 206 128 361 333 361c29 0 58 -4 85 -11h350v-75h-286v-191h266v-72h-266v-287zM370 639c-160 0 -251 -120 -251 -289s91 -288 251 -288c26 0 50 3 74 10v556c-24 7 -49 11 -74 11z" />
<glyph unicode="&#x153;" horiz-adv-x="853" d="M519 75h295v-75h-359c-27 -7 -56 -11 -85 -11c-205 0 -333 152 -333 361c0 206 128 361 333 361c29 0 58 -4 85 -11h350v-75h-286v-191h266v-72h-266v-287zM370 639c-160 0 -251 -120 -251 -289s91 -288 251 -288c26 0 50 3 74 10v556c-24 7 -49 11 -74 11z" />
<glyph unicode="&#xe0;" d="M108 0l83 219h299l78 -219h88l-257 700h-105l-275 -700h89zM220 296l126 333l117 -333h-243zM384 753h-66l-81 103v7l72 29l75 -132v-7z" />
<glyph unicode="&#xe1;" d="M191 219l-83 -219h-89l275 700h105l257 -700h-88l-78 219h-299zM346 629l-126 -333h243zM379 752h-66v7l75 132l72 -29v-7z" />
<glyph unicode="&#xe2;" d="M108 0l83 219h299l78 -219h88l-257 700h-105l-275 -700h89zM220 296l126 333l117 -333h-243zM517 743h-71l-98 87l-99 -87h-72v8l133 126h75l132 -127v-7z" />
<glyph unicode="&#xe3;" d="M108 0l83 219h299l78 -219h88l-257 700h-105l-275 -700h89zM220 296l126 333l117 -333h-243zM236 753l-46 25c35 73 98 96 174 52c40 -27 73 -30 100 19c16 -8 31 -16 46 -23c-29 -71 -95 -99 -166 -56c-43 27 -80 32 -108 -17z" />
<glyph unicode="&#xe4;" d="M108 0l83 219h299l78 -219h88l-257 700h-105l-275 -700h89zM220 296l126 333l117 -333h-243zM450 743c-28 0 -49 18 -49 45c0 28 21 46 49 46c27 0 49 -18 49 -46c0 -27 -22 -45 -49 -45zM243 743c-27 0 -49 18 -49 45c0 28 22 46 49 46c28 0 50 -18 50 -46 c0 -27 -22 -45 -50 -45z" />
<glyph unicode="&#xe5;" d="M191 219l-83 -219h-89l268 683c-32 16 -55 46 -55 91c0 139 225 139 225 0c0 -44 -22 -73 -53 -90l252 -684h-88l-78 219h-299zM346 629l-126 -333h243zM282 774c0 -76 125 -76 125 0s-125 76 -125 0z" />
<glyph unicode="&#xe6;" horiz-adv-x="1271" d="M296 228l-111 -228h-92l354 700h397v-80h-289v-324h269v-68h-269v-150h298v-78h-378v228h-179zM330 296h145v296z" />
<glyph unicode="&#xc7;" horiz-adv-x="678" d="M380 69c56 0 161 18 205 87l59 -46c-63 -82 -152 -116 -244 -120l-14 -58c65 -3 98 -53 82 -107c-27 -79 -146 -85 -209 -41l21 44c41 -23 111 -32 125 12c16 49 -47 68 -85 63l22 89c-169 18 -292 136 -292 365c0 213 149 358 341 357c98 -1 171 -34 232 -97l-52 -50 c-50 51 -121 69 -185 69c-178 0 -254 -150 -254 -282c0 -169 87 -285 248 -285z" />
<glyph unicode="&#xe7;" horiz-adv-x="678" d="M380 69c56 0 161 18 205 87l59 -46c-63 -82 -152 -116 -244 -120l-14 -58c65 -3 98 -53 82 -107c-27 -79 -146 -85 -209 -41l21 44c41 -23 111 -32 125 12c16 49 -47 68 -85 63l22 89c-169 18 -292 136 -292 365c0 213 149 358 341 357c98 -1 171 -34 232 -97l-52 -50 c-50 51 -121 69 -185 69c-178 0 -254 -150 -254 -282c0 -169 87 -285 248 -285z" />
<glyph unicode="&#xc8;" horiz-adv-x="594" d="M532 78h-378v282h349v74h-349v186h369v80h-449v-700h458v78zM359 754h-66l-81 103v7l72 29l75 -132v-7z" />
<glyph unicode="&#xc9;" horiz-adv-x="594" d="M154 78h378v-78h-458v700h449v-80h-369v-186h349v-74h-349v-282zM332 757h-66v7l75 132l72 -29v-7z" />
<glyph unicode="&#xca;" horiz-adv-x="594" d="M532 78h-378v282h349v74h-349v186h369v80h-449v-700h458v78zM483 759h-71l-98 87l-99 -87h-72v8l133 126h75l132 -127v-7z" />
<glyph unicode="&#xcb;" horiz-adv-x="594" d="M532 78h-378v282h349v74h-349v186h369v80h-449v-700h458v78zM418 756c-28 0 -49 18 -49 45c0 28 21 46 49 46c27 0 49 -18 49 -46c0 -27 -22 -45 -49 -45zM211 756c-27 0 -49 18 -49 45c0 28 22 46 49 46c28 0 50 -18 50 -46c0 -27 -22 -45 -50 -45z" />
<glyph unicode="&#xe8;" horiz-adv-x="594" d="M532 78h-378v282h349v74h-349v186h369v80h-449v-700h458v78zM359 754h-66l-81 103v7l72 29l75 -132v-7z" />
<glyph unicode="&#xe9;" horiz-adv-x="594" d="M154 78h378v-78h-458v700h449v-80h-369v-186h349v-74h-349v-282zM332 757h-66v7l75 132l72 -29v-7z" />
<glyph unicode="&#xea;" horiz-adv-x="594" d="M532 78h-378v282h349v74h-349v186h369v80h-449v-700h458v78zM483 759h-71l-98 87l-99 -87h-72v8l133 126h75l132 -127v-7z" />
<glyph unicode="&#xeb;" horiz-adv-x="594" d="M532 78h-378v282h349v74h-349v186h369v80h-449v-700h458v78zM418 756c-28 0 -49 18 -49 45c0 28 21 46 49 46c27 0 49 -18 49 -46c0 -27 -22 -45 -49 -45zM211 756c-27 0 -49 18 -49 45c0 28 22 46 49 46c28 0 50 -18 50 -46c0 -27 -22 -45 -50 -45z" />
<glyph unicode="&#xcc;" horiz-adv-x="256" d="M84 701v-701h81v701h-81zM163 756h-66l-81 103v7l72 29l75 -132v-7z" />
<glyph unicode="&#xcd;" horiz-adv-x="256" d="M84 0v701h81v-701h-81zM155 754h-66v7l75 132l72 -29v-7z" />
<glyph unicode="&#xce;" horiz-adv-x="256" d="M84 701v-701h81v701h-81zM277 750h-63l-87 87l-89 -87h-64v8l119 126h67l117 -127v-7z" />
<glyph unicode="&#xcf;" horiz-adv-x="256" d="M84 701v-701h81v701h-81zM232 756c-28 0 -49 18 -49 45c0 28 21 46 49 46c27 0 49 -18 49 -46c0 -27 -22 -45 -49 -45zM25 756c-27 0 -49 18 -49 45c0 28 22 46 49 46c28 0 50 -18 50 -46c0 -27 -22 -45 -50 -45z" />
<glyph unicode="&#xec;" horiz-adv-x="256" d="M84 701v-701h81v701h-81zM163 756h-66l-81 103v7l72 29l75 -132v-7z" />
<glyph unicode="&#xed;" horiz-adv-x="256" d="M84 0v701h81v-701h-81zM155 754h-66v7l75 132l72 -29v-7z" />
<glyph unicode="&#xee;" horiz-adv-x="256" d="M84 701v-701h81v701h-81zM277 750h-63l-87 87l-89 -87h-64v8l119 126h67l117 -127v-7z" />
<glyph unicode="&#xef;" horiz-adv-x="256" d="M84 701v-701h81v701h-81zM232 756c-28 0 -49 18 -49 45c0 28 21 46 49 46c27 0 49 -18 49 -46c0 -27 -22 -45 -49 -45zM25 756c-27 0 -49 18 -49 45c0 28 22 46 49 46c28 0 50 -18 50 -46c0 -27 -22 -45 -50 -45z" />
<glyph unicode="&#xd0;" horiz-adv-x="635" d="M1 393v67h79v240h205c191 0 305 -141 305 -349c0 -182 -81 -345 -303 -351h-207v393h-79zM160 393v-314h125c158 3 224 130 224 272c0 110 -44 270 -224 270h-125v-161h166v-67h-166z" />
<glyph unicode="&#xd1;" horiz-adv-x="700" d="M154 0v594l390 -318v-276h81v700h-81v-324l-390 324h-80v-700h80zM248 754l-46 25c35 73 98 96 174 52c40 -27 73 -30 100 19c16 -8 31 -16 46 -23c-29 -71 -95 -99 -166 -56c-43 27 -80 32 -108 -17z" />
<glyph unicode="&#xf0;" horiz-adv-x="635" d="M1 393v67h79v240h205c191 0 305 -141 305 -349c0 -182 -81 -345 -303 -351h-207v393h-79zM160 393v-314h125c158 3 224 130 224 272c0 110 -44 270 -224 270h-125v-161h166v-67h-166z" />
<glyph unicode="&#xf1;" horiz-adv-x="700" d="M154 0v594l390 -318v-276h81v700h-81v-324l-390 324h-80v-700h80zM248 754l-46 25c35 73 98 96 174 52c40 -27 73 -30 100 19c16 -8 31 -16 46 -23c-29 -71 -95 -99 -166 -56c-43 27 -80 32 -108 -17z" />
<glyph unicode="&#xd2;" horiz-adv-x="783" d="M396 711c-205 0 -361 -167 -361 -361s156 -361 361 -361c194 0 352 167 352 361s-158 361 -352 361zM396 69c-160 0 -281 130 -281 281s121 281 281 281c151 0 272 -130 272 -281s-121 -281 -272 -281zM439 765h-66l-81 103v7l72 29l75 -132v-7z" />
<glyph unicode="&#xd3;" horiz-adv-x="783" d="M396 711c194 0 352 -167 352 -361s-158 -361 -352 -361c-205 0 -361 167 -361 361s156 361 361 361zM396 69c151 0 272 130 272 281s-121 281 -272 281c-160 0 -281 -130 -281 -281s121 -281 281 -281zM418 769h-66v7l75 132l72 -29v-7z" />
<glyph unicode="&#xd4;" horiz-adv-x="783" d="M396 711c-205 0 -361 -167 -361 -361s156 -361 361 -361c194 0 352 167 352 361s-158 361 -352 361zM396 69c-160 0 -281 130 -281 281s121 281 281 281c151 0 272 -130 272 -281s-121 -281 -272 -281zM570 757h-71l-98 87l-99 -87h-72v8l133 126h75l132 -127v-7z" />
<glyph unicode="&#xd5;" horiz-adv-x="783" d="M396 711c-205 0 -361 -167 -361 -361s156 -361 361 -361c194 0 352 167 352 361s-158 361 -352 361zM396 69c-160 0 -281 130 -281 281s121 281 281 281c151 0 272 -130 272 -281s-121 -281 -272 -281zM288 776l-46 25c35 73 98 96 174 52c40 -27 73 -30 100 19 c16 -8 31 -16 46 -23c-29 -71 -95 -99 -166 -56c-43 27 -80 32 -108 -17z" />
<glyph unicode="&#xd6;" horiz-adv-x="783" d="M396 711c-205 0 -361 -167 -361 -361s156 -361 361 -361c194 0 352 167 352 361s-158 361 -352 361zM396 69c-160 0 -281 130 -281 281s121 281 281 281c151 0 272 -130 272 -281s-121 -281 -272 -281zM501 761c-28 0 -49 18 -49 45c0 28 21 46 49 46c27 0 49 -18 49 -46 c0 -27 -22 -45 -49 -45zM294 761c-27 0 -49 18 -49 45c0 28 22 46 49 46c28 0 50 -18 50 -46c0 -27 -22 -45 -50 -45z" />
<glyph unicode="&#xd8;" horiz-adv-x="783" d="M395 711c57 0 111 -15 159 -41l59 93l58 -34l-61 -95c83 -67 137 -171 137 -284c0 -194 -158 -361 -352 -361c-62 0 -119 15 -169 41l-61 -96l-55 35l61 97c-84 67 -137 171 -137 284c0 194 156 361 361 361zM395 69c151 0 272 130 272 281c0 85 -39 164 -100 216 l-298 -468c38 -19 80 -29 126 -29zM395 631c-160 0 -281 -130 -281 -281c0 -85 38 -164 100 -216l298 469c-36 18 -75 28 -117 28z" />
<glyph unicode="&#xf2;" horiz-adv-x="783" d="M396 711c-205 0 -361 -167 -361 -361s156 -361 361 -361c194 0 352 167 352 361s-158 361 -352 361zM396 69c-160 0 -281 130 -281 281s121 281 281 281c151 0 272 -130 272 -281s-121 -281 -272 -281zM439 765h-66l-81 103v7l72 29l75 -132v-7z" />
<glyph unicode="&#xf3;" horiz-adv-x="783" d="M396 711c194 0 352 -167 352 -361s-158 -361 -352 -361c-205 0 -361 167 -361 361s156 361 361 361zM396 69c151 0 272 130 272 281s-121 281 -272 281c-160 0 -281 -130 -281 -281s121 -281 281 -281zM418 769h-66v7l75 132l72 -29v-7z" />
<glyph unicode="&#xf4;" horiz-adv-x="783" d="M396 711c-205 0 -361 -167 -361 -361s156 -361 361 -361c194 0 352 167 352 361s-158 361 -352 361zM396 69c-160 0 -281 130 -281 281s121 281 281 281c151 0 272 -130 272 -281s-121 -281 -272 -281zM570 757h-71l-98 87l-99 -87h-72v8l133 126h75l132 -127v-7z" />
<glyph unicode="&#xf5;" horiz-adv-x="783" d="M396 711c-205 0 -361 -167 -361 -361s156 -361 361 -361c194 0 352 167 352 361s-158 361 -352 361zM396 69c-160 0 -281 130 -281 281s121 281 281 281c151 0 272 -130 272 -281s-121 -281 -272 -281zM288 776l-46 25c35 73 98 96 174 52c40 -27 73 -30 100 19 c16 -8 31 -16 46 -23c-29 -71 -95 -99 -166 -56c-43 27 -80 32 -108 -17z" />
<glyph unicode="&#xf6;" horiz-adv-x="783" d="M396 711c-205 0 -361 -167 -361 -361s156 -361 361 -361c194 0 352 167 352 361s-158 361 -352 361zM396 69c-160 0 -281 130 -281 281s121 281 281 281c151 0 272 -130 272 -281s-121 -281 -272 -281zM501 761c-28 0 -49 18 -49 45c0 28 21 46 49 46c27 0 49 -18 49 -46 c0 -27 -22 -45 -49 -45zM294 761c-27 0 -49 18 -49 45c0 28 22 46 49 46c28 0 50 -18 50 -46c0 -27 -22 -45 -50 -45z" />
<glyph unicode="&#xf8;" horiz-adv-x="783" d="M395 711c57 0 111 -15 159 -41l59 93l58 -34l-61 -95c83 -67 137 -171 137 -284c0 -194 -158 -361 -352 -361c-62 0 -119 15 -169 41l-61 -96l-55 35l61 97c-84 67 -137 171 -137 284c0 194 156 361 361 361zM395 69c151 0 272 130 272 281c0 85 -39 164 -100 216 l-298 -468c38 -19 80 -29 126 -29zM395 631c-160 0 -281 -130 -281 -281c0 -85 38 -164 100 -216l298 469c-36 18 -75 28 -117 28z" />
<glyph unicode="&#xd9;" horiz-adv-x="642" d="M317 71c-119 0 -164 103 -164 220v409h-83v-409c0 -213 111 -302 247 -302c155 0 260 92 260 305v406h-83v-409c0 -136 -45 -220 -177 -220zM372 755h-66l-81 103v7l72 29l75 -132v-7z" />
<glyph unicode="&#xda;" horiz-adv-x="642" d="M317 71c132 0 177 84 177 220v409h83v-406c0 -213 -105 -305 -260 -305c-136 0 -247 89 -247 302v409h83v-409c0 -117 45 -220 164 -220zM336 755h-66v7l75 132l72 -29v-7z" />
<glyph unicode="&#xdb;" horiz-adv-x="642" d="M317 71c-119 0 -164 103 -164 220v409h-83v-409c0 -213 111 -302 247 -302c155 0 260 92 260 305v406h-83v-409c0 -136 -45 -220 -177 -220zM499 758h-71l-98 87l-99 -87h-72v8l133 126h75l132 -127v-7z" />
<glyph unicode="&#xdc;" horiz-adv-x="642" d="M317 71c-119 0 -164 103 -164 220v409h-83v-409c0 -213 111 -302 247 -302c155 0 260 92 260 305v406h-83v-409c0 -136 -45 -220 -177 -220zM424 764c-28 0 -49 18 -49 45c0 28 21 46 49 46c27 0 49 -18 49 -46c0 -27 -22 -45 -49 -45zM217 764c-27 0 -49 18 -49 45 c0 28 22 46 49 46c28 0 50 -18 50 -46c0 -27 -22 -45 -50 -45z" />
<glyph unicode="&#xf9;" horiz-adv-x="642" d="M317 71c-119 0 -164 103 -164 220v409h-83v-409c0 -213 111 -302 247 -302c155 0 260 92 260 305v406h-83v-409c0 -136 -45 -220 -177 -220zM372 755h-66l-81 103v7l72 29l75 -132v-7z" />
<glyph unicode="&#xfa;" horiz-adv-x="642" d="M317 71c132 0 177 84 177 220v409h83v-406c0 -213 -105 -305 -260 -305c-136 0 -247 89 -247 302v409h83v-409c0 -117 45 -220 164 -220zM336 755h-66v7l75 132l72 -29v-7z" />
<glyph unicode="&#xfb;" horiz-adv-x="642" d="M317 71c-119 0 -164 103 -164 220v409h-83v-409c0 -213 111 -302 247 -302c155 0 260 92 260 305v406h-83v-409c0 -136 -45 -220 -177 -220zM499 758h-71l-98 87l-99 -87h-72v8l133 126h75l132 -127v-7z" />
<glyph unicode="&#xfc;" horiz-adv-x="642" d="M317 71c-119 0 -164 103 -164 220v409h-83v-409c0 -213 111 -302 247 -302c155 0 260 92 260 305v406h-83v-409c0 -136 -45 -220 -177 -220zM424 764c-28 0 -49 18 -49 45c0 28 21 46 49 46c27 0 49 -18 49 -46c0 -27 -22 -45 -49 -45zM217 764c-27 0 -49 18 -49 45 c0 28 22 46 49 46c28 0 50 -18 50 -46c0 -27 -22 -45 -50 -45z" />
<glyph unicode="&#xdd;" horiz-adv-x="575" d="M281 391l210 309h86l-260 -381v-319h-79v319l-242 381h87zM305 749h-66v7l75 132l72 -29v-7z" />
<glyph unicode="&#xde;" horiz-adv-x="546" d="M74 0v700h81v-120h105c149 0 260 -64 260 -216c0 -143 -97 -220 -256 -220h-109v-144h-81zM155 218h106c133 0 183 62 183 145c0 48 -17 141 -185 141h-104v-286z" />
<glyph unicode="&#xfe;" horiz-adv-x="546" d="M74 0v700h81v-120h105c149 0 260 -64 260 -216c0 -143 -97 -220 -256 -220h-109v-144h-81zM155 218h106c133 0 183 62 183 145c0 48 -17 141 -185 141h-104v-286z" />
<glyph unicode="&#xfd;" horiz-adv-x="575" d="M281 391l210 309h86l-260 -381v-319h-79v319l-242 381h87zM305 749h-66v7l75 132l72 -29v-7z" />
<glyph unicode="&#xff;" horiz-adv-x="575" d="M491 700l-210 -309l-198 309h-87l242 -381v-319h79v319l260 381h-86zM387 747c-28 0 -49 18 -49 45c0 28 21 46 49 46c27 0 49 -18 49 -46c0 -27 -22 -45 -49 -45zM180 747c-27 0 -49 18 -49 45c0 28 22 46 49 46c28 0 50 -18 50 -46c0 -27 -22 -45 -50 -45z" />
<glyph unicode="&#x104;" d="M191 219l-83 -219h-89l275 700h105l254 -694c-131 -50 -99 -199 24 -133l16 -48c-150 -84 -251 78 -127 180l-76 214h-299zM346 629l-126 -333h243z" />
<glyph unicode="&#x141;" horiz-adv-x="508" d="M17 227l-27 45l84 47v380h80v-335l108 61l28 -45l-136 -76v-227h329v-77h-409v259z" />
<glyph unicode="&#x13d;" horiz-adv-x="508" d="M483 77v-77h-409v699h80v-622h329zM429 642c-1 -7 -3 -15 -6 -24l-30 -95h-49l22 78c-20 7 -35 22 -35 45c0 28 21 46 49 46c23 0 41 -13 48 -34c1 -7 2 -13 1 -16z" />
<glyph unicode="&#x15a;" horiz-adv-x="511" d="M467 187c2 -115 -79 -198 -241 -198c-68 0 -127 14 -167 44l20 73c39 -20 87 -40 155 -40c86 0 155 45 154 120c-1 68 -54 104 -149 144c-108 37 -177 93 -179 191c-3 109 86 190 219 190c82 0 138 -32 153 -40l-30 -70c-42 30 -89 35 -130 33c-69 -3 -134 -44 -132 -108 c1 -48 38 -89 116 -121c97 -41 208 -95 211 -218zM286 763h-64v6l73 123l71 -27v-7z" />
<glyph unicode="&#x15e;" horiz-adv-x="511" d="M467 187c1 -99 -59 -173 -179 -191l-14 -56c65 -3 97 -53 81 -107c-27 -79 -148 -74 -208 -27l21 40c35 -29 111 -42 125 2c16 49 -47 73 -85 68l20 75h-2c-68 0 -127 14 -167 44l20 73c39 -20 87 -40 155 -40c86 0 155 43 154 118c-1 68 -54 104 -149 144 c-108 37 -177 93 -179 191c-3 109 86 191 219 191c82 0 138 -32 153 -40l-30 -70c-42 30 -89 35 -130 33c-69 -3 -134 -45 -132 -109c1 -48 38 -89 116 -121c97 -41 208 -95 211 -218z" />
<glyph unicode="&#x164;" horiz-adv-x="557" d="M12 628h227v-628h78v628h228v72h-533v-72zM110 889h71l98 -87l99 87h72v-8l-133 -126h-75l-132 127v7z" />
<glyph unicode="&#x179;" horiz-adv-x="568" d="M22 47l402 578h-373v75h481v-57l-397 -568h397v-75h-510v47zM315 759h-66v7l75 132l72 -29v-7z" />
<glyph unicode="&#x17b;" horiz-adv-x="568" d="M424 625l-402 -578v-47h510v75h-397l397 568v57h-481v-75h373zM299 771c-28 0 -51 20 -51 47c0 31 23 48 51 48c29 0 52 -17 52 -48c0 -27 -23 -47 -52 -47z" />
<glyph unicode="&#x105;" d="M191 219l-83 -219h-89l275 700h105l254 -694c-131 -50 -99 -199 24 -133l16 -48c-150 -84 -251 78 -127 180l-76 214h-299zM346 629l-126 -333h243z" />
<glyph unicode="&#x142;" horiz-adv-x="508" d="M17 227l-27 45l84 47v380h80v-335l108 61l28 -45l-136 -76v-227h329v-77h-409v259z" />
<glyph unicode="&#x13e;" horiz-adv-x="508" d="M483 77v-77h-409v699h80v-622h329zM429 642c-1 -7 -3 -15 -6 -24l-30 -95h-49l22 78c-20 7 -35 22 -35 45c0 28 21 46 49 46c23 0 41 -13 48 -34c1 -7 2 -13 1 -16z" />
<glyph unicode="&#x15b;" horiz-adv-x="511" d="M467 187c2 -115 -79 -198 -241 -198c-68 0 -127 14 -167 44l20 73c39 -20 87 -40 155 -40c86 0 155 45 154 120c-1 68 -54 104 -149 144c-108 37 -177 93 -179 191c-3 109 86 190 219 190c82 0 138 -32 153 -40l-30 -70c-42 30 -89 35 -130 33c-69 -3 -134 -44 -132 -108 c1 -48 38 -89 116 -121c97 -41 208 -95 211 -218zM286 763h-64v6l73 123l71 -27v-7z" />
<glyph unicode="&#x15f;" horiz-adv-x="511" d="M467 187c1 -99 -59 -173 -179 -191l-14 -56c65 -3 97 -53 81 -107c-27 -79 -148 -74 -208 -27l21 40c35 -29 111 -42 125 2c16 49 -47 73 -85 68l20 75h-2c-68 0 -127 14 -167 44l20 73c39 -20 87 -40 155 -40c86 0 155 43 154 118c-1 68 -54 104 -149 144 c-108 37 -177 93 -179 191c-3 109 86 191 219 191c82 0 138 -32 153 -40l-30 -70c-42 30 -89 35 -130 33c-69 -3 -134 -45 -132 -109c1 -48 38 -89 116 -121c97 -41 208 -95 211 -218z" />
<glyph unicode="&#x165;" horiz-adv-x="557" d="M12 628h227v-628h78v628h228v72h-533v-72zM110 889h71l98 -87l99 87h72v-8l-133 -126h-75l-132 127v7z" />
<glyph unicode="&#x17a;" horiz-adv-x="568" d="M22 47l402 578h-373v75h481v-57l-397 -568h397v-75h-510v47zM315 759h-66v7l75 132l72 -29v-7z" />
<glyph unicode="&#x17c;" horiz-adv-x="568" d="M424 625l-402 -578v-47h510v75h-397l397 568v57h-481v-75h373zM299 771c-28 0 -51 20 -51 47c0 31 23 48 51 48c29 0 52 -17 52 -48c0 -27 -23 -47 -52 -47z" />
<glyph unicode="&#x154;" horiz-adv-x="559" d="M264 264h-109v-264h-81v700h186c149 0 260 -64 260 -216c0 -108 -56 -178 -151 -206l159 -278h-93l-148 264h-23zM155 338h106c133 0 183 62 183 145c0 48 -17 141 -185 141h-104v-286zM287 759h-66v7l75 132l72 -29v-7z" />
<glyph unicode="&#x155;" horiz-adv-x="559" d="M264 264h-109v-264h-81v700h186c149 0 260 -64 260 -216c0 -108 -56 -178 -151 -206l159 -278h-93l-148 264h-23zM155 338h106c133 0 183 62 183 145c0 48 -17 141 -185 141h-104v-286zM287 759h-66v7l75 132l72 -29v-7z" />
<glyph unicode="&#x102;" d="M108 0l83 219h299l78 -219h88l-257 700h-105l-275 -700h89zM220 296l126 333l117 -333h-243zM206 870h59c16 -89 144 -88 160 0h58c-16 -164 -260 -162 -277 0z" />
<glyph unicode="&#x103;" d="M108 0l83 219h299l78 -219h88l-257 700h-105l-275 -700h89zM220 296l126 333l117 -333h-243zM206 870h59c16 -89 144 -88 160 0h58c-16 -164 -260 -162 -277 0z" />
<glyph unicode="&#x139;" horiz-adv-x="508" d="M483 77v-77h-409v699h80v-622h329zM155 757h-66v7l75 132l72 -29v-7z" />
<glyph unicode="&#x13a;" horiz-adv-x="508" d="M483 77v-77h-409v699h80v-622h329zM155 757h-66v7l75 132l72 -29v-7z" />
<glyph unicode="&#x106;" horiz-adv-x="678" d="M380 69c56 0 161 18 205 87l59 -46c-67 -88 -165 -121 -264 -121c-188 5 -330 122 -330 368c0 213 149 355 341 354c98 -1 171 -34 232 -97l-52 -50c-50 51 -121 69 -185 69c-178 0 -254 -147 -254 -279c0 -169 87 -285 248 -285zM406 769h-66v7l75 132l72 -29v-7z" />
<glyph unicode="&#x107;" horiz-adv-x="678" d="M380 69c56 0 161 18 205 87l59 -46c-67 -88 -165 -121 -264 -121c-188 5 -330 122 -330 368c0 213 149 355 341 354c98 -1 171 -34 232 -97l-52 -50c-50 51 -121 69 -185 69c-178 0 -254 -147 -254 -279c0 -169 87 -285 248 -285zM406 769h-66v7l75 132l72 -29v-7z" />
<glyph unicode="&#x10c;" horiz-adv-x="678" d="M380 69c-161 0 -248 116 -248 285c0 132 76 279 254 279c64 0 135 -18 185 -69l52 50c-61 63 -134 96 -232 97c-192 1 -341 -141 -341 -354c0 -246 142 -363 330 -368c99 0 197 33 264 121l-59 46c-44 -69 -149 -87 -205 -87zM215 898h71l98 -87l99 87h72v-8l-133 -126 h-75l-132 127v7z" />
<glyph unicode="&#x10d;" horiz-adv-x="678" d="M380 69c-161 0 -248 116 -248 285c0 132 76 279 254 279c64 0 135 -18 185 -69l52 50c-61 63 -134 96 -232 97c-192 1 -341 -141 -341 -354c0 -246 142 -363 330 -368c99 0 197 33 264 121l-59 46c-44 -69 -149 -87 -205 -87zM215 898h71l98 -87l99 87h72v-8l-133 -126 h-75l-132 127v7z" />
<glyph unicode="&#x118;" horiz-adv-x="594" d="M154 78h378v-78c-137 -52 -129 -191 -6 -125l15 -50c-147 -83 -243 76 -94 175h-373v700h449v-80h-369v-186h349v-74h-349v-282z" />
<glyph unicode="&#x119;" horiz-adv-x="594" d="M154 78h378v-78c-137 -52 -129 -191 -6 -125l15 -50c-147 -83 -243 76 -94 175h-373v700h449v-80h-369v-186h349v-74h-349v-282z" />
<glyph unicode="&#x11a;" horiz-adv-x="594" d="M532 78h-378v282h349v74h-349v186h369v80h-449v-700h458v78zM138 884h71l98 -82l99 82h72v-7l-133 -120h-75l-132 121v6z" />
<glyph unicode="&#x11b;" horiz-adv-x="594" d="M532 78h-378v282h349v74h-349v186h369v80h-449v-700h458v78zM138 884h71l98 -82l99 82h72v-7l-133 -120h-75l-132 121v6z" />
<glyph unicode="&#x10e;" horiz-adv-x="635" d="M590 351c0 208 -114 349 -305 349h-205v-700h207c222 6 303 169 303 351zM160 79v542h125c180 0 224 -160 224 -270c0 -142 -66 -269 -224 -272h-125zM129 890h71l98 -87l99 87h72v-8l-133 -126h-75l-132 127v7z" />
<glyph unicode="&#x10f;" horiz-adv-x="635" d="M590 351c0 208 -114 349 -305 349h-205v-700h207c222 6 303 169 303 351zM160 79v542h125c180 0 224 -160 224 -270c0 -142 -66 -269 -224 -272h-125zM129 890h71l98 -87l99 87h72v-8l-133 -126h-75l-132 127v7z" />
<glyph unicode="&#x110;" horiz-adv-x="635" d="M1 393v67h79v240h205c191 0 305 -141 305 -349c0 -182 -81 -345 -303 -351h-207v393h-79zM160 393v-314h125c158 3 224 130 224 272c0 110 -44 270 -224 270h-125v-161h166v-67h-166z" />
<glyph unicode="&#x111;" horiz-adv-x="635" d="M1 393v67h79v240h205c191 0 305 -141 305 -349c0 -182 -81 -345 -303 -351h-207v393h-79zM160 393v-314h125c158 3 224 130 224 272c0 110 -44 270 -224 270h-125v-161h166v-67h-166z" />
<glyph unicode="&#x143;" horiz-adv-x="700" d="M154 594v-594h-80v700h80l390 -324v324h81v-700h-81v276zM366 759h-66v7l75 132l72 -29v-7z" />
<glyph unicode="&#x147;" horiz-adv-x="700" d="M154 0v594l390 -318v-276h81v700h-81v-324l-390 324h-80v-700h80zM171 889h71l98 -87l99 87h72v-8l-133 -126h-75l-132 127v7z" />
<glyph unicode="&#x144;" horiz-adv-x="700" d="M154 594v-594h-80v700h80l390 -324v324h81v-700h-81v276zM366 759h-66v7l75 132l72 -29v-7z" />
<glyph unicode="&#x148;" horiz-adv-x="700" d="M154 0v594l390 -318v-276h81v700h-81v-324l-390 324h-80v-700h80zM171 889h71l98 -87l99 87h72v-8l-133 -126h-75l-132 127v7z" />
<glyph unicode="&#x150;" horiz-adv-x="783" d="M396 711c194 0 352 -167 352 -361s-158 -361 -352 -361c-205 0 -361 167 -361 361s156 361 361 361zM396 69c151 0 272 130 272 281s-121 281 -272 281c-160 0 -281 -130 -281 -281s121 -281 281 -281zM503 764h-63v6l72 116l68 -25v-7zM341 764h-63v6l72 116l68 -25v-7z " />
<glyph unicode="&#x151;" horiz-adv-x="783" d="M396 711c194 0 352 -167 352 -361s-158 -361 -352 -361c-205 0 -361 167 -361 361s156 361 361 361zM396 69c151 0 272 130 272 281s-121 281 -272 281c-160 0 -281 -130 -281 -281s121 -281 281 -281zM503 764h-63v6l72 116l68 -25v-7zM341 764h-63v6l72 116l68 -25v-7z " />
<glyph unicode="&#x158;" horiz-adv-x="559" d="M155 264h109h23l148 -264h93l-159 278c95 28 151 98 151 206c0 152 -111 216 -260 216h-186v-700h81v264zM261 338h-106v286h104c168 0 185 -93 185 -141c0 -83 -50 -145 -183 -145zM106 883h71l99 -84l99 84h72v-8l-133 -121h-76l-132 122v7z" />
<glyph unicode="&#x16e;" horiz-adv-x="642" d="M317 71c-119 0 -164 103 -164 220v409h-83v-409c0 -213 111 -302 247 -302c155 0 260 92 260 305v406h-83v-409c0 -136 -45 -220 -177 -220zM432 829c0 -127 -219 -127 -219 0c0 128 219 128 219 0zM262 829c0 -70 121 -70 121 0s-121 70 -121 0z" />
<glyph unicode="&#x159;" horiz-adv-x="559" d="M155 264h109h23l148 -264h93l-159 278c95 28 151 98 151 206c0 152 -111 216 -260 216h-186v-700h81v264zM261 338h-106v286h104c168 0 185 -93 185 -141c0 -83 -50 -145 -183 -145zM106 883h71l99 -84l99 84h72v-8l-133 -121h-76l-132 122v7z" />
<glyph unicode="&#x16f;" horiz-adv-x="642" d="M317 71c-119 0 -164 103 -164 220v409h-83v-409c0 -213 111 -302 247 -302c155 0 260 92 260 305v406h-83v-409c0 -136 -45 -220 -177 -220zM432 829c0 -127 -219 -127 -219 0c0 128 219 128 219 0zM262 829c0 -70 121 -70 121 0s-121 70 -121 0z" />
<glyph unicode="&#x170;" horiz-adv-x="642" d="M317 71c132 0 177 84 177 220v409h83v-406c0 -213 -105 -305 -260 -305c-136 0 -247 89 -247 302v409h83v-409c0 -117 45 -220 164 -220zM425 764h-63v6l72 116l68 -25v-7zM263 764h-63v6l72 116l68 -25v-7z" />
<glyph unicode="&#x171;" horiz-adv-x="642" d="M317 71c132 0 177 84 177 220v409h83v-406c0 -213 -105 -305 -260 -305c-136 0 -247 89 -247 302v409h83v-409c0 -117 45 -220 164 -220zM425 764h-63v6l72 116l68 -25v-7zM263 764h-63v6l72 116l68 -25v-7z" />
<glyph unicode="&#x162;" horiz-adv-x="557" d="M239 628h-227v72h533v-72h-228v-628h-78v628zM328 -100c-1 -7 -3 -15 -6 -24l-30 -95h-49l22 78c-20 7 -35 22 -35 45c0 28 21 46 49 46c23 0 41 -13 48 -34c1 -7 2 -13 1 -16z" />
<glyph unicode="&#x163;" horiz-adv-x="557" d="M239 628h-227v72h533v-72h-228v-628h-78v628zM328 -100c-1 -7 -3 -15 -6 -24l-30 -95h-49l22 78c-20 7 -35 22 -35 45c0 28 21 46 49 46c23 0 41 -13 48 -34c1 -7 2 -13 1 -16z" />
<glyph unicode="&#x11e;" horiz-adv-x="662" d="M516 291l-3 -210c-40 -10 -79 -14 -118 -14c-151 0 -264 76 -264 284c5 180 127 281 277 279c47 -1 112 -17 161 -37l28 75c-47 20 -106 44 -188 43c-229 -3 -368 -159 -368 -360c0 -224 114 -362 355 -362c66 0 127 6 198 29l5 348h-251v-75h168zM226 897h66 c19 -97 164 -96 182 0h66c-19 -179 -295 -177 -314 0z" />
<glyph unicode="&#x11f;" horiz-adv-x="662" d="M516 291l-3 -210c-40 -10 -79 -14 -118 -14c-151 0 -264 76 -264 284c5 180 127 281 277 279c47 -1 112 -17 161 -37l28 75c-47 20 -106 44 -188 43c-229 -3 -368 -159 -368 -360c0 -224 114 -362 355 -362c66 0 127 6 198 29l5 348h-251v-75h168zM226 897h66 c19 -97 164 -96 182 0h66c-19 -179 -295 -177 -314 0z" />
<glyph unicode="&#x130;" horiz-adv-x="256" d="M84 701v-701h81v701h-81zM125 752c-28 0 -51 20 -51 47c0 31 23 48 51 48c29 0 52 -17 52 -48c0 -27 -23 -47 -52 -47z" />
<glyph unicode="&#x131;" horiz-adv-x="256" d="M84 0v701h81v-701h-81z" />
</font>
</defs>
</svg>
