<?xml version="1.0" standalone="no"?>
<!DOCTYPE svg PUBLIC "-//W3C//DTD SVG 1.1//EN" "http://www.w3.org/Graphics/SVG/1.1/DTD/svg11.dtd" >
<svg xmlns="http://www.w3.org/2000/svg" xmlns:xlink="http://www.w3.org/1999/xlink" version="1.1">
<metadata></metadata>
<defs>
<font id="concourse_c4regular" horiz-adv-x="790" >
<font-face units-per-em="1000" ascent="742" descent="-258" />
<missing-glyph horiz-adv-x="280" />
<glyph unicode="&#x3c;&#x2d;" horiz-adv-x="700" d="M74 272l237 264l61 -46l-163 -183h420v-84h-420l163 -183l-61 -47l-237 266v13z" />
<glyph unicode="&#x2d;&#x3e;" horiz-adv-x="700" d="M389 536l237 -264v-13l-237 -266l-61 47l163 183h-420v84h420l-163 183z" />
<glyph unicode="&#x28;&#x3c;&#x2d;&#x29;" horiz-adv-x="880" d="M399 536l-237 -264v-13l237 -266l61 47l-163 183h420v84h-420l163 183zM822 263c0 -209 -171 -380 -380 -380c-212 0 -384 171 -384 380c0 212 172 383 384 383c209 0 380 -171 380 -383z" />
<glyph unicode="&#x28;&#x2d;&#x3e;&#x29;" horiz-adv-x="880" d="M718 272l-237 264l-61 -46l163 -183h-420v-84h420l-163 -183l61 -47l237 266v13zM58 263c0 212 171 383 380 383c212 0 384 -171 384 -383c0 -209 -172 -380 -384 -380c-209 0 -380 171 -380 380z" />
<glyph unicode="&#x28;&#x2191;&#x29;" horiz-adv-x="880" d="M711 305l-264 237h-13l-266 -237l47 -61l183 163v-420h84v420l183 -163zM438 -118c-209 0 -380 171 -380 380c0 212 171 384 380 384c212 0 384 -172 384 -384c0 -209 -172 -380 -384 -380z" />
<glyph unicode="&#x28;&#x2193;&#x29;" horiz-adv-x="880" d="M447 -14l264 237l-46 61l-183 -163v420h-84v-420l-183 163l-47 -61l266 -237h13zM438 646c212 0 384 -171 384 -380c0 -212 -172 -384 -384 -384c-209 0 -380 172 -380 384c0 209 171 380 380 380z" />
<glyph unicode="fi" horiz-adv-x="800" d="M433 500v-79h-248v-132h218v-79h-218v-210h-92v500h340zM691 500v-500h-92v500h92z" />
<glyph unicode="fl" horiz-adv-x="950" d="M433 500v-79h-248v-132h218v-79h-218v-210h-92v500h340zM675 500v-421h222v-79h-314v500h92z" />
<glyph unicode=" "  horiz-adv-x="280" />
<glyph unicode="&#x09;" horiz-adv-x="280" />
<glyph unicode="&#xa0;" horiz-adv-x="280" />
<glyph unicode="A" horiz-adv-x="730" d="M582 0l-75 177h-286l-73 -177h-100l306 700h20l308 -700h-100zM360 510l-105 -251h218l-106 251h-7z" />
<glyph unicode="B" horiz-adv-x="630" d="M418 362v-5c88 -23 134 -86 134 -162c0 -125 -89 -195 -236 -195h-198v680h186c147 0 212 -73 212 -165c0 -53 -34 -132 -98 -153zM319 315h-107v-236h109c62 0 137 23 137 118c0 78 -67 118 -139 118zM422 500c0 66 -49 101 -123 101h-87v-208h109c56 0 101 39 101 107z " />
<glyph unicode="C" horiz-adv-x="720" d="M641 627l-22 -83c-31 21 -105 67 -198 66c-127 -1 -245 -89 -245 -277c0 -153 100 -263 247 -263c85 0 148 34 207 71l25 -80c-55 -42 -144 -76 -234 -76c-203 0 -343 154 -343 344c0 231 161 366 345 366c93 0 177 -38 218 -68z" />
<glyph unicode="D" horiz-adv-x="740" d="M212 82h102c157 0 250 101 250 254c0 186 -129 262 -251 262h-101v-516zM310 0h-192v680h191c200 0 353 -134 353 -346c0 -206 -147 -334 -352 -334z" />
<glyph unicode="E" horiz-adv-x="600" d="M503 680v-82h-291v-203h261v-82h-261v-231h301v-82h-395v680h385z" />
<glyph horiz-adv-x="640" d="M556 647l-22 -83c-20 14 -72 47 -143 46c-97 -1 -191 -70 -211 -215h303l-10 -82h-297c8 -143 96 -243 222 -243c57 0 95 16 137 41l25 -80c-41 -30 -102 -46 -164 -46c-188 0 -318 154 -318 344c0 231 149 366 315 366c71 0 133 -26 163 -48z" />
<glyph unicode="F" horiz-adv-x="570" d="M492 680v-82h-280v-203h250v-82h-250v-313h-94v680h374z" />
<glyph unicode="G" horiz-adv-x="770" d="M421 610c-128 0 -245 -89 -245 -277c0 -158 104 -263 251 -263c67 0 121 16 149 49v162h-182v82h278v-281c-64 -60 -142 -97 -250 -97c-212 0 -344 165 -344 344c0 207 136 366 345 366c93 0 179 -40 220 -70l-24 -83c-32 27 -103 68 -198 68z" />
<glyph d="M415 610c-122 0 -239 -89 -239 -277c0 -151 103 -263 231 -263c130 0 200 84 205 216h-203v82h301c14 -229 -102 -383 -306 -383c-202 0 -326 170 -326 344c0 207 136 366 340 366c100 0 196 -41 257 -133l-70 -48c-50 66 -118 96 -190 96z" />
<glyph unicode="H" horiz-adv-x="770" d="M652 680v-680h-94v313h-346v-313h-94v680h94v-285h346v285h94z" />
<glyph unicode="I" horiz-adv-x="350" d="M222 680v-680h-94v680h94z" />
<glyph unicode="J" horiz-adv-x="500" d="M60 11l25 82c16 -11 44 -25 78 -25c82 0 125 50 125 168v444h94v-459c0 -161 -88 -236 -214 -236c-41 0 -82 11 -108 26z" />
<glyph unicode="K" horiz-adv-x="670" d="M240 306l-28 -28v-278h-94v680h94v-310h10l270 310h104v-10l-276 -318l312 -342v-10h-113z" />
<glyph unicode="L" horiz-adv-x="560" d="M212 680v-598h290v-82h-384v680h94z" />
<glyph unicode="M" horiz-adv-x="940" d="M698 430h-7l-216 -440h-10l-216 440h-7l-53 -430h-96l100 690h20l258 -519h4l252 519h20l100 -690h-96z" />
<glyph horiz-adv-x="870" d="M658 481h-6l-212 -282h-10l-212 282h-6v-481h-94v680h60l257 -344h6l254 344h57v-680h-94v481z" />
<glyph horiz-adv-x="890" d="M678 437h-9l-218 -447h-12l-221 447h-6v-437h-94v680h76l252 -509h4l246 509h76v-680h-94v437z" />
<glyph unicode="N" horiz-adv-x="830" d="M148 690l462 -497h8v487h94v-690h-30l-462 496h-8v-486h-94v690h30z" />
<glyph unicode="O" horiz-adv-x="830" d="M752 335c0 -190 -140 -350 -336 -350c-188 0 -338 150 -338 350c0 218 163 360 338 360c180 0 336 -139 336 -360zM654 337c0 161 -105 273 -243 273c-121 0 -235 -102 -235 -273c0 -137 90 -267 242 -267c142 0 236 126 236 267z" />
<glyph unicode="P" horiz-adv-x="580" d="M517 484c0 -128 -97 -212 -240 -211h-65v-273h-94v680h168c138 0 231 -75 231 -196zM419 482c0 74 -52 119 -132 119h-75v-249h70c73 0 137 34 137 130z" />
<glyph unicode="Q" horiz-adv-x="830" d="M172 1l34 65c-86 68 -128 173 -128 281c0 186 138 348 333 348c203 0 341 -153 341 -348c0 -182 -122 -346 -335 -352h-22l-4 -5c52 -45 168 -103 266 -99l-27 -94c-196 0 -320 185 -458 204zM654 349c0 112 -79 261 -243 261c-151 0 -235 -136 -235 -261 c0 -139 86 -269 236 -269c156 0 242 133 242 269z" />
<glyph horiz-adv-x="830" d="M752 335c0 -101 -39 -193 -105 -257l102 -118h-117l-56 65c-47 -25 -101 -40 -160 -40c-188 0 -338 150 -338 350c0 218 163 360 338 360c180 0 336 -139 336 -360zM492 257l94 -110c43 50 68 118 68 190c0 161 -105 273 -243 273c-121 0 -235 -102 -235 -273 c0 -137 90 -267 242 -267c36 0 69 8 99 23l-142 164h117z" />
<glyph horiz-adv-x="830" d="M752 335c0 -173 -116 -322 -285 -346v-155h-97v154c-166 22 -292 163 -292 347c0 218 163 360 338 360c180 0 336 -139 336 -360zM467 222v-147c114 25 187 138 187 262c0 161 -105 273 -243 273c-121 0 -235 -102 -235 -273c0 -122 71 -238 194 -262v147h97z" />
<glyph unicode="R" horiz-adv-x="650" d="M532 482c0 -94 -57 -173 -163 -191l213 -278v-13h-106l-210 282h-54v-282h-94v680h188c144 0 226 -71 226 -198zM436 483c0 81 -54 118 -134 118h-90v-241h100c73 0 124 35 124 123z" />
<glyph horiz-adv-x="670" d="M369 345v-2c98 -38 191 -240 263 -330v-13h-101c-56 79 -176 317 -280 317h-39v-317h-94v680h173c139 0 216 -77 216 -173c0 -79 -40 -141 -138 -162zM411 498c0 57 -45 103 -119 103h-80v-206h80c62 0 119 29 119 103z" />
<glyph unicode="S" horiz-adv-x="590" d="M78 48l24 87c47 -37 108 -67 183 -67c92 0 124 49 124 103c0 56 -33 85 -121 137c-133 78 -190 117 -190 209c0 87 67 178 213 178c74 0 141 -29 180 -57l-22 -82c-44 33 -101 57 -156 57c-87 0 -121 -36 -121 -89c0 -46 27 -74 138 -134c128 -69 176 -134 176 -214 c0 -128 -92 -191 -222 -191c-93 0 -173 33 -206 63z" />
<glyph unicode="T" horiz-adv-x="630" d="M582 598h-220v-598h-94v598h-220v82h534v-82z" />
<glyph unicode="U" horiz-adv-x="770" d="M652 680v-438c0 -131 -83 -257 -267 -257c-209 0 -267 127 -267 252v443h94v-426c0 -133 69 -186 173 -186c101 0 173 51 173 186v426h94z" />
<glyph unicode="V" horiz-adv-x="710" d="M159 680l195 -480h10l187 480h101l-287 -695h-20l-287 695h101z" />
<glyph unicode="W" horiz-adv-x="970" d="M491 439h-8l-145 -454h-30l-250 695h101l162 -464h8l143 474h26l149 -474h8l156 464h101l-250 -695h-30z" />
<glyph horiz-adv-x="970" d="M419 680l67 -181l65 181h101l-117 -285l79 -195h10l187 480h101l-287 -695h-20l-121 307l-119 -307h-20l-287 695h101l195 -480h10l73 190l-119 290h101z" />
<glyph unicode="X" horiz-adv-x="700" d="M63 0l233 343l-227 337h109l173 -261l174 261h106l-227 -335l233 -345h-109l-179 270l-180 -270h-106z" />
<glyph unicode="Y" horiz-adv-x="670" d="M152 680l181 -286h8l177 286h104l-240 -377v-303h-94v303l-240 377h104z" />
<glyph unicode="Z" horiz-adv-x="690" d="M223 88l5 -6h389v-82h-547l-6 10l409 582l-5 6h-365v82h528l5 -5z" />
<glyph unicode="a" horiz-adv-x="570" d="M437 0l-49 108h-207l-47 -108h-96l236 505h20l238 -505h-95zM280 335l-66 -150h140l-67 150h-7z" />
<glyph unicode="b" horiz-adv-x="520" d="M357 263v-4c61 -11 102 -62 102 -120c0 -87 -69 -139 -183 -139h-183v500h171c121 0 164 -67 164 -130c0 -48 -18 -85 -71 -107zM287 218h-102v-142h106c38 0 74 23 74 71c0 45 -35 71 -78 71zM334 360c0 42 -28 64 -68 64h-81v-133h82c45 0 67 26 67 69z" />
<glyph unicode="c" horiz-adv-x="570" d="M504 457l-30 -78c-22 15 -72 49 -148 48c-86 -1 -175 -54 -175 -181c0 -101 75 -173 177 -173c61 0 115 28 147 53l35 -75c-45 -33 -114 -61 -184 -61c-158 0 -268 114 -268 254c0 167 131 266 270 266c77 0 143 -29 176 -53z" />
<glyph unicode="d" horiz-adv-x="580" d="M185 79h79c103 0 164 66 164 177c0 99 -87 165 -165 165h-78v-342zM260 0h-167v500h166c146 0 263 -100 263 -246c0 -164 -111 -254 -262 -254z" />
<glyph unicode="e" horiz-adv-x="520" d="M428 500v-79h-243v-127h213v-79h-213v-136h253v-79h-345v500h335z" />
<glyph horiz-adv-x="520" d="M451 477l-26 -80c-13 10 -56 31 -109 30c-74 -1 -144 -41 -161 -133h213l-7 -79h-208c13 -85 79 -142 165 -142c51 0 85 14 112 33l35 -75c-44 -27 -93 -41 -149 -41c-152 0 -258 114 -258 254c0 167 127 266 260 266c59 0 109 -17 133 -33z" />
<glyph unicode="f" horiz-adv-x="490" d="M433 500v-79h-248v-132h218v-79h-218v-210h-92v500h340z" />
<glyph unicode="g" horiz-adv-x="610" d="M530 280v-229c-46 -35 -126 -61 -204 -61c-158 0 -268 114 -268 254c0 167 131 266 270 266c75 0 141 -29 173 -53l-27 -83c-21 15 -75 54 -148 53c-86 -1 -175 -54 -175 -181c0 -101 75 -173 177 -173c42 0 82 9 108 26v102h-127v79h221z" />
<glyph horiz-adv-x="610" d="M309 280h238c17 -163 -50 -290 -231 -290c-148 0 -258 114 -258 254c0 167 131 266 258 266c91 0 154 -27 209 -89l-59 -59c-27 31 -76 66 -151 65s-164 -54 -164 -181c0 -101 75 -173 168 -173c83 0 139 40 137 128h-147v79z" />
<glyph unicode="h" horiz-adv-x="610" d="M517 500v-500h-92v215h-240v-215h-92v500h92v-206h240v206h92z" />
<glyph unicode="i" horiz-adv-x="310" d="M201 500v-500h-92v500h92z" />
<glyph unicode="j" horiz-adv-x="450" d="M35 16l25 82c16 -11 44 -25 78 -25c82 0 127 40 127 143v284h92v-299c0 -146 -88 -211 -214 -211c-41 0 -82 11 -108 26z" />
<glyph unicode="k" horiz-adv-x="560" d="M213 208l-28 -30v-178h-92v500h92v-226h4l215 226h107v-5l-227 -237l243 -253v-5h-118z" />
<glyph unicode="l" horiz-adv-x="460" d="M185 500v-421h222v-79h-314v500h92z" />
<glyph unicode="m" horiz-adv-x="740" d="M534 282h-3l-157 -287h-8l-157 287h-3l-40 -282h-93l80 505h20l199 -357h3l192 357h20l80 -505h-93z" />
<glyph horiz-adv-x="700" d="M515 303h-6l-155 -214h-8l-155 214h-6v-303h-92v500h51l207 -284h4l204 284h48v-500h-92v303z" />
<glyph horiz-adv-x="720" d="M535 307h-7l-161 -312h-14l-162 312h-6v-307h-92v500h84l182 -346h4l184 346h80v-500h-92v307z" />
<glyph unicode="n" horiz-adv-x="650" d="M123 505l334 -330h8v325h92v-505h-30l-334 329h-8v-324h-92v505h30z" />
<glyph unicode="o" horiz-adv-x="650" d="M592 244c0 -133 -112 -254 -266 -254c-151 0 -268 111 -268 254c0 161 127 266 268 266c138 0 266 -102 266 -266zM498 246c0 107 -78 181 -173 181c-90 0 -173 -64 -173 -181c0 -89 63 -173 176 -173c103 0 170 84 170 173z" />
<glyph unicode="p" horiz-adv-x="510" d="M452 342c0 -68 -46 -160 -185 -160h-82v-182h-92v500h183c103 0 176 -61 176 -158zM358 343c0 56 -36 81 -86 81h-87v-166h85c55 0 88 29 88 85z" />
<glyph unicode="q" horiz-adv-x="650" d="M592 249c0 -130 -112 -249 -266 -249h-7l-2 -4c43 -32 126 -61 206 -57l-27 -91c-172 0 -254 144 -378 161l25 56c-53 45 -85 110 -85 184c0 158 127 261 268 261c138 0 266 -100 266 -261zM498 251c0 104 -78 176 -173 176c-90 0 -173 -62 -173 -176 c0 -86 63 -168 176 -168c103 0 170 82 170 168z" />
<glyph horiz-adv-x="650" d="M592 244c0 -71 -32 -139 -86 -187l90 -98h-107l-50 54c-34 -14 -72 -23 -113 -23c-151 0 -268 111 -268 254c0 161 127 266 268 266c138 0 266 -102 266 -266zM376 200l71 -78c32 32 51 77 51 124c0 107 -78 181 -173 181c-90 0 -173 -64 -173 -181 c0 -89 63 -173 176 -173c18 0 34 3 50 7l-109 120h107z" />
<glyph horiz-adv-x="650" d="M592 244c0 -119 -89 -227 -217 -249v-126h-91v124c-130 18 -226 121 -226 251c0 161 127 266 268 266c138 0 266 -102 266 -266zM375 202v-123c76 21 123 92 123 167c0 107 -78 181 -173 181c-90 0 -173 -64 -173 -181c0 -77 47 -150 132 -168v124h91z" />
<glyph unicode="r" horiz-adv-x="560" d="M462 347c0 -77 -42 -129 -118 -146l163 -188v-13h-104l-160 192h-58v-192h-92v500h193c103 0 176 -62 176 -153zM368 348c0 53 -36 78 -86 78h-97v-161h95c55 0 88 30 88 83z" />
<glyph horiz-adv-x="540" d="M331 241v-5c70 -21 138 -171 181 -231v-5h-104c-25 43 -100 212 -200 212h-23v-212h-92v500h178c94 0 161 -55 161 -136c0 -65 -38 -111 -101 -123zM338 354c0 46 -32 70 -76 70h-77v-140h85c36 0 68 23 68 70z" />
<glyph unicode="s" horiz-adv-x="520" d="M68 43l24 81c42 -28 93 -54 158 -54c70 0 104 29 104 61c0 40 -37 64 -121 97c-102 40 -145 78 -145 144c0 68 57 138 176 138c76 0 133 -24 167 -47l-23 -77c-39 27 -93 45 -143 45c-59 0 -88 -23 -88 -52c0 -33 22 -51 122 -93c105 -44 147 -92 147 -159 c0 -92 -82 -137 -197 -137c-83 0 -153 27 -181 53z" />
<glyph unicode="t" horiz-adv-x="550" d="M492 421h-172v-421h-92v421h-170v79h434v-79z" />
<glyph unicode="u" horiz-adv-x="630" d="M537 500v-283c0 -114 -68 -227 -222 -227c-173 0 -222 111 -222 222v288h92v-271c0 -112 53 -156 130 -156c74 0 131 45 130 156v271h92z" />
<glyph unicode="v" horiz-adv-x="550" d="M136 500l138 -317h4l136 317h98l-230 -505h-14l-230 505h98z" />
<glyph unicode="w" d="M401 297h-8l-116 -302h-26l-213 505h98l128 -312h4l114 317h26l120 -317h4l122 312h98l-213 -505h-26z" />
<glyph horiz-adv-x="780" d="M344 500l48 -114l44 114h96l-95 -201l58 -123h4l145 324h98l-240 -505h-16l-96 215l-96 -215h-16l-240 505h98l153 -324h4l52 117l-97 207h96z" />
<glyph unicode="x" horiz-adv-x="550" d="M38 0l186 253l-180 247h108l124 -173l125 173h105l-180 -245l186 -255h-108l-130 180l-131 -180h-105z" />
<glyph unicode="y" horiz-adv-x="530" d="M126 500l138 -215h4l136 215h98l-191 -297v-203h-92v203l-191 297h98z" />
<glyph unicode="z" horiz-adv-x="560" d="M211 83l3 -4h286v-79h-438l-6 10l289 406l-3 5h-265v79h422l5 -5z" />
<glyph unicode="," horiz-adv-x="340" d="M64 -156v5l85 239h106v-5l-127 -239h-64z" />
<glyph unicode="." horiz-adv-x="360" d="M120 53c0 33 27 60 60 60s60 -27 60 -60s-27 -60 -60 -60s-60 27 -60 60z" />
<glyph unicode=";" horiz-adv-x="380" d="M76 -156v5l85 239h106v-5l-127 -239h-64zM139 373c0 33 27 60 60 60s60 -27 60 -60s-27 -60 -60 -60s-60 27 -60 60z" />
<glyph unicode=":" horiz-adv-x="360" d="M120 53c0 33 27 60 60 60s60 -27 60 -60s-27 -60 -60 -60s-60 27 -60 60zM120 373c0 33 27 60 60 60s60 -27 60 -60s-27 -60 -60 -60s-60 27 -60 60z" />
<glyph unicode="&#x2026;" horiz-adv-x="1000" d="M120 53c0 33 27 60 60 60s60 -27 60 -60s-27 -60 -60 -60s-60 27 -60 60zM440 53c0 33 27 60 60 60s60 -27 60 -60s-27 -60 -60 -60s-60 27 -60 60zM760 53c0 33 27 60 60 60s60 -27 60 -60s-27 -60 -60 -60s-60 27 -60 60z" />
<glyph unicode="&#xa1;" horiz-adv-x="400" d="M149 -167l14 235l10 247h58l11 -246l17 -236h-110zM260 460c0 -33 -27 -60 -60 -60s-60 27 -60 60s27 60 60 60s60 -27 60 -60z" />
<glyph horiz-adv-x="400" d="M149 0l14 235l10 247h58l11 -246l17 -236h-110zM260 627c0 -33 -27 -60 -60 -60s-60 27 -60 60s27 60 60 60s60 -27 60 -60z" />
<glyph unicode="?" horiz-adv-x="540" d="M123 593h-9l9 79c20 9 63 23 115 23c139 0 215 -77 215 -185c0 -133 -113 -196 -205 -212v-86h-82v149c95 9 192 42 192 154c0 63 -50 103 -131 103c-29 0 -72 -9 -104 -25zM149 53c0 33 27 60 60 60s60 -27 60 -60s-27 -60 -60 -60s-60 27 -60 60z" />
<glyph unicode="&#xbf;" horiz-adv-x="540" d="M417 -15h9l-9 -79c-20 -9 -63 -23 -115 -23c-139 0 -215 77 -215 185c0 133 113 196 205 212v86h82v-149c-95 -9 -192 -42 -192 -154c0 -63 50 -103 131 -103c29 0 72 9 104 25zM391 525c0 -33 -27 -60 -60 -60s-60 27 -60 60s27 60 60 60s60 -27 60 -60z" />
<glyph horiz-adv-x="540" d="M417 95h9l-9 -79c-20 -9 -63 -23 -115 -23c-139 0 -215 77 -215 185c0 133 113 196 205 212v86h82v-149c-95 -9 -192 -42 -192 -154c0 -63 50 -103 131 -103c29 0 72 9 104 25zM391 635c0 -33 -27 -60 -60 -60s-60 27 -60 60s27 60 60 60s60 -27 60 -60z" />
<glyph unicode="-" horiz-adv-x="430" d="M85 282h260v-84h-260v84z" />
<glyph unicode="&#x2013;" horiz-adv-x="570" d="M85 282h400v-84h-400v84z" />
<glyph unicode="&#x2014;" horiz-adv-x="1090" d="M137 277h816v-73h-816v73z" />
<glyph horiz-adv-x="430" d="M85 342h260v-84h-260v84z" />
<glyph horiz-adv-x="570" d="M85 342h400v-84h-400v84z" />
<glyph horiz-adv-x="1090" d="M137 337h816v-73h-816v73z" />
<glyph unicode="&#x2018;" horiz-adv-x="300" d="M173 680h63l-69 -246h-106z" />
<glyph unicode="&#x2019;" horiz-adv-x="300" d="M127 434h-63l69 246h106z" />
<glyph unicode="&#x201c;" horiz-adv-x="490" d="M173 680h63l-69 -246h-106zM363 680h63l-69 -246h-106z" />
<glyph unicode="&#x201d;" horiz-adv-x="490" d="M127 434h-63l69 246h106zM317 434h-63l69 246h106z" />
<glyph unicode="&#x201a;" horiz-adv-x="300" d="M127 -131h-63l69 246h106z" />
<glyph unicode="&#x201e;" horiz-adv-x="490" d="M127 -131h-63l69 246h106zM317 -131h-63l69 246h106z" />
<glyph unicode="&#x2039;" horiz-adv-x="430" d="M85 235l197 224l51 -36l-136 -188v-10l136 -192l-51 -37l-197 226v13z" />
<glyph unicode="&#x203a;" horiz-adv-x="430" d="M148 459l197 -224v-13l-197 -226l-51 37l136 192v10l-136 188z" />
<glyph unicode="&#xab;" horiz-adv-x="640" d="M85 235l197 224l51 -36l-136 -188v-10l136 -192l-51 -37l-197 226v13zM295 235l197 224l51 -36l-136 -188v-10l136 -192l-51 -37l-197 226v13z" />
<glyph unicode="&#xbb;" horiz-adv-x="640" d="M148 459l197 -224v-13l-197 -226l-51 37l136 192v10l-136 188zM358 459l197 -224v-13l-197 -226l-51 37l136 192v10l-136 188z" />
<glyph horiz-adv-x="430" d="M85 325l197 224l51 -36l-136 -188v-10l136 -192l-51 -37l-197 226v13z" />
<glyph horiz-adv-x="430" d="M148 549l197 -224v-13l-197 -226l-51 37l136 192v10l-136 188z" />
<glyph horiz-adv-x="640" d="M85 325l197 224l51 -36l-136 -188v-10l136 -192l-51 -37l-197 226v13zM295 325l197 224l51 -36l-136 -188v-10l136 -192l-51 -37l-197 226v13z" />
<glyph horiz-adv-x="640" d="M148 549l197 -224v-13l-197 -226l-51 37l136 192v10l-136 188zM358 549l197 -224v-13l-197 -226l-51 37l136 192v10l-136 188z" />
<glyph unicode="(" horiz-adv-x="440" d="M385 -119l-45 -58c-112 90 -229 242 -229 449c0 218 103 375 229 463l45 -56c-102 -79 -173 -224 -173 -392c0 -180 69 -313 173 -406z" />
<glyph unicode=")" horiz-adv-x="440" d="M100 -177l-45 58c104 93 173 226 173 406c0 168 -71 313 -173 392l45 56c126 -88 229 -245 229 -463c0 -207 -117 -359 -229 -449z" />
<glyph unicode="[" horiz-adv-x="460" d="M394 650l-144 4l-6 -367l6 -381l150 4v-70l-250 -4l8 454l-8 434l244 -4v-70z" />
<glyph unicode="]" horiz-adv-x="460" d="M210 654l-144 -4v70l244 4l-8 -434l8 -454l-250 4v70l150 -4l6 381z" />
<glyph unicode="{" horiz-adv-x="460" d="M175 301v-25c68 -6 127 -43 127 -101c0 -51 -35 -111 -35 -177c0 -59 13 -93 133 -93v-65c-197 0 -228 50 -228 143c0 58 33 115 33 170c0 62 -53 94 -125 94v80c72 0 125 42 125 90c0 65 -31 111 -31 175c0 94 52 128 226 128v-65c-89 0 -133 -12 -133 -79 c0 -68 35 -125 35 -174c0 -54 -58 -89 -127 -101z" />
<glyph unicode="}" horiz-adv-x="460" d="M285 276v25c-69 12 -127 47 -127 101c0 49 35 106 35 174c0 67 -44 79 -133 79v65c174 0 226 -34 226 -128c0 -64 -31 -110 -31 -175c0 -48 53 -90 125 -90v-80c-72 0 -125 -32 -125 -94c0 -55 33 -112 33 -170c0 -93 -31 -143 -228 -143v65c120 0 133 34 133 93 c0 66 -35 126 -35 177c0 58 59 95 127 101z" />
<glyph unicode="'" horiz-adv-x="270" d="M107 406l-23 274h102l-24 -274h-55z" />
<glyph unicode="&#x22;" horiz-adv-x="420" d="M107 406l-23 274h102l-24 -274h-55zM257 406l-23 274h102l-24 -274h-55z" />
<glyph unicode="&#x2032;" horiz-adv-x="300" d="M63 422l70 266l96 -34l-114 -250z" />
<glyph unicode="&#x2033;" horiz-adv-x="490" d="M63 422l70 266l96 -34l-114 -250zM253 422l70 266l96 -34l-114 -250z" />
<glyph unicode="&#x26;" horiz-adv-x="740" d="M661 317l-70 -17c16 -27 24 -62 24 -95c0 -141 -127 -220 -267 -220c-154 0 -257 94 -257 209c0 116 69 180 147 217v5c-68 33 -87 74 -87 116c0 92 88 163 202 163c72 0 123 -25 162 -50l-33 -80c-36 27 -73 45 -126 45c-61 0 -109 -32 -109 -80c0 -46 32 -81 88 -91 v-63c-88 -10 -149 -76 -149 -170c0 -86 77 -136 170 -136c108 0 176 58 176 137c0 26 -7 53 -21 75l-84 -20l-16 74l234 53z" />
<glyph horiz-adv-x="750" d="M679 4v-4h-105l-62 66c-55 -52 -126 -81 -197 -81c-137 0 -213 78 -213 176c0 96 67 150 139 197c-48 50 -90 111 -90 177c0 88 62 160 171 160c115 0 170 -79 170 -157c0 -97 -64 -147 -133 -189l146 -157c23 44 35 97 35 155h84c0 -87 -23 -161 -60 -219zM310 64 c56 0 107 23 147 62l-167 179c-53 -35 -96 -76 -96 -145c0 -53 46 -96 116 -96zM236 529c0 -45 31 -81 74 -127c54 35 97 73 97 129c0 54 -39 86 -86 86c-49 0 -85 -39 -85 -88z" />
<glyph unicode="*" horiz-adv-x="620" d="M365 680l-36 -192l146 81l30 -93l-168 -26l140 -136l-70 -59l-98 172l-96 -177l-69 63l133 135l-162 23l31 88l142 -69l-25 190h102z" />
<glyph unicode="&#x2042;" horiz-adv-x="860" d="M483 702l-32 -152l116 63l24 -84l-132 -15l118 -100l-65 -56l-78 134l-78 -139l-64 60l110 98l-126 13l25 80l112 -53l-21 151h91zM285 339l-32 -152l116 63l24 -84l-132 -15l118 -100l-65 -56l-78 134l-78 -139l-64 60l110 98l-126 13l25 80l112 -53l-21 151h91z M675 344l-32 -152l116 63l24 -84l-132 -15l118 -100l-65 -56l-78 134l-78 -139l-64 60l110 98l-126 13l25 80l112 -53l-21 151h91z" />
<glyph unicode="/" horiz-adv-x="550" d="M55 -160l360 860h80l-360 -860h-80z" />
<glyph unicode="\" horiz-adv-x="550" d="M135 700l360 -860h-80l-360 860h80z" />
<glyph unicode="@" horiz-adv-x="780" d="M547 28l28 -59c-45 -39 -113 -53 -158 -53c-204 0 -302 149 -302 379c0 204 110 405 322 405c126 0 217 -56 208 -184l-19 -277c-2 -33 10 -57 26 -72l-1 -10l-78 -24l-18 44h-15c-31 -24 -68 -36 -113 -36c-67 0 -126 50 -126 146c0 102 72 175 161 175 c32 0 71 -3 97 -8l5 54c8 91 -47 119 -129 119c-137 0 -240 -137 -240 -333c0 -211 98 -302 223 -302c53 0 92 10 124 36h5zM545 237l10 149c-25 5 -54 7 -81 7c-53 0 -94 -37 -94 -106c0 -56 32 -74 71 -74c30 0 67 10 94 24z" />
<glyph unicode="_" horiz-adv-x="530" d="M-25 -140h580v-70h-580v70z" />
<glyph unicode="&#xb6;" horiz-adv-x="730" d="M652 680v-72h-59v-765h-80v765h-60v-765h-80v400c-152 0 -261 83 -261 216c0 136 113 221 256 221h284zM373 320v288c-98 0 -163 -60 -163 -148c0 -83 59 -140 163 -140z" />
<glyph unicode="&#xa7;" horiz-adv-x="660" d="M539 246c0 -49 -24 -91 -59 -124c39 -36 54 -77 54 -117c0 -113 -86 -166 -207 -166c-91 0 -169 27 -201 53l24 87c46 -31 105 -57 178 -57c80 0 109 39 109 78c0 46 -29 77 -121 112c-129 49 -190 108 -190 194c0 46 22 93 56 132c-39 29 -56 60 -56 104 c0 76 61 153 198 153c72 0 137 -24 175 -47l-22 -82c-43 27 -98 47 -151 47c-75 0 -106 -26 -106 -64c0 -32 29 -55 138 -99c142 -56 181 -128 181 -204zM316 368c-25 10 -47 20 -67 30c-17 -23 -29 -53 -29 -85c0 -40 41 -82 138 -119c21 -8 40 -17 57 -26 c20 20 27 47 27 73c0 52 -29 86 -126 127z" />
<glyph unicode="&#x2022;" horiz-adv-x="570" d="M149 264c0 75 61 136 136 136s136 -61 136 -136s-61 -136 -136 -136s-136 61 -136 136z" />
<glyph unicode="&#x2020;" horiz-adv-x="630" d="M361 680l-7 -197l175 10v-81l-177 12l-15 -443h-44l-15 442l-177 -11v81l175 -10l-6 197h91z" />
<glyph unicode="&#x2021;" horiz-adv-x="630" d="M361 680l-7 -197l175 10v-81l-177 12l-5 -139l163 11v-80l-165 11l-8 -246h-44l-8 245l-165 -10v80l163 -10l-5 137l-177 -11v81l175 -10l-6 197h91z" />
<glyph unicode="&#xb7;" horiz-adv-x="360" d="M120 260c0 33 27 60 60 60s60 -27 60 -60s-27 -60 -60 -60s-60 27 -60 60z" />
<glyph unicode="&#xae;" horiz-adv-x="650" d="M111 481c0 122 97 214 214 214c123 0 214 -93 214 -214c0 -122 -97 -214 -214 -214s-214 85 -214 214zM153 480c0 -104 72 -174 173 -174c93 0 171 70 171 174s-78 176 -172 176c-106 0 -172 -79 -172 -176zM407 541c0 -35 -21 -63 -61 -70l82 -103v-4h-44l-80 104h-18 v-104h-39v249h73c55 0 87 -26 87 -72zM368 541c0 26 -21 39 -50 39h-32v-79h35c28 0 47 11 47 40z" />
<glyph unicode="&#xa9;" horiz-adv-x="880" d="M133 323c0 168 135 307 308 307c181 0 306 -139 306 -307c0 -169 -124 -308 -306 -308c-175 0 -308 127 -308 308zM182 321c0 -152 111 -261 260 -261c147 0 256 109 256 261c0 158 -112 266 -257 266c-141 0 -259 -112 -259 -266zM564 469l-11 -51 c-30 18 -68 32 -109 32c-57 0 -112 -40 -112 -128c0 -70 46 -121 113 -121c46 0 82 16 113 35l13 -50c-29 -21 -78 -38 -127 -38c-102 0 -171 77 -171 172c0 115 80 183 172 183c51 0 97 -19 119 -34z" />
<glyph unicode="&#x2117;" horiz-adv-x="880" d="M133 323c0 168 135 307 308 307c181 0 306 -139 306 -307c0 -169 -124 -308 -306 -308c-175 0 -308 127 -308 308zM182 321c0 -152 111 -261 260 -261c147 0 256 109 256 261c0 158 -112 266 -257 266c-141 0 -259 -112 -259 -266zM570 393c0 -67 -55 -106 -119 -105h-46 v-138h-52v350h102c68 0 115 -38 115 -107zM516 394c0 38 -25 57 -61 57h-50v-114h47c31 0 64 15 64 57z" />
<glyph unicode="&#x2122;" horiz-adv-x="780" d="M353 635h-93v-215h-48v215h-93v45h234v-45zM575 565h-5l-65 -149h-5l-65 149h-4l-25 -145h-46l43 262h22l77 -170h4l75 170h22l43 -262h-47z" />
<glyph horiz-adv-x="380" d="M241 540l-14 -195l-10 -147h-58l-11 146l-17 196h110zM130 53c0 33 27 60 60 60s60 -27 60 -60s-27 -60 -60 -60s-60 27 -60 60z" />
<glyph horiz-adv-x="380" d="M139 0l14 195l10 147h58l11 -146l17 -196h-110zM250 487c0 -33 -27 -60 -60 -60s-60 27 -60 60s27 60 60 60s60 -27 60 -60z" />
<glyph horiz-adv-x="490" d="M113 448h-9l9 79c20 9 63 23 115 23c121 0 185 -59 185 -140c0 -91 -95 -128 -175 -142v-70h-82v133c80 8 162 25 162 84c0 36 -38 58 -101 58c-29 0 -72 -9 -104 -25zM139 53c0 33 27 60 60 60s60 -27 60 -60s-27 -60 -60 -60s-60 27 -60 60z" />
<glyph horiz-adv-x="490" d="M377 102h9l-9 -79c-20 -9 -63 -23 -115 -23c-121 0 -185 59 -185 140c0 91 95 128 175 142v70h82v-133c-80 -8 -162 -25 -162 -84c0 -36 38 -58 101 -58c29 0 72 9 104 25zM351 497c0 -33 -27 -60 -60 -60s-60 27 -60 60s27 60 60 60s60 -27 60 -60z" />
<glyph horiz-adv-x="310" d="M173 500h63l-64 -216h-101z" />
<glyph horiz-adv-x="310" d="M137 284h-63l64 216h101z" />
<glyph horiz-adv-x="500" d="M173 500h63l-64 -216h-101zM363 500h63l-64 -216h-101z" />
<glyph horiz-adv-x="500" d="M137 284h-63l64 216h101zM327 284h-63l64 216h101z" />
<glyph horiz-adv-x="310" d="M137 -151h-63l64 216h101z" />
<glyph horiz-adv-x="500" d="M137 -151h-63l64 216h101zM327 -151h-63l64 216h101z" />
<glyph horiz-adv-x="400" d="M85 255l177 184l41 -36l-106 -148v-10l106 -152l-41 -37l-177 186v13z" />
<glyph horiz-adv-x="400" d="M315 240l-177 -184l-41 36l106 148v10l-106 152l41 37l177 -186v-13z" />
<glyph horiz-adv-x="610" d="M85 255l177 184l41 -36l-106 -148v-10l106 -152l-41 -37l-177 186v13zM295 255l177 184l41 -36l-106 -148v-10l106 -152l-41 -37l-177 186v13z" />
<glyph horiz-adv-x="610" d="M315 240l-177 -184l-41 36l106 148v10l-106 152l41 37l177 -186v-13zM525 240l-177 -184l-41 36l106 148v10l-106 152l41 37l177 -186v-13z" />
<glyph unicode="0" horiz-adv-x="640" d="M570 347c0 -253 -104 -362 -248 -362c-139 0 -252 94 -252 362c0 249 113 348 252 348c144 0 248 -115 248 -348zM474 349c0 172 -64 263 -156 263c-81 0 -152 -79 -152 -263c0 -217 78 -281 157 -281c95 0 151 81 151 281z" />
<glyph unicode="1" horiz-adv-x="500" d="M319 0h-92v594l-123 -14l-6 81l204 26l17 -12v-675z" />
<glyph unicode="2" horiz-adv-x="590" d="M108 552l-6 88c17 13 90 55 188 55c119 0 215 -53 215 -188c0 -131 -107 -267 -293 -415l2 -6l301 9v-95h-457l-10 35c273 234 359 365 359 454c0 83 -49 123 -123 123c-82 0 -149 -42 -176 -60z" />
<glyph unicode="3" horiz-adv-x="570" d="M64 106l3 3c57 -26 118 -42 180 -42c79 0 142 45 142 132c0 63 -47 114 -132 111l-125 -4l8 87l113 -4c69 -2 124 51 124 118s-55 109 -138 109c-43 0 -88 -13 -136 -35l-4 3l8 80c29 13 84 31 145 31c123 0 221 -58 221 -174c0 -80 -46 -140 -118 -158v-10 c85 -19 130 -91 130 -162c0 -177 -167 -206 -247 -206c-68 0 -123 14 -171 37z" />
<glyph unicode="4" horiz-adv-x="600" d="M539 280v-80h-78v-200h-91v200h-295l-16 36l304 444h98v-402zM182 271l188 5v276h-13l-181 -270z" />
<glyph unicode="5" horiz-adv-x="590" d="M97 375l-4 3l38 302h363l-11 -87l-279 10l-21 -153c20 1 37 2 56 2c187 0 276 -97 276 -214c0 -162 -155 -253 -331 -253c-39 0 -75 2 -105 11l16 81c25 -6 64 -10 95 -10c141 0 228 64 228 167c0 100 -92 146 -235 146c-30 0 -64 -3 -86 -5z" />
<glyph unicode="6" horiz-adv-x="590" d="M185 379l7 -6c31 17 72 27 112 27c108 0 221 -63 221 -211c0 -134 -115 -204 -211 -204c-172 0 -239 130 -239 276c0 281 206 425 420 434l-13 -80c-170 -11 -279 -118 -297 -236zM431 182c0 110 -73 146 -154 146c-34 0 -71 -9 -101 -28c-4 -17 -6 -38 -6 -56 c0 -109 57 -181 142 -181c69 0 119 43 119 119z" />
<glyph unicode="7" horiz-adv-x="550" d="M490 680l10 -12c-127 -234 -204 -445 -216 -668h-110c34 214 111 435 207 594l-4 5l-316 -9l9 90h420z" />
<glyph unicode="8" horiz-adv-x="580" d="M372 356v-6c103 -60 143 -118 143 -190c0 -101 -95 -175 -227 -175c-133 0 -223 78 -223 185c0 80 63 145 134 180v6c-81 54 -114 109 -114 168c0 92 85 171 213 171c107 0 197 -61 197 -160c0 -80 -44 -141 -123 -179zM274 313l-7 3c-79 -34 -113 -90 -113 -146 c0 -68 58 -110 138 -110c78 0 129 47 129 101c0 67 -67 112 -147 152zM179 528c0 -53 41 -94 123 -140c57 33 105 77 105 137c0 53 -43 98 -114 98c-76 0 -114 -48 -114 -95z" />
<glyph unicode="9" horiz-adv-x="590" d="M149 49l1 5c137 47 242 119 257 247l-7 6c-31 -17 -74 -27 -114 -27c-108 0 -221 63 -221 211c0 109 85 204 211 204c172 0 239 -130 239 -276c0 -266 -166 -381 -331 -434zM158 498c0 -99 75 -143 155 -143c34 0 73 9 103 28c4 20 4 35 4 53c0 109 -57 182 -142 182 c-69 0 -120 -44 -120 -120z" />
<glyph unicode="+" horiz-adv-x="530" d="M299 533v-198h198v-68h-198v-198h-68v198h-198v68h198v198h68z" />
<glyph unicode="&#x2212;" horiz-adv-x="530" d="M497 267h-464v68h464v-68z" />
<glyph unicode="&#xb1;" horiz-adv-x="530" d="M299 623v-198h188v-68h-188v-198h-68v198h-188v68h188v198h68zM487 40h-444v68h444v-68z" />
<glyph unicode="=" horiz-adv-x="530" d="M487 163h-444v68h444v-68zM487 363h-444v68h444v-68z" />
<glyph unicode="&#x2260;" horiz-adv-x="530" d="M487 163h-244l-67 -146l-56 30l53 116h-130v68h162l61 132h-223v68h254l63 136l56 -30l-49 -106h120v-68h-151l-61 -132h212v-68z" />
<glyph unicode="&#xd7;" horiz-adv-x="530" d="M101 508l164 -164l164 164l48 -48l-164 -164l164 -164l-48 -48l-164 164l-164 -164l-48 48l164 164l-164 164z" />
<glyph unicode="&#xf7;" horiz-adv-x="530" d="M497 267h-464v68h464v-68zM205 465c0 33 27 60 60 60s60 -27 60 -60s-27 -60 -60 -60s-60 27 -60 60zM205 137c0 33 27 60 60 60s60 -27 60 -60s-27 -60 -60 -60s-60 27 -60 60z" />
<glyph unicode="&#x3c;" horiz-adv-x="530" d="M479 477l-343 -156l343 -156l-25 -65l-404 190v62l404 190z" />
<glyph unicode="&#x3e;" horiz-adv-x="530" d="M394 321l-343 156l25 65l404 -190v-62l-404 -190l-25 65z" />
<glyph unicode="&#x2264;" horiz-adv-x="530" d="M479 537l-343 -156l343 -156l-25 -65l-404 190v62l404 190zM487 40h-444v68h444v-68z" />
<glyph unicode="&#x2265;" horiz-adv-x="530" d="M394 381l-343 156l25 65l404 -190v-62l-404 -190l-25 65zM487 40h-444v68h444v-68z" />
<glyph unicode="$" horiz-adv-x="520" d="M248 -67l-51 5l9 94c-56 9 -114 31 -137 49l19 87c35 -24 77 -47 126 -56l22 215l-5 3c-73 38 -149 80 -149 174c0 78 61 161 187 161l9 84l51 -5l-9 -83c43 -7 81 -23 112 -41l-14 -81c-35 21 -68 36 -106 43l-19 -192h1c121 -63 157 -122 157 -190 c0 -123 -98 -170 -194 -171zM367 195c0 40 -15 65 -83 105l-19 -191c74 2 102 42 102 86zM165 510c0 -36 13 -56 80 -94l16 169c-52 -3 -96 -22 -96 -75z" />
<glyph unicode="&#xa2;" horiz-adv-x="480" d="M264 0l-51 5l10 99c-89 25 -147 106 -147 216c0 139 91 242 196 251l12 110l51 -5l-11 -106c40 -6 68 -23 100 -46l-30 -69c-23 20 -49 35 -78 39l-34 -321h8c45 0 80 20 107 41l20 -70c-31 -26 -82 -48 -133 -48h-10zM168 322c0 -73 25 -116 64 -136l32 305 c-56 -18 -96 -81 -96 -169z" />
<glyph unicode="&#xa3;" horiz-adv-x="550" d="M480 103l6 -2l16 -76c-27 -24 -70 -35 -99 -35c-72 0 -100 42 -178 42c-46 0 -94 -23 -127 -42l-35 65c70 62 95 138 95 210c0 19 -2 39 -5 58h-80v55h70c-10 50 -23 99 -23 144c0 124 92 173 186 173c100 0 161 -39 174 -50l-21 -75c-27 20 -81 42 -140 42 c-57 0 -106 -29 -106 -106c0 -41 11 -85 21 -128h158v-55h-147c3 -19 6 -37 6 -55c0 -57 -21 -113 -82 -159l8 -10c12 9 34 18 58 18c77 0 95 -41 168 -41c26 0 49 6 77 27z" />
<glyph unicode="&#xa5;" horiz-adv-x="630" d="M142 680l171 -286h8l167 286h104l-230 -377v-36h119v-55h-119v-49h119v-55h-119v-108h-94v108h-119v55h119v49h-119v55h119v36l-230 377h104z" />
<glyph unicode="&#x20ac;" horiz-adv-x="660" d="M555 107l32 -76c-55 -30 -116 -46 -181 -46c-153 0 -266 116 -292 272h-64l14 55h44v17c0 11 0 21 1 32h-59l14 55h51c32 177 161 279 303 279c58 0 103 -10 159 -33l-22 -83c-37 18 -85 32 -139 31c-89 -1 -177 -63 -203 -194h299l-14 -55h-291c-1 -9 -1 -19 -1 -28v-21 h280l-14 -55h-259c23 -112 96 -187 195 -187c58 0 101 13 147 37z" />
<glyph unicode="&#xa4;" horiz-adv-x="670" d="M114 272c0 47 15 91 40 127l-45 44c-24 24 30 76 51 55l46 -47c36 26 81 42 129 42s91 -14 126 -39l43 45c22 23 80 -39 59 -60l-45 -43c24 -35 38 -78 38 -124c0 -49 -16 -93 -42 -130l48 -46c23 -23 -29 -78 -51 -55l-50 50c-36 -26 -79 -40 -126 -40 c-46 0 -89 13 -124 36l-42 -44c-23 -25 -84 31 -59 55l44 43c-26 36 -40 80 -40 131zM184 271c0 -92 60 -161 152 -161c84 0 148 69 148 161c0 96 -64 162 -149 162c-96 0 -151 -71 -151 -162z" />
<glyph unicode="#" horiz-adv-x="560" d="M106 528l110 -20l49 211l52 -12l-48 -208l96 -17l56 228l52 -12l-55 -225l109 -19l-10 -58l-113 19l-38 -155l101 -17l-10 -58l-105 18l-63 -262l-52 12l63 259l-95 17l-64 -278l-52 12l64 275l-117 21l10 58l120 -21l36 155l-106 19zM255 442l-36 -156l95 -16l37 155z " />
<glyph unicode="%" horiz-adv-x="730" d="M87 17l271 345l228 327l57 -25l-255 -323l-245 -350zM660 146c0 -92 -63 -157 -141 -157c-80 0 -141 65 -141 157c0 94 59 163 138 163c88 0 144 -69 144 -163zM587 147c0 59 -26 99 -68 99c-40 0 -68 -42 -68 -99s28 -95 71 -95c36 0 65 36 65 95zM352 528 c0 -92 -63 -157 -141 -157c-80 0 -141 65 -141 157c0 94 59 163 138 163c88 0 144 -69 144 -163zM279 529c0 59 -26 99 -68 99c-40 0 -68 -42 -68 -99s28 -95 71 -95c36 0 65 36 65 95z" />
<glyph unicode="&#x2030;" horiz-adv-x="1040" d="M970 146c0 -92 -63 -157 -141 -157c-80 0 -141 65 -141 157c0 94 59 163 138 163c88 0 144 -69 144 -163zM897 147c0 59 -26 99 -68 99c-40 0 -68 -42 -68 -99s28 -95 71 -95c36 0 65 36 65 95zM87 17l271 345l228 327l57 -25l-255 -323l-245 -350zM660 146 c0 -92 -63 -157 -141 -157c-80 0 -141 65 -141 157c0 94 59 163 138 163c88 0 144 -69 144 -163zM587 147c0 59 -26 99 -68 99c-40 0 -68 -42 -68 -99s28 -95 71 -95c36 0 65 36 65 95zM352 528c0 -92 -63 -157 -141 -157c-80 0 -141 65 -141 157c0 94 59 163 138 163 c88 0 144 -69 144 -163zM279 529c0 59 -26 99 -68 99c-40 0 -68 -42 -68 -99s28 -95 71 -95c36 0 65 36 65 95z" />
<glyph unicode="&#xb0;" horiz-adv-x="420" d="M67 551c0 79 65 144 143 144c79 0 144 -65 144 -144c0 -78 -65 -143 -144 -143c-78 0 -143 65 -143 143zM135 551c0 -44 30 -82 74 -82c45 0 76 38 76 82c0 45 -31 84 -76 84c-44 0 -74 -39 -74 -84z" />
<glyph unicode="&#xaa;" horiz-adv-x="470" d="M338 308l-31 72h-146l-29 -72h-84l179 382h15l180 -382h-84zM231 548l-44 -105h93l-44 105h-5z" />
<glyph unicode="&#xba;" horiz-adv-x="500" d="M451 495c0 -100 -84 -191 -200 -191c-114 0 -202 83 -202 191c0 121 96 200 202 200c104 0 200 -77 200 -200zM370 496c0 75 -54 127 -120 127c-62 0 -120 -45 -120 -127c0 -61 43 -120 122 -120c72 0 118 59 118 120z" />
<glyph horiz-adv-x="600" d="M530 347c0 -253 -96 -362 -228 -362c-127 0 -232 94 -232 362c0 249 105 348 232 348c132 0 228 -115 228 -348zM437 349c0 164 -56 263 -139 263c-72 0 -135 -87 -135 -263c0 -204 70 -281 140 -281c86 0 134 99 134 281z" />
<glyph horiz-adv-x="600" d="M371 0h-92v594l-123 -14l-6 81l204 26l17 -12v-675z" />
<glyph horiz-adv-x="600" d="M107 552l-6 88c17 13 90 55 188 55c119 0 215 -53 215 -188c0 -131 -107 -267 -293 -415l2 -6l301 9v-95h-457l-10 35c273 234 359 365 359 454c0 83 -49 123 -123 123c-82 0 -149 -42 -176 -60z" />
<glyph horiz-adv-x="600" d="M82 106l3 3c57 -26 118 -42 180 -42c79 0 142 45 142 132c0 63 -47 114 -132 111l-125 -4l8 87l113 -4c69 -2 124 51 124 118s-55 109 -138 109c-43 0 -88 -13 -136 -35l-4 3l8 80c29 13 84 31 145 31c123 0 221 -58 221 -174c0 -80 -46 -140 -118 -158v-10 c85 -19 130 -91 130 -162c0 -177 -167 -206 -247 -206c-68 0 -123 14 -171 37z" />
<glyph horiz-adv-x="600" d="M531 280v-80h-78v-200h-91v200h-295l-16 36l304 444h98v-402zM174 271l188 5v276h-13l-181 -270z" />
<glyph horiz-adv-x="600" d="M99 375l-4 3l38 302h363l-11 -87l-279 10l-21 -153c20 1 37 2 56 2c187 0 276 -97 276 -214c0 -162 -155 -253 -331 -253c-39 0 -75 2 -105 11l16 81c25 -6 64 -10 95 -10c141 0 228 64 228 167c0 100 -92 146 -235 146c-30 0 -64 -3 -86 -5z" />
<glyph horiz-adv-x="600" d="M189 379l7 -6c31 17 72 27 112 27c108 0 221 -63 221 -211c0 -134 -115 -204 -211 -204c-172 0 -239 130 -239 276c0 281 206 425 420 434l-13 -80c-170 -11 -279 -118 -297 -236zM435 182c0 110 -73 146 -154 146c-34 0 -71 -9 -101 -28c-4 -17 -6 -38 -6 -56 c0 -109 57 -181 142 -181c69 0 119 43 119 119z" />
<glyph horiz-adv-x="600" d="M518 680l10 -12c-127 -234 -204 -445 -216 -668h-110c34 214 111 435 207 594l-4 5l-316 -9l9 90h420z" />
<glyph horiz-adv-x="600" d="M382 356v-6c103 -60 143 -118 143 -190c0 -101 -95 -175 -227 -175c-133 0 -223 78 -223 185c0 80 63 145 134 180v6c-81 54 -114 109 -114 168c0 92 85 171 213 171c107 0 197 -61 197 -160c0 -80 -44 -141 -123 -179zM284 313l-7 3c-79 -34 -113 -90 -113 -146 c0 -68 58 -110 138 -110c78 0 129 47 129 101c0 67 -67 112 -147 152zM189 528c0 -53 41 -94 123 -140c57 33 105 77 105 137c0 53 -43 98 -114 98c-76 0 -114 -48 -114 -95z" />
<glyph horiz-adv-x="600" d="M153 49l1 5c137 47 242 119 257 247l-7 6c-31 -17 -74 -27 -114 -27c-108 0 -221 63 -221 211c0 109 85 204 211 204c172 0 239 -130 239 -276c0 -266 -166 -381 -331 -434zM162 498c0 -99 75 -143 155 -143c34 0 73 9 103 28c4 20 4 35 4 53c0 109 -57 182 -142 182 c-69 0 -120 -44 -120 -120z" />
<glyph horiz-adv-x="590" d="M525 247c0 -176 -96 -262 -228 -262c-127 0 -232 95 -232 262c0 170 105 268 232 268c132 0 228 -98 228 -268zM434 249c0 116 -58 185 -141 185c-72 0 -137 -55 -137 -185c0 -126 72 -183 142 -183c86 0 136 61 136 183z" />
<glyph horiz-adv-x="440" d="M290 0h-90v415l-103 -15l-6 79l182 26l17 -12v-493z" />
<glyph horiz-adv-x="530" d="M103 383l-21 77c20 13 97 55 178 55c107 0 195 -45 195 -153c0 -85 -83 -183 -219 -277l3 -6l226 12v-91h-407l-10 39c233 150 313 241 313 310c0 58 -48 87 -107 87c-68 0 -130 -39 -151 -53z" />
<glyph horiz-adv-x="490" d="M57 92l2 3c46 -21 101 -33 151 -33c71 0 127 28 127 77c0 42 -44 80 -117 77l-100 -4l8 83l88 -4c57 -3 109 29 109 76c0 43 -47 71 -112 71c-47 0 -87 -11 -128 -31l-3 4l8 78c26 11 75 26 138 26c93 0 188 -36 188 -134c0 -59 -40 -105 -103 -118v-6 c76 -13 115 -71 115 -126c0 -105 -105 -146 -227 -146c-56 0 -98 10 -141 27z" />
<glyph horiz-adv-x="540" d="M481 207v-77h-70v-130h-86v130h-254l-16 36l260 334h96v-295zM173 198l152 5v194h-8l-148 -193z" />
<glyph horiz-adv-x="510" d="M73 243l-4 3l33 254h328l-11 -85l-249 7l-15 -106c13 1 46 2 65 2c159 0 226 -72 226 -150c0 -130 -137 -183 -286 -183c-39 0 -75 2 -105 11l16 78c25 -6 64 -10 95 -10c131 0 186 49 186 100c0 59 -65 87 -188 87c-33 0 -71 -3 -91 -8z" />
<glyph horiz-adv-x="530" d="M173 289l4 -3c31 17 71 29 122 29c78 0 170 -48 170 -156c0 -95 -72 -174 -203 -174c-134 0 -202 95 -202 191c0 218 180 330 360 339l-10 -77c-134 -11 -223 -78 -241 -149zM377 152c0 66 -53 95 -105 95s-83 -12 -114 -30c-4 -16 -4 -35 -4 -48c0 -64 47 -108 117 -108 c60 0 106 33 106 91z" />
<glyph horiz-adv-x="480" d="M426 500l10 -12c-118 -162 -191 -337 -203 -488h-106c30 142 96 293 184 416l-4 5l-255 -9l9 88h365z" />
<glyph horiz-adv-x="520" d="M345 260v-5c93 -42 117 -83 117 -130c0 -94 -111 -140 -206 -140c-126 0 -198 65 -198 135c0 62 52 110 117 133v2c-74 41 -97 78 -97 119c0 74 68 141 188 141c100 0 176 -58 176 -130c0 -61 -33 -96 -97 -125zM252 219l-7 3c-64 -23 -97 -58 -97 -93 c0 -45 53 -70 110 -70c52 0 109 21 109 66c0 42 -54 68 -115 94zM173 376c0 -36 37 -63 105 -93c51 25 75 54 75 94c0 38 -39 64 -87 64c-60 0 -93 -31 -93 -65z" />
<glyph horiz-adv-x="530" d="M133 49l1 5c127 22 210 86 235 157l-4 3c-29 -22 -83 -39 -125 -39c-91 0 -181 51 -181 166c0 91 81 174 201 174c144 0 204 -106 204 -216c0 -194 -148 -283 -296 -314zM150 343c0 -65 57 -93 113 -93c45 0 76 10 107 30c4 14 4 26 4 38c0 73 -48 122 -118 122 c-57 0 -106 -36 -106 -97z" />
<glyph horiz-adv-x="530" d="M299 463v-198h198v-68h-198v-198h-68v198h-198v68h198v198h68z" />
<glyph horiz-adv-x="530" d="M497 197h-464v68h464v-68z" />
<glyph horiz-adv-x="530" d="M101 438l164 -164l164 164l48 -48l-164 -164l164 -164l-48 -48l-164 164l-164 -164l-48 48l164 164l-164 164z" />
<glyph horiz-adv-x="530" d="M497 197h-464v68h464v-68zM205 395c0 33 27 60 60 60s60 -27 60 -60s-27 -60 -60 -60s-60 27 -60 60zM205 67c0 33 27 60 60 60s60 -27 60 -60s-27 -60 -60 -60s-60 27 -60 60z" />
<glyph horiz-adv-x="530" d="M487 93h-444v68h444v-68zM487 293h-444v68h444v-68z" />
<glyph horiz-adv-x="530" d="M487 93h-244l-67 -146l-56 30l53 116h-130v68h162l61 132h-223v68h254l63 136l56 -30l-49 -106h120v-68h-151l-61 -132h212v-68z" />
<glyph horiz-adv-x="530" d="M479 407l-343 -156l343 -156l-25 -65l-404 190v62l404 190z" />
<glyph horiz-adv-x="530" d="M394 251l-343 156l25 65l404 -190v-62l-404 -190l-25 65z" />
<glyph horiz-adv-x="530" d="M479 467l-343 -156l343 -156l-25 -65l-404 190v62l404 190zM487 -30h-444v68h444v-68z" />
<glyph horiz-adv-x="530" d="M394 311l-343 156l25 65l404 -190v-62l-404 -190l-25 65zM487 -30h-444v68h444v-68z" />
<glyph horiz-adv-x="510" d="M258 -118l-51 5l8 99c-57 7 -118 31 -141 50l19 82c36 -26 78 -50 129 -57l13 164l-9 5c-68 33 -139 70 -139 147c0 69 55 136 172 138l9 103l51 -4l-9 -103c43 -7 81 -23 112 -41l-14 -76c-34 23 -67 39 -104 46l-12 -152c110 -53 144 -106 144 -163 c0 -94 -83 -135 -170 -140zM175 385c0 -27 11 -43 67 -72l11 130c-42 -2 -78 -20 -78 -58zM347 120c0 30 -12 50 -63 79l-11 -139c52 5 74 32 74 60z" />
<glyph horiz-adv-x="490" d="M269 -80l-51 5l10 99c-89 25 -147 106 -147 216c0 139 91 242 196 251l12 110l51 -5l-11 -106c40 -6 68 -23 100 -46l-30 -69c-23 20 -49 35 -78 39l-34 -321h8c45 0 80 20 107 41l20 -70c-31 -26 -82 -48 -133 -48h-10zM173 242c0 -73 25 -116 64 -136l32 305 c-56 -18 -96 -81 -96 -169z" />
<glyph horiz-adv-x="590" d="M503 477l-26 -80c-13 10 -56 31 -109 30c-65 -1 -126 -34 -152 -104h242l-13 -50h-240c-1 -10 -2 -20 -2 -30v-9h232l-13 -50h-211c22 -71 82 -116 159 -116c47 0 78 16 112 33l35 -75c-44 -27 -93 -41 -149 -41c-131 0 -228 84 -252 199h-56l13 50h37v7c0 11 0 21 1 32 h-48l13 50h45c34 118 139 187 249 187c59 0 109 -17 133 -33z" />
<glyph horiz-adv-x="510" d="M435 103l6 -2l16 -76c-27 -25 -70 -35 -99 -35c-52 0 -70 32 -128 32c-46 0 -94 -17 -127 -32l-35 65c62 48 85 108 85 160c0 4 0 8 -1 13h-69v50h59c-8 31 -17 62 -17 89c0 103 85 148 171 148c79 0 126 -35 139 -45l-21 -75c-20 18 -60 37 -105 37 c-48 0 -91 -24 -91 -81c0 -22 8 -48 16 -73h138v-50h-127c1 -4 1 -7 1 -10c0 -39 -17 -79 -62 -114l8 -10c10 3 28 8 48 8c57 0 65 -26 118 -26c26 0 49 6 77 27z" />
<glyph horiz-adv-x="520" d="M129 218h85l-171 282h98l117 -199h8l113 199h98l-171 -282h85v-50h-85v-39h85v-50h-85v-79h-92v79h-85v50h85v39h-85v50z" />
<glyph horiz-adv-x="490" d="M101 412l81 -15l39 166l48 -11l-38 -163l84 -15l45 182l48 -11l-44 -179l85 -15l-10 -53l-88 15l-30 -123l79 -13l-11 -53l-81 14l-49 -201l-48 11l48 198l-82 15l-50 -216l-48 11l50 213l-88 16l10 53l90 -16l29 123l-79 14zM218 336l-28 -123l82 -14l30 123z" />
<glyph horiz-adv-x="630" d="M85 3l220 263l198 254l42 -26l-215 -251l-203 -267z" />
<glyph horiz-adv-x="720" d="M118 15l228 243l210 254l47 -26l-232 -251l-206 -247zM650 127c0 -83 -57 -142 -126 -142c-71 0 -126 59 -126 142c0 85 53 148 123 148c79 0 129 -63 129 -148zM587 128c0 53 -24 89 -63 89c-37 0 -63 -38 -63 -89s26 -85 66 -85c33 0 60 32 60 85zM322 367 c0 -83 -57 -142 -126 -142c-71 0 -126 59 -126 142c0 85 53 148 123 148c79 0 129 -63 129 -148zM259 368c0 53 -24 89 -63 89c-37 0 -63 -38 -63 -89s26 -85 66 -85c33 0 60 32 60 85z" />
<glyph horiz-adv-x="1000" d="M930 127c0 -83 -57 -142 -126 -142c-71 0 -126 59 -126 142c0 85 53 148 123 148c79 0 129 -63 129 -148zM867 128c0 53 -24 89 -63 89c-37 0 -63 -38 -63 -89s26 -85 66 -85c33 0 60 32 60 85zM118 15l228 243l210 254l47 -26l-232 -251l-206 -247zM650 127 c0 -83 -57 -142 -126 -142c-71 0 -126 59 -126 142c0 85 53 148 123 148c79 0 129 -63 129 -148zM587 128c0 53 -24 89 -63 89c-37 0 -63 -38 -63 -89s26 -85 66 -85c33 0 60 32 60 85zM322 367c0 -83 -57 -142 -126 -142c-71 0 -126 59 -126 142c0 85 53 148 123 148 c79 0 129 -63 129 -148zM259 368c0 53 -24 89 -63 89c-37 0 -63 -38 -63 -89s26 -85 66 -85c33 0 60 32 60 85z" />
<glyph horiz-adv-x="420" d="M303 180l-26 58h-134l-24 -58h-76l160 330h13l161 -330h-74zM206 379l-38 -82h82l-40 82h-4z" />
<glyph horiz-adv-x="450" d="M399 342c0 -86 -73 -165 -173 -165c-99 0 -175 72 -175 165c0 105 83 173 175 173c90 0 173 -67 173 -173zM323 343c0 62 -44 105 -98 105c-51 0 -99 -37 -99 -105c0 -50 35 -99 100 -99c60 0 97 49 97 99z" />
<glyph horiz-adv-x="420" d="M67 371c0 79 65 144 143 144c79 0 144 -65 144 -144c0 -78 -65 -143 -144 -143c-78 0 -143 65 -143 143zM135 371c0 -44 30 -82 74 -82c45 0 76 38 76 82c0 45 -31 84 -76 84c-44 0 -74 -39 -74 -84z" />
<glyph horiz-adv-x="340" d="M302 506c0 -139 -55 -199 -130 -199c-73 0 -133 51 -133 199c0 137 60 191 133 191c75 0 130 -63 130 -191zM236 507c0 81 -27 130 -66 130c-34 0 -65 -42 -65 -130c0 -100 33 -140 67 -140c42 0 64 49 64 140z" />
<glyph horiz-adv-x="340" d="M220 312h-65v316l-71 -6l-3 56l130 15l9 -7v-374z" />
<glyph horiz-adv-x="340" d="M73 609l-8 58c9 7 49 30 103 30c68 0 123 -29 123 -103c0 -64 -52 -136 -140 -209l3 -8l143 5v-67h-257l-6 22c142 126 188 199 188 247c0 37 -23 53 -57 53c-43 0 -80 -20 -92 -28z" />
<glyph horiz-adv-x="340" d="M56 327l-1 64c32 -15 66 -24 100 -24c38 0 68 19 68 57c0 32 -23 54 -67 53l-67 -2l5 58l60 -2c35 -1 63 27 63 58c0 34 -26 50 -61 50c-30 0 -55 -8 -83 -21l5 62c15 7 44 17 87 17c62 0 120 -32 120 -95c0 -44 -28 -80 -70 -90v-6c50 -10 76 -47 76 -86 c0 -83 -75 -113 -136 -113c-39 0 -71 7 -99 20z" />
<glyph horiz-adv-x="340" d="M307 478v-58h-43v-105h-63v105h-153l-9 24l159 245h66v-212zM119 472l82 2v131h-7l-78 -127z" />
<glyph horiz-adv-x="340" d="M62 498l-2 2l21 189h199l-6 -63l-145 6l-10 -77c11 1 21 1 31 1c104 0 147 -50 147 -110c0 -93 -87 -139 -187 -139c-22 0 -42 1 -58 6l9 58c14 -5 35 -5 52 -5c80 0 115 38 115 78s-50 57 -122 57c-16 0 -29 -1 -44 -3z" />
<glyph horiz-adv-x="340" d="M120 533l4 -3c16 10 37 15 57 15c56 0 121 -37 121 -121c0 -77 -66 -117 -121 -117c-98 0 -136 71 -136 152c0 154 115 233 236 238l-7 -54c-88 -6 -144 -55 -154 -110zM236 425c0 47 -35 70 -70 70c-17 0 -35 -5 -51 -15c-11 -70 16 -120 65 -120c32 0 56 23 56 65z" />
<glyph horiz-adv-x="340" d="M297 689l5 -7c-70 -128 -112 -244 -119 -367h-75c19 112 61 227 114 312l-2 2l-164 -5l5 65h236z" />
<glyph horiz-adv-x="340" d="M215 515v-3c58 -34 82 -68 82 -109c0 -56 -53 -96 -127 -96c-75 0 -125 43 -125 102c0 43 33 75 77 94v3c-48 32 -66 64 -66 97c0 51 47 94 119 94c60 0 111 -33 111 -88c0 -44 -23 -74 -71 -94zM167 480c-2 1 -4 1 -5 2c-36 -18 -53 -43 -53 -68c0 -32 27 -51 63 -51 c35 0 57 22 57 46c0 32 -28 54 -62 71zM124 600c0 -24 14 -44 48 -65c28 16 50 35 50 64c0 23 -18 44 -50 44c-34 0 -48 -22 -48 -43z" />
<glyph horiz-adv-x="340" d="M115 307l-20 52c70 22 128 58 136 117l-4 3c-15 -11 -35 -15 -53 -15c-61 0 -129 34 -129 116c0 63 48 117 121 117c98 0 136 -71 136 -152c0 -146 -92 -209 -187 -238zM111 584c0 -48 37 -70 75 -70c15 0 33 5 47 17c12 56 -10 109 -66 109c-32 0 -56 -20 -56 -56z" />
<glyph horiz-adv-x="340" d="M302 151c0 -139 -55 -199 -130 -199c-73 0 -133 51 -133 199c0 137 60 191 133 191c75 0 130 -63 130 -191zM236 152c0 81 -27 130 -66 130c-34 0 -65 -42 -65 -130c0 -100 33 -140 67 -140c42 0 64 49 64 140z" />
<glyph horiz-adv-x="340" d="M220 -43h-65v316l-71 -6l-3 56l130 15l9 -7v-374z" />
<glyph horiz-adv-x="340" d="M73 254l-8 58c9 7 49 30 103 30c68 0 123 -29 123 -103c0 -64 -52 -136 -140 -209l3 -8l143 5v-67h-257l-6 22c142 126 188 199 188 247c0 37 -23 53 -57 53c-43 0 -80 -20 -92 -28z" />
<glyph horiz-adv-x="340" d="M56 -28l-1 64c32 -15 66 -24 100 -24c38 0 68 19 68 57c0 32 -23 54 -67 53l-67 -2l5 58l60 -2c35 -1 63 27 63 58c0 34 -26 50 -61 50c-30 0 -55 -8 -83 -21l5 62c15 7 44 17 87 17c62 0 120 -32 120 -95c0 -44 -28 -80 -70 -90v-6c50 -10 76 -47 76 -86 c0 -83 -75 -113 -136 -113c-39 0 -71 7 -99 20z" />
<glyph horiz-adv-x="340" d="M307 123v-58h-43v-105h-63v105h-153l-9 24l159 245h66v-212zM119 117l82 2v131h-7l-78 -127z" />
<glyph horiz-adv-x="340" d="M62 143l-2 2l21 189h199l-6 -63l-145 6l-10 -77c11 1 21 1 31 1c104 0 147 -50 147 -110c0 -93 -87 -139 -187 -139c-22 0 -42 1 -58 6l9 58c14 -5 35 -5 52 -5c80 0 115 38 115 78s-50 57 -122 57c-16 0 -29 -1 -44 -3z" />
<glyph horiz-adv-x="340" d="M120 178l4 -3c16 10 37 15 57 15c56 0 121 -37 121 -121c0 -77 -66 -117 -121 -117c-98 0 -136 71 -136 152c0 154 115 233 236 238l-7 -54c-88 -6 -144 -55 -154 -110zM236 70c0 47 -35 70 -70 70c-17 0 -35 -5 -51 -15c-11 -70 16 -120 65 -120c32 0 56 23 56 65z" />
<glyph horiz-adv-x="340" d="M297 334l5 -7c-70 -128 -112 -244 -119 -367h-75c19 112 61 227 114 312l-2 2l-164 -5l5 65h236z" />
<glyph horiz-adv-x="340" d="M215 160v-3c58 -34 82 -68 82 -109c0 -56 -53 -96 -127 -96c-75 0 -125 43 -125 102c0 43 33 75 77 94v3c-48 32 -66 64 -66 97c0 51 47 94 119 94c60 0 111 -33 111 -88c0 -44 -23 -74 -71 -94zM167 125c-2 1 -4 1 -5 2c-36 -18 -53 -43 -53 -68c0 -32 27 -51 63 -51 c35 0 57 22 57 46c0 32 -28 54 -62 71zM124 245c0 -24 14 -44 48 -65c28 16 50 35 50 64c0 23 -18 44 -50 44c-34 0 -48 -22 -48 -43z" />
<glyph horiz-adv-x="340" d="M115 -48l-20 52c70 22 128 58 136 117l-4 3c-15 -11 -35 -15 -53 -15c-61 0 -129 34 -129 116c0 63 48 117 121 117c98 0 136 -71 136 -152c0 -146 -92 -209 -187 -238zM111 229c0 -48 37 -70 75 -70c15 0 33 5 47 17c12 56 -10 109 -66 109c-32 0 -56 -20 -56 -56z" />
<glyph unicode="&#x2044;" d="M130 -24l245 370l220 353l46 -26l-237 -349l-228 -376z" />
<glyph horiz-adv-x="340" d="M302 426c0 -139 -55 -199 -130 -199c-73 0 -133 51 -133 199c0 137 60 191 133 191c75 0 130 -63 130 -191zM236 427c0 81 -27 130 -66 130c-34 0 -65 -42 -65 -130c0 -100 33 -140 67 -140c42 0 64 49 64 140z" />
<glyph horiz-adv-x="340" d="M220 232h-65v316l-71 -6l-3 56l130 15l9 -7v-374z" />
<glyph horiz-adv-x="340" d="M73 529l-8 58c9 7 49 30 103 30c68 0 123 -29 123 -103c0 -64 -52 -136 -140 -209l3 -8l143 5v-67h-257l-6 22c142 126 188 199 188 247c0 37 -23 53 -57 53c-43 0 -80 -20 -92 -28z" />
<glyph horiz-adv-x="340" d="M56 247l-1 64c32 -15 66 -24 100 -24c38 0 68 19 68 57c0 32 -23 54 -67 53l-67 -2l5 58l60 -2c35 -1 63 27 63 58c0 34 -26 50 -61 50c-30 0 -55 -8 -83 -21l5 62c15 7 44 17 87 17c62 0 120 -32 120 -95c0 -44 -28 -80 -70 -90v-6c50 -10 76 -47 76 -86 c0 -83 -75 -113 -136 -113c-39 0 -71 7 -99 20z" />
<glyph horiz-adv-x="340" d="M307 398v-58h-43v-105h-63v105h-153l-9 24l159 245h66v-212zM119 392l82 2v131h-7l-78 -127z" />
<glyph horiz-adv-x="340" d="M62 418l-2 2l21 189h199l-6 -63l-145 6l-10 -77c11 1 21 1 31 1c104 0 147 -50 147 -110c0 -93 -87 -139 -187 -139c-22 0 -42 1 -58 6l9 58c14 -5 35 -5 52 -5c80 0 115 38 115 78s-50 57 -122 57c-16 0 -29 -1 -44 -3z" />
<glyph horiz-adv-x="340" d="M120 453l4 -3c16 10 37 15 57 15c56 0 121 -37 121 -121c0 -77 -66 -117 -121 -117c-98 0 -136 71 -136 152c0 154 115 233 236 238l-7 -54c-88 -6 -144 -55 -154 -110zM236 345c0 47 -35 70 -70 70c-17 0 -35 -5 -51 -15c-11 -70 16 -120 65 -120c32 0 56 23 56 65z" />
<glyph horiz-adv-x="340" d="M297 609l5 -7c-70 -128 -112 -244 -119 -367h-75c19 112 61 227 114 312l-2 2l-164 -5l5 65h236z" />
<glyph horiz-adv-x="340" d="M215 435v-3c58 -34 82 -68 82 -109c0 -56 -53 -96 -127 -96c-75 0 -125 43 -125 102c0 43 33 75 77 94v3c-48 32 -66 64 -66 97c0 51 47 94 119 94c60 0 111 -33 111 -88c0 -44 -23 -74 -71 -94zM167 400c-2 1 -4 1 -5 2c-36 -18 -53 -43 -53 -68c0 -32 27 -51 63 -51 c35 0 57 22 57 46c0 32 -28 54 -62 71zM124 520c0 -24 14 -44 48 -65c28 16 50 35 50 64c0 23 -18 44 -50 44c-34 0 -48 -22 -48 -43z" />
<glyph horiz-adv-x="340" d="M115 227l-20 52c70 22 128 58 136 117l-4 3c-15 -11 -35 -15 -53 -15c-61 0 -129 34 -129 116c0 63 48 117 121 117c98 0 136 -71 136 -152c0 -146 -92 -209 -187 -238zM111 504c0 -48 37 -70 75 -70c15 0 33 5 47 17c12 56 -10 109 -66 109c-32 0 -56 -20 -56 -56z" />
<glyph horiz-adv-x="340" d="M302 71c0 -139 -55 -199 -130 -199c-73 0 -133 51 -133 199c0 137 60 191 133 191c75 0 130 -63 130 -191zM236 72c0 81 -27 130 -66 130c-34 0 -65 -42 -65 -130c0 -100 33 -140 67 -140c42 0 64 49 64 140z" />
<glyph horiz-adv-x="340" d="M220 -123h-65v316l-71 -6l-3 56l130 15l9 -7v-374z" />
<glyph horiz-adv-x="340" d="M73 174l-8 58c9 7 49 30 103 30c68 0 123 -29 123 -103c0 -64 -52 -136 -140 -209l3 -8l143 5v-67h-257l-6 22c142 126 188 199 188 247c0 37 -23 53 -57 53c-43 0 -80 -20 -92 -28z" />
<glyph horiz-adv-x="340" d="M56 -108l-1 64c32 -15 66 -24 100 -24c38 0 68 19 68 57c0 32 -23 54 -67 53l-67 -2l5 58l60 -2c35 -1 63 27 63 58c0 34 -26 50 -61 50c-30 0 -55 -8 -83 -21l5 62c15 7 44 17 87 17c62 0 120 -32 120 -95c0 -44 -28 -80 -70 -90v-6c50 -10 76 -47 76 -86 c0 -83 -75 -113 -136 -113c-39 0 -71 7 -99 20z" />
<glyph horiz-adv-x="340" d="M307 43v-58h-43v-105h-63v105h-153l-9 24l159 245h66v-212zM119 37l82 2v131h-7l-78 -127z" />
<glyph horiz-adv-x="340" d="M62 63l-2 2l21 189h199l-6 -63l-145 6l-10 -77c11 1 21 1 31 1c104 0 147 -50 147 -110c0 -93 -87 -139 -187 -139c-22 0 -42 1 -58 6l9 58c14 -5 35 -5 52 -5c80 0 115 38 115 78s-50 57 -122 57c-16 0 -29 -1 -44 -3z" />
<glyph horiz-adv-x="340" d="M120 98l4 -3c16 10 37 15 57 15c56 0 121 -37 121 -121c0 -77 -66 -117 -121 -117c-98 0 -136 71 -136 152c0 154 115 233 236 238l-7 -54c-88 -6 -144 -55 -154 -110zM236 -10c0 47 -35 70 -70 70c-17 0 -35 -5 -51 -15c-11 -70 16 -120 65 -120c32 0 56 23 56 65z" />
<glyph horiz-adv-x="340" d="M297 254l5 -7c-70 -128 -112 -244 -119 -367h-75c19 112 61 227 114 312l-2 2l-164 -5l5 65h236z" />
<glyph horiz-adv-x="340" d="M215 80v-3c58 -34 82 -68 82 -109c0 -56 -53 -96 -127 -96c-75 0 -125 43 -125 102c0 43 33 75 77 94v3c-48 32 -66 64 -66 97c0 51 47 94 119 94c60 0 111 -33 111 -88c0 -44 -23 -74 -71 -94zM167 45c-2 1 -4 1 -5 2c-36 -18 -53 -43 -53 -68c0 -32 27 -51 63 -51 c35 0 57 22 57 46c0 32 -28 54 -62 71zM124 165c0 -24 14 -44 48 -65c28 16 50 35 50 64c0 23 -18 44 -50 44c-34 0 -48 -22 -48 -43z" />
<glyph horiz-adv-x="340" d="M115 -128l-20 52c70 22 128 58 136 117l-4 3c-15 -11 -35 -15 -53 -15c-61 0 -129 34 -129 116c0 63 48 117 121 117c98 0 136 -71 136 -152c0 -146 -92 -209 -187 -238zM111 149c0 -48 37 -70 75 -70c15 0 33 5 47 17c12 56 -10 109 -66 109c-32 0 -56 -20 -56 -56z" />
<glyph d="M130 -104l245 370l220 353l46 -26l-237 -349l-228 -376zM236 232h-65v316l-71 -6l-3 56l130 15l9 -7v-374zM505 174l-8 58c9 7 49 30 103 30c68 0 123 -29 123 -103c0 -64 -52 -136 -140 -209l3 -8l143 5v-67h-257l-6 22c142 126 188 199 188 247c0 37 -23 53 -57 53 c-43 0 -80 -20 -92 -28z" />
<glyph d="M130 -104l245 370l220 353l46 -26l-237 -349l-228 -376zM236 232h-65v316l-71 -6l-3 56l130 15l9 -7v-374zM488 -108l-1 64c32 -15 66 -24 100 -24c38 0 68 19 68 57c0 32 -23 54 -67 53l-67 -2l5 58l60 -2c35 -1 63 27 63 58c0 34 -26 50 -61 50c-30 0 -55 -8 -83 -21 l5 62c15 7 44 17 87 17c62 0 120 -32 120 -95c0 -44 -28 -80 -70 -90v-6c50 -10 76 -47 76 -86c0 -83 -75 -113 -136 -113c-39 0 -71 7 -99 20z" />
<glyph d="M130 -104l245 370l220 353l46 -26l-237 -349l-228 -376zM236 232h-65v316l-71 -6l-3 56l130 15l9 -7v-374zM690 43v-58h-43v-105h-63v105h-153l-9 24l159 245h66v-212zM502 37l82 2v131h-7l-78 -127z" />
<glyph d="M130 -104l245 370l220 353l46 -26l-237 -349l-228 -376zM236 232h-65v316l-71 -6l-3 56l130 15l9 -7v-374zM494 63l-2 2l21 189h199l-6 -63l-145 6l-10 -77c11 1 21 1 31 1c104 0 147 -50 147 -110c0 -93 -87 -139 -187 -139c-22 0 -42 1 -58 6l9 58c14 -5 35 -5 52 -5 c80 0 115 38 115 78s-50 57 -122 57c-16 0 -29 -1 -44 -3z" />
<glyph d="M130 -104l245 370l220 353l46 -26l-237 -349l-228 -376zM236 232h-65v316l-71 -6l-3 56l130 15l9 -7v-374zM511 98l4 -3c16 10 37 15 57 15c56 0 121 -37 121 -121c0 -77 -66 -117 -121 -117c-98 0 -136 71 -136 152c0 154 115 233 236 238l-7 -54 c-88 -6 -144 -55 -154 -110zM627 -10c0 47 -35 70 -70 70c-17 0 -35 -5 -51 -15c-11 -70 16 -120 65 -120c32 0 56 23 56 65z" />
<glyph d="M130 -104l245 370l220 353l46 -26l-237 -349l-228 -376zM236 232h-65v316l-71 -6l-3 56l130 15l9 -7v-374zM729 254l5 -7c-70 -128 -112 -244 -119 -367h-75c19 112 61 227 114 312l-2 2l-164 -5l5 65h236z" />
<glyph d="M130 -104l245 370l220 353l46 -26l-237 -349l-228 -376zM236 232h-65v316l-71 -6l-3 56l130 15l9 -7v-374zM647 80v-3c58 -34 82 -68 82 -109c0 -56 -53 -96 -127 -96c-75 0 -125 43 -125 102c0 43 33 75 77 94v3c-48 32 -66 64 -66 97c0 51 47 94 119 94 c60 0 111 -33 111 -88c0 -44 -23 -74 -71 -94zM599 45c-2 1 -4 1 -5 2c-36 -18 -53 -43 -53 -68c0 -32 27 -51 63 -51c35 0 57 22 57 46c0 32 -28 54 -62 71zM556 165c0 -24 14 -44 48 -65c28 16 50 35 50 64c0 23 -18 44 -50 44c-34 0 -48 -22 -48 -43z" />
<glyph d="M130 -104l245 370l220 353l46 -26l-237 -349l-228 -376zM236 232h-65v316l-71 -6l-3 56l130 15l9 -7v-374zM547 -128l-20 52c70 22 128 58 136 117l-4 3c-15 -11 -35 -15 -53 -15c-61 0 -129 34 -129 116c0 63 48 117 121 117c98 0 136 -71 136 -152 c0 -146 -92 -209 -187 -238zM543 149c0 -48 37 -70 75 -70c15 0 33 5 47 17c12 56 -10 109 -66 109c-32 0 -56 -20 -56 -56z" />
<glyph d="M130 -104l245 370l220 353l46 -26l-237 -349l-228 -376zM71 529l-8 58c9 7 49 30 103 30c68 0 123 -29 123 -103c0 -64 -52 -136 -140 -209l3 -8l143 5v-67h-257l-6 22c142 126 188 199 188 247c0 37 -23 53 -57 53c-43 0 -80 -20 -92 -28zM488 -108l-1 64 c32 -15 66 -24 100 -24c38 0 68 19 68 57c0 32 -23 54 -67 53l-67 -2l5 58l60 -2c35 -1 63 27 63 58c0 34 -26 50 -61 50c-30 0 -55 -8 -83 -21l5 62c15 7 44 17 87 17c62 0 120 -32 120 -95c0 -44 -28 -80 -70 -90v-6c50 -10 76 -47 76 -86c0 -83 -75 -113 -136 -113 c-39 0 -71 7 -99 20z" />
<glyph d="M130 -104l245 370l220 353l46 -26l-237 -349l-228 -376zM71 529l-8 58c9 7 49 30 103 30c68 0 123 -29 123 -103c0 -64 -52 -136 -140 -209l3 -8l143 5v-67h-257l-6 22c142 126 188 199 188 247c0 37 -23 53 -57 53c-43 0 -80 -20 -92 -28zM494 63l-2 2l21 189h199 l-6 -63l-145 6l-10 -77c11 1 21 1 31 1c104 0 147 -50 147 -110c0 -93 -87 -139 -187 -139c-22 0 -42 1 -58 6l9 58c14 -5 35 -5 52 -5c80 0 115 38 115 78s-50 57 -122 57c-16 0 -29 -1 -44 -3z" />
<glyph d="M130 -104l245 370l220 353l46 -26l-237 -349l-228 -376zM71 529l-8 58c9 7 49 30 103 30c68 0 123 -29 123 -103c0 -64 -52 -136 -140 -209l3 -8l143 5v-67h-257l-6 22c142 126 188 199 188 247c0 37 -23 53 -57 53c-43 0 -80 -20 -92 -28zM729 254l5 -7 c-70 -128 -112 -244 -119 -367h-75c19 112 61 227 114 312l-2 2l-164 -5l5 65h236z" />
<glyph d="M130 -104l245 370l220 353l46 -26l-237 -349l-228 -376zM71 529l-8 58c9 7 49 30 103 30c68 0 123 -29 123 -103c0 -64 -52 -136 -140 -209l3 -8l143 5v-67h-257l-6 22c142 126 188 199 188 247c0 37 -23 53 -57 53c-43 0 -80 -20 -92 -28zM547 -128l-20 52 c70 22 128 58 136 117l-4 3c-15 -11 -35 -15 -53 -15c-61 0 -129 34 -129 116c0 63 48 117 121 117c98 0 136 -71 136 -152c0 -146 -92 -209 -187 -238zM543 149c0 -48 37 -70 75 -70c15 0 33 5 47 17c12 56 -10 109 -66 109c-32 0 -56 -20 -56 -56z" />
<glyph d="M130 -104l245 370l220 353l46 -26l-237 -349l-228 -376zM72 247l-1 64c32 -15 66 -24 100 -24c38 0 68 19 68 57c0 32 -23 54 -67 53l-67 -2l5 58l60 -2c35 -1 63 27 63 58c0 34 -26 50 -61 50c-30 0 -55 -8 -83 -21l5 62c15 7 44 17 87 17c62 0 120 -32 120 -95 c0 -44 -28 -80 -70 -90v-6c50 -10 76 -47 76 -86c0 -83 -75 -113 -136 -113c-39 0 -71 7 -99 20zM690 43v-58h-43v-105h-63v105h-153l-9 24l159 245h66v-212zM502 37l82 2v131h-7l-78 -127z" />
<glyph d="M130 -104l245 370l220 353l46 -26l-237 -349l-228 -376zM72 247l-1 64c32 -15 66 -24 100 -24c38 0 68 19 68 57c0 32 -23 54 -67 53l-67 -2l5 58l60 -2c35 -1 63 27 63 58c0 34 -26 50 -61 50c-30 0 -55 -8 -83 -21l5 62c15 7 44 17 87 17c62 0 120 -32 120 -95 c0 -44 -28 -80 -70 -90v-6c50 -10 76 -47 76 -86c0 -83 -75 -113 -136 -113c-39 0 -71 7 -99 20zM494 63l-2 2l21 189h199l-6 -63l-145 6l-10 -77c11 1 21 1 31 1c104 0 147 -50 147 -110c0 -93 -87 -139 -187 -139c-22 0 -42 1 -58 6l9 58c14 -5 35 -5 52 -5 c80 0 115 38 115 78s-50 57 -122 57c-16 0 -29 -1 -44 -3z" />
<glyph d="M130 -104l245 370l220 353l46 -26l-237 -349l-228 -376zM72 247l-1 64c32 -15 66 -24 100 -24c38 0 68 19 68 57c0 32 -23 54 -67 53l-67 -2l5 58l60 -2c35 -1 63 27 63 58c0 34 -26 50 -61 50c-30 0 -55 -8 -83 -21l5 62c15 7 44 17 87 17c62 0 120 -32 120 -95 c0 -44 -28 -80 -70 -90v-6c50 -10 76 -47 76 -86c0 -83 -75 -113 -136 -113c-39 0 -71 7 -99 20zM729 254l5 -7c-70 -128 -112 -244 -119 -367h-75c19 112 61 227 114 312l-2 2l-164 -5l5 65h236z" />
<glyph d="M130 -104l245 370l220 353l46 -26l-237 -349l-228 -376zM72 247l-1 64c32 -15 66 -24 100 -24c38 0 68 19 68 57c0 32 -23 54 -67 53l-67 -2l5 58l60 -2c35 -1 63 27 63 58c0 34 -26 50 -61 50c-30 0 -55 -8 -83 -21l5 62c15 7 44 17 87 17c62 0 120 -32 120 -95 c0 -44 -28 -80 -70 -90v-6c50 -10 76 -47 76 -86c0 -83 -75 -113 -136 -113c-39 0 -71 7 -99 20zM647 80v-3c58 -34 82 -68 82 -109c0 -56 -53 -96 -127 -96c-75 0 -125 43 -125 102c0 43 33 75 77 94v3c-48 32 -66 64 -66 97c0 51 47 94 119 94c60 0 111 -33 111 -88 c0 -44 -23 -74 -71 -94zM599 45c-2 1 -4 1 -5 2c-36 -18 -53 -43 -53 -68c0 -32 27 -51 63 -51c35 0 57 22 57 46c0 32 -28 54 -62 71zM556 165c0 -24 14 -44 48 -65c28 16 50 35 50 64c0 23 -18 44 -50 44c-34 0 -48 -22 -48 -43z" />
<glyph d="M130 -104l245 370l220 353l46 -26l-237 -349l-228 -376zM323 398v-58h-43v-105h-63v105h-153l-9 24l159 245h66v-212zM135 392l82 2v131h-7l-78 -127zM494 63l-2 2l21 189h199l-6 -63l-145 6l-10 -77c11 1 21 1 31 1c104 0 147 -50 147 -110c0 -93 -87 -139 -187 -139 c-22 0 -42 1 -58 6l9 58c14 -5 35 -5 52 -5c80 0 115 38 115 78s-50 57 -122 57c-16 0 -29 -1 -44 -3z" />
<glyph d="M130 -104l245 370l220 353l46 -26l-237 -349l-228 -376zM323 398v-58h-43v-105h-63v105h-153l-9 24l159 245h66v-212zM135 392l82 2v131h-7l-78 -127zM729 254l5 -7c-70 -128 -112 -244 -119 -367h-75c19 112 61 227 114 312l-2 2l-164 -5l5 65h236z" />
<glyph d="M130 -104l245 370l220 353l46 -26l-237 -349l-228 -376zM323 398v-58h-43v-105h-63v105h-153l-9 24l159 245h66v-212zM135 392l82 2v131h-7l-78 -127zM547 -128l-20 52c70 22 128 58 136 117l-4 3c-15 -11 -35 -15 -53 -15c-61 0 -129 34 -129 116c0 63 48 117 121 117 c98 0 136 -71 136 -152c0 -146 -92 -209 -187 -238zM543 149c0 -48 37 -70 75 -70c15 0 33 5 47 17c12 56 -10 109 -66 109c-32 0 -56 -20 -56 -56z" />
<glyph d="M130 -104l245 370l220 353l46 -26l-237 -349l-228 -376zM78 418l-2 2l21 189h199l-6 -63l-145 6l-10 -77c11 1 21 1 31 1c104 0 147 -50 147 -110c0 -93 -87 -139 -187 -139c-22 0 -42 1 -58 6l9 58c14 -5 35 -5 52 -5c80 0 115 38 115 78s-50 57 -122 57 c-16 0 -29 -1 -44 -3zM511 98l4 -3c16 10 37 15 57 15c56 0 121 -37 121 -121c0 -77 -66 -117 -121 -117c-98 0 -136 71 -136 152c0 154 115 233 236 238l-7 -54c-88 -6 -144 -55 -154 -110zM627 -10c0 47 -35 70 -70 70c-17 0 -35 -5 -51 -15c-11 -70 16 -120 65 -120 c32 0 56 23 56 65z" />
<glyph d="M130 -104l245 370l220 353l46 -26l-237 -349l-228 -376zM78 418l-2 2l21 189h199l-6 -63l-145 6l-10 -77c11 1 21 1 31 1c104 0 147 -50 147 -110c0 -93 -87 -139 -187 -139c-22 0 -42 1 -58 6l9 58c14 -5 35 -5 52 -5c80 0 115 38 115 78s-50 57 -122 57 c-16 0 -29 -1 -44 -3zM729 254l5 -7c-70 -128 -112 -244 -119 -367h-75c19 112 61 227 114 312l-2 2l-164 -5l5 65h236z" />
<glyph d="M130 -104l245 370l220 353l46 -26l-237 -349l-228 -376zM78 418l-2 2l21 189h199l-6 -63l-145 6l-10 -77c11 1 21 1 31 1c104 0 147 -50 147 -110c0 -93 -87 -139 -187 -139c-22 0 -42 1 -58 6l9 58c14 -5 35 -5 52 -5c80 0 115 38 115 78s-50 57 -122 57 c-16 0 -29 -1 -44 -3zM647 80v-3c58 -34 82 -68 82 -109c0 -56 -53 -96 -127 -96c-75 0 -125 43 -125 102c0 43 33 75 77 94v3c-48 32 -66 64 -66 97c0 51 47 94 119 94c60 0 111 -33 111 -88c0 -44 -23 -74 -71 -94zM599 45c-2 1 -4 1 -5 2c-36 -18 -53 -43 -53 -68 c0 -32 27 -51 63 -51c35 0 57 22 57 46c0 32 -28 54 -62 71zM556 165c0 -24 14 -44 48 -65c28 16 50 35 50 64c0 23 -18 44 -50 44c-34 0 -48 -22 -48 -43z" />
<glyph d="M130 -104l245 370l220 353l46 -26l-237 -349l-228 -376zM78 418l-2 2l21 189h199l-6 -63l-145 6l-10 -77c11 1 21 1 31 1c104 0 147 -50 147 -110c0 -93 -87 -139 -187 -139c-22 0 -42 1 -58 6l9 58c14 -5 35 -5 52 -5c80 0 115 38 115 78s-50 57 -122 57 c-16 0 -29 -1 -44 -3zM547 -128l-20 52c70 22 128 58 136 117l-4 3c-15 -11 -35 -15 -53 -15c-61 0 -129 34 -129 116c0 63 48 117 121 117c98 0 136 -71 136 -152c0 -146 -92 -209 -187 -238zM543 149c0 -48 37 -70 75 -70c15 0 33 5 47 17c12 56 -10 109 -66 109 c-32 0 -56 -20 -56 -56z" />
<glyph d="M130 -104l245 370l220 353l46 -26l-237 -349l-228 -376zM313 609l5 -7c-70 -128 -112 -244 -119 -367h-75c19 112 61 227 114 312l-2 2l-164 -5l5 65h236zM647 80v-3c58 -34 82 -68 82 -109c0 -56 -53 -96 -127 -96c-75 0 -125 43 -125 102c0 43 33 75 77 94v3 c-48 32 -66 64 -66 97c0 51 47 94 119 94c60 0 111 -33 111 -88c0 -44 -23 -74 -71 -94zM599 45c-2 1 -4 1 -5 2c-36 -18 -53 -43 -53 -68c0 -32 27 -51 63 -51c35 0 57 22 57 46c0 32 -28 54 -62 71zM556 165c0 -24 14 -44 48 -65c28 16 50 35 50 64c0 23 -18 44 -50 44 c-34 0 -48 -22 -48 -43z" />
<glyph d="M130 -104l245 370l220 353l46 -26l-237 -349l-228 -376zM313 609l5 -7c-70 -128 -112 -244 -119 -367h-75c19 112 61 227 114 312l-2 2l-164 -5l5 65h236zM547 -128l-20 52c70 22 128 58 136 117l-4 3c-15 -11 -35 -15 -53 -15c-61 0 -129 34 -129 116 c0 63 48 117 121 117c98 0 136 -71 136 -152c0 -146 -92 -209 -187 -238zM543 149c0 -48 37 -70 75 -70c15 0 33 5 47 17c12 56 -10 109 -66 109c-32 0 -56 -20 -56 -56z" />
<glyph d="M130 -104l245 370l220 353l46 -26l-237 -349l-228 -376zM231 435v-3c58 -34 82 -68 82 -109c0 -56 -53 -96 -127 -96c-75 0 -125 43 -125 102c0 43 33 75 77 94v3c-48 32 -66 64 -66 97c0 51 47 94 119 94c60 0 111 -33 111 -88c0 -44 -23 -74 -71 -94zM183 400 c-2 1 -4 1 -5 2c-36 -18 -53 -43 -53 -68c0 -32 27 -51 63 -51c35 0 57 22 57 46c0 32 -28 54 -62 71zM140 520c0 -24 14 -44 48 -65c28 16 50 35 50 64c0 23 -18 44 -50 44c-34 0 -48 -22 -48 -43zM547 -128l-20 52c70 22 128 58 136 117l-4 3c-15 -11 -35 -15 -53 -15 c-61 0 -129 34 -129 116c0 63 48 117 121 117c98 0 136 -71 136 -152c0 -146 -92 -209 -187 -238zM543 149c0 -48 37 -70 75 -70c15 0 33 5 47 17c12 56 -10 109 -66 109c-32 0 -56 -20 -56 -56z" />
<glyph unicode="&#x2070;" horiz-adv-x="340" d="M302 606c0 -139 -55 -199 -130 -199c-73 0 -133 51 -133 199c0 137 60 191 133 191c75 0 130 -63 130 -191zM236 607c0 81 -27 130 -66 130c-34 0 -65 -42 -65 -130c0 -100 33 -140 67 -140c42 0 64 49 64 140z" />
<glyph unicode="&#xb9;" horiz-adv-x="340" d="M220 412h-65v316l-71 -6l-3 56l130 15l9 -7v-374z" />
<glyph unicode="&#xb2;" horiz-adv-x="340" d="M73 709l-8 58c9 7 49 30 103 30c68 0 123 -29 123 -103c0 -64 -52 -136 -140 -209l3 -8l143 5v-67h-257l-6 22c142 126 188 199 188 247c0 37 -23 53 -57 53c-43 0 -80 -20 -92 -28z" />
<glyph unicode="&#xb3;" horiz-adv-x="340" d="M56 427l-1 64c32 -15 66 -24 100 -24c38 0 68 19 68 57c0 32 -23 54 -67 53l-67 -2l5 58l60 -2c35 -1 63 27 63 58c0 34 -26 50 -61 50c-30 0 -55 -8 -83 -21l5 62c15 7 44 17 87 17c62 0 120 -32 120 -95c0 -44 -28 -80 -70 -90v-6c50 -10 76 -47 76 -86 c0 -83 -75 -113 -136 -113c-39 0 -71 7 -99 20z" />
<glyph unicode="&#x2074;" horiz-adv-x="340" d="M307 578v-58h-43v-105h-63v105h-153l-9 24l159 245h66v-212zM119 572l82 2v131h-7l-78 -127z" />
<glyph unicode="&#x2075;" horiz-adv-x="340" d="M62 598l-2 2l21 189h199l-6 -63l-145 6l-10 -77c11 1 21 1 31 1c104 0 147 -50 147 -110c0 -93 -87 -139 -187 -139c-22 0 -42 1 -58 6l9 58c14 -5 35 -5 52 -5c80 0 115 38 115 78s-50 57 -122 57c-16 0 -29 -1 -44 -3z" />
<glyph unicode="&#x2076;" horiz-adv-x="340" d="M120 633l4 -3c16 10 37 15 57 15c56 0 121 -37 121 -121c0 -77 -66 -117 -121 -117c-98 0 -136 71 -136 152c0 154 115 233 236 238l-7 -54c-88 -6 -144 -55 -154 -110zM236 525c0 47 -35 70 -70 70c-17 0 -35 -5 -51 -15c-11 -70 16 -120 65 -120c32 0 56 23 56 65z" />
<glyph unicode="&#x2077;" horiz-adv-x="340" d="M297 789l5 -7c-70 -128 -112 -244 -119 -367h-75c19 112 61 227 114 312l-2 2l-164 -5l5 65h236z" />
<glyph unicode="&#x2078;" horiz-adv-x="340" d="M215 615v-3c58 -34 82 -68 82 -109c0 -56 -53 -96 -127 -96c-75 0 -125 43 -125 102c0 43 33 75 77 94v3c-48 32 -66 64 -66 97c0 51 47 94 119 94c60 0 111 -33 111 -88c0 -44 -23 -74 -71 -94zM167 580c-2 1 -4 1 -5 2c-36 -18 -53 -43 -53 -68c0 -32 27 -51 63 -51 c35 0 57 22 57 46c0 32 -28 54 -62 71zM124 700c0 -24 14 -44 48 -65c28 16 50 35 50 64c0 23 -18 44 -50 44c-34 0 -48 -22 -48 -43z" />
<glyph unicode="&#x2079;" horiz-adv-x="340" d="M115 407l-20 52c70 22 128 58 136 117l-4 3c-15 -11 -35 -15 -53 -15c-61 0 -129 34 -129 116c0 63 48 117 121 117c98 0 136 -71 136 -152c0 -146 -92 -209 -187 -238zM111 684c0 -48 37 -70 75 -70c15 0 33 5 47 17c12 56 -10 109 -66 109c-32 0 -56 -20 -56 -56z" />
<glyph horiz-adv-x="340" d="M302 31c0 -139 -55 -199 -130 -199c-73 0 -133 51 -133 199c0 137 60 191 133 191c75 0 130 -63 130 -191zM236 32c0 81 -27 130 -66 130c-34 0 -65 -42 -65 -130c0 -100 33 -140 67 -140c42 0 64 49 64 140z" />
<glyph horiz-adv-x="340" d="M220 -163h-65v316l-71 -6l-3 56l130 15l9 -7v-374z" />
<glyph horiz-adv-x="340" d="M73 134l-8 58c9 7 49 30 103 30c68 0 123 -29 123 -103c0 -64 -52 -136 -140 -209l3 -8l143 5v-67h-257l-6 22c142 126 188 199 188 247c0 37 -23 53 -57 53c-43 0 -80 -20 -92 -28z" />
<glyph horiz-adv-x="340" d="M56 -148l-1 64c32 -15 66 -24 100 -24c38 0 68 19 68 57c0 32 -23 54 -67 53l-67 -2l5 58l60 -2c35 -1 63 27 63 58c0 34 -26 50 -61 50c-30 0 -55 -8 -83 -21l5 62c15 7 44 17 87 17c62 0 120 -32 120 -95c0 -44 -28 -80 -70 -90v-6c50 -10 76 -47 76 -86 c0 -83 -75 -113 -136 -113c-39 0 -71 7 -99 20z" />
<glyph horiz-adv-x="340" d="M307 3v-58h-43v-105h-63v105h-153l-9 24l159 245h66v-212zM119 -3l82 2v131h-7l-78 -127z" />
<glyph horiz-adv-x="340" d="M62 23l-2 2l21 189h199l-6 -63l-145 6l-10 -77c11 1 21 1 31 1c104 0 147 -50 147 -110c0 -93 -87 -139 -187 -139c-22 0 -42 1 -58 6l9 58c14 -5 35 -5 52 -5c80 0 115 38 115 78s-50 57 -122 57c-16 0 -29 -1 -44 -3z" />
<glyph horiz-adv-x="340" d="M120 58l4 -3c16 10 37 15 57 15c56 0 121 -37 121 -121c0 -77 -66 -117 -121 -117c-98 0 -136 71 -136 152c0 154 115 233 236 238l-7 -54c-88 -6 -144 -55 -154 -110zM236 -50c0 47 -35 70 -70 70c-17 0 -35 -5 -51 -15c-11 -70 16 -120 65 -120c32 0 56 23 56 65z" />
<glyph horiz-adv-x="340" d="M297 214l5 -7c-70 -128 -112 -244 -119 -367h-75c19 112 61 227 114 312l-2 2l-164 -5l5 65h236z" />
<glyph horiz-adv-x="340" d="M215 40v-3c58 -34 82 -68 82 -109c0 -56 -53 -96 -127 -96c-75 0 -125 43 -125 102c0 43 33 75 77 94v3c-48 32 -66 64 -66 97c0 51 47 94 119 94c60 0 111 -33 111 -88c0 -44 -23 -74 -71 -94zM167 5c-2 1 -4 1 -5 2c-36 -18 -53 -43 -53 -68c0 -32 27 -51 63 -51 c35 0 57 22 57 46c0 32 -28 54 -62 71zM124 125c0 -24 14 -44 48 -65c28 16 50 35 50 64c0 23 -18 44 -50 44c-34 0 -48 -22 -48 -43z" />
<glyph horiz-adv-x="340" d="M115 -168l-20 52c70 22 128 58 136 117l-4 3c-15 -11 -35 -15 -53 -15c-61 0 -129 34 -129 116c0 63 48 117 121 117c98 0 136 -71 136 -152c0 -146 -92 -209 -187 -238zM111 109c0 -48 37 -70 75 -70c15 0 33 5 47 17c12 56 -10 109 -66 109c-32 0 -56 -20 -56 -56z" />
<glyph unicode="&#xc6;" horiz-adv-x="980" d="M883 680v-82h-291v-203h261v-82h-261v-231h301v-82h-395v177h-242l-115 -177h-100l445 680h397zM492 540l-183 -281h189v281h-6z" />
<glyph unicode="&#x152;" horiz-adv-x="1000" d="M903 680v-82h-291v-203h261v-82h-261v-231h301v-82h-395c-32 -9 -66 -15 -102 -15c-188 0 -338 150 -338 350c0 218 163 360 338 360c35 0 69 -5 102 -15h385zM418 70c37 0 70 8 100 23v492c-32 16 -68 25 -107 25c-121 0 -235 -102 -235 -273c0 -137 90 -267 242 -267z " />
<glyph unicode="&#xde;" horiz-adv-x="580" d="M212 680v-131h74c138 0 231 -75 231 -196c0 -128 -97 -212 -240 -211h-65v-142h-94v680h94zM419 351c0 74 -52 119 -132 119h-75v-249h70c73 0 137 34 137 130z" />
<glyph unicode="&#x1e9e;" horiz-adv-x="720" d="M547 547c0 -111 -132 -114 -132 -192c0 -81 239 -73 239 -219c0 -104 -99 -151 -192 -151c-77 0 -141 16 -166 33l24 83c39 -19 84 -33 143 -33c63 0 94 31 94 63c0 88 -236 76 -236 221c0 113 130 112 130 196c0 45 -57 68 -116 68c-62 0 -110 -25 -123 -48v-568h-94 v607c30 39 103 88 213 88c144 0 216 -72 216 -148z" />
<glyph unicode="&#xe6;" horiz-adv-x="800" d="M708 500v-79h-243v-127h213v-79h-213v-136h253v-79h-345v108h-174l-73 -108h-98l344 500h336zM369 358l-118 -173h122v173h-4z" />
<glyph unicode="&#xf0;" horiz-adv-x="580" d="M260 0h-167v222h-68v61h68v217h166c146 0 263 -100 263 -246c0 -164 -111 -254 -262 -254zM185 79h79c103 0 164 66 164 177c0 99 -87 165 -165 165h-78v-138h102v-61h-102v-143z" />
<glyph unicode="&#x153;" horiz-adv-x="830" d="M738 500v-79h-243v-127h213v-79h-213v-136h253v-79h-345v1c-24 -7 -50 -11 -77 -11c-151 0 -268 111 -268 254c0 161 127 266 268 266c26 0 52 -3 77 -10h335zM328 73c27 0 53 6 75 17v319c-24 12 -50 18 -78 18c-90 0 -173 -64 -173 -181c0 -89 63 -173 176 -173z" />
<glyph unicode="&#xfe;" horiz-adv-x="500" d="M93 500h92v-80h91c103 0 176 -61 176 -158c0 -68 -46 -160 -185 -160h-82v-102h-92v500zM358 263c0 56 -36 81 -86 81h-87v-166h85c55 0 88 29 88 85z" />
<glyph unicode="&#xdf;" horiz-adv-x="620" d="M492 387c0 -76 -92 -83 -92 -129s169 -55 169 -152c0 -81 -87 -116 -172 -116c-67 0 -121 16 -141 33l24 79c34 -19 69 -29 118 -29c51 0 77 16 77 33c0 50 -169 57 -169 146c0 69 90 79 90 129c0 32 -49 45 -96 45c-58 0 -98 -21 -115 -43v-383h-92v422 c28 39 99 88 203 88c132 0 196 -62 196 -123z" />
<glyph unicode="&#x131;" horiz-adv-x="310" d="M201 500v-500h-92v500h92z" />
<glyph unicode="&#xb4;" horiz-adv-x="500" d="M195 448v8l96 164h84v-10l-119 -162h-61z" />
<glyph unicode="`" horiz-adv-x="500" d="M305 456v-8h-61l-119 162v10h84z" />
<glyph unicode="&#x2c6;" horiz-adv-x="500" d="M385 456v-8h-56l-79 94l-79 -94h-56v8l121 164h28z" />
<glyph unicode="&#xa8;" horiz-adv-x="500" d="M123 507c0 27 22 49 49 49s49 -22 49 -49s-22 -49 -49 -49s-49 22 -49 49zM279 507c0 27 22 49 49 49s49 -22 49 -49s-22 -49 -49 -49s-49 22 -49 49z" />
<glyph unicode="&#x2dc;" horiz-adv-x="500" d="M336 583h52c0 -62 -33 -120 -83 -120c-53 0 -72 63 -104 63c-25 0 -40 -27 -40 -61h-50c0 77 39 120 84 120c52 0 74 -64 106 -64c23 0 35 30 35 62z" />
<glyph unicode="&#xaf;" horiz-adv-x="500" d="M372 478h-244v64h244v-64z" />
<glyph unicode="&#x2d8;" horiz-adv-x="500" d="M249 453c-67 0 -129 45 -129 147h52c0 -44 30 -88 78 -88c42 0 78 37 78 88h52c0 -101 -64 -147 -131 -147z" />
<glyph unicode="&#x2c7;" horiz-adv-x="500" d="M385 620v-8l-121 -164h-28l-121 164v8h56l79 -94l79 94h56z" />
<glyph unicode="&#x2d9;" horiz-adv-x="500" d="M191 533c0 33 27 60 60 60s60 -27 60 -60s-27 -60 -60 -60s-60 27 -60 60z" />
<glyph unicode="&#x2da;" horiz-adv-x="500" d="M156 527c0 52 42 94 94 94s94 -42 94 -94s-42 -94 -94 -94s-94 42 -94 94zM202 526c0 -29 18 -51 47 -51s48 22 48 51s-19 53 -48 53s-47 -24 -47 -53z" />
<glyph unicode="&#xb8;" horiz-adv-x="500" d="M197 -224l-8 39c56 6 93 26 93 53c0 23 -31 32 -77 32c-8 0 -23 -1 -30 -2l-5 7l58 115h53l-41 -80c57 0 100 -21 100 -64c0 -52 -63 -88 -143 -100z" />
<glyph unicode="&#x2dd;" horiz-adv-x="500" d="M265 448v8l86 164h94v-10l-134 -162h-46zM135 448v8l86 164h94v-10l-134 -162h-46z" />
<glyph unicode="&#x2db;" horiz-adv-x="500" d="M288 24v-6c-51 -37 -80 -80 -80 -120c0 -24 18 -36 35 -36c13 0 22 2 31 5v-60c-13 -5 -28 -6 -45 -6c-41 0 -91 22 -91 78c0 61 63 128 126 155z" />
<glyph horiz-adv-x="500" d="M190 458v8l106 124h89v-10l-134 -122h-61z" />
<glyph horiz-adv-x="500" d="M310 466v-8h-61l-134 122v10h89z" />
<glyph horiz-adv-x="500" d="M385 466v-8h-56l-79 64l-79 -64h-56v8l121 124h28z" />
<glyph horiz-adv-x="500" d="M251 456c-67 0 -134 45 -134 132h53c0 -41 34 -77 82 -77c42 0 82 32 82 77h53c0 -84 -66 -132 -136 -132z" />
<glyph horiz-adv-x="500" d="M385 590v-8l-121 -124h-28l-121 124v8h56l79 -64l79 64h56z" />
<glyph horiz-adv-x="500" d="M121 458v8l106 124h89v-10l-134 -122h-61zM258 458v8l106 124h89v-10l-134 -122h-61z" />
<glyph unicode="|" horiz-adv-x="530" d="M231 -230v980h68v-980h-68z" />
<glyph unicode="&#xa6;" horiz-adv-x="530" d="M299 400h-68v350h68v-350zM231 120h68v-350h-68v350z" />
<glyph unicode="^" horiz-adv-x="530" d="M279 691l221 -377l-58 -33l-172 300h-8l-175 -300l-57 33l222 377h27z" />
<glyph unicode="~" horiz-adv-x="530" d="M434 369h68c0 -96 -55 -168 -138 -168c-92 0 -130 98 -193 98c-44 0 -75 -42 -75 -96h-64c0 108 66 168 139 168c91 0 134 -99 194 -99c43 0 69 45 69 97z" />
<glyph unicode="&#x221e;" horiz-adv-x="530" d="M402 149c-47 0 -90 21 -137 87c-43 -56 -82 -87 -137 -87c-85 0 -125 68 -125 127c0 72 58 131 124 131c59 0 98 -38 135 -92c42 54 80 92 135 92c75 0 129 -51 129 -127c0 -72 -56 -131 -124 -131zM398 359c-39 0 -59 -18 -108 -87c37 -52 72 -73 108 -73 c42 0 77 31 77 81c0 48 -37 79 -77 79zM129 197c40 0 63 22 107 82c-38 55 -69 78 -107 78c-40 0 -75 -31 -75 -81c0 -49 37 -79 75 -79z" />
<glyph unicode="&#xb5;" horiz-adv-x="530" d="M365 52h-10c-31 -36 -75 -66 -135 -66c-30 0 -58 8 -82 25c8 -67 18 -130 18 -160c0 -51 -22 -60 -44 -60c-29 0 -42 23 -42 52c0 41 11 190 11 313l-1 292h90v-278c0 -85 27 -103 73 -103c47 0 100 37 117 84v297h90v-347c0 -22 3 -43 21 -43c15 0 28 19 34 34l28 -11 c-22 -70 -66 -90 -94 -90c-42 0 -63 18 -74 61z" />
<glyph unicode="&#x3bc;" horiz-adv-x="530" d="M365 52h-10c-31 -36 -75 -66 -135 -66c-30 0 -58 8 -82 25c8 -67 18 -130 18 -160c0 -51 -22 -60 -44 -60c-29 0 -42 23 -42 52c0 41 11 190 11 313l-1 292h90v-278c0 -85 27 -103 73 -103c47 0 100 37 117 84v297h90v-347c0 -22 3 -43 21 -43c15 0 28 19 34 34l28 -11 c-22 -70 -66 -90 -94 -90c-42 0 -63 18 -74 61z" />
<glyph unicode="&#x2202;" horiz-adv-x="530" d="M278 624c-57 0 -98 -36 -109 -60h-35l17 73c24 33 82 61 138 61c131 0 192 -142 192 -324c0 -266 -106 -389 -246 -389c-111 0 -186 85 -186 220c0 123 86 254 212 254c55 0 92 -16 126 -59l5 3v29c0 130 -54 192 -114 192zM389 325c-16 37 -60 67 -117 67 c-68 0 -132 -70 -132 -188c0 -88 38 -146 105 -146c75 0 154 95 144 267z" />
<glyph unicode="&#x2211;" horiz-adv-x="580" d="M188 87l3 -5h348v-82h-521l-4 10l278 320v7l-264 336l5 7h506v-82h-330l-5 -3l201 -252v-11z" />
<glyph unicode="&#x220f;" horiz-adv-x="610" d="M17 680h576v-82h-88v-598h-91v598h-218v-598h-91v598h-88v82z" />
<glyph unicode="&#x3c0;" horiz-adv-x="550" d="M177 22c-47 -72 -140 -10 -84 40c72 72 89 160 89 314h-26c-32 0 -52 -7 -60 -36l-32 5c17 73 41 103 85 103h352v-72h-86l-21 -258c-3 -41 9 -61 27 -61c16 0 27 10 40 42l40 -8c-26 -69 -55 -98 -102 -98c-58 0 -84 43 -78 108l26 275h-98c-3 -150 -15 -267 -72 -354z " />
<glyph unicode="&#x222b;" horiz-adv-x="530" d="M298 497l12 -487c3 -126 -73 -214 -175 -214c-37 0 -75 20 -75 66c0 25 15 54 49 54c26 0 52 -16 57 -64l26 -7c26 25 43 94 41 155l-12 487c-3 129 73 213 173 213c39 0 77 -20 77 -65c0 -25 -16 -54 -50 -54c-25 0 -51 16 -56 64l-26 7c-28 -26 -43 -74 -41 -155z" />
<glyph unicode="&#x3a9;" horiz-adv-x="590" d="M294 610c-113 0 -158 -102 -158 -233c0 -158 59 -292 128 -314v-63h-238v82h115v5c-57 63 -104 177 -104 295c0 188 100 313 258 313s258 -130 258 -313c0 -118 -47 -232 -104 -295v-5h115v-82h-238v63c69 22 128 159 128 321c0 122 -50 226 -160 226z" />
<glyph unicode="&#x2126;" horiz-adv-x="590" d="M294 610c-113 0 -158 -102 -158 -233c0 -158 59 -292 128 -314v-63h-238v82h115v5c-57 63 -104 177 -104 295c0 188 100 313 258 313s258 -130 258 -313c0 -118 -47 -232 -104 -295v-5h115v-82h-238v63c69 22 128 159 128 321c0 122 -50 226 -160 226z" />
<glyph unicode="&#xac;" horiz-adv-x="530" d="M422 52v193h-389v68h457v-261h-68z" />
<glyph unicode="&#x221a;" horiz-adv-x="530" d="M312 61h13l152 695l49 -10l-184 -883h-37l-195 526l-98 -35l-16 37l175 59z" />
<glyph unicode="&#x192;" horiz-adv-x="530" d="M89 366l14 49h94l25 100c20 80 86 180 193 180c75 0 125 -35 125 -73c0 -25 -13 -47 -45 -47c-51 0 -38 72 -94 72c-45 0 -67 -57 -90 -139l-26 -93h120l-14 -49h-117l-88 -327c-29 -108 -86 -189 -165 -189c-53 0 -98 28 -98 69c0 24 14 45 37 45c41 0 45 -68 78 -68 c32 0 55 93 64 130l86 340h-99z" />
<glyph unicode="&#x2248;" horiz-adv-x="530" d="M424 388l53 -22c-18 -56 -58 -116 -131 -116c-67 0 -116 72 -169 72c-52 0 -71 -32 -90 -62l-44 32c19 37 69 89 134 89s115 -70 170 -70c39 0 69 38 77 77zM440 229l47 -23c-18 -52 -74 -96 -129 -96c-79 0 -128 71 -181 71c-32 0 -54 -29 -72 -64l-46 30 c18 32 53 93 118 93s115 -70 181 -70c43 0 71 28 82 59z" />
<glyph unicode="&#x394;" horiz-adv-x="590" d="M575 0h-560l258 695h25zM278 503l-151 -421h317z" />
<glyph unicode="&#x2206;" horiz-adv-x="590" d="M575 0h-560l258 695h25zM278 503l-151 -421h317z" />
<glyph unicode="&#x25ca;" horiz-adv-x="530" d="M264 -98l-245 373l245 375l246 -375zM103 275l161 -246l162 246l-162 248z" />
<glyph unicode="&#x2191;" horiz-adv-x="700" d="M357 605l264 -237l-46 -61l-183 163v-420h-84v420l-183 -163l-47 61l266 237h13z" />
<glyph unicode="&#x2193;" horiz-adv-x="700" d="M621 287l-264 -237h-13l-266 237l47 61l183 -163v420h84v-420l183 163z" />
<glyph unicode="&#xf8ff;" horiz-adv-x="530" d="M216 720h11l32 -121l-3 -82l68 -8l64 99l8 99h12l7 -99l-17 -129l36 -85l35 -38l1 -6l-7 -8v-18l8 -4l-1 -9l-17 -36l-36 7l-11 101l-34 56l-13 -2l26 -60l4 -99l-37 -46l3 -22l26 -37l7 -71l-64 -23l-33 16l-35 57l-75 25l-28 47l-3 42l-30 41l-2 58l4 27l-11 44z M494 244l6 -9l-3 -37l-12 -17l-5 -33l23 -8l-3 -10l-23 7l-43 -26l-5 10l39 23l5 36l-36 14l-13 31l-1 10l14 15l24 4zM277 305l36 -14l11 13l-3 14l-11 10l-30 -10zM334 64l3 -4l-7 -21l-40 -43l-68 -23l-97 14l-55 48l-18 62l34 95l11 -1l-9 -71l22 -41l37 -33l88 -16 l48 3zM149 438l9 -9l33 34l11 76h-18z" />
<glyph unicode="!" horiz-adv-x="400" d="M251 680l-14 -235l-10 -247h-58l-11 246l-17 236h110zM140 53c0 33 27 60 60 60s60 -27 60 -60s-27 -60 -60 -60s-60 27 -60 60z" />
<glyph horiz-adv-x="530" d="M299 553v-198h188v-68h-188v-198h-68v198h-188v68h188v198h68zM487 -30h-444v68h444v-68z" />
<glyph horiz-adv-x="440" d="M389 -119l-45 -58c-112 79 -229 209 -229 394c0 192 103 323 229 398l45 -56c-102 -66 -173 -185 -173 -327c0 -158 69 -269 173 -351z" />
<glyph horiz-adv-x="440" d="M96 -177l-45 58c104 82 173 193 173 351c0 142 -71 261 -173 327l45 56c126 -75 229 -206 229 -398c0 -185 -117 -315 -229 -394z" />
<glyph horiz-adv-x="460" d="M389 540l-147 4l-6 -322l6 -316l153 4v-70l-250 -4l8 389l-8 389l244 -4v-70z" />
<glyph horiz-adv-x="460" d="M218 544l-147 -4v70l244 4l-8 -389l8 -389l-250 4v70l153 -4l6 316z" />
<glyph horiz-adv-x="460" d="M184 251v-25c68 -6 127 -43 127 -101c0 -44 -35 -87 -35 -137s14 -78 133 -78v-70c-197 0 -228 44 -228 128c0 44 33 92 33 135c0 62 -53 94 -125 94v80c72 0 125 42 125 90c0 51 -31 90 -31 140c0 82 52 113 226 113v-70c-89 0 -133 -9 -133 -64c0 -52 35 -89 35 -134 c0 -54 -58 -89 -127 -101z" />
<glyph horiz-adv-x="460" d="M276 226v25c-69 12 -127 47 -127 101c0 45 35 82 35 134c0 55 -44 64 -133 64v70c174 0 226 -31 226 -113c0 -50 -31 -89 -31 -140c0 -48 53 -90 125 -90v-80c-72 0 -125 -32 -125 -94c0 -43 33 -91 33 -135c0 -84 -31 -128 -228 -128v70c119 0 133 28 133 78 s-35 93 -35 137c0 58 59 95 127 101z" />
<glyph horiz-adv-x="640" d="M560 236l-58 -15c12 -22 18 -50 18 -76c0 -101 -107 -160 -222 -160c-109 0 -217 46 -217 154c0 56 33 113 100 138v7c-45 21 -60 64 -60 98c0 70 72 133 180 133c61 0 105 -20 135 -37l-32 -69c-29 18 -61 31 -102 31c-46 0 -88 -22 -88 -65c0 -34 19 -66 66 -66v-63 c-75 0 -112 -45 -112 -100c0 -59 64 -86 133 -86c74 0 140 37 140 92c0 12 -2 32 -12 51l-71 -18l-16 68l202 52z" />
<glyph horiz-adv-x="620" d="M551 6v-6h-94l-42 40c-43 -36 -97 -55 -154 -55c-109 0 -170 58 -170 133c0 68 45 107 94 140c-42 42 -71 82 -71 125c0 72 51 132 138 132c90 0 136 -58 136 -125c0 -72 -45 -108 -94 -138l114 -110c18 32 28 71 26 117h75c0 -67 -18 -124 -48 -168zM265 55 c35 0 70 12 98 34l-130 124c-33 -24 -58 -51 -58 -94c0 -34 35 -64 90 -64zM193 385c0 -31 21 -58 52 -88c38 26 69 53 69 93c0 30 -23 58 -61 58s-60 -31 -60 -63z" />
<glyph horiz-adv-x="510" d="M305 510l-32 -152l116 63l24 -84l-128 -17l114 -98l-65 -56l-79 134l-78 -139l-64 60l110 98l-126 13l25 80l112 -53l-21 151h92z" />
<glyph horiz-adv-x="490" d="M55 -57l300 593h80l-300 -593h-80z" />
<glyph horiz-adv-x="490" d="M135 536l300 -593h-80l-300 593h80z" />
<glyph horiz-adv-x="600" d="M426 12l20 -56c-34 -29 -86 -40 -121 -40c-155 0 -230 113 -230 290c0 155 84 309 246 309c96 0 166 -43 159 -141l-15 -211c-2 -26 8 -44 21 -55l-1 -8l-70 -18l-13 33h-12c-22 -18 -46 -27 -76 -27c-55 0 -102 38 -102 111c0 81 58 139 128 139c21 0 46 0 64 -6l4 37 c7 61 -32 80 -89 80c-98 0 -173 -100 -173 -244c0 -155 71 -221 160 -221c42 0 72 8 97 28h3zM413 171l8 99c-16 6 -37 6 -53 6c-37 0 -66 -26 -66 -77c0 -34 23 -46 50 -46c19 0 43 7 61 18z" />
<glyph horiz-adv-x="520" d="M426 195c0 -39 -24 -72 -58 -97c34 -28 49 -58 49 -90c0 -81 -71 -119 -167 -119c-69 0 -131 18 -156 38l17 76c35 -22 84 -41 140 -41c53 0 74 23 74 43c0 29 -25 50 -77 71c-101 41 -154 89 -154 156c0 36 22 72 55 101c-34 25 -50 51 -50 88c0 54 50 109 154 109 c58 0 113 -17 143 -33l-15 -72c-34 19 -82 34 -126 34c-45 0 -66 -20 -66 -38c0 -23 17 -43 89 -70c115 -42 148 -98 148 -156zM248 282c-17 7 -32 14 -45 20c-17 -17 -27 -40 -27 -64c0 -30 33 -64 102 -91c14 -6 27 -11 38 -17c18 17 26 39 26 61c0 37 -25 61 -94 91z" />
<glyph horiz-adv-x="650" d="M577 520v-67h-54v-565h-72v565h-51v-565h-72v260c-129 0 -226 71 -226 186s98 186 231 186h244zM328 220v233c-83 0 -141 -53 -141 -118c0 -68 52 -115 141 -115z" />
<glyph unicode="&#x2605;" horiz-adv-x="570" d="M127 -8l-4 3l66 186l-166 118l2 5l201 -7l57 193h6l58 -193l199 5l1 -4l-163 -117l66 -188l-3 -1l-161 118z" />
<glyph unicode="&#xd8;" horiz-adv-x="830" d="M752 335c0 -190 -140 -350 -336 -350c-75 0 -144 24 -200 65l-70 -87l-39 31l71 89c-62 62 -100 151 -100 252c0 218 163 360 338 360c73 0 143 -23 199 -66l68 85l39 -31l-69 -87c60 -62 99 -152 99 -261zM176 337c0 -67 21 -132 61 -181l321 402c-40 33 -91 52 -147 52 c-121 0 -235 -102 -235 -273zM654 337c0 74 -22 138 -60 186l-322 -403c38 -31 87 -50 146 -50c142 0 236 126 236 267z" />
<glyph unicode="&#xf8;" horiz-adv-x="650" d="M83 1l53 62c-49 45 -78 109 -78 181c0 161 127 266 268 266c55 0 109 -17 154 -47l47 55l36 -27l-49 -56c47 -46 78 -111 78 -191c0 -133 -112 -254 -266 -254c-58 0 -111 16 -155 45l-52 -61zM152 246c0 -43 14 -85 41 -116l230 267c-28 19 -62 30 -98 30 c-90 0 -173 -64 -173 -181zM498 246c0 48 -16 89 -42 120l-228 -265c27 -18 60 -28 100 -28c103 0 170 84 170 173z" />
<glyph d="M130 -104l245 370l220 353l46 -26l-237 -349l-228 -376zM136 453l4 -3c16 10 37 15 57 15c56 0 121 -37 121 -121c0 -77 -66 -117 -121 -117c-98 0 -136 71 -136 152c0 154 115 233 236 238l-7 -54c-88 -6 -144 -55 -154 -110zM252 345c0 47 -35 70 -70 70 c-17 0 -35 -5 -51 -15c-11 -70 16 -120 65 -120c32 0 56 23 56 65zM729 254l5 -7c-70 -128 -112 -244 -119 -367h-75c19 112 61 227 114 312l-2 2l-164 -5l5 65h236z" />
<glyph horiz-adv-x="540" d="M485 247c0 -176 -90 -262 -213 -262c-118 0 -217 93 -217 262c0 170 99 268 217 268c123 0 213 -98 213 -268zM394 249c0 116 -52 185 -126 185c-63 0 -122 -55 -122 -185c0 -126 63 -183 127 -183c77 0 121 61 121 183z" />
<glyph horiz-adv-x="540" d="M341 0h-90v415l-103 -15l-6 79l182 26l17 -12v-493z" />
<glyph horiz-adv-x="540" d="M100 383l-21 77c20 13 97 55 178 55c107 0 195 -45 195 -153c0 -85 -83 -183 -219 -277l3 -6l226 12v-91h-407l-10 39c233 150 313 241 313 310c0 58 -48 87 -107 87c-68 0 -130 -39 -151 -53z" />
<glyph horiz-adv-x="540" d="M83 92l2 3c46 -21 101 -33 151 -33c71 0 127 28 127 77c0 42 -44 80 -117 77l-100 -4l8 83l88 -4c57 -3 109 29 109 76c0 43 -47 71 -112 71c-47 0 -87 -11 -128 -31l-3 4l8 78c26 11 75 26 138 26c93 0 188 -36 188 -134c0 -59 -40 -105 -103 -118v-6 c76 -13 115 -71 115 -126c0 -105 -105 -146 -227 -146c-56 0 -98 10 -141 27z" />
<glyph horiz-adv-x="540" d="M475 207v-77h-70v-130h-86v130h-254l-16 36l260 334h96v-295zM167 198l152 5v194h-8l-148 -193z" />
<glyph horiz-adv-x="540" d="M94 243l-4 3l33 254h328l-11 -85l-249 7l-15 -106c13 1 46 2 65 2c159 0 226 -72 226 -150c0 -130 -137 -183 -286 -183c-39 0 -75 2 -105 11l16 78c25 -6 64 -10 95 -10c131 0 186 49 186 100c0 59 -65 87 -188 87c-33 0 -71 -3 -91 -8z" />
<glyph horiz-adv-x="540" d="M182 289l4 -3c31 17 71 29 122 29c78 0 170 -48 170 -156c0 -95 -72 -174 -203 -174c-134 0 -202 95 -202 191c0 218 180 330 360 339l-10 -77c-134 -11 -223 -78 -241 -149zM386 152c0 66 -53 95 -105 95s-83 -12 -114 -30c-4 -16 -4 -35 -4 -48c0 -64 47 -108 117 -108 c60 0 106 33 106 91z" />
<glyph horiz-adv-x="540" d="M467 500l10 -12c-118 -162 -191 -337 -203 -488h-106c30 142 96 293 184 416l-4 5l-255 -9l9 88h365z" />
<glyph horiz-adv-x="540" d="M360 260v-5c93 -42 117 -83 117 -130c0 -94 -111 -140 -206 -140c-126 0 -198 65 -198 135c0 62 52 110 117 133v2c-74 41 -97 78 -97 119c0 74 68 141 188 141c100 0 176 -58 176 -130c0 -61 -33 -96 -97 -125zM267 219l-7 3c-64 -23 -97 -58 -97 -93 c0 -45 53 -70 110 -70c52 0 109 21 109 66c0 42 -54 68 -115 94zM188 376c0 -36 37 -63 105 -93c51 25 75 54 75 94c0 38 -39 64 -87 64c-60 0 -93 -31 -93 -65z" />
<glyph horiz-adv-x="540" d="M143 49l1 5c127 22 210 86 235 157l-4 3c-29 -22 -83 -39 -125 -39c-91 0 -181 51 -181 166c0 91 81 174 201 174c144 0 204 -106 204 -216c0 -194 -148 -283 -296 -314zM160 343c0 -65 57 -93 113 -93c45 0 76 10 107 30c4 14 4 26 4 38c0 73 -48 122 -118 122 c-57 0 -106 -36 -106 -97z" />
<glyph horiz-adv-x="270" d="M107 226l-23 274h102l-24 -274h-55z" />
<glyph horiz-adv-x="420" d="M107 226l-23 274h102l-24 -274h-55zM257 226l-23 274h102l-24 -274h-55z" />
<glyph horiz-adv-x="300" d="M63 242l70 266l96 -34l-114 -250z" />
<glyph horiz-adv-x="490" d="M63 242l70 266l96 -34l-114 -250zM253 242l70 266l96 -34l-114 -250z" />
<glyph horiz-adv-x="880" d="M133 253c0 168 135 307 308 307c181 0 306 -139 306 -307c0 -169 -124 -308 -306 -308c-175 0 -308 127 -308 308zM182 251c0 -152 111 -261 260 -261c147 0 256 109 256 261c0 158 -112 266 -257 266c-141 0 -259 -112 -259 -266zM564 399l-11 -51 c-30 18 -68 32 -109 32c-57 0 -112 -40 -112 -128c0 -70 46 -121 113 -121c46 0 82 16 113 35l13 -50c-29 -21 -78 -38 -127 -38c-102 0 -171 77 -171 172c0 115 80 183 172 183c51 0 97 -19 119 -34z" />
<glyph horiz-adv-x="880" d="M133 253c0 168 135 307 308 307c181 0 306 -139 306 -307c0 -169 -124 -308 -306 -308c-175 0 -308 127 -308 308zM182 251c0 -152 111 -261 260 -261c147 0 256 109 256 261c0 158 -112 266 -257 266c-141 0 -259 -112 -259 -266zM570 323c0 -67 -55 -106 -119 -105h-46 v-138h-52v350h102c68 0 115 -38 115 -107zM516 324c0 38 -25 57 -61 57h-50v-114h47c31 0 64 15 64 57z" />
<glyph unicode="&#xd0;" horiz-adv-x="740" d="M310 0h-192v305h-64v61h64v314h191c200 0 353 -134 353 -346c0 -206 -147 -334 -352 -334zM212 82h102c157 0 250 101 250 254c0 186 -129 262 -251 262h-101v-232h170v-61h-170v-223z" />
<glyph unicode="&#x141;" horiz-adv-x="560" d="M212 680v-317l140 91l33 -48l-173 -113v-211h290v-82h-384v232l-57 -37l-33 48l90 58v379h94z" />
<glyph unicode="&#x142;" horiz-adv-x="460" d="M185 500v-184l65 44l25 -38l-90 -61v-182h222v-79h-314v199l-42 -28l-25 38l67 45v246h92z" />
<glyph unicode="&#x13d;" horiz-adv-x="560" d="M212 680v-598h290v-82h-384v680h94zM319 491v5l15 184h74v-5l-42 -184h-47z" />
<glyph unicode="&#x13e;" horiz-adv-x="460" d="M363 311v5l15 184h74v-5l-42 -184h-47zM185 500v-421h222v-79h-314v500h92z" />
<glyph unicode="&#xf6c3;" horiz-adv-x="500" d="M178 -236v5l45 164h81v-5l-72 -164h-54z" />
<glyph horiz-adv-x="500" d="M191 523c0 33 27 60 60 60s60 -27 60 -60s-27 -60 -60 -60s-60 27 -60 60z" />
<glyph horiz-adv-x="690" d="M651 560v-67h-612v67h612z" />
<glyph unicode="&#x3bb;" horiz-adv-x="460" d="M438 11l-85 -22l-119 316h-3l-112 -305h-92l162 427c-64 162 -108 209 -158 235v24h80c39 -14 90 -83 115 -136z" />
<glyph unicode="&#x2011;" horiz-adv-x="430" d="M85 282h260v-84h-260v84z" />
<glyph horiz-adv-x="430" d="M85 342h260v-84h-260v84z" />
<glyph unicode="&#x9;" horiz-adv-x="0" />
<glyph unicode="&#xa;" horiz-adv-x="0" />
<glyph unicode="&#xd;" horiz-adv-x="0" />
<glyph horiz-adv-x="0" />
<glyph horiz-adv-x="0" />
<glyph horiz-adv-x="0" />
<glyph horiz-adv-x="0" />
<glyph horiz-adv-x="0" />
<glyph horiz-adv-x="0" />
<glyph horiz-adv-x="0" />
<glyph horiz-adv-x="0" />
<glyph unicode="&#x110;" horiz-adv-x="740" d="M310 0h-192v305h-64v61h64v314h191c200 0 353 -134 353 -346c0 -206 -147 -334 -352 -334zM212 82h102c157 0 250 101 250 254c0 186 -129 262 -251 262h-101v-232h170v-61h-170v-223z" />
<glyph unicode="&#x111;" horiz-adv-x="580" d="M260 0h-167v222h-68v61h68v217h166c146 0 263 -100 263 -246c0 -164 -111 -254 -262 -254zM185 79h79c103 0 164 66 164 177c0 99 -87 165 -165 165h-78v-138h102v-61h-102v-143z" />
<glyph unicode="&#x127;" horiz-adv-x="610" d="M517 500v-73h35v-59h-35v-368h-92v215h-240v-215h-92v368h-35v59h35v73h92v-73h240v73h92zM185 294h240v74h-240v-74z" />
<glyph unicode="&#x13f;" horiz-adv-x="600" d="M212 680v-598h290v-82h-384v680h94zM438 347c0 33 27 60 60 60s60 -27 60 -60s-27 -60 -60 -60s-60 27 -60 60z" />
<glyph unicode="&#x140;" horiz-adv-x="500" d="M185 500v-421h222v-79h-314v500h92zM372 260c0 33 27 60 60 60s60 -27 60 -60s-27 -60 -60 -60s-60 27 -60 60z" />
<glyph horiz-adv-x="850" d="M222 680v-680h-94v680h94zM115 740v8l106 124h89v-10l-134 -122h-61zM410 11l25 82c16 -11 44 -25 78 -25c82 0 125 50 125 168v444h94v-459c0 -161 -88 -236 -214 -236c-41 0 -82 11 -108 26zM625 740v8l106 124h89v-10l-134 -122h-61z" />
<glyph horiz-adv-x="760" d="M201 500v-500h-92v500h92zM95 550v8l96 164h84v-10l-119 -162h-61zM345 16l25 82c16 -11 44 -25 78 -25c82 0 127 40 127 143v284h92v-299c0 -146 -88 -211 -214 -211c-41 0 -82 11 -108 26zM558 550v8l96 164h84v-10l-119 -162h-61z" />
<glyph horiz-adv-x="500" d="M216 448v8l46 164h82v-10l-69 -162h-59z" />
<glyph horiz-adv-x="500" d="M221 458v8l56 124h78v-10l-84 -122h-50z" />
<glyph horiz-adv-x="350" d="M222 680v-680h-94v680h94z" />
<glyph unicode="&#xbd;" d="M130 -24l245 370l220 353l46 -26l-237 -349l-228 -376zM236 312h-65v316l-71 -6l-3 56l130 15l9 -7v-374zM505 254l-8 58c9 7 49 30 103 30c68 0 123 -29 123 -103c0 -64 -52 -136 -140 -209l3 -8l143 5v-67h-257l-6 22c142 126 188 199 188 247c0 37 -23 53 -57 53 c-43 0 -80 -20 -92 -28z" />
<glyph unicode="&#x2153;" d="M130 -24l245 370l220 353l46 -26l-237 -349l-228 -376zM236 312h-65v316l-71 -6l-3 56l130 15l9 -7v-374zM488 -28l-1 64c32 -15 66 -24 100 -24c38 0 68 19 68 57c0 32 -23 54 -67 53l-67 -2l5 58l60 -2c35 -1 63 27 63 58c0 34 -26 50 -61 50c-30 0 -55 -8 -83 -21 l5 62c15 7 44 17 87 17c62 0 120 -32 120 -95c0 -44 -28 -80 -70 -90v-6c50 -10 76 -47 76 -86c0 -83 -75 -113 -136 -113c-39 0 -71 7 -99 20z" />
<glyph unicode="&#xbc;" d="M130 -24l245 370l220 353l46 -26l-237 -349l-228 -376zM236 312h-65v316l-71 -6l-3 56l130 15l9 -7v-374zM690 123v-58h-43v-105h-63v105h-153l-9 24l159 245h66v-212zM502 117l82 2v131h-7l-78 -127z" />
<glyph d="M130 -24l245 370l220 353l46 -26l-237 -349l-228 -376zM236 312h-65v316l-71 -6l-3 56l130 15l9 -7v-374zM494 143l-2 2l21 189h199l-6 -63l-145 6l-10 -77c11 1 21 1 31 1c104 0 147 -50 147 -110c0 -93 -87 -139 -187 -139c-22 0 -42 1 -58 6l9 58c14 -5 35 -5 52 -5 c80 0 115 38 115 78s-50 57 -122 57c-16 0 -29 -1 -44 -3z" />
<glyph d="M130 -24l245 370l220 353l46 -26l-237 -349l-228 -376zM236 312h-65v316l-71 -6l-3 56l130 15l9 -7v-374zM511 178l4 -3c16 10 37 15 57 15c56 0 121 -37 121 -121c0 -77 -66 -117 -121 -117c-98 0 -136 71 -136 152c0 154 115 233 236 238l-7 -54 c-88 -6 -144 -55 -154 -110zM627 70c0 47 -35 70 -70 70c-17 0 -35 -5 -51 -15c-11 -70 16 -120 65 -120c32 0 56 23 56 65z" />
<glyph d="M130 -24l245 370l220 353l46 -26l-237 -349l-228 -376zM236 312h-65v316l-71 -6l-3 56l130 15l9 -7v-374zM729 334l5 -7c-70 -128 -112 -244 -119 -367h-75c19 112 61 227 114 312l-2 2l-164 -5l5 65h236z" />
<glyph unicode="&#x215b;" d="M130 -24l245 370l220 353l46 -26l-237 -349l-228 -376zM236 312h-65v316l-71 -6l-3 56l130 15l9 -7v-374zM647 160v-3c58 -34 82 -68 82 -109c0 -56 -53 -96 -127 -96c-75 0 -125 43 -125 102c0 43 33 75 77 94v3c-48 32 -66 64 -66 97c0 51 47 94 119 94 c60 0 111 -33 111 -88c0 -44 -23 -74 -71 -94zM599 125c-2 1 -4 1 -5 2c-36 -18 -53 -43 -53 -68c0 -32 27 -51 63 -51c35 0 57 22 57 46c0 32 -28 54 -62 71zM556 245c0 -24 14 -44 48 -65c28 16 50 35 50 64c0 23 -18 44 -50 44c-34 0 -48 -22 -48 -43z" />
<glyph d="M130 -24l245 370l220 353l46 -26l-237 -349l-228 -376zM236 312h-65v316l-71 -6l-3 56l130 15l9 -7v-374zM547 -48l-20 52c70 22 128 58 136 117l-4 3c-15 -11 -35 -15 -53 -15c-61 0 -129 34 -129 116c0 63 48 117 121 117c98 0 136 -71 136 -152 c0 -146 -92 -209 -187 -238zM543 229c0 -48 37 -70 75 -70c15 0 33 5 47 17c12 56 -10 109 -66 109c-32 0 -56 -20 -56 -56z" />
<glyph unicode="&#x2154;" d="M130 -24l245 370l220 353l46 -26l-237 -349l-228 -376zM71 609l-8 58c9 7 49 30 103 30c68 0 123 -29 123 -103c0 -64 -52 -136 -140 -209l3 -8l143 5v-67h-257l-6 22c142 126 188 199 188 247c0 37 -23 53 -57 53c-43 0 -80 -20 -92 -28zM488 -28l-1 64 c32 -15 66 -24 100 -24c38 0 68 19 68 57c0 32 -23 54 -67 53l-67 -2l5 58l60 -2c35 -1 63 27 63 58c0 34 -26 50 -61 50c-30 0 -55 -8 -83 -21l5 62c15 7 44 17 87 17c62 0 120 -32 120 -95c0 -44 -28 -80 -70 -90v-6c50 -10 76 -47 76 -86c0 -83 -75 -113 -136 -113 c-39 0 -71 7 -99 20z" />
<glyph d="M130 -24l245 370l220 353l46 -26l-237 -349l-228 -376zM71 609l-8 58c9 7 49 30 103 30c68 0 123 -29 123 -103c0 -64 -52 -136 -140 -209l3 -8l143 5v-67h-257l-6 22c142 126 188 199 188 247c0 37 -23 53 -57 53c-43 0 -80 -20 -92 -28zM494 143l-2 2l21 189h199 l-6 -63l-145 6l-10 -77c11 1 21 1 31 1c104 0 147 -50 147 -110c0 -93 -87 -139 -187 -139c-22 0 -42 1 -58 6l9 58c14 -5 35 -5 52 -5c80 0 115 38 115 78s-50 57 -122 57c-16 0 -29 -1 -44 -3z" />
<glyph d="M130 -24l245 370l220 353l46 -26l-237 -349l-228 -376zM71 609l-8 58c9 7 49 30 103 30c68 0 123 -29 123 -103c0 -64 -52 -136 -140 -209l3 -8l143 5v-67h-257l-6 22c142 126 188 199 188 247c0 37 -23 53 -57 53c-43 0 -80 -20 -92 -28zM729 334l5 -7 c-70 -128 -112 -244 -119 -367h-75c19 112 61 227 114 312l-2 2l-164 -5l5 65h236z" />
<glyph d="M130 -24l245 370l220 353l46 -26l-237 -349l-228 -376zM71 609l-8 58c9 7 49 30 103 30c68 0 123 -29 123 -103c0 -64 -52 -136 -140 -209l3 -8l143 5v-67h-257l-6 22c142 126 188 199 188 247c0 37 -23 53 -57 53c-43 0 -80 -20 -92 -28zM547 -48l-20 52 c70 22 128 58 136 117l-4 3c-15 -11 -35 -15 -53 -15c-61 0 -129 34 -129 116c0 63 48 117 121 117c98 0 136 -71 136 -152c0 -146 -92 -209 -187 -238zM543 229c0 -48 37 -70 75 -70c15 0 33 5 47 17c12 56 -10 109 -66 109c-32 0 -56 -20 -56 -56z" />
<glyph unicode="&#xbe;" d="M130 -24l245 370l220 353l46 -26l-237 -349l-228 -376zM72 327l-1 64c32 -15 66 -24 100 -24c38 0 68 19 68 57c0 32 -23 54 -67 53l-67 -2l5 58l60 -2c35 -1 63 27 63 58c0 34 -26 50 -61 50c-30 0 -55 -8 -83 -21l5 62c15 7 44 17 87 17c62 0 120 -32 120 -95 c0 -44 -28 -80 -70 -90v-6c50 -10 76 -47 76 -86c0 -83 -75 -113 -136 -113c-39 0 -71 7 -99 20zM690 123v-58h-43v-105h-63v105h-153l-9 24l159 245h66v-212zM502 117l82 2v131h-7l-78 -127z" />
<glyph d="M130 -24l245 370l220 353l46 -26l-237 -349l-228 -376zM72 327l-1 64c32 -15 66 -24 100 -24c38 0 68 19 68 57c0 32 -23 54 -67 53l-67 -2l5 58l60 -2c35 -1 63 27 63 58c0 34 -26 50 -61 50c-30 0 -55 -8 -83 -21l5 62c15 7 44 17 87 17c62 0 120 -32 120 -95 c0 -44 -28 -80 -70 -90v-6c50 -10 76 -47 76 -86c0 -83 -75 -113 -136 -113c-39 0 -71 7 -99 20zM494 143l-2 2l21 189h199l-6 -63l-145 6l-10 -77c11 1 21 1 31 1c104 0 147 -50 147 -110c0 -93 -87 -139 -187 -139c-22 0 -42 1 -58 6l9 58c14 -5 35 -5 52 -5 c80 0 115 38 115 78s-50 57 -122 57c-16 0 -29 -1 -44 -3z" />
<glyph d="M130 -24l245 370l220 353l46 -26l-237 -349l-228 -376zM72 327l-1 64c32 -15 66 -24 100 -24c38 0 68 19 68 57c0 32 -23 54 -67 53l-67 -2l5 58l60 -2c35 -1 63 27 63 58c0 34 -26 50 -61 50c-30 0 -55 -8 -83 -21l5 62c15 7 44 17 87 17c62 0 120 -32 120 -95 c0 -44 -28 -80 -70 -90v-6c50 -10 76 -47 76 -86c0 -83 -75 -113 -136 -113c-39 0 -71 7 -99 20zM729 334l5 -7c-70 -128 -112 -244 -119 -367h-75c19 112 61 227 114 312l-2 2l-164 -5l5 65h236z" />
<glyph unicode="&#x215c;" d="M130 -24l245 370l220 353l46 -26l-237 -349l-228 -376zM72 327l-1 64c32 -15 66 -24 100 -24c38 0 68 19 68 57c0 32 -23 54 -67 53l-67 -2l5 58l60 -2c35 -1 63 27 63 58c0 34 -26 50 -61 50c-30 0 -55 -8 -83 -21l5 62c15 7 44 17 87 17c62 0 120 -32 120 -95 c0 -44 -28 -80 -70 -90v-6c50 -10 76 -47 76 -86c0 -83 -75 -113 -136 -113c-39 0 -71 7 -99 20zM647 160v-3c58 -34 82 -68 82 -109c0 -56 -53 -96 -127 -96c-75 0 -125 43 -125 102c0 43 33 75 77 94v3c-48 32 -66 64 -66 97c0 51 47 94 119 94c60 0 111 -33 111 -88 c0 -44 -23 -74 -71 -94zM599 125c-2 1 -4 1 -5 2c-36 -18 -53 -43 -53 -68c0 -32 27 -51 63 -51c35 0 57 22 57 46c0 32 -28 54 -62 71zM556 245c0 -24 14 -44 48 -65c28 16 50 35 50 64c0 23 -18 44 -50 44c-34 0 -48 -22 -48 -43z" />
<glyph d="M130 -24l245 370l220 353l46 -26l-237 -349l-228 -376zM323 478v-58h-43v-105h-63v105h-153l-9 24l159 245h66v-212zM135 472l82 2v131h-7l-78 -127zM494 143l-2 2l21 189h199l-6 -63l-145 6l-10 -77c11 1 21 1 31 1c104 0 147 -50 147 -110c0 -93 -87 -139 -187 -139 c-22 0 -42 1 -58 6l9 58c14 -5 35 -5 52 -5c80 0 115 38 115 78s-50 57 -122 57c-16 0 -29 -1 -44 -3z" />
<glyph d="M130 -24l245 370l220 353l46 -26l-237 -349l-228 -376zM323 478v-58h-43v-105h-63v105h-153l-9 24l159 245h66v-212zM135 472l82 2v131h-7l-78 -127zM729 334l5 -7c-70 -128 -112 -244 -119 -367h-75c19 112 61 227 114 312l-2 2l-164 -5l5 65h236z" />
<glyph d="M130 -24l245 370l220 353l46 -26l-237 -349l-228 -376zM323 478v-58h-43v-105h-63v105h-153l-9 24l159 245h66v-212zM135 472l82 2v131h-7l-78 -127zM547 -48l-20 52c70 22 128 58 136 117l-4 3c-15 -11 -35 -15 -53 -15c-61 0 -129 34 -129 116c0 63 48 117 121 117 c98 0 136 -71 136 -152c0 -146 -92 -209 -187 -238zM543 229c0 -48 37 -70 75 -70c15 0 33 5 47 17c12 56 -10 109 -66 109c-32 0 -56 -20 -56 -56z" />
<glyph d="M130 -24l245 370l220 353l46 -26l-237 -349l-228 -376zM78 498l-2 2l21 189h199l-6 -63l-145 6l-10 -77c11 1 21 1 31 1c104 0 147 -50 147 -110c0 -93 -87 -139 -187 -139c-22 0 -42 1 -58 6l9 58c14 -5 35 -5 52 -5c80 0 115 38 115 78s-50 57 -122 57 c-16 0 -29 -1 -44 -3zM511 178l4 -3c16 10 37 15 57 15c56 0 121 -37 121 -121c0 -77 -66 -117 -121 -117c-98 0 -136 71 -136 152c0 154 115 233 236 238l-7 -54c-88 -6 -144 -55 -154 -110zM627 70c0 47 -35 70 -70 70c-17 0 -35 -5 -51 -15c-11 -70 16 -120 65 -120 c32 0 56 23 56 65z" />
<glyph d="M130 -24l245 370l220 353l46 -26l-237 -349l-228 -376zM78 498l-2 2l21 189h199l-6 -63l-145 6l-10 -77c11 1 21 1 31 1c104 0 147 -50 147 -110c0 -93 -87 -139 -187 -139c-22 0 -42 1 -58 6l9 58c14 -5 35 -5 52 -5c80 0 115 38 115 78s-50 57 -122 57 c-16 0 -29 -1 -44 -3zM729 334l5 -7c-70 -128 -112 -244 -119 -367h-75c19 112 61 227 114 312l-2 2l-164 -5l5 65h236z" />
<glyph unicode="&#x215d;" d="M130 -24l245 370l220 353l46 -26l-237 -349l-228 -376zM78 498l-2 2l21 189h199l-6 -63l-145 6l-10 -77c11 1 21 1 31 1c104 0 147 -50 147 -110c0 -93 -87 -139 -187 -139c-22 0 -42 1 -58 6l9 58c14 -5 35 -5 52 -5c80 0 115 38 115 78s-50 57 -122 57 c-16 0 -29 -1 -44 -3zM647 160v-3c58 -34 82 -68 82 -109c0 -56 -53 -96 -127 -96c-75 0 -125 43 -125 102c0 43 33 75 77 94v3c-48 32 -66 64 -66 97c0 51 47 94 119 94c60 0 111 -33 111 -88c0 -44 -23 -74 -71 -94zM599 125c-2 1 -4 1 -5 2c-36 -18 -53 -43 -53 -68 c0 -32 27 -51 63 -51c35 0 57 22 57 46c0 32 -28 54 -62 71zM556 245c0 -24 14 -44 48 -65c28 16 50 35 50 64c0 23 -18 44 -50 44c-34 0 -48 -22 -48 -43z" />
<glyph d="M130 -24l245 370l220 353l46 -26l-237 -349l-228 -376zM78 498l-2 2l21 189h199l-6 -63l-145 6l-10 -77c11 1 21 1 31 1c104 0 147 -50 147 -110c0 -93 -87 -139 -187 -139c-22 0 -42 1 -58 6l9 58c14 -5 35 -5 52 -5c80 0 115 38 115 78s-50 57 -122 57 c-16 0 -29 -1 -44 -3zM547 -48l-20 52c70 22 128 58 136 117l-4 3c-15 -11 -35 -15 -53 -15c-61 0 -129 34 -129 116c0 63 48 117 121 117c98 0 136 -71 136 -152c0 -146 -92 -209 -187 -238zM543 229c0 -48 37 -70 75 -70c15 0 33 5 47 17c12 56 -10 109 -66 109 c-32 0 -56 -20 -56 -56z" />
<glyph d="M130 -24l245 370l220 353l46 -26l-237 -349l-228 -376zM136 533l4 -3c16 10 37 15 57 15c56 0 121 -37 121 -121c0 -77 -66 -117 -121 -117c-98 0 -136 71 -136 152c0 154 115 233 236 238l-7 -54c-88 -6 -144 -55 -154 -110zM252 425c0 47 -35 70 -70 70 c-17 0 -35 -5 -51 -15c-11 -70 16 -120 65 -120c32 0 56 23 56 65zM729 334l5 -7c-70 -128 -112 -244 -119 -367h-75c19 112 61 227 114 312l-2 2l-164 -5l5 65h236z" />
<glyph unicode="&#x215e;" d="M130 -24l245 370l220 353l46 -26l-237 -349l-228 -376zM313 689l5 -7c-70 -128 -112 -244 -119 -367h-75c19 112 61 227 114 312l-2 2l-164 -5l5 65h236zM647 160v-3c58 -34 82 -68 82 -109c0 -56 -53 -96 -127 -96c-75 0 -125 43 -125 102c0 43 33 75 77 94v3 c-48 32 -66 64 -66 97c0 51 47 94 119 94c60 0 111 -33 111 -88c0 -44 -23 -74 -71 -94zM599 125c-2 1 -4 1 -5 2c-36 -18 -53 -43 -53 -68c0 -32 27 -51 63 -51c35 0 57 22 57 46c0 32 -28 54 -62 71zM556 245c0 -24 14 -44 48 -65c28 16 50 35 50 64c0 23 -18 44 -50 44 c-34 0 -48 -22 -48 -43z" />
<glyph d="M130 -24l245 370l220 353l46 -26l-237 -349l-228 -376zM313 689l5 -7c-70 -128 -112 -244 -119 -367h-75c19 112 61 227 114 312l-2 2l-164 -5l5 65h236zM547 -48l-20 52c70 22 128 58 136 117l-4 3c-15 -11 -35 -15 -53 -15c-61 0 -129 34 -129 116c0 63 48 117 121 117 c98 0 136 -71 136 -152c0 -146 -92 -209 -187 -238zM543 229c0 -48 37 -70 75 -70c15 0 33 5 47 17c12 56 -10 109 -66 109c-32 0 -56 -20 -56 -56z" />
<glyph d="M130 -24l245 370l220 353l46 -26l-237 -349l-228 -376zM231 515v-3c58 -34 82 -68 82 -109c0 -56 -53 -96 -127 -96c-75 0 -125 43 -125 102c0 43 33 75 77 94v3c-48 32 -66 64 -66 97c0 51 47 94 119 94c60 0 111 -33 111 -88c0 -44 -23 -74 -71 -94zM183 480 c-2 1 -4 1 -5 2c-36 -18 -53 -43 -53 -68c0 -32 27 -51 63 -51c35 0 57 22 57 46c0 32 -28 54 -62 71zM140 600c0 -24 14 -44 48 -65c28 16 50 35 50 64c0 23 -18 44 -50 44c-34 0 -48 -22 -48 -43zM547 -48l-20 52c70 22 128 58 136 117l-4 3c-15 -11 -35 -15 -53 -15 c-61 0 -129 34 -129 116c0 63 48 117 121 117c98 0 136 -71 136 -152c0 -146 -92 -209 -187 -238zM543 229c0 -48 37 -70 75 -70c15 0 33 5 47 17c12 56 -10 109 -66 109c-32 0 -56 -20 -56 -56z" />
<glyph unicode="&#xc1;" horiz-adv-x="730" d="M582 0l-75 177h-286l-73 -177h-100l306 700h20l308 -700h-100zM360 510l-105 -251h218l-106 251h-7zM305 740v8l106 124h89v-10l-134 -122h-61z" />
<glyph unicode="&#xc0;" horiz-adv-x="730" d="M582 0l-75 177h-286l-73 -177h-100l306 700h20l308 -700h-100zM360 510l-105 -251h218l-106 251h-7zM425 748v-8h-61l-134 122v10h89z" />
<glyph unicode="&#xc2;" horiz-adv-x="730" d="M582 0l-75 177h-286l-73 -177h-100l306 700h20l308 -700h-100zM360 510l-105 -251h218l-106 251h-7zM500 748v-8h-56l-79 64l-79 -64h-56v8l121 124h28z" />
<glyph unicode="&#xc4;" horiz-adv-x="730" d="M582 0l-75 177h-286l-73 -177h-100l306 700h20l308 -700h-100zM360 510l-105 -251h218l-106 251h-7zM238 789c0 27 22 49 49 49s49 -22 49 -49s-22 -49 -49 -49s-49 22 -49 49zM394 789c0 27 22 49 49 49s49 -22 49 -49s-22 -49 -49 -49s-49 22 -49 49z" />
<glyph unicode="&#xc3;" horiz-adv-x="730" d="M582 0l-75 177h-286l-73 -177h-100l306 700h20l308 -700h-100zM360 510l-105 -251h218l-106 251h-7zM451 865h52c0 -62 -33 -120 -83 -120c-53 0 -72 63 -104 63c-25 0 -40 -27 -40 -61h-50c0 77 39 120 84 120c52 0 74 -64 106 -64c23 0 35 30 35 62z" />
<glyph unicode="&#xc5;" horiz-adv-x="730" d="M582 0l-75 177h-286l-73 -177h-100l306 700h20l308 -700h-100zM360 510l-105 -251h218l-106 251h-7zM271 809c0 52 42 94 94 94s94 -42 94 -94s-42 -94 -94 -94s-94 42 -94 94zM317 808c0 -29 18 -51 47 -51s48 22 48 51s-19 53 -48 53s-47 -24 -47 -53z" />
<glyph unicode="&#x102;" horiz-adv-x="730" d="M582 0l-75 177h-286l-73 -177h-100l306 700h20l308 -700h-100zM360 510l-105 -251h218l-106 251h-7zM366 738c-67 0 -134 45 -134 132h53c0 -41 34 -77 82 -77c42 0 82 32 82 77h53c0 -84 -66 -132 -136 -132z" />
<glyph unicode="&#x100;" horiz-adv-x="730" d="M582 0l-75 177h-286l-73 -177h-100l306 700h20l308 -700h-100zM360 510l-105 -251h218l-106 251h-7zM487 760h-244v64h244v-64z" />
<glyph unicode="&#x104;" horiz-adv-x="730" d="M682 0h-47c-37 -32 -57 -68 -57 -102c0 -24 18 -36 35 -36c13 0 22 2 31 5v-60c-13 -5 -28 -6 -45 -6c-41 0 -91 22 -91 78c0 44 32 90 73 123l-74 175h-286l-73 -177h-100l306 700h20zM360 510l-105 -251h218l-106 251h-7z" />
<glyph unicode="&#xc7;" horiz-adv-x="720" d="M363 -224l-8 39c56 6 93 26 93 53c0 23 -31 32 -77 32c-8 0 -23 -1 -30 -2l-5 7l41 83c-179 20 -299 165 -299 341c0 231 161 366 345 366c93 0 177 -38 218 -68l-22 -83c-31 21 -105 67 -198 66c-127 -1 -245 -89 -245 -277c0 -153 100 -263 247 -263 c85 0 148 34 207 71l25 -80c-54 -41 -139 -74 -226 -76l-23 -45c57 0 100 -21 100 -64c0 -52 -63 -88 -143 -100z" />
<glyph unicode="&#x106;" horiz-adv-x="720" d="M641 627l-22 -83c-31 21 -105 67 -198 66c-127 -1 -245 -89 -245 -277c0 -153 100 -263 247 -263c85 0 148 34 207 71l25 -80c-55 -42 -144 -76 -234 -76c-203 0 -343 154 -343 344c0 231 161 366 345 366c93 0 177 -38 218 -68zM354 740v8l106 124h89v-10l-134 -122h-61 z" />
<glyph horiz-adv-x="720" d="M641 627l-22 -83c-31 21 -105 67 -198 66c-127 -1 -245 -89 -245 -277c0 -153 100 -263 247 -263c85 0 148 34 207 71l25 -80c-55 -42 -144 -76 -234 -76c-203 0 -343 154 -343 344c0 231 161 366 345 366c93 0 177 -38 218 -68zM385 740v8l56 124h78v-10l-84 -122h-50z " />
<glyph unicode="&#x10c;" horiz-adv-x="720" d="M641 627l-22 -83c-31 21 -105 67 -198 66c-127 -1 -245 -89 -245 -277c0 -153 100 -263 247 -263c85 0 148 34 207 71l25 -80c-55 -42 -144 -76 -234 -76c-203 0 -343 154 -343 344c0 231 161 366 345 366c93 0 177 -38 218 -68zM549 872v-8l-121 -124h-28l-121 124v8h56 l79 -64l79 64h56z" />
<glyph unicode="&#x10a;" horiz-adv-x="720" d="M641 627l-22 -83c-31 21 -105 67 -198 66c-127 -1 -245 -89 -245 -277c0 -153 100 -263 247 -263c85 0 148 34 207 71l25 -80c-55 -42 -144 -76 -234 -76c-203 0 -343 154 -343 344c0 231 161 366 345 366c93 0 177 -38 218 -68zM355 805c0 33 27 60 60 60s60 -27 60 -60 s-27 -60 -60 -60s-60 27 -60 60z" />
<glyph unicode="&#x10e;" horiz-adv-x="740" d="M212 82h102c157 0 250 101 250 254c0 186 -129 262 -251 262h-101v-516zM310 0h-192v680h191c200 0 353 -134 353 -346c0 -206 -147 -334 -352 -334zM469 872v-8l-121 -124h-28l-121 124v8h56l79 -64l79 64h56z" />
<glyph unicode="&#xc9;" horiz-adv-x="600" d="M503 680v-82h-291v-203h261v-82h-261v-231h301v-82h-395v680h385zM255 740v8l106 124h89v-10l-134 -122h-61z" />
<glyph unicode="&#xc8;" horiz-adv-x="600" d="M503 680v-82h-291v-203h261v-82h-261v-231h301v-82h-395v680h385zM375 748v-8h-61l-134 122v10h89z" />
<glyph unicode="&#xca;" horiz-adv-x="600" d="M503 680v-82h-291v-203h261v-82h-261v-231h301v-82h-395v680h385zM450 748v-8h-56l-79 64l-79 -64h-56v8l121 124h28z" />
<glyph unicode="&#xcb;" horiz-adv-x="600" d="M503 680v-82h-291v-203h261v-82h-261v-231h301v-82h-395v680h385zM188 789c0 27 22 49 49 49s49 -22 49 -49s-22 -49 -49 -49s-49 22 -49 49zM344 789c0 27 22 49 49 49s49 -22 49 -49s-22 -49 -49 -49s-49 22 -49 49z" />
<glyph unicode="&#x112;" horiz-adv-x="600" d="M503 680v-82h-291v-203h261v-82h-261v-231h301v-82h-395v680h385zM437 760h-244v64h244v-64z" />
<glyph unicode="&#x11a;" horiz-adv-x="600" d="M503 680v-82h-291v-203h261v-82h-261v-231h301v-82h-395v680h385zM450 872v-8l-121 -124h-28l-121 124v8h56l79 -64l79 64h56z" />
<glyph unicode="&#x116;" horiz-adv-x="600" d="M503 680v-82h-291v-203h261v-82h-261v-231h301v-82h-395v680h385zM256 805c0 33 27 60 60 60s60 -27 60 -60s-27 -60 -60 -60s-60 27 -60 60z" />
<glyph unicode="&#x118;" horiz-adv-x="600" d="M503 680v-82h-291v-203h261v-82h-261v-231h301v-82h-24c-37 -32 -57 -68 -57 -102c0 -24 18 -36 35 -36c13 0 22 2 31 5v-60c-13 -5 -28 -6 -45 -6c-41 0 -91 22 -91 78c0 43 31 88 71 121h-315v680h385z" />
<glyph horiz-adv-x="640" d="M556 647l-22 -83c-20 14 -72 47 -143 46c-97 -1 -191 -70 -211 -215h303l-10 -82h-297c8 -143 96 -243 222 -243c57 0 95 16 137 41l25 -80c-41 -30 -102 -46 -164 -46c-188 0 -318 154 -318 344c0 231 149 366 315 366c71 0 133 -26 163 -48zM321 740v8l106 124h89v-10 l-134 -122h-61z" />
<glyph horiz-adv-x="640" d="M556 647l-22 -83c-20 14 -72 47 -143 46c-97 -1 -191 -70 -211 -215h303l-10 -82h-297c8 -143 96 -243 222 -243c57 0 95 16 137 41l25 -80c-41 -30 -102 -46 -164 -46c-188 0 -318 154 -318 344c0 231 149 366 315 366c71 0 133 -26 163 -48zM441 748v-8h-61l-134 122 v10h89z" />
<glyph horiz-adv-x="640" d="M556 647l-22 -83c-20 14 -72 47 -143 46c-97 -1 -191 -70 -211 -215h303l-10 -82h-297c8 -143 96 -243 222 -243c57 0 95 16 137 41l25 -80c-41 -30 -102 -46 -164 -46c-188 0 -318 154 -318 344c0 231 149 366 315 366c71 0 133 -26 163 -48zM516 748v-8h-56l-79 64 l-79 -64h-56v8l121 124h28z" />
<glyph horiz-adv-x="640" d="M556 647l-22 -83c-20 14 -72 47 -143 46c-97 -1 -191 -70 -211 -215h303l-10 -82h-297c8 -143 96 -243 222 -243c57 0 95 16 137 41l25 -80c-41 -30 -102 -46 -164 -46c-188 0 -318 154 -318 344c0 231 149 366 315 366c71 0 133 -26 163 -48zM254 789c0 27 22 49 49 49 s49 -22 49 -49s-22 -49 -49 -49s-49 22 -49 49zM410 789c0 27 22 49 49 49s49 -22 49 -49s-22 -49 -49 -49s-49 22 -49 49z" />
<glyph horiz-adv-x="640" d="M556 647l-22 -83c-20 14 -72 47 -143 46c-97 -1 -191 -70 -211 -215h303l-10 -82h-297c8 -143 96 -243 222 -243c57 0 95 16 137 41l25 -80c-41 -30 -102 -46 -164 -46c-188 0 -318 154 -318 344c0 231 149 366 315 366c71 0 133 -26 163 -48zM503 760h-244v64h244v-64z " />
<glyph horiz-adv-x="640" d="M556 647l-22 -83c-20 14 -72 47 -143 46c-97 -1 -191 -70 -211 -215h303l-10 -82h-297c8 -143 96 -243 222 -243c57 0 95 16 137 41l25 -80c-41 -30 -102 -46 -164 -46c-188 0 -318 154 -318 344c0 231 149 366 315 366c71 0 133 -26 163 -48zM516 872v-8l-121 -124h-28 l-121 124v8h56l79 -64l79 64h56z" />
<glyph horiz-adv-x="640" d="M556 647l-22 -83c-20 14 -72 47 -143 46c-97 -1 -191 -70 -211 -215h303l-10 -82h-297c8 -143 96 -243 222 -243c57 0 95 16 137 41l25 -80c-41 -30 -102 -46 -164 -46c-188 0 -318 154 -318 344c0 231 149 366 315 366c71 0 133 -26 163 -48zM322 805c0 33 27 60 60 60 s60 -27 60 -60s-27 -60 -60 -60s-60 27 -60 60z" />
<glyph horiz-adv-x="640" d="M556 647l-22 -83c-20 14 -72 47 -143 46c-97 -1 -191 -70 -211 -215h303l-10 -82h-297c8 -143 96 -243 222 -243c57 0 95 16 137 41l25 -80c-9 -7 -19 -13 -30 -18c-47 -35 -73 -76 -73 -115c0 -24 18 -36 35 -36c13 0 22 2 31 5v-60c-13 -5 -28 -6 -45 -6 c-41 0 -91 22 -91 78c0 38 24 78 57 110c-16 -2 -32 -4 -48 -4c-188 0 -318 154 -318 344c0 231 149 366 315 366c71 0 133 -26 163 -48z" />
<glyph unicode="&#x11e;" horiz-adv-x="770" d="M421 610c-128 0 -245 -89 -245 -277c0 -158 104 -263 251 -263c67 0 121 16 149 49v162h-182v82h278v-281c-64 -60 -142 -97 -250 -97c-212 0 -344 165 -344 344c0 207 136 366 345 366c93 0 179 -40 220 -70l-24 -83c-32 27 -103 68 -198 68zM418 738 c-67 0 -134 45 -134 132h53c0 -41 34 -77 82 -77c42 0 82 32 82 77h53c0 -84 -66 -132 -136 -132z" />
<glyph unicode="&#x120;" horiz-adv-x="770" d="M421 610c-128 0 -245 -89 -245 -277c0 -158 104 -263 251 -263c67 0 121 16 149 49v162h-182v82h278v-281c-64 -60 -142 -97 -250 -97c-212 0 -344 165 -344 344c0 207 136 366 345 366c93 0 179 -40 220 -70l-24 -83c-32 27 -103 68 -198 68zM358 805c0 33 27 60 60 60 s60 -27 60 -60s-27 -60 -60 -60s-60 27 -60 60z" />
<glyph unicode="&#x122;" horiz-adv-x="770" d="M421 610c-128 0 -245 -89 -245 -277c0 -158 104 -263 251 -263c67 0 121 16 149 49v162h-182v82h278v-281c-64 -60 -142 -97 -250 -97c-212 0 -344 165 -344 344c0 207 136 366 345 366c93 0 179 -40 220 -70l-24 -83c-32 27 -103 68 -198 68zM349 -236v5l45 164h81v-5 l-72 -164h-54z" />
<glyph d="M415 610c-122 0 -239 -89 -239 -277c0 -151 103 -263 231 -263c130 0 200 84 205 216h-203v82h301c14 -229 -102 -383 -306 -383c-202 0 -326 170 -326 344c0 207 136 366 340 366c100 0 196 -41 257 -133l-70 -48c-50 66 -118 96 -190 96zM417 738 c-67 0 -134 45 -134 132h53c0 -41 34 -77 82 -77c42 0 82 32 82 77h53c0 -84 -66 -132 -136 -132z" />
<glyph d="M415 610c-122 0 -239 -89 -239 -277c0 -151 103 -263 231 -263c130 0 200 84 205 216h-203v82h301c14 -229 -102 -383 -306 -383c-202 0 -326 170 -326 344c0 207 136 366 340 366c100 0 196 -41 257 -133l-70 -48c-50 66 -118 96 -190 96zM357 805c0 33 27 60 60 60 s60 -27 60 -60s-27 -60 -60 -60s-60 27 -60 60z" />
<glyph d="M415 610c-122 0 -239 -89 -239 -277c0 -151 103 -263 231 -263c130 0 200 84 205 216h-203v82h301c14 -229 -102 -383 -306 -383c-202 0 -326 170 -326 344c0 207 136 366 340 366c100 0 196 -41 257 -133l-70 -48c-50 66 -118 96 -190 96zM335 -236v5l45 164h81v-5 l-72 -164h-54z" />
<glyph unicode="&#x126;" horiz-adv-x="770" d="M691 560v-67h-39v-493h-94v313h-346v-313h-94v493h-39v67h39v120h94v-120h346v120h94v-120h39zM212 395h346v98h-346v-98z" />
<glyph unicode="&#xcd;" horiz-adv-x="350" d="M222 680v-680h-94v680h94zM115 740v8l106 124h89v-10l-134 -122h-61z" />
<glyph unicode="&#xcc;" horiz-adv-x="350" d="M222 680v-680h-94v680h94zM235 748v-8h-61l-134 122v10h89z" />
<glyph unicode="&#xce;" horiz-adv-x="350" d="M222 680v-680h-94v680h94zM310 748v-8h-56l-79 64l-79 -64h-56v8l121 124h28z" />
<glyph unicode="&#xcf;" horiz-adv-x="350" d="M222 680v-680h-94v680h94zM48 789c0 27 22 49 49 49s49 -22 49 -49s-22 -49 -49 -49s-49 22 -49 49zM204 789c0 27 22 49 49 49s49 -22 49 -49s-22 -49 -49 -49s-49 22 -49 49z" />
<glyph unicode="&#x12a;" horiz-adv-x="350" d="M222 680v-680h-94v680h94zM297 760h-244v64h244v-64z" />
<glyph unicode="&#x130;" horiz-adv-x="350" d="M222 680v-680h-94v680h94zM116 805c0 33 27 60 60 60s60 -27 60 -60s-27 -60 -60 -60s-60 27 -60 60z" />
<glyph unicode="&#x12e;" horiz-adv-x="350" d="M222 680v-680h-35c-37 -32 -57 -68 -57 -102c0 -24 18 -36 35 -36c13 0 22 2 31 5v-60c-13 -5 -28 -6 -45 -6c-41 0 -91 22 -91 78c0 43 31 88 71 121h-3v680h94z" />
<glyph unicode="&#x136;" horiz-adv-x="670" d="M240 306l-28 -28v-278h-94v680h94v-310h10l270 310h104v-10l-276 -318l312 -342v-10h-113zM281 -236v5l45 164h81v-5l-72 -164h-54z" />
<glyph unicode="&#x139;" horiz-adv-x="560" d="M212 680v-598h290v-82h-384v680h94zM108 740v8l106 124h89v-10l-134 -122h-61z" />
<glyph unicode="&#x13b;" horiz-adv-x="560" d="M212 680v-598h290v-82h-384v680h94zM249 -236v5l45 164h81v-5l-72 -164h-54z" />
<glyph unicode="&#xd1;" horiz-adv-x="830" d="M148 690l462 -497h8v487h94v-690h-30l-462 496h-8v-486h-94v690h30zM501 845h52c0 -62 -33 -120 -83 -120c-53 0 -72 63 -104 63c-25 0 -40 -27 -40 -61h-50c0 77 39 120 84 120c52 0 74 -64 106 -64c23 0 35 30 35 62z" />
<glyph unicode="&#x143;" horiz-adv-x="830" d="M148 690l462 -497h8v487h94v-690h-30l-462 496h-8v-486h-94v690h30zM355 720v8l106 124h89v-10l-134 -122h-61z" />
<glyph horiz-adv-x="830" d="M148 690l462 -497h8v487h94v-690h-30l-462 496h-8v-486h-94v690h30zM386 720v8l56 124h78v-10l-84 -122h-50z" />
<glyph unicode="&#x147;" horiz-adv-x="830" d="M148 690l462 -497h8v487h94v-690h-30l-462 496h-8v-486h-94v690h30zM550 852v-8l-121 -124h-28l-121 124v8h56l79 -64l79 64h56z" />
<glyph unicode="&#x145;" horiz-adv-x="830" d="M148 690l462 -497h8v487h94v-690h-30l-462 496h-8v-486h-94v690h30zM352 -236v5l45 164h81v-5l-72 -164h-54z" />
<glyph unicode="&#xd3;" horiz-adv-x="830" d="M752 335c0 -190 -140 -350 -336 -350c-188 0 -338 150 -338 350c0 218 163 360 338 360c180 0 336 -139 336 -360zM654 337c0 161 -105 273 -243 273c-121 0 -235 -102 -235 -273c0 -137 90 -267 242 -267c142 0 236 126 236 267zM355 740v8l106 124h89v-10l-134 -122 h-61z" />
<glyph horiz-adv-x="830" d="M752 335c0 -190 -140 -350 -336 -350c-188 0 -338 150 -338 350c0 218 163 360 338 360c180 0 336 -139 336 -360zM654 337c0 161 -105 273 -243 273c-121 0 -235 -102 -235 -273c0 -137 90 -267 242 -267c142 0 236 126 236 267zM386 740v8l56 124h78v-10l-84 -122h-50z " />
<glyph unicode="&#xd2;" horiz-adv-x="830" d="M752 335c0 -190 -140 -350 -336 -350c-188 0 -338 150 -338 350c0 218 163 360 338 360c180 0 336 -139 336 -360zM654 337c0 161 -105 273 -243 273c-121 0 -235 -102 -235 -273c0 -137 90 -267 242 -267c142 0 236 126 236 267zM475 748v-8h-61l-134 122v10h89z" />
<glyph unicode="&#xd4;" horiz-adv-x="830" d="M752 335c0 -190 -140 -350 -336 -350c-188 0 -338 150 -338 350c0 218 163 360 338 360c180 0 336 -139 336 -360zM654 337c0 161 -105 273 -243 273c-121 0 -235 -102 -235 -273c0 -137 90 -267 242 -267c142 0 236 126 236 267zM550 748v-8h-56l-79 64l-79 -64h-56v8 l121 124h28z" />
<glyph unicode="&#xd6;" horiz-adv-x="830" d="M752 335c0 -190 -140 -350 -336 -350c-188 0 -338 150 -338 350c0 218 163 360 338 360c180 0 336 -139 336 -360zM654 337c0 161 -105 273 -243 273c-121 0 -235 -102 -235 -273c0 -137 90 -267 242 -267c142 0 236 126 236 267zM288 789c0 27 22 49 49 49 s49 -22 49 -49s-22 -49 -49 -49s-49 22 -49 49zM444 789c0 27 22 49 49 49s49 -22 49 -49s-22 -49 -49 -49s-49 22 -49 49z" />
<glyph unicode="&#xd5;" horiz-adv-x="830" d="M752 335c0 -190 -140 -350 -336 -350c-188 0 -338 150 -338 350c0 218 163 360 338 360c180 0 336 -139 336 -360zM654 337c0 161 -105 273 -243 273c-121 0 -235 -102 -235 -273c0 -137 90 -267 242 -267c142 0 236 126 236 267zM501 865h52c0 -62 -33 -120 -83 -120 c-53 0 -72 63 -104 63c-25 0 -40 -27 -40 -61h-50c0 77 39 120 84 120c52 0 74 -64 106 -64c23 0 35 30 35 62z" />
<glyph unicode="&#x14c;" horiz-adv-x="830" d="M752 335c0 -190 -140 -350 -336 -350c-188 0 -338 150 -338 350c0 218 163 360 338 360c180 0 336 -139 336 -360zM654 337c0 161 -105 273 -243 273c-121 0 -235 -102 -235 -273c0 -137 90 -267 242 -267c142 0 236 126 236 267zM537 760h-244v64h244v-64z" />
<glyph unicode="&#x150;" horiz-adv-x="830" d="M752 335c0 -190 -140 -350 -336 -350c-188 0 -338 150 -338 350c0 218 163 360 338 360c180 0 336 -139 336 -360zM654 337c0 161 -105 273 -243 273c-121 0 -235 -102 -235 -273c0 -137 90 -267 242 -267c142 0 236 126 236 267zM286 740v8l106 124h89v-10l-134 -122 h-61zM423 740v8l106 124h89v-10l-134 -122h-61z" />
<glyph unicode="&#x154;" horiz-adv-x="650" d="M532 482c0 -94 -57 -173 -163 -191l213 -278v-13h-106l-210 282h-54v-282h-94v680h188c144 0 226 -71 226 -198zM436 483c0 81 -54 118 -134 118h-90v-241h100c73 0 124 35 124 123zM234 740v8l106 124h89v-10l-134 -122h-61z" />
<glyph unicode="&#x158;" horiz-adv-x="650" d="M532 482c0 -94 -57 -173 -163 -191l213 -278v-13h-106l-210 282h-54v-282h-94v680h188c144 0 226 -71 226 -198zM436 483c0 81 -54 118 -134 118h-90v-241h100c73 0 124 35 124 123zM429 872v-8l-121 -124h-28l-121 124v8h56l79 -64l79 64h56z" />
<glyph horiz-adv-x="670" d="M369 345v-2c98 -38 191 -240 263 -330v-13h-101c-56 79 -176 317 -280 317h-39v-317h-94v680h173c139 0 216 -77 216 -173c0 -79 -40 -141 -138 -162zM411 498c0 57 -45 103 -119 103h-80v-206h80c62 0 119 29 119 103zM227 740v8l106 124h89v-10l-134 -122h-61z" />
<glyph horiz-adv-x="670" d="M369 345v-2c98 -38 191 -240 263 -330v-13h-101c-56 79 -176 317 -280 317h-39v-317h-94v680h173c139 0 216 -77 216 -173c0 -79 -40 -141 -138 -162zM411 498c0 57 -45 103 -119 103h-80v-206h80c62 0 119 29 119 103zM422 872v-8l-121 -124h-28l-121 124v8h56l79 -64 l79 64h56z" />
<glyph unicode="&#x160;" horiz-adv-x="590" d="M78 48l24 87c47 -37 108 -67 183 -67c92 0 124 49 124 103c0 56 -33 85 -121 137c-133 78 -190 117 -190 209c0 87 67 178 213 178c74 0 141 -29 180 -57l-22 -82c-44 33 -101 57 -156 57c-87 0 -121 -36 -121 -89c0 -46 27 -74 138 -134c128 -69 176 -134 176 -214 c0 -128 -92 -191 -222 -191c-93 0 -173 33 -206 63zM444 872v-8l-121 -124h-28l-121 124v8h56l79 -64l79 64h56z" />
<glyph unicode="&#x15a;" horiz-adv-x="590" d="M78 48l24 87c47 -37 108 -67 183 -67c92 0 124 49 124 103c0 56 -33 85 -121 137c-133 78 -190 117 -190 209c0 87 67 178 213 178c74 0 141 -29 180 -57l-22 -82c-44 33 -101 57 -156 57c-87 0 -121 -36 -121 -89c0 -46 27 -74 138 -134c128 -69 176 -134 176 -214 c0 -128 -92 -191 -222 -191c-93 0 -173 33 -206 63zM249 740v8l106 124h89v-10l-134 -122h-61z" />
<glyph horiz-adv-x="590" d="M78 48l24 87c47 -37 108 -67 183 -67c92 0 124 49 124 103c0 56 -33 85 -121 137c-133 78 -190 117 -190 209c0 87 67 178 213 178c74 0 141 -29 180 -57l-22 -82c-44 33 -101 57 -156 57c-87 0 -121 -36 -121 -89c0 -46 27 -74 138 -134c128 -69 176 -134 176 -214 c0 -128 -92 -191 -222 -191c-93 0 -173 33 -206 63zM280 740v8l56 124h78v-10l-84 -122h-50z" />
<glyph unicode="&#x15e;" horiz-adv-x="590" d="M241 -224l-8 39c56 6 93 26 93 53c0 23 -31 32 -77 32c-8 0 -23 -1 -30 -2l-5 7l41 81c-81 6 -148 35 -177 62l24 87c47 -37 108 -67 183 -67c92 0 124 49 124 103c0 56 -33 85 -121 137c-133 78 -190 117 -190 209c0 87 67 178 213 178c74 0 141 -29 180 -57l-22 -82 c-44 33 -101 57 -156 57c-87 0 -121 -36 -121 -89c0 -46 27 -74 138 -134c128 -69 176 -134 176 -214c0 -120 -81 -183 -199 -190l-23 -46c57 0 100 -21 100 -64c0 -52 -63 -88 -143 -100z" />
<glyph unicode="&#x218;" horiz-adv-x="590" d="M78 48l24 87c47 -37 108 -67 183 -67c92 0 124 49 124 103c0 56 -33 85 -121 137c-133 78 -190 117 -190 209c0 87 67 178 213 178c74 0 141 -29 180 -57l-22 -82c-44 33 -101 57 -156 57c-87 0 -121 -36 -121 -89c0 -46 27 -74 138 -134c128 -69 176 -134 176 -214 c0 -128 -92 -191 -222 -191c-93 0 -173 33 -206 63zM222 -236v5l45 164h81v-5l-72 -164h-54z" />
<glyph unicode="&#x164;" horiz-adv-x="630" d="M582 598h-220v-598h-94v598h-220v82h534v-82zM450 872v-8l-121 -124h-28l-121 124v8h56l79 -64l79 64h56z" />
<glyph unicode="&#x162;" horiz-adv-x="630" d="M582 598h-220v-598h-94v598h-220v82h534v-82zM244 -236v5l45 164h81v-5l-72 -164h-54z" />
<glyph unicode="&#x21a;" horiz-adv-x="630" d="M582 598h-220v-598h-94v598h-220v82h534v-82zM244 -236v5l45 164h81v-5l-72 -164h-54z" />
<glyph unicode="&#xda;" horiz-adv-x="770" d="M652 680v-438c0 -131 -83 -257 -267 -257c-209 0 -267 127 -267 252v443h94v-426c0 -133 69 -186 173 -186c101 0 173 51 173 186v426h94zM326 730v8l106 124h89v-10l-134 -122h-61z" />
<glyph unicode="&#xd9;" horiz-adv-x="770" d="M652 680v-438c0 -131 -83 -257 -267 -257c-209 0 -267 127 -267 252v443h94v-426c0 -133 69 -186 173 -186c101 0 173 51 173 186v426h94zM446 738v-8h-61l-134 122v10h89z" />
<glyph unicode="&#xdb;" horiz-adv-x="770" d="M652 680v-438c0 -131 -83 -257 -267 -257c-209 0 -267 127 -267 252v443h94v-426c0 -133 69 -186 173 -186c101 0 173 51 173 186v426h94zM521 738v-8h-56l-79 64l-79 -64h-56v8l121 124h28z" />
<glyph unicode="&#xdc;" horiz-adv-x="770" d="M652 680v-438c0 -131 -83 -257 -267 -257c-209 0 -267 127 -267 252v443h94v-426c0 -133 69 -186 173 -186c101 0 173 51 173 186v426h94zM259 779c0 27 22 49 49 49s49 -22 49 -49s-22 -49 -49 -49s-49 22 -49 49zM415 779c0 27 22 49 49 49s49 -22 49 -49 s-22 -49 -49 -49s-49 22 -49 49z" />
<glyph unicode="&#x16a;" horiz-adv-x="770" d="M652 680v-438c0 -131 -83 -257 -267 -257c-209 0 -267 127 -267 252v443h94v-426c0 -133 69 -186 173 -186c101 0 173 51 173 186v426h94zM508 750h-244v64h244v-64z" />
<glyph unicode="&#x170;" horiz-adv-x="770" d="M652 680v-438c0 -131 -83 -257 -267 -257c-209 0 -267 127 -267 252v443h94v-426c0 -133 69 -186 173 -186c101 0 173 51 173 186v426h94zM257 730v8l106 124h89v-10l-134 -122h-61zM394 730v8l106 124h89v-10l-134 -122h-61z" />
<glyph unicode="&#x16e;" horiz-adv-x="770" d="M652 680v-438c0 -131 -83 -257 -267 -257c-209 0 -267 127 -267 252v443h94v-426c0 -133 69 -186 173 -186c101 0 173 51 173 186v426h94zM292 799c0 52 42 94 94 94s94 -42 94 -94s-42 -94 -94 -94s-94 42 -94 94zM338 798c0 -29 18 -51 47 -51s48 22 48 51 s-19 53 -48 53s-47 -24 -47 -53z" />
<glyph unicode="&#x172;" horiz-adv-x="770" d="M652 680v-438c0 -93 -41 -183 -131 -228c-48 -35 -75 -77 -75 -116c0 -24 18 -36 35 -36c13 0 22 2 31 5v-60c-13 -5 -28 -6 -45 -6c-41 0 -91 22 -91 78c0 38 24 78 57 109c-15 -2 -31 -3 -48 -3c-209 0 -267 127 -267 252v443h94v-426c0 -133 69 -186 173 -186 c101 0 173 51 173 186v426h94z" />
<glyph unicode="&#x1e82;" horiz-adv-x="970" d="M491 439h-8l-145 -454h-30l-250 695h101l162 -464h8l143 474h26l149 -474h8l156 464h101l-250 -695h-30zM425 740v8l106 124h89v-10l-134 -122h-61z" />
<glyph unicode="&#x174;" horiz-adv-x="970" d="M491 439h-8l-145 -454h-30l-250 695h101l162 -464h8l143 474h26l149 -474h8l156 464h101l-250 -695h-30zM620 748v-8h-56l-79 64l-79 -64h-56v8l121 124h28z" />
<glyph unicode="&#x1e84;" horiz-adv-x="970" d="M491 439h-8l-145 -454h-30l-250 695h101l162 -464h8l143 474h26l149 -474h8l156 464h101l-250 -695h-30zM358 789c0 27 22 49 49 49s49 -22 49 -49s-22 -49 -49 -49s-49 22 -49 49zM514 789c0 27 22 49 49 49s49 -22 49 -49s-22 -49 -49 -49s-49 22 -49 49z" />
<glyph unicode="&#x1e80;" horiz-adv-x="970" d="M491 439h-8l-145 -454h-30l-250 695h101l162 -464h8l143 474h26l149 -474h8l156 464h101l-250 -695h-30zM545 748v-8h-61l-134 122v10h89z" />
<glyph horiz-adv-x="970" d="M419 680l67 -181l65 181h101l-117 -285l79 -195h10l187 480h101l-287 -695h-20l-121 307l-119 -307h-20l-287 695h101l195 -480h10l73 190l-119 290h101zM425 740v8l106 124h89v-10l-134 -122h-61z" />
<glyph horiz-adv-x="970" d="M419 680l67 -181l65 181h101l-117 -285l79 -195h10l187 480h101l-287 -695h-20l-121 307l-119 -307h-20l-287 695h101l195 -480h10l73 190l-119 290h101zM620 748v-8h-56l-79 64l-79 -64h-56v8l121 124h28z" />
<glyph horiz-adv-x="970" d="M419 680l67 -181l65 181h101l-117 -285l79 -195h10l187 480h101l-287 -695h-20l-121 307l-119 -307h-20l-287 695h101l195 -480h10l73 190l-119 290h101zM358 789c0 27 22 49 49 49s49 -22 49 -49s-22 -49 -49 -49s-49 22 -49 49zM514 789c0 27 22 49 49 49 s49 -22 49 -49s-22 -49 -49 -49s-49 22 -49 49z" />
<glyph horiz-adv-x="970" d="M419 680l67 -181l65 181h101l-117 -285l79 -195h10l187 480h101l-287 -695h-20l-121 307l-119 -307h-20l-287 695h101l195 -480h10l73 190l-119 290h101zM545 748v-8h-61l-134 122v10h89z" />
<glyph unicode="&#xdd;" horiz-adv-x="670" d="M152 680l181 -286h8l177 286h104l-240 -377v-303h-94v303l-240 377h104zM276 730v8l106 124h89v-10l-134 -122h-61z" />
<glyph unicode="&#x178;" horiz-adv-x="670" d="M152 680l181 -286h8l177 286h104l-240 -377v-303h-94v303l-240 377h104zM209 779c0 27 22 49 49 49s49 -22 49 -49s-22 -49 -49 -49s-49 22 -49 49zM365 779c0 27 22 49 49 49s49 -22 49 -49s-22 -49 -49 -49s-49 22 -49 49z" />
<glyph unicode="&#x176;" horiz-adv-x="670" d="M152 680l181 -286h8l177 286h104l-240 -377v-303h-94v303l-240 377h104zM471 738v-8h-56l-79 64l-79 -64h-56v8l121 124h28z" />
<glyph unicode="&#x1ef2;" horiz-adv-x="670" d="M152 680l181 -286h8l177 286h104l-240 -377v-303h-94v303l-240 377h104zM396 738v-8h-61l-134 122v10h89z" />
<glyph unicode="&#x17d;" horiz-adv-x="690" d="M223 88l5 -6h389v-82h-547l-6 10l409 582l-5 6h-365v82h528l5 -5zM504 872v-8l-121 -124h-28l-121 124v8h56l79 -64l79 64h56z" />
<glyph unicode="&#x179;" horiz-adv-x="690" d="M223 88l5 -6h389v-82h-547l-6 10l409 582l-5 6h-365v82h528l5 -5zM309 740v8l106 124h89v-10l-134 -122h-61z" />
<glyph horiz-adv-x="690" d="M223 88l5 -6h389v-82h-547l-6 10l409 582l-5 6h-365v82h528l5 -5zM340 740v8l56 124h78v-10l-84 -122h-50z" />
<glyph unicode="&#x17b;" horiz-adv-x="690" d="M223 88l5 -6h389v-82h-547l-6 10l409 582l-5 6h-365v82h528l5 -5zM310 805c0 33 27 60 60 60s60 -27 60 -60s-27 -60 -60 -60s-60 27 -60 60z" />
<glyph unicode="&#xe1;" horiz-adv-x="570" d="M437 0l-49 108h-207l-47 -108h-96l236 505h20l238 -505h-95zM280 335l-66 -150h140l-67 150h-7zM230 550v8l96 164h84v-10l-119 -162h-61z" />
<glyph unicode="&#xe0;" horiz-adv-x="570" d="M437 0l-49 108h-207l-47 -108h-96l236 505h20l238 -505h-95zM280 335l-66 -150h140l-67 150h-7zM340 558v-8h-61l-119 162v10h84z" />
<glyph unicode="&#xe2;" horiz-adv-x="570" d="M437 0l-49 108h-207l-47 -108h-96l236 505h20l238 -505h-95zM280 335l-66 -150h140l-67 150h-7zM420 558v-8h-56l-79 94l-79 -94h-56v8l121 164h28z" />
<glyph unicode="&#xe4;" horiz-adv-x="570" d="M437 0l-49 108h-207l-47 -108h-96l236 505h20l238 -505h-95zM280 335l-66 -150h140l-67 150h-7zM158 609c0 27 22 49 49 49s49 -22 49 -49s-22 -49 -49 -49s-49 22 -49 49zM314 609c0 27 22 49 49 49s49 -22 49 -49s-22 -49 -49 -49s-49 22 -49 49z" />
<glyph unicode="&#xe3;" horiz-adv-x="570" d="M437 0l-49 108h-207l-47 -108h-96l236 505h20l238 -505h-95zM280 335l-66 -150h140l-67 150h-7zM371 685h52c0 -62 -33 -120 -83 -120c-53 0 -72 63 -104 63c-25 0 -40 -27 -40 -61h-50c0 77 39 120 84 120c52 0 74 -64 106 -64c23 0 35 30 35 62z" />
<glyph unicode="&#xe5;" horiz-adv-x="570" d="M437 0l-49 108h-207l-47 -108h-96l236 505h20l238 -505h-95zM280 335l-66 -150h140l-67 150h-7zM191 629c0 52 42 94 94 94s94 -42 94 -94s-42 -94 -94 -94s-94 42 -94 94zM237 628c0 -29 18 -51 47 -51s48 22 48 51s-19 53 -48 53s-47 -24 -47 -53z" />
<glyph unicode="&#x103;" horiz-adv-x="570" d="M437 0l-49 108h-207l-47 -108h-96l236 505h20l238 -505h-95zM280 335l-66 -150h140l-67 150h-7zM284 555c-67 0 -129 45 -129 147h52c0 -44 30 -88 78 -88c42 0 78 37 78 88h52c0 -101 -64 -147 -131 -147z" />
<glyph unicode="&#x101;" horiz-adv-x="570" d="M437 0l-49 108h-207l-47 -108h-96l236 505h20l238 -505h-95zM280 335l-66 -150h140l-67 150h-7zM407 580h-244v64h244v-64z" />
<glyph unicode="&#x105;" horiz-adv-x="570" d="M532 0h-41c-37 -32 -57 -68 -57 -102c0 -24 18 -36 35 -36c13 0 22 2 31 5v-60c-13 -5 -28 -6 -45 -6c-41 0 -91 22 -91 78c0 44 31 90 72 122l-48 107h-207l-47 -108h-96l236 505h20zM280 335l-66 -150h140l-67 150h-7z" />
<glyph unicode="&#xe7;" horiz-adv-x="570" d="M271 -224l-8 39c56 6 93 26 93 53c0 23 -31 32 -77 32c-8 0 -23 -1 -30 -2l-5 7l44 88c-138 16 -230 122 -230 251c0 167 131 266 270 266c77 0 143 -29 176 -53l-30 -78c-22 15 -72 49 -148 48c-86 -1 -175 -54 -175 -181c0 -101 75 -173 177 -173c61 0 115 28 147 53 l35 -75c-42 -31 -105 -57 -170 -60l-26 -51c57 0 100 -21 100 -64c0 -52 -63 -88 -143 -100z" />
<glyph unicode="&#x107;" horiz-adv-x="570" d="M504 457l-30 -78c-22 15 -72 49 -148 48c-86 -1 -175 -54 -175 -181c0 -101 75 -173 177 -173c61 0 115 28 147 53l35 -75c-45 -33 -114 -61 -184 -61c-158 0 -268 114 -268 254c0 167 131 266 270 266c77 0 143 -29 176 -53zM258 550v8l96 164h84v-10l-119 -162h-61z " />
<glyph horiz-adv-x="570" d="M504 457l-30 -78c-22 15 -72 49 -148 48c-86 -1 -175 -54 -175 -181c0 -101 75 -173 177 -173c61 0 115 28 147 53l35 -75c-45 -33 -114 -61 -184 -61c-158 0 -268 114 -268 254c0 167 131 266 270 266c77 0 143 -29 176 -53zM279 550v8l46 164h82v-10l-69 -162h-59z" />
<glyph unicode="&#x10d;" horiz-adv-x="570" d="M504 457l-30 -78c-22 15 -72 49 -148 48c-86 -1 -175 -54 -175 -181c0 -101 75 -173 177 -173c61 0 115 28 147 53l35 -75c-45 -33 -114 -61 -184 -61c-158 0 -268 114 -268 254c0 167 131 266 270 266c77 0 143 -29 176 -53zM448 722v-8l-121 -164h-28l-121 164v8h56 l79 -94l79 94h56z" />
<glyph unicode="&#x10b;" horiz-adv-x="570" d="M504 457l-30 -78c-22 15 -72 49 -148 48c-86 -1 -175 -54 -175 -181c0 -101 75 -173 177 -173c61 0 115 28 147 53l35 -75c-45 -33 -114 -61 -184 -61c-158 0 -268 114 -268 254c0 167 131 266 270 266c77 0 143 -29 176 -53zM254 635c0 33 27 60 60 60s60 -27 60 -60 s-27 -60 -60 -60s-60 27 -60 60z" />
<glyph unicode="&#x10f;" horiz-adv-x="580" d="M185 79h79c103 0 164 66 164 177c0 99 -87 165 -165 165h-78v-342zM260 0h-167v500h166c146 0 263 -100 263 -246c0 -164 -111 -254 -262 -254zM392 722v-8l-121 -164h-28l-121 164v8h56l79 -94l79 94h56z" />
<glyph unicode="&#xe9;" horiz-adv-x="520" d="M428 500v-79h-243v-127h213v-79h-213v-136h253v-79h-345v500h335zM208 550v8l96 164h84v-10l-119 -162h-61z" />
<glyph unicode="&#xe8;" horiz-adv-x="520" d="M428 500v-79h-243v-127h213v-79h-213v-136h253v-79h-345v500h335zM318 558v-8h-61l-119 162v10h84z" />
<glyph unicode="&#xea;" horiz-adv-x="520" d="M428 500v-79h-243v-127h213v-79h-213v-136h253v-79h-345v500h335zM398 558v-8h-56l-79 94l-79 -94h-56v8l121 164h28z" />
<glyph unicode="&#xeb;" horiz-adv-x="520" d="M428 500v-79h-243v-127h213v-79h-213v-136h253v-79h-345v500h335zM136 609c0 27 22 49 49 49s49 -22 49 -49s-22 -49 -49 -49s-49 22 -49 49zM292 609c0 27 22 49 49 49s49 -22 49 -49s-22 -49 -49 -49s-49 22 -49 49z" />
<glyph unicode="&#x113;" horiz-adv-x="520" d="M428 500v-79h-243v-127h213v-79h-213v-136h253v-79h-345v500h335zM385 580h-244v64h244v-64z" />
<glyph unicode="&#x11b;" horiz-adv-x="520" d="M428 500v-79h-243v-127h213v-79h-213v-136h253v-79h-345v500h335zM398 722v-8l-121 -164h-28l-121 164v8h56l79 -94l79 94h56z" />
<glyph unicode="&#x117;" horiz-adv-x="520" d="M428 500v-79h-243v-127h213v-79h-213v-136h253v-79h-345v500h335zM204 635c0 33 27 60 60 60s60 -27 60 -60s-27 -60 -60 -60s-60 27 -60 60z" />
<glyph unicode="&#x119;" horiz-adv-x="520" d="M428 500v-79h-243v-127h213v-79h-213v-136h253v-79h-27c-37 -32 -57 -68 -57 -102c0 -24 18 -36 35 -36c13 0 22 2 31 5v-60c-13 -5 -28 -6 -45 -6c-41 0 -91 22 -91 78c0 43 31 88 71 121h-262v500h335z" />
<glyph horiz-adv-x="520" d="M451 477l-26 -80c-13 10 -56 31 -109 30c-74 -1 -144 -41 -161 -133h213l-7 -79h-208c13 -85 79 -142 165 -142c51 0 85 14 112 33l35 -75c-44 -27 -93 -41 -149 -41c-152 0 -258 114 -258 254c0 167 127 266 260 266c59 0 109 -17 133 -33zM238 550v8l96 164h84v-10 l-119 -162h-61z" />
<glyph horiz-adv-x="520" d="M451 477l-26 -80c-13 10 -56 31 -109 30c-74 -1 -144 -41 -161 -133h213l-7 -79h-208c13 -85 79 -142 165 -142c51 0 85 14 112 33l35 -75c-44 -27 -93 -41 -149 -41c-152 0 -258 114 -258 254c0 167 127 266 260 266c59 0 109 -17 133 -33zM348 558v-8h-61l-119 162v10 h84z" />
<glyph horiz-adv-x="520" d="M451 477l-26 -80c-13 10 -56 31 -109 30c-74 -1 -144 -41 -161 -133h213l-7 -79h-208c13 -85 79 -142 165 -142c51 0 85 14 112 33l35 -75c-44 -27 -93 -41 -149 -41c-152 0 -258 114 -258 254c0 167 127 266 260 266c59 0 109 -17 133 -33zM428 558v-8h-56l-79 94 l-79 -94h-56v8l121 164h28z" />
<glyph horiz-adv-x="520" d="M451 477l-26 -80c-13 10 -56 31 -109 30c-74 -1 -144 -41 -161 -133h213l-7 -79h-208c13 -85 79 -142 165 -142c51 0 85 14 112 33l35 -75c-44 -27 -93 -41 -149 -41c-152 0 -258 114 -258 254c0 167 127 266 260 266c59 0 109 -17 133 -33zM166 609c0 27 22 49 49 49 s49 -22 49 -49s-22 -49 -49 -49s-49 22 -49 49zM322 609c0 27 22 49 49 49s49 -22 49 -49s-22 -49 -49 -49s-49 22 -49 49z" />
<glyph horiz-adv-x="520" d="M451 477l-26 -80c-13 10 -56 31 -109 30c-74 -1 -144 -41 -161 -133h213l-7 -79h-208c13 -85 79 -142 165 -142c51 0 85 14 112 33l35 -75c-44 -27 -93 -41 -149 -41c-152 0 -258 114 -258 254c0 167 127 266 260 266c59 0 109 -17 133 -33zM415 580h-244v64h244v-64z " />
<glyph horiz-adv-x="520" d="M451 477l-26 -80c-13 10 -56 31 -109 30c-74 -1 -144 -41 -161 -133h213l-7 -79h-208c13 -85 79 -142 165 -142c51 0 85 14 112 33l35 -75c-44 -27 -93 -41 -149 -41c-152 0 -258 114 -258 254c0 167 127 266 260 266c59 0 109 -17 133 -33zM428 722v-8l-121 -164h-28 l-121 164v8h56l79 -94l79 94h56z" />
<glyph horiz-adv-x="520" d="M451 477l-26 -80c-13 10 -56 31 -109 30c-74 -1 -144 -41 -161 -133h213l-7 -79h-208c13 -85 79 -142 165 -142c51 0 85 14 112 33l35 -75c-44 -27 -93 -41 -149 -41c-152 0 -258 114 -258 254c0 167 127 266 260 266c59 0 109 -17 133 -33zM234 635c0 33 27 60 60 60 s60 -27 60 -60s-27 -60 -60 -60s-60 27 -60 60z" />
<glyph horiz-adv-x="520" d="M451 477l-26 -80c-13 10 -56 31 -109 30c-74 -1 -144 -41 -161 -133h213l-7 -79h-208c13 -85 79 -142 165 -142c51 0 85 14 112 33l35 -75c-12 -8 -25 -14 -38 -20c-46 -35 -71 -75 -71 -113c0 -24 18 -36 35 -36c13 0 22 2 31 5v-60c-13 -5 -28 -6 -45 -6 c-41 0 -91 22 -91 78c0 39 25 81 60 113c-10 -1 -20 -2 -30 -2c-152 0 -258 114 -258 254c0 167 127 266 260 266c59 0 109 -17 133 -33z" />
<glyph unicode="&#x11f;" horiz-adv-x="610" d="M530 280v-229c-46 -35 -126 -61 -204 -61c-158 0 -268 114 -268 254c0 167 131 266 270 266c75 0 141 -29 173 -53l-27 -83c-21 15 -75 54 -148 53c-86 -1 -175 -54 -175 -181c0 -101 75 -173 177 -173c42 0 82 9 108 26v102h-127v79h221zM328 555 c-67 0 -129 45 -129 147h52c0 -44 30 -88 78 -88c42 0 78 37 78 88h52c0 -101 -64 -147 -131 -147z" />
<glyph unicode="&#x121;" horiz-adv-x="610" d="M530 280v-229c-46 -35 -126 -61 -204 -61c-158 0 -268 114 -268 254c0 167 131 266 270 266c75 0 141 -29 173 -53l-27 -83c-21 15 -75 54 -148 53c-86 -1 -175 -54 -175 -181c0 -101 75 -173 177 -173c42 0 82 9 108 26v102h-127v79h221zM270 635c0 33 27 60 60 60 s60 -27 60 -60s-27 -60 -60 -60s-60 27 -60 60z" />
<glyph unicode="&#x123;" horiz-adv-x="610" d="M530 280v-229c-46 -35 -126 -61 -204 -61c-158 0 -268 114 -268 254c0 167 131 266 270 266c75 0 141 -29 173 -53l-27 -83c-21 15 -75 54 -148 53c-86 -1 -175 -54 -175 -181c0 -101 75 -173 177 -173c42 0 82 9 108 26v102h-127v79h221zM253 -236v5l45 164h81v-5 l-72 -164h-54z" />
<glyph horiz-adv-x="610" d="M309 280h238c17 -163 -50 -290 -231 -290c-148 0 -258 114 -258 254c0 167 131 266 258 266c91 0 154 -27 209 -89l-59 -59c-27 31 -76 66 -151 65s-164 -54 -164 -181c0 -101 75 -173 168 -173c83 0 139 40 137 128h-147v79zM315 555c-67 0 -129 45 -129 147h52 c0 -44 30 -88 78 -88c42 0 78 37 78 88h52c0 -101 -64 -147 -131 -147z" />
<glyph horiz-adv-x="610" d="M309 280h238c17 -163 -50 -290 -231 -290c-148 0 -258 114 -258 254c0 167 131 266 258 266c91 0 154 -27 209 -89l-59 -59c-27 31 -76 66 -151 65s-164 -54 -164 -181c0 -101 75 -173 168 -173c83 0 139 40 137 128h-147v79zM257 635c0 33 27 60 60 60s60 -27 60 -60 s-27 -60 -60 -60s-60 27 -60 60z" />
<glyph horiz-adv-x="610" d="M309 280h238c17 -163 -50 -290 -231 -290c-148 0 -258 114 -258 254c0 167 131 266 258 266c91 0 154 -27 209 -89l-59 -59c-27 31 -76 66 -151 65s-164 -54 -164 -181c0 -101 75 -173 168 -173c83 0 139 40 137 128h-147v79zM244 -236v5l45 164h81v-5l-72 -164h-54z" />
<glyph unicode="&#xed;" horiz-adv-x="310" d="M201 500v-500h-92v500h92zM100 550v8l96 164h84v-10l-119 -162h-61z" />
<glyph unicode="&#xec;" horiz-adv-x="310" d="M201 500v-500h-92v500h92zM210 558v-8h-61l-119 162v10h84z" />
<glyph unicode="&#xee;" horiz-adv-x="310" d="M201 500v-500h-92v500h92zM290 558v-8h-56l-79 94l-79 -94h-56v8l121 164h28z" />
<glyph unicode="&#xef;" horiz-adv-x="310" d="M201 500v-500h-92v500h92zM28 609c0 27 22 49 49 49s49 -22 49 -49s-22 -49 -49 -49s-49 22 -49 49zM184 609c0 27 22 49 49 49s49 -22 49 -49s-22 -49 -49 -49s-49 22 -49 49z" />
<glyph unicode="&#x12b;" horiz-adv-x="310" d="M201 500v-500h-92v500h92zM277 580h-244v64h244v-64z" />
<glyph horiz-adv-x="310" d="M201 500v-500h-92v500h92zM96 635c0 33 27 60 60 60s60 -27 60 -60s-27 -60 -60 -60s-60 27 -60 60z" />
<glyph unicode="&#x12f;" horiz-adv-x="310" d="M201 500v-500h-36c-37 -32 -57 -68 -57 -102c0 -24 18 -36 35 -36c13 0 22 2 31 5v-60c-13 -5 -28 -6 -45 -6c-41 0 -91 22 -91 78c0 43 31 88 71 121v500h92z" />
<glyph unicode="&#x137;" horiz-adv-x="560" d="M213 208l-28 -30v-178h-92v500h92v-226h4l215 226h107v-5l-227 -237l243 -253v-5h-118zM212 -236v5l45 164h81v-5l-72 -164h-54z" />
<glyph unicode="&#x13a;" horiz-adv-x="460" d="M185 500v-421h222v-79h-314v500h92zM86 560v8l106 124h89v-10l-134 -122h-61z" />
<glyph unicode="&#x13c;" horiz-adv-x="460" d="M185 500v-421h222v-79h-314v500h92zM178 -236v5l45 164h81v-5l-72 -164h-54z" />
<glyph unicode="&#xf1;" horiz-adv-x="650" d="M123 505l334 -330h8v325h92v-505h-30l-334 329h-8v-324h-92v505h30zM411 685h52c0 -62 -33 -120 -83 -120c-53 0 -72 63 -104 63c-25 0 -40 -27 -40 -61h-50c0 77 39 120 84 120c52 0 74 -64 106 -64c23 0 35 30 35 62z" />
<glyph unicode="&#x144;" horiz-adv-x="650" d="M123 505l334 -330h8v325h92v-505h-30l-334 329h-8v-324h-92v505h30zM270 550v8l96 164h84v-10l-119 -162h-61z" />
<glyph horiz-adv-x="650" d="M123 505l334 -330h8v325h92v-505h-30l-334 329h-8v-324h-92v505h30zM291 550v8l46 164h82v-10l-69 -162h-59z" />
<glyph unicode="&#x148;" horiz-adv-x="650" d="M123 505l334 -330h8v325h92v-505h-30l-334 329h-8v-324h-92v505h30zM460 722v-8l-121 -164h-28l-121 164v8h56l79 -94l79 94h56z" />
<glyph unicode="&#x146;" horiz-adv-x="650" d="M123 505l334 -330h8v325h92v-505h-30l-334 329h-8v-324h-92v505h30zM266 -236v5l45 164h81v-5l-72 -164h-54z" />
<glyph unicode="&#xf3;" horiz-adv-x="650" d="M592 244c0 -133 -112 -254 -266 -254c-151 0 -268 111 -268 254c0 161 127 266 268 266c138 0 266 -102 266 -266zM498 246c0 107 -78 181 -173 181c-90 0 -173 -64 -173 -181c0 -89 63 -173 176 -173c103 0 170 84 170 173zM270 550v8l96 164h84v-10l-119 -162h-61z" />
<glyph horiz-adv-x="650" d="M592 244c0 -133 -112 -254 -266 -254c-151 0 -268 111 -268 254c0 161 127 266 268 266c138 0 266 -102 266 -266zM498 246c0 107 -78 181 -173 181c-90 0 -173 -64 -173 -181c0 -89 63 -173 176 -173c103 0 170 84 170 173zM291 550v8l46 164h82v-10l-69 -162h-59z" />
<glyph unicode="&#xf2;" horiz-adv-x="650" d="M592 244c0 -133 -112 -254 -266 -254c-151 0 -268 111 -268 254c0 161 127 266 268 266c138 0 266 -102 266 -266zM498 246c0 107 -78 181 -173 181c-90 0 -173 -64 -173 -181c0 -89 63 -173 176 -173c103 0 170 84 170 173zM380 558v-8h-61l-119 162v10h84z" />
<glyph unicode="&#xf4;" horiz-adv-x="650" d="M592 244c0 -133 -112 -254 -266 -254c-151 0 -268 111 -268 254c0 161 127 266 268 266c138 0 266 -102 266 -266zM498 246c0 107 -78 181 -173 181c-90 0 -173 -64 -173 -181c0 -89 63 -173 176 -173c103 0 170 84 170 173zM460 558v-8h-56l-79 94l-79 -94h-56v8 l121 164h28z" />
<glyph unicode="&#xf6;" horiz-adv-x="650" d="M592 244c0 -133 -112 -254 -266 -254c-151 0 -268 111 -268 254c0 161 127 266 268 266c138 0 266 -102 266 -266zM498 246c0 107 -78 181 -173 181c-90 0 -173 -64 -173 -181c0 -89 63 -173 176 -173c103 0 170 84 170 173zM198 609c0 27 22 49 49 49s49 -22 49 -49 s-22 -49 -49 -49s-49 22 -49 49zM354 609c0 27 22 49 49 49s49 -22 49 -49s-22 -49 -49 -49s-49 22 -49 49z" />
<glyph unicode="&#xf5;" horiz-adv-x="650" d="M592 244c0 -133 -112 -254 -266 -254c-151 0 -268 111 -268 254c0 161 127 266 268 266c138 0 266 -102 266 -266zM498 246c0 107 -78 181 -173 181c-90 0 -173 -64 -173 -181c0 -89 63 -173 176 -173c103 0 170 84 170 173zM411 685h52c0 -62 -33 -120 -83 -120 c-53 0 -72 63 -104 63c-25 0 -40 -27 -40 -61h-50c0 77 39 120 84 120c52 0 74 -64 106 -64c23 0 35 30 35 62z" />
<glyph unicode="&#x14d;" horiz-adv-x="650" d="M592 244c0 -133 -112 -254 -266 -254c-151 0 -268 111 -268 254c0 161 127 266 268 266c138 0 266 -102 266 -266zM498 246c0 107 -78 181 -173 181c-90 0 -173 -64 -173 -181c0 -89 63 -173 176 -173c103 0 170 84 170 173zM447 580h-244v64h244v-64z" />
<glyph unicode="&#x151;" horiz-adv-x="650" d="M592 244c0 -133 -112 -254 -266 -254c-151 0 -268 111 -268 254c0 161 127 266 268 266c138 0 266 -102 266 -266zM498 246c0 107 -78 181 -173 181c-90 0 -173 -64 -173 -181c0 -89 63 -173 176 -173c103 0 170 84 170 173zM340 550v8l86 164h94v-10l-134 -162h-46z M210 550v8l86 164h94v-10l-134 -162h-46z" />
<glyph unicode="&#x155;" horiz-adv-x="560" d="M462 347c0 -77 -42 -129 -118 -146l163 -188v-13h-104l-160 192h-58v-192h-92v500h193c103 0 176 -62 176 -153zM368 348c0 53 -36 78 -86 78h-97v-161h95c55 0 88 30 88 83zM200 550v8l96 164h84v-10l-119 -162h-61z" />
<glyph unicode="&#x159;" horiz-adv-x="560" d="M462 347c0 -77 -42 -129 -118 -146l163 -188v-13h-104l-160 192h-58v-192h-92v500h193c103 0 176 -62 176 -153zM368 348c0 53 -36 78 -86 78h-97v-161h95c55 0 88 30 88 83zM390 722v-8l-121 -164h-28l-121 164v8h56l79 -94l79 94h56z" />
<glyph horiz-adv-x="540" d="M331 241v-5c70 -21 138 -171 181 -231v-5h-104c-25 43 -100 212 -200 212h-23v-212h-92v500h178c94 0 161 -55 161 -136c0 -65 -38 -111 -101 -123zM338 354c0 46 -32 70 -76 70h-77v-140h85c36 0 68 23 68 70zM194 550v8l96 164h84v-10l-119 -162h-61z" />
<glyph horiz-adv-x="540" d="M331 241v-5c70 -21 138 -171 181 -231v-5h-104c-25 43 -100 212 -200 212h-23v-212h-92v500h178c94 0 161 -55 161 -136c0 -65 -38 -111 -101 -123zM338 354c0 46 -32 70 -76 70h-77v-140h85c36 0 68 23 68 70zM384 722v-8l-121 -164h-28l-121 164v8h56l79 -94l79 94h56z " />
<glyph unicode="&#x161;" horiz-adv-x="520" d="M68 43l24 81c42 -28 93 -54 158 -54c70 0 104 29 104 61c0 40 -37 64 -121 97c-102 40 -145 78 -145 144c0 68 57 138 176 138c76 0 133 -24 167 -47l-23 -77c-39 27 -93 45 -143 45c-59 0 -88 -23 -88 -52c0 -33 22 -51 122 -93c105 -44 147 -92 147 -159 c0 -92 -82 -137 -197 -137c-83 0 -153 27 -181 53zM401 722v-8l-121 -164h-28l-121 164v8h56l79 -94l79 94h56z" />
<glyph unicode="&#x15b;" horiz-adv-x="520" d="M68 43l24 81c42 -28 93 -54 158 -54c70 0 104 29 104 61c0 40 -37 64 -121 97c-102 40 -145 78 -145 144c0 68 57 138 176 138c76 0 133 -24 167 -47l-23 -77c-39 27 -93 45 -143 45c-59 0 -88 -23 -88 -52c0 -33 22 -51 122 -93c105 -44 147 -92 147 -159 c0 -92 -82 -137 -197 -137c-83 0 -153 27 -181 53zM211 550v8l96 164h84v-10l-119 -162h-61z" />
<glyph horiz-adv-x="520" d="M68 43l24 81c42 -28 93 -54 158 -54c70 0 104 29 104 61c0 40 -37 64 -121 97c-102 40 -145 78 -145 144c0 68 57 138 176 138c76 0 133 -24 167 -47l-23 -77c-39 27 -93 45 -143 45c-59 0 -88 -23 -88 -52c0 -33 22 -51 122 -93c105 -44 147 -92 147 -159 c0 -92 -82 -137 -197 -137c-83 0 -153 27 -181 53zM232 550v8l46 164h82v-10l-69 -162h-59z" />
<glyph unicode="&#x15f;" horiz-adv-x="520" d="M204 -224l-8 39c56 6 93 26 93 53c0 23 -31 32 -77 32c-8 0 -23 -1 -30 -2l-5 7l43 86c-70 5 -128 29 -152 52l24 81c42 -28 93 -54 158 -54c70 0 104 29 104 61c0 40 -37 64 -121 97c-102 40 -145 78 -145 144c0 68 57 138 176 138c76 0 133 -24 167 -47l-23 -77 c-39 27 -93 45 -143 45c-59 0 -88 -23 -88 -52c0 -33 22 -51 122 -93c105 -44 147 -92 147 -159c0 -86 -71 -130 -173 -136l-26 -51c57 0 100 -21 100 -64c0 -52 -63 -88 -143 -100z" />
<glyph unicode="&#x219;" horiz-adv-x="520" d="M68 43l24 81c42 -28 93 -54 158 -54c70 0 104 29 104 61c0 40 -37 64 -121 97c-102 40 -145 78 -145 144c0 68 57 138 176 138c76 0 133 -24 167 -47l-23 -77c-39 27 -93 45 -143 45c-59 0 -88 -23 -88 -52c0 -33 22 -51 122 -93c105 -44 147 -92 147 -159 c0 -92 -82 -137 -197 -137c-83 0 -153 27 -181 53zM185 -236v5l45 164h81v-5l-72 -164h-54z" />
<glyph unicode="&#x165;" horiz-adv-x="550" d="M492 421h-172v-421h-92v421h-170v79h434v-79zM410 722v-8l-121 -164h-28l-121 164v8h56l79 -94l79 94h56z" />
<glyph unicode="&#x163;" horiz-adv-x="550" d="M492 421h-172v-421h-92v421h-170v79h434v-79zM203 -236v5l45 164h81v-5l-72 -164h-54z" />
<glyph unicode="&#x21b;" horiz-adv-x="550" d="M492 421h-172v-421h-92v421h-170v79h434v-79zM203 -236v5l45 164h81v-5l-72 -164h-54z" />
<glyph unicode="&#xfa;" horiz-adv-x="630" d="M537 500v-283c0 -114 -68 -227 -222 -227c-173 0 -222 111 -222 222v288h92v-271c0 -112 53 -156 130 -156c74 0 131 45 130 156v271h92zM260 550v8l96 164h84v-10l-119 -162h-61z" />
<glyph unicode="&#xf9;" horiz-adv-x="630" d="M537 500v-283c0 -114 -68 -227 -222 -227c-173 0 -222 111 -222 222v288h92v-271c0 -112 53 -156 130 -156c74 0 131 45 130 156v271h92zM370 558v-8h-61l-119 162v10h84z" />
<glyph unicode="&#xfb;" horiz-adv-x="630" d="M537 500v-283c0 -114 -68 -227 -222 -227c-173 0 -222 111 -222 222v288h92v-271c0 -112 53 -156 130 -156c74 0 131 45 130 156v271h92zM450 558v-8h-56l-79 94l-79 -94h-56v8l121 164h28z" />
<glyph unicode="&#xfc;" horiz-adv-x="630" d="M537 500v-283c0 -114 -68 -227 -222 -227c-173 0 -222 111 -222 222v288h92v-271c0 -112 53 -156 130 -156c74 0 131 45 130 156v271h92zM188 609c0 27 22 49 49 49s49 -22 49 -49s-22 -49 -49 -49s-49 22 -49 49zM344 609c0 27 22 49 49 49s49 -22 49 -49 s-22 -49 -49 -49s-49 22 -49 49z" />
<glyph unicode="&#x16b;" horiz-adv-x="630" d="M537 500v-283c0 -114 -68 -227 -222 -227c-173 0 -222 111 -222 222v288h92v-271c0 -112 53 -156 130 -156c74 0 131 45 130 156v271h92zM437 580h-244v64h244v-64z" />
<glyph unicode="&#x171;" horiz-adv-x="630" d="M537 500v-283c0 -114 -68 -227 -222 -227c-173 0 -222 111 -222 222v288h92v-271c0 -112 53 -156 130 -156c74 0 131 45 130 156v271h92zM330 550v8l86 164h94v-10l-134 -162h-46zM200 550v8l86 164h94v-10l-134 -162h-46z" />
<glyph unicode="&#x16f;" horiz-adv-x="630" d="M537 500v-283c0 -114 -68 -227 -222 -227c-173 0 -222 111 -222 222v288h92v-271c0 -112 53 -156 130 -156c74 0 131 45 130 156v271h92zM221 629c0 52 42 94 94 94s94 -42 94 -94s-42 -94 -94 -94s-94 42 -94 94zM267 628c0 -29 18 -51 47 -51s48 22 48 51 s-19 53 -48 53s-47 -24 -47 -53z" />
<glyph unicode="&#x173;" horiz-adv-x="630" d="M537 500v-283c0 -84 -37 -167 -117 -205c-46 -35 -72 -76 -72 -114c0 -24 18 -36 35 -36c13 0 22 2 31 5v-60c-13 -5 -28 -6 -45 -6c-41 0 -91 22 -91 78c0 39 25 80 60 112c-7 0 -15 -1 -23 -1c-173 0 -222 111 -222 222v288h92v-271c0 -112 53 -156 130 -156 c74 0 131 45 130 156v271h92z" />
<glyph unicode="&#x1e83;" d="M401 297h-8l-116 -302h-26l-213 505h98l128 -312h4l114 317h26l120 -317h4l122 312h98l-213 -505h-26zM340 550v8l96 164h84v-10l-119 -162h-61z" />
<glyph unicode="&#x175;" d="M401 297h-8l-116 -302h-26l-213 505h98l128 -312h4l114 317h26l120 -317h4l122 312h98l-213 -505h-26zM530 558v-8h-56l-79 94l-79 -94h-56v8l121 164h28z" />
<glyph unicode="&#x1e85;" d="M401 297h-8l-116 -302h-26l-213 505h98l128 -312h4l114 317h26l120 -317h4l122 312h98l-213 -505h-26zM268 609c0 27 22 49 49 49s49 -22 49 -49s-22 -49 -49 -49s-49 22 -49 49zM424 609c0 27 22 49 49 49s49 -22 49 -49s-22 -49 -49 -49s-49 22 -49 49z" />
<glyph unicode="&#x1e81;" d="M401 297h-8l-116 -302h-26l-213 505h98l128 -312h4l114 317h26l120 -317h4l122 312h98l-213 -505h-26zM450 558v-8h-61l-119 162v10h84z" />
<glyph horiz-adv-x="780" d="M344 500l48 -114l44 114h96l-95 -201l58 -123h4l145 324h98l-240 -505h-16l-96 215l-96 -215h-16l-240 505h98l153 -324h4l52 117l-97 207h96zM335 550v8l96 164h84v-10l-119 -162h-61z" />
<glyph horiz-adv-x="780" d="M344 500l48 -114l44 114h96l-95 -201l58 -123h4l145 324h98l-240 -505h-16l-96 215l-96 -215h-16l-240 505h98l153 -324h4l52 117l-97 207h96zM525 558v-8h-56l-79 94l-79 -94h-56v8l121 164h28z" />
<glyph horiz-adv-x="780" d="M344 500l48 -114l44 114h96l-95 -201l58 -123h4l145 324h98l-240 -505h-16l-96 215l-96 -215h-16l-240 505h98l153 -324h4l52 117l-97 207h96zM263 609c0 27 22 49 49 49s49 -22 49 -49s-22 -49 -49 -49s-49 22 -49 49zM419 609c0 27 22 49 49 49s49 -22 49 -49 s-22 -49 -49 -49s-49 22 -49 49z" />
<glyph horiz-adv-x="780" d="M344 500l48 -114l44 114h96l-95 -201l58 -123h4l145 324h98l-240 -505h-16l-96 215l-96 -215h-16l-240 505h98l153 -324h4l52 117l-97 207h96zM445 558v-8h-61l-119 162v10h84z" />
<glyph unicode="&#xfd;" horiz-adv-x="530" d="M126 500l138 -215h4l136 215h98l-191 -297v-203h-92v203l-191 297h98zM210 550v8l96 164h84v-10l-119 -162h-61z" />
<glyph unicode="&#xff;" horiz-adv-x="530" d="M126 500l138 -215h4l136 215h98l-191 -297v-203h-92v203l-191 297h98zM138 609c0 27 22 49 49 49s49 -22 49 -49s-22 -49 -49 -49s-49 22 -49 49zM294 609c0 27 22 49 49 49s49 -22 49 -49s-22 -49 -49 -49s-49 22 -49 49z" />
<glyph unicode="&#x177;" horiz-adv-x="530" d="M126 500l138 -215h4l136 215h98l-191 -297v-203h-92v203l-191 297h98zM400 558v-8h-56l-79 94l-79 -94h-56v8l121 164h28z" />
<glyph unicode="&#x1ef3;" horiz-adv-x="530" d="M126 500l138 -215h4l136 215h98l-191 -297v-203h-92v203l-191 297h98zM320 558v-8h-61l-119 162v10h84z" />
<glyph unicode="&#x17e;" horiz-adv-x="560" d="M211 83l3 -4h286v-79h-438l-6 10l289 406l-3 5h-265v79h422l5 -5zM425 722v-8l-121 -164h-28l-121 164v8h56l79 -94l79 94h56z" />
<glyph unicode="&#x17a;" horiz-adv-x="560" d="M211 83l3 -4h286v-79h-438l-6 10l289 406l-3 5h-265v79h422l5 -5zM235 550v8l96 164h84v-10l-119 -162h-61z" />
<glyph horiz-adv-x="560" d="M211 83l3 -4h286v-79h-438l-6 10l289 406l-3 5h-265v79h422l5 -5zM256 550v8l46 164h82v-10l-69 -162h-59z" />
<glyph unicode="&#x17c;" horiz-adv-x="560" d="M211 83l3 -4h286v-79h-438l-6 10l289 406l-3 5h-265v79h422l5 -5zM231 635c0 33 27 60 60 60s60 -27 60 -60s-27 -60 -60 -60s-60 27 -60 60z" />
</font>
</defs>
</svg>
